<svg xmlns="http://www.w3.org/2000/svg" viewBox="0 0 1200 600"><defs><linearGradient id="linear-gradient" x1="571.83" y1="136.62" x2="660.83" y2="652.81" gradientUnits="userSpaceOnUse"><stop offset="0" stop-color="#fff"/><stop offset=".25" stop-color="#f6fbfd"/><stop offset=".66" stop-color="#dceef6"/><stop offset="1" stop-color="#c2e2ef"/></linearGradient><clipPath id="clip-path"><path fill="none" d="M100.26 193.29H322v221.74H100.26z"/></clipPath><style>.cls-10{fill:none}.cls-4{fill:#712d8d}.cls-5{fill:#ae7ec1}.cls-6{fill:#efe0ef}.cls-7{fill:#fff}.cls-8{fill:#9251a8}.cls-9{fill:#a874bb}.cls-10{stroke:#712d8d;stroke-miterlimit:10}.cls-12{fill:#e535ab}.cls-15{fill:#ffdda8}.cls-20{fill:#faab18}.cls-23{fill:#40bd0f}.cls-24{fill:#b17549}.cls-27{fill:#524538}.cls-29{fill:#4d4d4d}</style></defs><path fill="url(#linear-gradient)" d="M0 0h1200v600H0z" id="Layer_2" data-name="Layer 2"/><g id="Layer_1" data-name="Layer 1"><g id="layer1"><g id="g4493"><g clip-path="url(#clip-path)" id="g4495"><g id="g4497"><g id="g4503"><path id="path4505" class="cls-4" d="M218.27 283.91l.52.1.68-.13 2.87 2.36-.54-2.82 22.73-4.51-19.53-1.42a12.9 12.9 0 00.1-3.2h.14l-.17-.31a8.79 8.79 0 00-.89-2.89 6.86 6.86 0 00-3.88-3.41l-.37-.1h-.47c-3.9 0-5.84 3.64-6 7-.38 8.14 4.26 9.25 4.79 9.34"/></g><g id="g4507"><path id="path4509" class="cls-4" d="M294.49 340.92a2.37 2.37 0 01-.92.18c-.33-.26-1.4-1.33-2.49-4.93a12 12 0 01-.14-4.77 1.84 1.84 0 01.25-.23 16.61 16.61 0 011.37 4.84 9.57 9.57 0 001.95 4.44 1.37 1.37 0 010 .47m-19.07-16.72a5.83 5.83 0 011.95-.88c.35-.1 1.43-.4 2.5-.79a6 6 0 01-.4 1 4.45 4.45 0 01-2.59 1.4 2 2 0 01-1.46-.74m-.44-18.68a5.27 5.27 0 011-4 5.65 5.65 0 013.74-1.51 3.79 3.79 0 012.21.81 6.47 6.47 0 00-4.76 2.5 6.88 6.88 0 00-1.29 3.41 4.37 4.37 0 01-.93-1.22m-13.43-7.9c-1.88-.17-2.74-2.59-3-3.37a6 6 0 015.4-5.79 2.35 2.35 0 011.63 1 5.69 5.69 0 00-3.75 2.73 7 7 0 00-.31 5.46m-31.67 28.91a73.51 73.51 0 01-21.66 3.39c-10.62 0-19.56-2.62-26.58-7.78l-.14-.1a62.45 62.45 0 01-20.92-25.54c7.31 5.79 20 12.24 40.32 12.24 3.39 0 6.92-.19 10.52-.55a76 76 0 0019-3.79A57.84 57.84 0 00252 291.93v.35c0 .56.07 5 2.17 8.17a42 42 0 01-24.28 26.07m41.07 41.24c-9.6 0-16.48 1.35-20.44 4l-.14.1-.13.11c-.87.76-4.81 5.16-5.13 22.27a22.57 22.57 0 01-3.59-4.59c-.07-.6-1.9-17.11 3.91-32.68.41-.69 2.6-4.16 5.84-4.16a6.63 6.63 0 013.28 1 122.28 122.28 0 0018.88 13.93h-2.48m6.52 36.93l-.48.1-.41.26a14.35 14.35 0 01-4.15 1.29c-1.6-11.49-8-21.38-11.39-26 2.09-.67 5.78-1.35 12.2-1.35 2.57 0 4.61.12 5.22.16a6.93 6.93 0 014 3.33l4.17 15.89c.12 1.31.19 2.52.22 3.54a57.41 57.41 0 01-9.41 2.74m-21.81-5.87c.36-3.23 1-8.11 1.68-12.06a51.83 51.83 0 018 17c-3-1.66-6.75-3.66-9.66-4.91m-13.41-53.68a7.94 7.94 0 015.75-3.21 9.59 9.59 0 011.29 4.74 13.94 13.94 0 00-7.33 4.08 7.4 7.4 0 01.3-5.58m-60.77 48.49l-.34.17a100.58 100.58 0 00-1.6-18.87l-.12-.59-.35-.48c-.81-1.13-1.45-2-16.63-3.7-2.61-.29-5.22-.56-7.46-.77a80.11 80.11 0 0010.34-12.05l.07-.1c3.51-5.76 6.42-6.21 7.22-6.21h.22l.17.09h.54c6 .31 6.5 5.21 6.54 6.16v.35l.09.33c2.11 7.64 1.53 29.46 1.31 35.63M170 396.92l-7.81 3.26c1.5-4.5 4-10.2 7.29-13.94a54.11 54.11 0 01.52 10.68M139.84 395v-.15c0-.09 1.2-8.53 7.17-13.94 5.08.23 12.26.73 17.18 1.42-2.83 3.39-6.46 9.39-9.4 19.76a137.62 137.62 0 01-14.93-4.22 4.68 4.68 0 010-2.87M173 378.05l.49.07c.05.15.09.3.14.46a3.82 3.82 0 00-.39-.35zm10.56-29a13.59 13.59 0 00-7.48-4.23 7.86 7.86 0 013.2-4.11 6.35 6.35 0 013.34 2.09l.05.06a7.89 7.89 0 01.89 6.19m-34.54-11.24a2.83 2.83 0 01-.65.55 5.76 5.76 0 01-2 .35c-2 0-3.85-1.11-5.4-3.31v-.58a3.12 3.12 0 012.36-1.67 28.91 28.91 0 004.75 3.69 3.26 3.26 0 01.91 1m-18.54 15.13a3.18 3.18 0 01-1.91 1 1.72 1.72 0 01-.71-.17 5.65 5.65 0 01.35-.63c.65-1 3.26-5.39 3.7-9.65 0 .08 0 .17.05.27v.16l.07.21c.09.35.85 3.68-1.56 8.85m-8.78-2.3c.56-.49 1.24-1.11 2-1.84-.29.56-.62 1.15-1 1.76a5.26 5.26 0 01-1 .08m36.76-66.9c.55.63 14 15.33 45.06 15.33 1.79 0 3.62-.05 5.44-.15 1.14-.05 27.3-1.45 42.86-17.35l.64.18c-4.68 6.42-18.72 20.42-52.22 20.42-1.43 0-2.89 0-4.32-.08-.29 0-28.77-1.58-38.3-19.28zm12.63-42c6.7-9.29 15.52-15.1 26.25-17.31l.73 1.11c.16.25 4.09 6.13 10.44 6.13 3.29 0 6.49-1.55 9.5-4.62l.47-.47.19-.64a13.35 13.35 0 00.53-2.88c8.37 1.12 30.57 6 38.95 26.77l.1.23c.07.13 6.57 13.12 3.4 32.11a14 14 0 00-1.57.46v-1.07l.1-.16.3-.54v-.61c0-.14.05-.87.1-2l.36-.82h-.33c.17-5.54.18-17.77-2.68-26a5.43 5.43 0 00-5.53-4.13 13.06 13.06 0 00-5.75 1.66c-.28.14-28.66 13.95-55.31 13.95-11.1 0-20.33-2.39-27.48-7.11a53.43 53.43 0 017.2-14m37.98-39.6a6.09 6.09 0 012.59-.77 2 2 0 011.73.94c.11 2-.27 3.51-1.11 4.43a4.34 4.34 0 01-3 1.22 3.06 3.06 0 01-.24-5.82m-33.53 65.38h-.18a6 6 0 00-3.58 3c-1 1.93-1.22 4.41-.52 7.38a1.14 1.14 0 00-.1.19 3.28 3.28 0 00.17 3.28l.66 1.12 1.29.19a9.88 9.88 0 001.19.07h.12l2.3 3.39-1.44 1c-2.37-1.08-7.27-3.52-10.41-6.47-.58-2.1-2.3-9.46 0-16.59a57.22 57.22 0 0010.65 3.37h-.1m69.85-10.79c1.11 4.87 3 14.23 2.36 20.19-2.27 2.49-13.73 13.45-40.86 15.69-2.77-2.81-10.62-10.46-15.89-12.47a3.52 3.52 0 00-1.54-.33c-1.41 0-4.08.63-11.18 5.41l-.34-3.16a5.52 5.52 0 003.2-4.49 18.78 18.78 0 00.31-3h.42l-.43-.84a7.79 7.79 0 00-1.43-4.65 4.72 4.72 0 00-1-.88 82.74 82.74 0 0014 1.13c16.3 0 33.91-4.22 52.4-12.56m6.87-2.1a54 54 0 011.53 8.81c-.49-3.38-1.08-6.55-1.53-8.81m-63.3 31.81a40.14 40.14 0 017.56 5.44 79.2 79.2 0 01-13.49-2.14 30.19 30.19 0 015.92-3.27m70.54-3.9l.27.07-.4.16a1.71 1.71 0 00.13-.23m-118.7 44.71a10.37 10.37 0 00-1 .35c.16-.31.3-.62.42-.91.23.19.43.38.61.56m-5.4 10.35a6.57 6.57 0 00-2.84-1.07 30.25 30.25 0 002.52-2.32 11.36 11.36 0 00.35 3.36m161.2-11.43a11.82 11.82 0 01-3-3.46 11.69 11.69 0 01-1.91-6.13 12.66 12.66 0 013.18 4.29l.07.13c1.39 2.64 1.7 4.31 1.66 5.22m-10.22-4.17a21.23 21.23 0 001.68 3.5 8.5 8.5 0 00-2.16 1.42c-.18-.28-.34-.58-.5-.89a7.87 7.87 0 001-4m-1.18-3.88l.23-.18a6.89 6.89 0 00.1.76c-.1-.19-.21-.38-.33-.58m16.76 7.77a16.84 16.84 0 00-2.27-7.5c-.53-1.11-2.61-5.17-5.81-6.89l-1-1.3-.58-.74-1.41-1.8-.5-.82h-.16l-1.58-2-.22-.38c-.05-.07-.18-.29-.41-.58a8.76 8.76 0 00-1.55-6.28 8.56 8.56 0 00-6.27-3.19l-2.1-.87a6.49 6.49 0 00-1.31-.54l-4.92-2c-.33-2.4-1.67-6-4.92-7.47 3.58-20.32-3-34.47-3.76-36-4.86-12-14.55-21-28-26.19a64.64 64.64 0 00-19-4.23l-1.11-.05-.52-.31V212a8.61 8.61 0 001.7-1.43c2-2.18 2.84-5.24 2.5-9.12v-.39l-.14-.37a7.51 7.51 0 00-7-4.68 11.41 11.41 0 00-5.36 1.52l-.17.08-.14.11c-2.39 1.73-6.07 6.5-2.9 12.24l.12.21.15.18a10 10 0 001.49 1.45c-.07.23-.15.51-.23.74l-.64 1.93a6.26 6.26 0 00-.45 2.28 6.92 6.92 0 00-1.78 1.41l-.59.06a48.1 48.1 0 00-34.57 20.42 55.92 55.92 0 00-8.49 17.49l-.44 1.77 1.44 1.1q.75.56 1.53 1.08a31.73 31.73 0 00-2.21 14.92 17.85 17.85 0 00-4.62 3.07l-.43.38-1 2.21-.43 6a56.55 56.55 0 003.88 12.75c-1.74 2.36-1.38 5.88-1 7.74l-1.92 1.65h-.24l-2.29 1.92a12.73 12.73 0 00-2 .3h-.08c-1.78.45-5 2.53-5.69 7.42l-.69.28c-.14.06-.56.24-1.1.52h-2.87l-.77.3-.8.12a16.12 16.12 0 00-4.38 2.45l-.55.51-1 .84a26 26 0 00-6.94 12.55l-.31 1.72-.37.9v.2a15.91 15.91 0 01-4.67 3.68l-.33.19-.28.26c-.76.75-2.53 2.73-2.39 5a3.88 3.88 0 001 2.31 5.59 5.59 0 001.26 3.9 5.81 5.81 0 004.66 1.89h.81a4.22 4.22 0 001.35 1.67 7.53 7.53 0 004.6 1.62 8.81 8.81 0 006.33-3.14l.2-.25.14-.29c3-6.12 2.58-10.67 2.23-12.45a14.47 14.47 0 001.77-1.7 11 11 0 007.16 2.65 10.79 10.79 0 004.47-.95l.23-.13c2.8-1.73 3.41-3.77 3.44-5.18.06-3.19-2.78-5.26-3.36-5.65-1.46-1-2.41-1.68-3-2.17l.74-1 .75-.75v-.26l1.06-1.38h.57c3.29 0 6.93-2.08 7.28-7.92l1.1-1.38.84-.56.65-1.27a7.36 7.36 0 001.51.15 11.63 11.63 0 003.22-.5 68.62 68.62 0 009.56 9.17l-1 2.34-.6 1.33c-.66 1.46-1.09 2.54-1.37 3.36l-.06.15a12.82 12.82 0 00-.4 1.47l-.13.05-1.06 2.64a10.35 10.35 0 00-3.55 2.56c-3.87 4.28-3.26 10.71-3.24 11v.44a26.12 26.12 0 00-3.43 4.54 74.83 74.83 0 01-14.1 15l-.72.56-.21.15a3.22 3.22 0 00-.51.41l-1.42 1.87-.22 1.53a12.6 12.6 0 00-.18 2.95c-7.18 6.51-8.76 16.12-8.91 17.19-1.29 6.92 2.6 8.67 3.6 9 7.92 2.56 13.47 4.09 16.56 4.57l1.28.1 18.31-6.61 1 .15.73.19 1.56.16 2.36-1.13 6.92-3.3.07-1.65c0-1.15 1.16-27.41-1.18-37.93l.46-.68c.24-.34 5.32-7.92 2.17-15.14l1.39-5.31-.1-.11 1.12-3.52a56.47 56.47 0 0017.46 2.58 77 77 0 0023.53-3.73h.12l1.34-.56c.1.31.2.57.27.77l.07.47c.13.84.94 3.93 1.28 5.22l.39 1.46a21.35 21.35 0 001.28 4.94l.16.44c-2.16 6.59 2.1 12.28 2.79 13.14A83.78 83.78 0 00236 390.3c.11 1.33.89 3.27 5.34 8 2.29 2.46 4.52 4.57 4.62 4.66l.22.21 1 .91 1.66.23 1.87-.26a9.41 9.41 0 002.19-.47 151.14 151.14 0 0114.42 7.58l1.87 1.1 1.17-.16 1.47-.14a23.63 23.63 0 007.17-2c4.05-.88 10.65-2.58 12.6-4.63l.75-.79v-1.09c0-2.06-.14-16.05-5.48-24.14v-4.92l-.72-2.31-1.55-2.95c-1.91-1.78-5.14-4.22-5.27-4.32l-.19-.15-.21-.1c-7.67-3.94-15.28-10.09-18.84-13.12.19-1.08 1.1-7.28-2.2-11.48a9 9 0 00-3.27-2.59l-.1-.25.46.1-3-5.29c-.47-.82-1.58-3.35-2.17-4.76l-.08-.39a23.51 23.51 0 00-2.1-5.44 47.05 47.05 0 0011.57-18.65 7.6 7.6 0 002.54.42 10.64 10.64 0 004.11-.91 12.35 12.35 0 001.49 1.23 6.9 6.9 0 001.81 2.45l.37.32v.67l.13.35c.82 2.1 3.38 5.66 7.79 5.66a5 5 0 00.54 0l1.09 2.83.34-.48.32.95c-.12.2-.22.39-.31.56l-.42.26a19.83 19.83 0 01-3 1h-.06c-3.24 1-5.19 2.55-5.8 4.7a5.59 5.59 0 001.24 5.06l.07.07a7.53 7.53 0 005.53 2.54 8.2 8.2 0 003.93-1.08 18.39 18.39 0 004.49 5.23 17.92 17.92 0 00.45 3v.13c2.22 7.38 5.35 8.93 7.58 8.93a4.48 4.48 0 00.57 0 7.16 7.16 0 003.45-1 5.26 5.26 0 002.37.59 4.43 4.43 0 001-.12 6.28 6.28 0 004.44-2.84 5.92 5.92 0 00.85-3l.14-.18c2.07-2.71.82-6.06-1.5-8a30.49 30.49 0 01-2.61-2.79"/></g><g id="g4511"><path id="path4513" class="cls-5" d="M209 210.83s7.87.46 7-9.14c0 0-2-5.21-8.5-1.74 0 0-4.93 3.57-2.1 8.69a6.48 6.48 0 003.56 2.19"/></g><g id="g4515"><path id="path4517" class="cls-6" d="M207.65 211.53a6.59 6.59 0 004-.36s.3 2.25 0 2.68a3.89 3.89 0 01-4.51-.43 13 13 0 00.48-1.89"/></g><g id="g4519"><path id="path4521" class="cls-6" d="M206.92 214.36s3 1.5 4.89.22v3.29s-4.35 1.87-5.56-1.16a10 10 0 01.67-2.35"/></g><g id="g4523"><path id="path4525" class="cls-6" d="M206.24 217.75a5.25 5.25 0 005.57.69v2.23s-2 4-6.05-1z"/></g><g id="g4527"><path id="path4529" class="cls-6" d="M205.15 219s-1.32 3.84 4.34 4c0 0 3.47.31 3.34-4l2.14 1.28s.48 3.17 0 4.45c0 0-6.16 6.76-13.53-.43 0 0 1.32-4.4 3.71-5.3"/></g><g id="g4531"><path id="path4533" class="cls-5" d="M216.09 220s33.49 1.2 44.64 28.81c0 0 7.5 14.62 3.29 35.83 0 0-6.88-.24-9.32 7.68 0 0 0 5.12 2.44 7.56a44.33 44.33 0 01-26.33 29.25s-30 10.6-50.82-4.75c0 0-21-13.41-25.36-38.15 0 0 13.59 23.64 56.56 19.25 0 0 33.27-1.28 46.62-25.41 0 0 1.19-17.73-2.47-28 0 0-.55-4.21-7.4-.73 0 0-56.86 28-87.21 5.48 0 0 7.92-32.18 40.71-35.83l-1 3s6.7 10.23 15.69 1.09c0 0 1-3.14 0-5.13"/></g><g id="g4535"><path id="path4537" class="cls-7" d="M163.47 260.47s29.62 18.1 83.74-7.5c0 0 4.38 16.46 3.1 25.23 0 0-11.21 15-44.55 17.37 0 0-10.29-10.79-16-12.8 0 0-1.47-1.46-14.08 7.68 0 0-8.59-3.47-13.16-8.13 0 0-3.93-11.61.91-21.85"/></g><g id="g4539"><path id="path4541" class="cls-4" d="M173.62 280.12s4.38.64 4.75-2.83c0 0 1.46-7.68-2.38-7 0 0-4.2 1.1-1.64 8.78 0 0-1.28.09-.73 1"/></g><g id="g4543"><path id="path4545" class="cls-7" d="M174.71 278.29s-.64-5.57 2.84-5.94c0 0-1.83-3.56-3.48 1.28 0 0-.51 2.95.64 4.66"/></g><g id="g4547"><path id="path4549" class="cls-4" d="M224.08 280.17l-5.31 1.05s-2.83-.53-2.55-6.53c0 0 .18-4.45 3.29-4.4 0 0 4.8 1.42 2.05 9.7z"/></g><g id="g4551"><path id="path4553" class="cls-7" d="M218.23 279.3s-1.24-6.22 2.74-7c0 0-2.33-4.12-4 1.23 0 0-.75 4.12 1.24 5.76"/></g><g id="g4555"><path id="path4557" class="cls-5" d="M177.09 290.73s7.83 4 26.85 4.41c0 0-10.18-10.05-14.93-11.45 0 0-3.48.48-11.92 7"/></g><g id="g4559"><path id="path4561" class="cls-8" d="M160.55 277.35a18.34 18.34 0 001.34 4.57h-1.34s14.32 16.09 48.32 14.26c0 0 27.55-1.28 42.29-17.89 0 0 1.29 1 5.79 1.44 0 0-11.88 26.81-61.12 25.1 0 0-31.45-1.46-41.2-21.94l1-2.72s3.41-3 4.94-2.82"/></g><g id="g4563"><path id="path4565" class="cls-8" d="M248.85 252.15s4.11 18.47 2.83 25.69l5.67 1.46s-.18-23.4-3.84-28.15a15.41 15.41 0 00-4.66 1"/></g><g id="g4567"><path id="path4569" class="cls-5" d="M265.31 299.41s-5.12-8.23 3.92-7.5c0 0-.41-6-5.37-6.21 0 0-8.06.82-8.06 8.87 0 0 1.83 8.59 9.51 4.84"/></g><g id="g4571"><path id="path4573" class="cls-6" d="M265.94 298a5.18 5.18 0 013.29-4.39s-1.82-2-4.29.32a3.54 3.54 0 001 4.07"/></g><g id="g4575"><path id="path4577" class="cls-6" d="M269.23 301.38s-.77-3.89 4.85-6.4L271 293.7s-4.89 1.23-4.25 5.44a11.24 11.24 0 002.51 2.24"/></g><g id="g4579"><path id="path4581" class="cls-6" d="M270.93 303.8a10.66 10.66 0 016.07-7.59 3.7 3.7 0 00-3-.46 6.22 6.22 0 00-4.28 6.17 3.89 3.89 0 001.24 1.88"/></g><g id="g4583"><path id="path4585" class="cls-5" d="M278.83 310s-2.33-8 6.49-6.17c0 0 1.1-5.94-5.48-6.54 0 0-8.5-.18-7.59 9 0 0 1.88 4.85 6.58 3.75"/></g><g id="g4587"><path id="path4589" class="cls-6" d="M279.84 309.92s2.56-3.61 6.26-3.93c0 0-1.83-3.12-5.44-1.08 0 0-2.19 1.45-.82 5"/></g><g id="g4591"><path id="path4593" class="cls-6" d="M281.48 312.48a7.42 7.42 0 016.95-3.38l-1.83-2.33a6.38 6.38 0 00-6.35 3.7 20.2 20.2 0 001.23 2"/></g><g id="g4595"><path id="path4597" class="cls-6" d="M282.44 315.45s4.71-3.52 8.09-3l-1.73-2.87s-5.26-.51-7 3.83z"/></g><g id="g4599"><path id="path4601" class="cls-5" d="M297.85 329.39s3.56-1.82-.55-9.59c0 0-3.84-8.23-7.95-5.67 0 0-1.83 3.84 1.82 10.05 0 0 3.2 5.67 6.68 5.21"/></g><g id="g4603"><path id="path4605" class="cls-5" d="M281.76 318.33s.82-3 6.67-4.7c0 0-2.47 6.07 4.48 14.12a6 6 0 00-5.58 1.67v3.24a15.15 15.15 0 01-5.11-6.83s3.38-3.47-.46-7.5"/></g><g id="g4607"><path id="path4609" class="cls-6" d="M293.64 328.48l2.5 1.46-1.25.79z"/></g><g id="g4611"><path id="path4613" class="cls-6" d="M280.25 319.4s4.37.3 1.51 5.73c0 0-4.33 5.12-8.41.85 0 0-3.05-3.41 3.29-5.3a23.67 23.67 0 003.61-1.28"/></g><g id="g4615"><path id="path4617" class="cls-6" d="M288.43 330.19s1.54-2.65 4.18-1.71c0 0 1.7 1.16 2.68 7.19a7 7 0 001.76 3.6s1.47 4.38-3.41 4.57c0 0-2.86.85-5.21-6.95a14.44 14.44 0 010-6.7"/></g><g id="g4619"><path id="path4621" class="cls-6" d="M297.85 342.56a6 6 0 00-1.34-5.73s-1.8-2.7-1.34-5.3c0 0 1.15-2.26 2.37-.49a20.61 20.61 0 005.67 7.86 3.38 3.38 0 01-3 4.45 2.5 2.5 0 01-2.37-.79"/></g><g id="g4623"><path id="path4625" class="cls-6" d="M297.66 330l1.57-.39s-.16.7 3.67 4.42c0 0 2.75 2.25 1.16 4.32 0 0-2.25-2.31-2.95-2.92a15 15 0 01-2.65-4.69z"/></g><g id="g4627"><path id="path4629" class="cls-5" d="M158.05 301s5 8.72 7.61 11.52c0 0-3.29 1.22-5 0 0 0 3.23-5-3-5 0 0-1.22-4.45.37-6.53"/></g><g id="g4631"><path id="path4633" class="cls-6" d="M156.66 309.51a5.14 5.14 0 013.29 2.56s1.37-2.71 0-3.61c0 0-1.46-1.1-3.29 1.05"/></g><g id="g4635"><path id="path4637" class="cls-6" d="M154.33 311.16s3.15.59 3.93 3.38l1.46-2s-.5-1.92-3.75-2.83z"/></g><g id="g4639"><path id="path4641" class="cls-6" d="M152.36 312.57s4 1.65 4.3 4.35l1.28-1.6s0-3.29-4.43-3.71z"/></g><g id="g4643"><path id="path4645" class="cls-5" d="M145.23 318.84s2.61-3.89 5.67.23c0 0 1.88 1.41-.73 4.84 0 0 5.33 1.44 5.71-5.26 0 0 .09-6.58-7-5 0 0-3 .78-3.66 5.17"/></g><g id="g4647"><path id="path4649" class="cls-6" d="M146.51 319a6.9 6.9 0 013.16 4s1.73-1.42.23-4c0 0-1.19-1.88-3.39 0"/></g><g id="g4651"><path id="path4653" class="cls-6" d="M144 320.89a5.8 5.8 0 013.66 5.49l1.78-2.34s-.45-3.65-3.7-4.43z"/></g><g id="g4655"><path id="path4657" class="cls-6" d="M140.48 322.72s4.16 1.87 5.39 5.62l1.13-1.14s.27-5-4.16-5.9a9.68 9.68 0 00-2.38 1.42"/></g><g id="g4659"><path id="path4661" class="cls-5" d="M125.93 337.13s11.15-6.33 11.82-15c0 0-8.5 1.89-11.82 15"/></g><g id="g4663"><path id="path4665" class="cls-6" d="M138.3 336.22v-2.07s2-4.76 6.58-3.54c0 0 .25.92 4.82 4 0 0 4.81 3.23 0 6.22 0 0-6.52 3.23-11.4-4.57"/></g><g id="g4667"><path id="path4669" class="cls-6" d="M129 340.61s4.94-1.95 5.67 2.68c0 0 1.4 4.45-1.89 11.21 0 0-3.29 4-7.19 1 0 0-1.59-.92.3-3.9 0 0 4.39-6.95 3.11-11"/></g><g id="g4671"><path id="path4673" class="cls-6" d="M126.66 339.63l1.65 1s1.28 4.51-3.9 12.31c0 0-6.52 2.13-5.67-3.41 0 0 6.34-4.88 7.92-9.94"/></g><g id="g4675"><path id="path4677" class="cls-6" d="M118.19 348.71s6.83-4.92 7.74-9.75c0 0-1.58 3.29-6.64 6 0 0-2.62 2.55-1.1 3.71"/></g><g id="g4679"><path id="path4681" class="cls-5" d="M128.45 339.88s5.14-2 6.55 1.82c0 0 2.81-1.95 3.3-3.71 0 0-3.41-8.29 6.28-8.35 0 0 .55-3.9-6-6.95 0 0-1.34 8.84-12.68 15.11z"/></g><g id="g4683"><path id="path4685" class="cls-6" d="M178.4 324.64a73.54 73.54 0 0010.36 5.79l-.73 1.71a13.51 13.51 0 00-11.21-3.75z"/></g><g id="g4687"><path id="path4689" class="cls-6" d="M174.74 333.9s4-3.59 12 2.38l1.1-3.45a12.33 12.33 0 00-11.46-3.56s-1.71 3.78-1.65 4.63"/></g><g id="g4691"><path id="path4693" class="cls-6" d="M185.78 340.67s-3.05-4.76-12.13-4.39l.36-.91.73-.25 1.41-1.46s6.52-1.1 10.54 3.5z"/></g><g id="g4695"><path id="path4697" class="cls-5" d="M177.79 337.56a11.39 11.39 0 00-5.42 9.69 7.39 7.39 0 00-5.55 1.83s-1.28-12.62 11-11.52"/></g><g id="g4699"><path id="path4701" class="cls-5" d="M172.92 347.25s8.71-.43 11 8.1c0 0 5.3-7.74 1.09-14 0 0-1.64-2.68-6-3.54a10.63 10.63 0 00-6 9.45"/></g><g id="g4703"><path id="path4705" class="cls-5" d="M148.3 371.54s27.33 2.28 28.52 3.93a97 97 0 011.37 22.76l5.94-2.84s1.25-28.7-1.34-38.12a9.13 9.13 0 00-9.14-8.85s-5.06-1.75-10.64 7.39a77.13 77.13 0 01-14.71 15.73"/></g><g id="g4707"><path id="path4709" class="cls-8" d="M147.2 372.36s-1.37.91-1.1 4.75c0 0 18.65.64 25.51 3.29 0 0 2.74 2.11 2 17.83l3.65.55s1.37-16.18-1.73-23.13c0 0-20-3.11-28.34-3.29"/></g><g id="g4711"><path id="path4713" class="cls-9" d="M171 381.32s2.37 4.75 1.64 17.46L158 404.9s3.83-17.83 13-23.58"/></g><g id="g4715"><path id="path4717" class="cls-6" d="M170 380.77s-7.86 4-13.07 24.13c0 0-.18 1.28-18-4.48 0 0-2.74-.64-1.74-5.94 0 0 1.37-10.26 8.93-16.36 0 0 19 .73 23.89 2.65"/></g><g id="g4719"><path id="path4721" class="cls-6" d="M235.38 328.42s3.47-1.65 9.39-6.58a23.9 23.9 0 012.25 5.48s-6.58-1-10.91 3.78a10.09 10.09 0 01-.73-2.68"/></g><g id="g4723"><path id="path4725" class="cls-6" d="M236.24 331.89a11.12 11.12 0 0111-3.65s1.58 3.77 2.31 5.05c0 0-7.31-1.52-12.13 3.54 0 0-1.09-4.15-1.21-4.94"/></g><g id="g4727"><path id="path4729" class="cls-6" d="M237.94 337.44a11.69 11.69 0 0112.19-3.05 40 40 0 011.83 3.72s-9-1.95-12.92 4.87c0 0-1.51-4.08-1.1-5.54"/></g><g id="g4731"><path id="path4733" class="cls-5" d="M250.43 339.15s2.75 3.71 2.08 10a7.36 7.36 0 014.87 1.89s2.14-11.4-6.95-11.88"/></g><g id="g4735"><path id="path4737" class="cls-5" d="M249.22 339.15s3.29 2.61 2.74 10c0 0-6.46-.55-10.36 6.7 0 0-4.94-5.85-1.77-12.06a10.65 10.65 0 019.39-4.63"/></g><g id="g4739"><path id="path4741" class="cls-5" d="M247.87 401s-8.94-8.41-9.1-11c0 0-2.17-17.49 4.14-34.19 0 0 4.84-9.32 13.25-4.2 0 0 10.6 9.75 21.51 15.36 0 0 3.23 2.43 5.06 4.14 0 0-22.42-2.68-30.71 2.92 0 0-4.88 4.27-4.15 26.94"/></g><g id="g4743"><path id="path4745" class="cls-8" d="M248.85 401.43s-1.83-27.15 6.67-28.34a76.11 76.11 0 0122.77-1.65s5.57.19 5.85 3v3.66s-1.1-4.18-14.33-2.84c0 0-13.59-.18-14.87 5.43a163.37 163.37 0 00-2.86 20.31 8.06 8.06 0 01-3.23.43"/></g><g id="g4747"><path id="path4749" class="cls-9" d="M256 380.58s11.79 12.89 12.89 28.34c0 0-11.31-6.66-16.18-8.32 0 0 1.46-15 3.29-20"/></g><g id="g4751"><path id="path4753" class="cls-6" d="M270 409.47s5.57-.55 8-2.1c0 0 9.87-2.1 11.61-3.93 0 0 .09-24.68-10.79-27 0 0-17.09-1.28-22 3 0 0 12.16 13.89 13.17 30"/></g><g id="g4755"><path id="path4757" class="cls-6" d="M161.38 304.23c25.89 15.88 77.93 10 93.32-12 .15 3.82 1.1 6.11 2.44 7.56a19.75 19.75 0 01-.65 2.22c-7.64 19.47-59.75 31-86.78 13.31a42.88 42.88 0 01-8.33-11.14"/></g><g id="g4759"><path id="path4761" class="cls-10" d="M160.56 303.8c26.77 16.31 79.73 10.2 94.74-12"/></g><g id="g4763"><path id="path4765" class="cls-10" d="M257.46 299.72a17.3 17.3 0 01-.64 2.22c-7.65 19.47-59.58 31.61-88.11 13"/></g><g id="g4767"><path id="path4769" d="M187.85 324.75c2.44 1 11.23 2.18 16.31 1.5v-15.56a97.42 97.42 0 01-16.31-.75z" fill="#5f247b"/></g><g id="g4771"><path id="path4773" class="cls-7" d="M190.93 319.56a.33.33 0 00-.47 0 .32.32 0 00-.09.23.34.34 0 00.32.35.34.34 0 00.24-.09.33.33 0 00.09-.23.36.36 0 00-.09-.24m4.21-3.57h-.49v3a4.54 4.54 0 000 .63l-.17-.29-2.11-3.42h-.64v4.25h.5v-3.07a3.39 3.39 0 000-.58 1.69 1.69 0 00.13.27l2.17 3.47h.6zm3.2 3.93l-1.74-.07v-1.48l1.52.06V318l-1.52-.07v-1.43l1.64.07v-.45l-2.13-.09v4.25l2.23.09zm3.3-3.66l-2.92-.12v.45l1.21.05v3.8h.5v-3.8h1.21z"/></g></g></g></g></g><path class="cls-12" transform="rotate(-60 553.398 281.607)" d="M468.32 277.2H638.5v8.82H468.32z"/><path class="cls-12" d="M505.29 341.32h170.18v8.82H505.29z"/><path class="cls-12" transform="rotate(-60 553.418 367.032)" d="M549.02 317.88h8.82v98.29h-8.82z"/><path class="cls-12" transform="rotate(-60 627.364 238.933)" d="M622.96 189.79h8.82v98.29h-8.82z"/><path class="cls-12" transform="rotate(-30 553.467 238.901)" d="M504.3 234.49h98.29v8.82H504.3z"/><path class="cls-12" transform="rotate(-30 627.445 281.603)" d="M623.02 196.52h8.82V366.7h-8.82z"/><path class="cls-12" d="M512.04 253.81h8.82v98.3h-8.82zm147.92 0h8.82v98.3h-8.82z"/><path class="cls-12" transform="rotate(-30 627.386 366.988)" d="M584.63 363.13h85.49v7.7h-85.49z"/><path class="cls-12" d="M680.47 355a18.55 18.55 0 11-6.8-25.34 18.56 18.56 0 016.8 25.34m-148.03-85.52a18.55 18.55 0 11-6.8-25.34 18.56 18.56 0 016.8 25.34M500.35 355a18.56 18.56 0 1125.35 6.8 18.58 18.58 0 01-25.35-6.8m148.03-85.52a18.55 18.55 0 1125.34 6.8 18.58 18.58 0 01-25.34-6.8M590.41 407A18.55 18.55 0 11609 388.45 18.53 18.53 0 01590.41 407m0-171A18.55 18.55 0 11609 217.47 18.53 18.53 0 01590.41 236"/><path d="M989.48 403.94c-2.93-2.33-7.65-3.9-11-4.87-12.82-3.65-26.19-3-39.42-3.42-17.44-.56-34.28-.28-51.53 3-4.73.9-9.53 2.22-13.37 5.17a10.69 10.69 0 00-4 5.48c-2.82 10.76 23.25 13.48 29.77 14.32 12.79 1.64 25.72 1.3 38.58.92a172.62 172.62 0 0034.49-4.12c5.31-1.24 11.73-2.76 16-6.62 4.53-4.18 3.5-7.42.48-9.86z" fill="#83807a"/><path d="M969.64 270.74c.46-2.07.27-4.28 1.24-6.3a44.44 44.44 0 0110.12 1.25 2.59 2.59 0 011.34.91 20.05 20.05 0 011.52 2.35c.65 1.13 1.22 2.33 1.95 3.42 3 4.53 7 7.53 12.52 8a37.78 37.78 0 004.76.08c2.67-.12 5 .48 6.7 2.74a4.07 4.07 0 00.53.65 2 2 0 002.06.49 2.68 2.68 0 002.13-2.63 11 11 0 01.09-1.4c.09-.48-.19-1.13.44-1.46.19 0 .41 0 .53.13a42.44 42.44 0 016.22 6.06c2.21 2.59 1.47 5.85-.38 8-.79.9-3 3.5-4.31 3.51s-3.53-2.23-4.42-2.93a37 37 0 00-4.84-3.08c-3.54-1.9-7.14-3.73-10.81-5.36-7.2-3.18-14.59-5.8-22.46-6.83-1.46-.19-3-.32-4.46-.54a7.77 7.77 0 01-1.46-.54c.35-2.26.53-4.42.99-6.52zM841.3 285.05a42.5 42.5 0 016.22-6.07 1.54 1.54 0 01.53-.12c.63.33.35 1 .44 1.46a10.85 10.85 0 01.09 1.4 2.67 2.67 0 002.13 2.62 1.92 1.92 0 002-.49 4.16 4.16 0 00.54-.64c1.69-2.27 4-2.86 6.7-2.75a36 36 0 004.76-.08c5.55-.48 9.55-3.51 12.52-8 .72-1.09 1.28-2.29 2-3.41a20.17 20.17 0 011.52-2.36 2.71 2.71 0 011.34-.91 44.43 44.43 0 0110.08-1.24c1 2 .78 4.23 1.24 6.3s.69 4.25 1.05 6.54a7.77 7.77 0 01-1.46.54c-1.47.22-3 .34-4.46.53-7.87 1-15.26 3.65-22.46 6.83-3.68 1.62-7.27 3.45-10.81 5.36a35.66 35.66 0 00-5.85 3.9c-1.52 1.27-3 2.05-5 1a11 11 0 01-2.73-2.44c-1.83-2.11-2.6-5.39-.39-7.97z" fill="#ffd598"/><path class="cls-15" d="M1004.48 370.25c-5.05 7.47-9.78 15-15.78 21.82a64.34 64.34 0 01-13.28 11.18 43.59 43.59 0 01-11.65 5.33c-3.93 1.18-7.56 3.19-11.56 4.13-4.76 1.13-9.66 1.27-14.55 1.5a133.82 133.82 0 01-24-1.07c-4.76-.65-8.75-2.55-13.21-4.14s-8.89-3.15-12.86-5.75a64.34 64.34 0 01-13.28-11.18 205.55 205.55 0 01-14.83-19.78 95.57 95.57 0 01-12.37-25.1 140.34 140.34 0 01-5.53-21.75c-1-6.76-1.61-13.58-2-20.4-.15-2.44-.23-4.88-.32-7.31 0-.44-.14-1 .55-1.32.57.52 1.18 1.06 1.77 1.62a69.14 69.14 0 0021.93 14 125 125 0 0020.89 6.47c5.94 1.26 11.94 2.3 17.94 3.28 3.5.57 7.06.88 10.59 1.24s7.27.67 10.92 1a96.56 96.56 0 0015.4 0c3.64-.3 7.28-.6 10.91-1s7.09-.67 10.6-1.24c6-1 12-2 17.94-3.28a125.18 125.18 0 0020.85-6.5 69 69 0 0021.94-13.95c.59-.56 1.21-1.1 1.77-1.62.69.36.57.88.55 1.31-.08 2.44-.16 4.88-.32 7.32-.42 7-1.08 13.76-2.16 20.7a144.72 144.72 0 01-5.37 21.45 92.36 92.36 0 01-11.48 23.04zm74.97-46.47a28.49 28.49 0 01-2 7.85 55.31 55.31 0 01-7.72 13 81.39 81.39 0 01-16.2 15.09 46.52 46.52 0 01-12.93 6.66q-3.46 1.13-7 2.19a81 81 0 01-13.94 3c-1.6.2-3.88.87-5.31-.12s-2.09-3.69-1.75-5.46c1.15-6 7.8-8 12.77-9.48a71.13 71.13 0 0021.89-10.51 35.38 35.38 0 009.14-9.44c2.33-3.6 3.9-7.47 3.72-11.88 0-1 0-2.06-.17-3.08a13.93 13.93 0 00-5.06-9.68 13.15 13.15 0 00-9.41-2.93A30.86 30.86 0 001036 311c-1.78.7-5.7 3.9-7.54 3-3.76-1.79-1.07-11.62 1.52-13.53 2-1.46 5.14-2.6 7.44-3.67a37.82 37.82 0 018.91-2.92c6.87-1.28 13.58-1.34 20.11 1.5 4.83 2.09 8.58 5.25 10.73 10.17a34.09 34.09 0 012.28 18.23z"/><path d="M972.62 282.11c11.7 1.82 22.53 6.12 32.83 11.84 1.87 1 4.33 1.95 5.36 4 1.34 2.64-.79 3.92-2.83 5.16a78.08 78.08 0 01-16.58 7.5 152.82 152.82 0 01-23.4 5.75c-4.62.72-9.23 1.52-13.88 2.07s-9.5.89-14.27 1.27a107.35 107.35 0 01-16.63 0c-4.76-.38-9.53-.71-14.27-1.27s-9.26-1.35-13.88-2.07a152.82 152.82 0 01-23.4-5.75 82.26 82.26 0 01-11.44-4.61c-1.87-.93-3.69-1.95-5.46-3-1.47-.91-3.15-1.75-2.67-3.81.59-2.56 3.41-4 5.5-5.16 10.3-5.72 21.13-10 32.83-11.84 1.53-.24 3.07-.77 4.8-.36.41 1.95.88 3.86 1.18 5.79a5.56 5.56 0 003.16 4.63c.76.36 1.46.89 2.23 1.18 2.54.93 5.07 1.92 7.68 2.63a76.36 76.36 0 0015 2.18 104.26 104.26 0 0014.14 0 76.36 76.36 0 0015-2.18c2.61-.71 5.14-1.7 7.69-2.63.78-.29 1.46-.82 2.22-1.18a5.59 5.59 0 003.17-4.63c.3-2 .77-3.83 1.17-5.79 1.67-.49 3.22.04 4.75.28z" fill="#cba680"/><path d="M898.71 247.16c.84 2.09 1.63 4.19 2.52 6.25a7.15 7.15 0 006.15 4.3 41 41 0 0012.3-.64 4.3 4.3 0 002.63-1.52 32.32 32.32 0 002.21-3.23 29.14 29.14 0 001.53-3.31 5.07 5.07 0 013.44-3.06c.67-.19 1.35-.35 2-.54.67.19 1.35.35 2 .54A5.06 5.06 0 01937 249a29.14 29.14 0 001.53 3.31 30.81 30.81 0 002.22 3.23 4.25 4.25 0 002.62 1.52 41 41 0 0012.3.64 7.14 7.14 0 006.15-4.3c.9-2.06 1.69-4.16 2.52-6.25.41-1 .8-2.1 1.24-3.13a5.72 5.72 0 01.87-1 15.15 15.15 0 01.74 4.06 72 72 0 01-.82 17.35c-1.07 6.09-2 12.19-3 18.29-.32 1.95-.79 3.85-1.16 5.62a8.26 8.26 0 01-3.57 1.95 72.21 72.21 0 01-13.37 3.08 104.8 104.8 0 01-27.41 0 71.84 71.84 0 01-13.37-3.08 8.09 8.09 0 01-3.58-1.95c-.37-1.77-.83-3.69-1.16-5.62-1-6.09-1.95-12.19-3-18.29a72 72 0 01-.81-17.35 15.15 15.15 0 01.74-4.06 6.11 6.11 0 01.86 1c.37 1.04.76 2.1 1.17 3.14zm43.69-20.48a5.11 5.11 0 012.06-3.86 11.15 11.15 0 011.18.9c3.67 3.57 8.15 5.09 13.16 5.46 1.57.12 3.14.22 4.7.41a5.29 5.29 0 00.09.8 29.64 29.64 0 001.36 5.07c-3.3 0-6.37-.15-9.44-.34-2.15-.13-4.3-.23-6.45-.35s-4.3-.3-6.45-.36c-7.43-.23-14.75-.23-22.19 0-2.15.06-4.3.24-6.44.36s-4.31.22-6.46.35c-3.07.19-6.14.37-9.44.34l.6-1.69c1.8-.35 3.55-.64 5.27-1.05a32.17 32.17 0 0014.14-7.8c.6-.53 1-1.33 2.07-1.46 3 4 7.14 6.2 11.8 7.59a14.45 14.45 0 006.65.67c3-.52 3.73-1.46 3.81-4.5a3.21 3.21 0 01-.02-.54z" fill="#f8b79d"/><path d="M893.58 229.31a5.92 5.92 0 01.24-1.31 34.36 34.36 0 017-9.8 19.72 19.72 0 013.41-3.3c1.69-1.11 3.16-.76 5-.41a7.34 7.34 0 001.4.11c.45 0 2-.26 1.55-1a1.59 1.59 0 00-.94-.58 7.59 7.59 0 01-4.77-5.12 7.43 7.43 0 011.82-7.29 15.49 15.49 0 017.68-4.43c3-.85 6.16-1.47 9.4-2.26.23.56.49 1.14.8 1.88-.49.29-.92.57-1.36.85a1.73 1.73 0 00-.83 2 1.67 1.67 0 001.59 1.32 14.62 14.62 0 009.45-3c.9-.7 1.09-2.14.23-2.7-1.61-1-1.71-2.55-1.8-4.14v-1.27c2.18-2.14 5.22-3.44 7-6.15 2.17 1 2.87 2.82 3.12 4.85a14.83 14.83 0 01-4.28 12.16 1.36 1.36 0 00-.49.93 1 1 0 001 .84 2.87 2.87 0 001.34-.37 7.24 7.24 0 003.34-2.39 7.39 7.39 0 013.19-2.77c2.55-1.22 5.4.57 6.83 2.71 1.25 1.87.4 4.33-1.08 5.82a16.65 16.65 0 01-3.46 2.92 14.34 14.34 0 00-1.57.92 1.7 1.7 0 00-.6.7.83.83 0 00.14.88 1.27 1.27 0 001.07.09c2.83-.58 5.85-2.44 8.65-.73a13 13 0 013.09 2.59 36.1 36.1 0 017.14 11.34 11.3 11.3 0 01.77 3 5.27 5.27 0 01-1 .06c-2.32-.31-4.62-.66-6.94-1-1.76-.24-3.56-.29-5.29-.68a14.69 14.69 0 01-6.3-2.92c-1.15-1-2.29-1.95-3.47-2.87-1.5-1.17-2.26-1.11-3.65.27a12.27 12.27 0 00-3.85 7 10.26 10.26 0 01-.24 1.1c0 .08-.1.14-.21.3a6.62 6.62 0 01-3.79-.09 17.62 17.62 0 01-10.76-6.6 4.3 4.3 0 01-1.11-3.35 1.84 1.84 0 00-1.55-2.12h-.17a2.29 2.29 0 00-2.14 1.5 3.54 3.54 0 00-.21 1.37 1.8 1.8 0 01-.57 1.51 28.24 28.24 0 01-16.4 9.49 19.91 19.91 0 01-7.42.14z" fill="#a7d388"/><path d="M967.91 273.08c.45-2.06.26-4.28 1.23-6.3 9.23 0 18.15 3.9 26.66 7.1 4.49 1.69 9 3.38 13.38 5.31a28.22 28.22 0 0110.82 8.2c2.21 2.59 1.47 5.85-.38 8-.79.9-3 3.5-4.3 3.51s-3.54-2.23-4.43-2.93a36.07 36.07 0 00-4.84-3.09c-3.54-1.9-7.13-3.72-10.81-5.36-7.2-3.18-14.59-5.8-22.46-6.82-1.46-.19-3-.32-4.45-.55a7 7 0 01-1.47-.53c.33-2.29.56-4.44 1.05-6.54zm-128.37 14.31a50.89 50.89 0 019.45-8.11 34.26 34.26 0 016.93-3.53c11-4.58 22.43-9 34.48-9 1 2 .78 4.24 1.23 6.3s.7 4.25 1.06 6.54a7.77 7.77 0 01-1.46.54c-1.47.22-3 .35-4.46.54-7.86 1-15.26 3.64-22.46 6.83-3.67 1.61-7.27 3.44-10.81 5.36a35.66 35.66 0 00-5.85 3.9c-1.52 1.27-3 2-5 1a11 11 0 01-2.73-2.44c-1.82-2.07-2.59-5.32-.38-7.93z" fill="#f7941d"/><path class="cls-20" d="M1002.74 372.59c-5 7.47-9.75 15-15.78 21.82a64.48 64.48 0 01-13.28 11.21A43.9 43.9 0 01962 411c-3.9 1.17-7.56 3.18-11.56 4.12-4.76 1.13-9.66 1.27-14.55 1.5a132.8 132.8 0 01-24-1.07c-4.77-.64-8.76-2.55-13.21-4.13s-8.9-3.16-12.87-5.75a64.48 64.48 0 01-13.28-11.21 208.07 208.07 0 01-14.83-19.78 95.6 95.6 0 01-12.37-25.08 139.22 139.22 0 01-5.53-21.75c-1-6.77-1.61-13.58-2-20.41-.14-2.43-.22-4.87-.31-7.31 0-.44-.14-1 .55-1.32.57.52 1.18 1.06 1.77 1.63a69.22 69.22 0 0021.91 13.94 124 124 0 0020.89 6.45c5.95 1.27 11.94 2.31 17.94 3.29 3.51.57 7.05.88 10.59 1.24s7.28.67 10.92 1a96.56 96.56 0 0015.4 0c3.64-.29 7.28-.6 10.92-1s7.08-.67 10.59-1.24c6-1 12-2 17.94-3.29a125 125 0 0020.89-6.46 69.43 69.43 0 0021.91-13.95c.59-.56 1.2-1.1 1.77-1.62.69.36.57.88.55 1.32-.09 2.43-.17 4.87-.31 7.31-.43 7-1.09 13.76-2.18 20.7a143.16 143.16 0 01-5.36 21.45 92.26 92.26 0 01-11.44 23.01z"/><path d="M1010.82 299.7c-1-2-3.49-2.95-5.37-4a111.59 111.59 0 00-17.71-8 87.58 87.58 0 00-9.52-2.73 24.49 24.49 0 00-5.59-1.06 3.58 3.58 0 00-2.58.87c-1 1-.83 2.63-1.14 4a7.14 7.14 0 01-2.64 3.92c-3.32 2.65-8.65 4-12.67 5.06a76.36 76.36 0 01-15 2.18 107.61 107.61 0 01-14.14 0 76.37 76.37 0 01-15-2.18c-2.61-.71-5.15-1.71-7.69-2.63-2.79-1-5.73-2.75-6.68-5.68-.85-2.6-1.44-5.55-4.72-5.53-3.55 0-7.53 1.44-10.9 2.44a108.34 108.34 0 00-21.9 9.38c-2.09 1.16-4.91 2.6-5.5 5.16-.48 2.06 1.19 2.92 2.67 3.81q2.67 1.63 5.47 3a82.69 82.69 0 0011.43 4.65 151.91 151.91 0 0023.4 5.74c4.57.72 9.2 1.52 13.84 2.07s9.5.89 14.27 1.27a107.35 107.35 0 0016.63 0c4.76-.38 9.53-.71 14.27-1.27s9.26-1.35 13.88-2.08a151.91 151.91 0 0023.4-5.74 78.31 78.31 0 0016.58-7.5c2.09-1.23 4.24-2.52 2.91-5.15zm-149.47 1a1.85 1.85 0 01-1.68.12c.58-3 3.21-5 5.76-6.31a28.38 28.38 0 014.23-1.76 23.74 23.74 0 015.11-1.5c.37.53-.32 1.16-1.33 1.76-1.46.87-3.66 1.66-4.1 1.91a29.53 29.53 0 00-6.64 4.66 6.39 6.39 0 01-1.36 1.13zm15.11-3a.89.89 0 01-.26.45c-.24.25-.49.48-.75.71-1.92 1.68-4.3 2.68-6.14 4.43a2.14 2.14 0 01-.63.49.64.64 0 01-.72-.11c-.8-1 1.55-2.79 2-3.38a9.51 9.51 0 011.13-1.24 9.79 9.79 0 014-1.85 1.72 1.72 0 01.84-.09.6.6 0 01.51.6zm26.08 4.3a16.84 16.84 0 01-6.15-2 17.75 17.75 0 01-7.39-8c-.75-1.78.13-2.05 1.36-1.26s2.07 2.15 3.1 3.07a26.14 26.14 0 007.81 4.82c1.12.44 2.32.69 3.47 1.07 1.74.57 1.83 1.16 1.23 1.6a6 6 0 01-3.46.73zm24.46 9.38c-3.54.57-7.27 1.2-10.91.78a23.5 23.5 0 01-12.65-5.16c-.27-.22-.53-.62-.28-.85a.61.61 0 01.29-.11 5.43 5.43 0 012.43.32c6 1.72 11.73 3.46 18 3.62h1.34a5.78 5.78 0 012.23.28.73.73 0 01.4.33c.15.41-.41.72-.85.79zm-7.32-7c-.48-.15-1.06-.53-.87-1s.49-.38.83-.4c4.07-.37 8 .12 12.07 0 2.21 0 4.39-.05 6.6-.25s4.23-.71 6.34-1l2.28-.32a1.09 1.09 0 011 .18c.38.39 0 1.06-.53 1.28l-.83.35a44.72 44.72 0 01-4.74 1.72 40.11 40.11 0 01-22.19-.53zm44.86 1.92a49.69 49.69 0 01-10.57 4.95 43.77 43.77 0 01-5.75 1.5c-1.72.33-3.52.2-5.29.45a3.67 3.67 0 01-2.68-.29.56.56 0 01-.29-.56c.11-.44 1.33-.69 1.73-.84.64-.25 1.29-.44 2-.63l.7-.2c2.05-.58 4.07-1.23 6.08-1.9 1.8-.6 3.61-.85 5.4-1.52 3.81-1.44 7.32-3.55 11.12-5 .38-.15.85-.28 1.16 0 1.22 1.14-2.99 3.65-3.65 4.07zm10-14.92a6 6 0 01-1.78 3.08 14.94 14.94 0 01-6.56 3.77 15.76 15.76 0 01-3 .54 1.75 1.75 0 01-.72-.05.65.65 0 01-.46-.53c0-.41.44-.66.83-.81a18.56 18.56 0 007.46-5 5 5 0 001.33-3.22c0-1.2-.65-2.51 1.21-1.74s2.05 2.13 1.72 4zm25.77 10.69c-.62.15-1.11-.49-1.46-1a14.55 14.55 0 00-5.47-4.63 42.69 42.69 0 00-8.53-3.24l-2.88-.78a1.63 1.63 0 01-.72-.33.55.55 0 01-.1-.71.79.79 0 01.62-.19c1.31 0 2.71-.2 4-.08a27.9 27.9 0 012.87.54 39.28 39.28 0 014.63 1.3 10.79 10.79 0 016.82 6.34 3.18 3.18 0 01.2 2.82z" fill="#6d4139"/><path class="cls-20" d="M1077.69 326.12a28.63 28.63 0 01-2 7.86 55.41 55.41 0 01-7.71 13 81.39 81.39 0 01-16.2 15.09 46.52 46.52 0 01-12.93 6.66q-3.46 1.13-7 2.19a80 80 0 01-13.95 3c-1.6.19-3.87.86-5.3-.12s-2.09-3.7-1.76-5.46c1.15-6 7.8-8 12.77-9.48a71.52 71.52 0 0021.9-10.54 35.69 35.69 0 009.13-9.45c2.33-3.6 3.9-7.47 3.73-11.88-.06-1-.06-2.06-.18-3.08a14 14 0 00-5.06-9.68 13.08 13.08 0 00-9.41-2.92 30.86 30.86 0 00-9.52 2.07c-1.78.7-5.7 3.9-7.54 3-3.75-1.79-1.07-11.62 1.52-13.53 2-1.48 5.14-2.6 7.45-3.66a38.15 38.15 0 018.91-2.93c6.86-1.27 13.57-1.33 20.11 1.5 4.82 2.1 8.57 5.27 10.72 10.17a33.81 33.81 0 012.32 18.19z"/><path d="M898.19 248.72c.14-2 .34-4.9 2.06-6.24a5.76 5.76 0 012.6-.91 89.44 89.44 0 0113.15-1.64c2.69-.07 5.36.11 8.08.29l27 1.78a47.82 47.82 0 0011.22-.14c1.62-.28 3.32-.73 4.87-.23a3.23 3.23 0 012.21 2.63c.07.62-.32 1.11-.33 1.7 0 .91.33 1.95.39 2.86a72 72 0 01-.81 17.35c-1.08 6.09-2 12.19-3 18.29-.33 2-.79 3.84-1.16 5.62a8.42 8.42 0 01-3.57 1.95 72.13 72.13 0 01-13.38 3.08 104.8 104.8 0 01-27.41 0 72.43 72.43 0 01-13.33-3.11 8.06 8.06 0 01-3.57-1.95c-.37-1.78-.83-3.69-1.16-5.62-1-6.09-1.95-12.19-3-18.28a71.53 71.53 0 01-.83-17.35zm46.56-20.29a5.07 5.07 0 012-3.85 12.57 12.57 0 011.18.89c3.68 3.58 8.16 5.09 13.19 5.46 1.57.13 3.14.22 4.7.41a7 7 0 00.08.8 29.72 29.72 0 001.35 5.08c-3.31 0-6.37-.15-9.45-.34-2.15-.13-4.3-.22-6.45-.34s-4.3-.3-6.45-.37c-7.42-.22-14.75-.22-22.18 0-2.15.07-4.3.25-6.45.37s-4.3.21-6.45.34c-3.07.19-6.14.38-9.45.34.25-.68.42-1.17.6-1.68 1.8-.35 3.55-.64 5.27-1a32.32 32.32 0 0014.14-7.78c.6-.54 1-1.33 2.07-1.46 3 4 7.15 6.21 11.81 7.58a14.32 14.32 0 006.65.68c3-.52 3.72-1.46 3.81-4.5a2.82 2.82 0 01.03-.63z" fill="#f40010"/><path class="cls-23" d="M926.79 182.31c2 2.23 3.34 6.72 3.52 11.84a5.8 5.8 0 01-.56 1.51 52.66 52.66 0 00-2.82-6.09 40.12 40.12 0 00-3.8-4.46 6.62 6.62 0 013.66-2.8z"/><path class="cls-23" d="M895.34 229.31a5.92 5.92 0 01.24-1.31 34.53 34.53 0 016.95-9.8 19.78 19.78 0 013.42-3.3c1.68-1.11 3.15-.76 5-.41a7.28 7.28 0 001.4.11c.45 0 2-.26 1.54-1a1.53 1.53 0 00-.89-.6 7.59 7.59 0 01-4.77-5.12 7.45 7.45 0 011.82-7.29 15.42 15.42 0 017.67-4.43c3-.85 6.16-1.47 9.4-2.26l.8 1.88c-.48.29-.92.57-1.36.85a1.75 1.75 0 00-.83 2 1.67 1.67 0 001.61 1.32 14.62 14.62 0 009.45-3c.9-.7 1.09-2.14.23-2.7-1.62-1-1.71-2.55-1.8-4.14v-1.27c2.18-2.14 5.22-3.44 7-6.15 2.17 1 2.87 2.82 3.12 4.85a14.86 14.86 0 01-4.34 12.11 1.32 1.32 0 00-.49.93 1 1 0 001 .84 2.87 2.87 0 001.35-.37 7.16 7.16 0 003.33-2.39 7.44 7.44 0 013.18-2.78c2.56-1.22 5.41.57 6.83 2.71 1.26 1.87.41 4.33-1.07 5.82a17.07 17.07 0 01-3.47 2.93 13.5 13.5 0 00-1.56.91 1.56 1.56 0 00-.6.7.83.83 0 00.14.88 1.24 1.24 0 001.12.14c2.83-.58 5.85-2.43 8.65-.73a13 13 0 013.09 2.59 36.1 36.1 0 017.14 11.34 11.3 11.3 0 01.77 3 5.27 5.27 0 01-1 .06c-2.31-.31-4.62-.66-6.94-1-1.76-.24-3.56-.29-5.29-.68a14.81 14.81 0 01-6.3-2.92c-1.15-1-2.29-1.95-3.47-2.87-1.5-1.17-2.26-1.11-3.65.27a12.33 12.33 0 00-3.85 7c-.05.37-.15.73-.23 1.1 0 .08-.1.14-.21.3a6.65 6.65 0 01-3.8-.09 20.37 20.37 0 01-7.84-3.59 19.72 19.72 0 01-2.92-3 4.22 4.22 0 01-1.11-3.35 1.88 1.88 0 00-1.57-2.13h-.15a2.29 2.29 0 00-2.15 1.5 3.54 3.54 0 00-.21 1.37 1.82 1.82 0 01-.56 1.51 28.31 28.31 0 01-16.45 9.5 20.07 20.07 0 01-7.37.16z"/><path class="cls-15" d="M988.77 377.23c1.82-1.25 3-3.21 4.25-5a48 48 0 004.57-7.43c3.32-7.12 6.71-14.21 9.88-21.39a64.68 64.68 0 004.18-13.17c.15-.78.24-1.77-.43-2.22a1.41 1.41 0 00-1.66.25 4 4 0 00-.93 1.53c-1.15 2.77-2.51 5.52-3.46 8.36-2.28 5.23-4.65 10.42-7 15.64a146.24 146.24 0 01-12.32 22.29 2.3 2.3 0 00-.57 1.83 2.78 2.78 0 002.36-.06 7.77 7.77 0 001.13-.63zm-6.55 6.47a1.74 1.74 0 001.8-1.65 2 2 0 00-1.85-2 1.86 1.86 0 00-1.66 1.58 1.93 1.93 0 001.71 2.07z"/><path class="cls-24" d="M942.71 358.81a14.58 14.58 0 011.29 3.49 14.77 14.77 0 01.68 3.67 21 21 0 01-1.95 7.16 14.84 14.84 0 01-2.37 2.87 14.2 14.2 0 01-3 2.2 14 14 0 01-3.42 1.4l-.92.22c2.83-2.21 4.74-5.57 6.29-8.94a33.7 33.7 0 003.4-12.07z"/><path d="M920.26 356a21.24 21.24 0 016.3-3.84 14.49 14.49 0 013.71-.44 14.94 14.94 0 013.71.43 12 12 0 012.67 1.16 22.76 22.76 0 00-9.21 5.59 12.13 12.13 0 01-8.21-1.85zm3.34 8.86a11.22 11.22 0 01-3.47-.07c0-.11.07-.21.12-.32.17-.35.36-.7.56-1a10.33 10.33 0 011.6-1.95c1.23.35 2.59.65 2.78.34a15.38 15.38 0 00-.86 1.56c-.21.46-.41.93-.59 1.4z" fill="#00b063"/><path class="cls-24" d="M927.26 364.07c2.14-4 5.48-6.21 9.37-7.69a30.86 30.86 0 00-9.81 21.94 16.7 16.7 0 01.44-14.25z"/><path class="cls-24" d="M928.6 380c-.49-.08.45-6.28.57-6.88a29.23 29.23 0 012.23-6.67c1.87-3.93 5-8.53 8.84-10.72 1.5 1.74.63 5 .17 6.95a39 39 0 01-2.64 7.32c-1.95 4.21-4.34 8.5-8.82 10.05z"/><path class="cls-23" d="M989 266.37a6.19 6.19 0 011.12.23 25.23 25.23 0 019.66 5.08 4.1 4.1 0 001.9 1.15c.33-.61-.11-1.35-.56-1.87a25.3 25.3 0 00-4.54-4.17c-1.5-1.06-3.35-1.59-4.8-2.66-.92-.68-1.14-1.95.08-2.34s3.15.49 4.27.87a20.69 20.69 0 0113.73 13.74 5.77 5.77 0 010 1.66 13.75 13.75 0 00-7.8-1.65h-2.25a11.57 11.57 0 01-7.68-2.92 15.23 15.23 0 01-3.05-3.64c-1.08-1.72-2.08-3.65-.08-3.48z"/><path class="cls-7" d="M925.7 261.89c4.41.55 6.29.88 12-.45a12.74 12.74 0 01.11 2.69 49.33 49.33 0 00-5.11.29c-2.43 0-4.87-.05-7.28-.2a5.42 5.42 0 01.28-2.33z"/><path d="M933.39 271.28a6.42 6.42 0 01-2.23 0c-3.41-.52-4.25-1.15-5.06-4.11 1.88.11 3.75.18 5.64.18 1 0 2 0 3-.05.7 0 1.79-.26 2.65-.25-.08.33-.15.65-.23 1-.45 1.95-1.91 2.85-3.77 3.23z" fill="#ee646b"/><path class="cls-23" d="M853.19 276.41a20.69 20.69 0 0113.73-13.74c.92-.31 3.3-1.21 4.18-.48 1.27 1-.91 1.33-1.65 1.67a28.06 28.06 0 00-2.69 1.47 50 50 0 00-4.8 3.51 11.46 11.46 0 00-2.43 2.72c-.26.41-.41 1.08 0 1.24a.86.86 0 00.75-.22 64.35 64.35 0 0111.46-6.41 3.82 3.82 0 012.17-.44c3.65.7-1.88 6.79-3 7.76a11.66 11.66 0 01-7.69 2.93h-2.25a13.77 13.77 0 00-7.8 1.66 6.67 6.67 0 01.02-1.67z"/><path class="cls-27" d="M1081.94 306.41a22.79 22.79 0 00-8.13-11.51 31.81 31.81 0 00-17-6c-5.54-.42-11 .69-16.33 2.27-4.58 1.35-8.57 3.9-12.52 6.48a52 52 0 00-.34-6c-.14-1.11-.18-2.23-.25-3.36a9.81 9.81 0 00-2-5.19 33.71 33.71 0 00-7.67-7.36 13.26 13.26 0 00-1.16-.8c-2.44-1.47-4.66-3.11-5.68-5.93a24.35 24.35 0 00-16.61-11 35.43 35.43 0 00-7.28 0c-1.4 0-2.8.31-4.2.34a17.81 17.81 0 01-9.12-2.41 3.7 3.7 0 01-2.16-3.58c0-3.09-.34-6.17-.55-9.44.65-.11 1.27-.21 1.87-.34a1.8 1.8 0 001.7-1.88c.22-2.48-.73-3.81-3.21-4.48-.62-.16-1.26-.25-1.85-.36-1-.19-1.18-3.79-1.22-5.24.33.11.66.22 1 .36a2.26 2.26 0 002.76-.69 3.65 3.65 0 001.07-3.83c-.28-1-.48-2-.76-3-1.18-4.33-3.56-8-6.16-11.59a20.9 20.9 0 00-6.39-5.85c-.55-.31-1.07-.68-1.71-1.09l.57-1.35a7.33 7.33 0 00-1.35-8.1 11.35 11.35 0 00-3.77-2.89c-1.83-.9-3.68-1.77-5.58-2.69-.16-1.31-.25-2.61-.49-3.9a9.56 9.56 0 00-4.21-6.65 4.37 4.37 0 00-6.41 1c-.23.3-.41.63-.65.92a12 12 0 01-4.08 3 20.45 20.45 0 00-1-2.24 12.14 12.14 0 00-1.82-2.46 3.25 3.25 0 00-4.36-.54 27.5 27.5 0 00-4.06 3c-1.77 1.59-1.67 3.37-.49 5.32a7.89 7.89 0 001.12 1.26l1.25 1.32a21.43 21.43 0 01-5.22 1.46 26 26 0 00-8.39 3.07 15.47 15.47 0 00-5 4.47 10.73 10.73 0 00-1.61 10.12c.17.49.31 1 .49 1.58-.37.31-.65.56-.94.78a43.43 43.43 0 00-9.86 10.73 28.07 28.07 0 00-3.41 7.06c-.79 2.37.35 4 2.85 4.31.65.07 1.31 0 2 .09.16 0 .3.18.49.32a7.62 7.62 0 01-.2 1.06 4.92 4.92 0 01-.45.81c-.59.11-1.23.2-1.86.36-2.47.67-3.41 2-3.21 4.48a1.82 1.82 0 001.71 1.88c.6.13 1.21.23 1.86.34-.21 3.27-.55 6.34-.54 9.44a3.73 3.73 0 01-2.16 3.58 17.81 17.81 0 01-9.12 2.41c-1.4 0-2.8-.3-4.2-.34a38.59 38.59 0 00-7.29 0 24.27 24.27 0 00-16.6 11c-1 2.82-3.25 4.47-5.69 5.93-.4.24-.77.52-1.15.8a33.71 33.71 0 00-7.67 7.36 9.73 9.73 0 00-1.95 5.19c-.08 1.13-.12 2.25-.25 3.36a60.08 60.08 0 00-.16 11.22c.28 4.39.58 8.78 1 13.16.36 3.73.82 7.45 1.41 11.14a141.88 141.88 0 006 22.79A92.69 92.69 0 00855 373.07c2.06 3 3.49 6.34 5.74 9.2 4.24 5.36 8.78 10.24 13.22 15.31 3.83 4.39 8.57 7.42 13.53 10.47a38.16 38.16 0 006.29 3.16c3.58 1.38 7.15 2.79 10.79 4a71.43 71.43 0 007.06 1.77 111.35 111.35 0 0025.44 2.19 68.07 68.07 0 0021.31-4c3.64-1.21 7.22-2.62 10.79-4a38.4 38.4 0 006.28-3.15 90.5 90.5 0 008.29-5.67c1.36-1.06 2.68-2.17 3.94-3.35 5.66-5.25 11.29-11 14.91-17.88.43-.81 1.73-4.39 2.88-4.41l2.23-.09c3.58-.28 7-.43 10.48-.84s7.06-.93 10.52-1.7 6.87-1.82 10.24-2.87a56.62 56.62 0 0012.62-5.36 84.06 84.06 0 0014.82-11.53 62.4 62.4 0 0014-19.21 38.37 38.37 0 001.56-28.7zm-55.83 15.66l1.81-1.49a33.69 33.69 0 0113.13-6.78c2.5-.64 5-1.19 7.73-.45a8.81 8.81 0 016.56 6.3 16.31 16.31 0 01-1.19 12.54 30.79 30.79 0 01-9 10.24 64.76 64.76 0 01-19.78 9.8c-2.48.78-5 1.5-7.53 2.1.55-1.43 1.09-2.87 1.58-4.33a142.57 142.57 0 006-22.78c.23-1.71.47-3.43.69-5.15zM989 266.37a6.19 6.19 0 011.12.23 25.23 25.23 0 019.66 5.08 4.1 4.1 0 001.9 1.15c.33-.61-.11-1.35-.56-1.87a25.3 25.3 0 00-4.54-4.17c-1.5-1.06-3.35-1.59-4.8-2.66-.92-.68-1.14-1.95.08-2.34s3.15.49 4.27.87a20.69 20.69 0 0113.73 13.74 5.77 5.77 0 010 1.66 13.75 13.75 0 00-7.8-1.65h-2.25a11.57 11.57 0 01-7.68-2.92 15.23 15.23 0 01-3.05-3.64c-1.08-1.72-2.08-3.65-.08-3.48zm-19.34 4.39c.46-2.07.27-4.28 1.24-6.3a43.86 43.86 0 0110.1 1.23 2.59 2.59 0 011.34.91 20.05 20.05 0 011.52 2.35c.65 1.13 1.22 2.33 1.95 3.42 3 4.53 7 7.53 12.52 8a37.78 37.78 0 004.76.08c2.67-.12 5 .48 6.7 2.74a4.07 4.07 0 00.53.65 2 2 0 002.06.49 2.68 2.68 0 002.13-2.63 11 11 0 01.09-1.4c.09-.48-.19-1.13.44-1.46.19 0 .41 0 .53.13a42.44 42.44 0 016.22 6.06c2.21 2.59 1.47 5.85-.38 8-.79.9-3 3.5-4.31 3.51s-3.53-2.23-4.42-2.93a37 37 0 00-4.84-3.08c-3.54-1.9-7.14-3.73-10.81-5.36-7.2-3.18-14.59-5.8-22.46-6.83-1.46-.19-3-.32-4.46-.54a7.77 7.77 0 01-1.46-.54c.34-2.27.57-4.42 1-6.52zm3 11.37c11.7 1.82 22.53 6.12 32.83 11.84 1.87 1 4.33 1.95 5.36 4 1.34 2.65-.79 3.93-2.83 5.17a78.08 78.08 0 01-16.58 7.5 152.82 152.82 0 01-23.4 5.75c-4.62.72-9.23 1.52-13.88 2.07s-9.5.89-14.27 1.26a104.92 104.92 0 01-16.63 0c-4.76-.37-9.53-.7-14.27-1.26s-9.26-1.35-13.88-2.07a152.82 152.82 0 01-23.4-5.75 82.26 82.26 0 01-11.48-4.64c-1.87-.93-3.69-2-5.46-3-1.47-.91-3.15-1.75-2.67-3.82.59-2.56 3.41-4 5.5-5.15 10.3-5.72 21.13-10 32.83-11.84 1.53-.24 3.07-.77 4.8-.36.41 2 .88 3.86 1.18 5.79a5.56 5.56 0 003.16 4.63c.76.36 1.46.89 2.23 1.18 2.54.93 5.07 1.92 7.68 2.63a76.36 76.36 0 0015 2.18 104.26 104.26 0 0014.14 0 76.36 76.36 0 0015-2.18c2.61-.71 5.14-1.7 7.69-2.63.78-.29 1.46-.82 2.22-1.18a5.59 5.59 0 003.17-4.63c.3-1.95.77-3.83 1.17-5.79 1.71-.43 3.26.1 4.79.34zm-30.27-55.43a5.13 5.13 0 012.06-3.87 14.69 14.69 0 011.18.9c3.67 3.58 8.15 5.09 13.16 5.47 1.57.11 3.14.22 4.7.41a5.31 5.31 0 00.09.79 28.44 28.44 0 001.37 5.06c-3.3 0-6.37-.15-9.44-.34-2.15-.13-4.3-.23-6.45-.35s-4.3-.3-6.45-.36c-7.43-.23-14.75-.23-22.19 0-2.15.06-4.29.24-6.44.36s-4.31.22-6.46.35c-3.07.19-6.14.37-9.44.34l.6-1.69c1.8-.35 3.55-.64 5.27-1.05a32.17 32.17 0 0014.14-7.8c.6-.53 1-1.33 2.07-1.46 3 4 7.14 6.2 11.8 7.59a14.45 14.45 0 006.65.67c3-.52 3.73-1.46 3.81-4.5a3.21 3.21 0 010-.54zm-43.69 20.47c.84 2.09 1.63 4.19 2.52 6.25a7.14 7.14 0 006.15 4.31 41.61 41.61 0 0012.3-.64 4.24 4.24 0 002.63-1.53 32.32 32.32 0 002.21-3.23A28.36 28.36 0 00926 249a5 5 0 013.44-3.05 6.67 6.67 0 014 0A5.05 5.05 0 01937 249a28.36 28.36 0 001.53 3.31 30.81 30.81 0 002.22 3.23 4.22 4.22 0 002.62 1.53 41.61 41.61 0 0012.3.64 7.13 7.13 0 006.15-4.31c.9-2.06 1.69-4.16 2.52-6.25.41-1 .8-2.09 1.24-3.13a6.09 6.09 0 01.87-1 15.15 15.15 0 01.74 4.06 71.58 71.58 0 01-.82 17.36c-1.07 6.08-2 12.19-3 18.29-.32 1.95-.78 3.84-1.16 5.61a8.39 8.39 0 01-3.57 2 73 73 0 01-13.37 3.07 103.94 103.94 0 01-27.41 0 72.62 72.62 0 01-13.37-3.07 8 8 0 01-3.58-2c-.37-1.77-.83-3.68-1.16-5.61-1-6.1-1.95-12.19-3-18.29a72.08 72.08 0 01-.81-17.36 15.15 15.15 0 01.74-4.06 6.53 6.53 0 01.86 1c.48 1 .87 2.08 1.28 3.12zm28.09-64.86c2 2.23 3.34 6.72 3.52 11.84a5.8 5.8 0 01-.56 1.51 52.66 52.66 0 00-2.82-6.09 40.12 40.12 0 00-3.8-4.46 6.62 6.62 0 013.66-2.8zm-33.21 47a5.92 5.92 0 01.24-1.31 34.36 34.36 0 017-9.8 19.72 19.72 0 013.41-3.3c1.69-1.11 3.16-.76 5-.41a6.6 6.6 0 001.4.1c.45 0 2-.25 1.55-1a1.59 1.59 0 00-.94-.58 7.59 7.59 0 01-4.77-5.12 7.43 7.43 0 011.82-7.29 15.49 15.49 0 017.68-4.43c3-.85 6.16-1.47 9.4-2.26.23.56.49 1.14.8 1.88-.49.29-.92.57-1.36.85a1.73 1.73 0 00-.83 1.95 1.67 1.67 0 001.59 1.31 14.62 14.62 0 009.45-3c.9-.7 1.09-2.14.23-2.7-1.61-1-1.71-2.55-1.8-4.14v-1.27c2.18-2.14 5.22-3.44 7-6.15 2.17 1 2.87 2.82 3.12 4.85a14.83 14.83 0 01-4.28 12.16 1.36 1.36 0 00-.49.93 1 1 0 001 .84 2.87 2.87 0 001.34-.37 7.24 7.24 0 003.34-2.39 7.39 7.39 0 013.19-2.77c2.55-1.22 5.4.57 6.83 2.71 1.25 1.87.4 4.33-1.08 5.82a16.65 16.65 0 01-3.46 2.92 14.34 14.34 0 00-1.57.92 1.7 1.7 0 00-.6.7.83.83 0 00.14.88 1.27 1.27 0 001.07.16c2.83-.58 5.85-2.44 8.65-.73a13 13 0 013.09 2.59 36.1 36.1 0 017.14 11.34 11.3 11.3 0 01.77 3 5.27 5.27 0 01-1 .06c-2.32-.31-4.62-.66-6.94-1-1.76-.24-3.56-.29-5.29-.68a14.69 14.69 0 01-6.3-2.92c-1.15-1-2.29-1.95-3.47-2.87-1.5-1.17-2.26-1.11-3.65.27a12.27 12.27 0 00-3.85 7 10.26 10.26 0 01-.24 1.1c0 .08-.1.14-.21.3a6.62 6.62 0 01-3.79-.09 17.62 17.62 0 01-10.76-6.6 4.3 4.3 0 01-1.11-3.35 1.84 1.84 0 00-1.55-2.12h-.17a2.29 2.29 0 00-2.14 1.5 3.54 3.54 0 00-.21 1.37 1.8 1.8 0 01-.57 1.51 28.24 28.24 0 01-16.4 9.49 19.91 19.91 0 01-7.42.14zm-40.39 47.09a20.69 20.69 0 0113.73-13.74c.92-.31 3.3-1.21 4.18-.48 1.27 1-.91 1.33-1.65 1.67a28.06 28.06 0 00-2.69 1.47 50 50 0 00-4.8 3.51 11.46 11.46 0 00-2.43 2.72c-.26.41-.41 1.08 0 1.24a.86.86 0 00.75-.22 64.35 64.35 0 0111.46-6.41 3.82 3.82 0 012.17-.44c3.65.7-1.88 6.79-3 7.76a11.66 11.66 0 01-7.69 2.93h-2.25a13.77 13.77 0 00-7.8 1.66 6.67 6.67 0 01.02-1.66zm-11.89 8.65a42.5 42.5 0 016.22-6.07 1.54 1.54 0 01.53-.12c.63.33.35 1 .44 1.46a10.85 10.85 0 01.09 1.4 2.67 2.67 0 002.13 2.62 1.92 1.92 0 002-.49 4.69 4.69 0 00.54-.64c1.69-2.27 4-2.86 6.7-2.75a36 36 0 004.76-.08c5.55-.49 9.55-3.51 12.52-8 .72-1.09 1.28-2.29 2-3.41a20.17 20.17 0 011.52-2.36 2.71 2.71 0 011.34-.91 44.43 44.43 0 0110.08-1.24c1 2 .78 4.23 1.24 6.3s.69 4.25 1.05 6.54a7.77 7.77 0 01-1.46.54c-1.47.22-3 .34-4.46.53-7.87 1-15.26 3.65-22.46 6.83-3.68 1.62-7.27 3.45-10.81 5.36a35.66 35.66 0 00-5.85 3.9c-1.52 1.27-3 2.05-5 1a11 11 0 01-2.73-2.44c-1.85-2.12-2.62-5.4-.41-8zm163.18 85.19c-5.05 7.47-9.78 15-15.78 21.82a64.34 64.34 0 01-13.28 11.18 43.59 43.59 0 01-11.65 5.33c-3.93 1.18-7.56 3.19-11.56 4.13-4.76 1.13-9.66 1.27-14.55 1.5a133.82 133.82 0 01-24-1.07c-4.76-.65-8.75-2.55-13.21-4.14s-8.89-3.15-12.86-5.75a64.34 64.34 0 01-13.28-11.18 205.55 205.55 0 01-14.83-19.78 95.57 95.57 0 01-12.37-25.1 140.34 140.34 0 01-5.53-21.75c-1-6.76-1.61-13.58-2-20.4-.15-2.44-.23-4.88-.32-7.31 0-.44-.14-1 .55-1.32.57.52 1.18 1.06 1.77 1.62a69.14 69.14 0 0021.93 14 125 125 0 0020.89 6.47c5.94 1.26 11.94 2.3 17.94 3.28 3.5.57 7.06.88 10.59 1.24s7.27.67 10.92 1a96.56 96.56 0 0015.4 0c3.64-.3 7.28-.6 10.91-1s7.09-.67 10.6-1.24c6-1 12-2 17.94-3.28a125.18 125.18 0 0020.85-6.49 69 69 0 0021.94-13.95c.59-.56 1.21-1.1 1.77-1.62.69.36.57.88.55 1.31-.08 2.44-.16 4.88-.32 7.32-.42 7-1.08 13.76-2.16 20.7a144.72 144.72 0 01-5.37 21.45 92.36 92.36 0 01-11.48 23.04zm75-46.47a28.49 28.49 0 01-2 7.85 55.31 55.31 0 01-7.72 13 81.39 81.39 0 01-16.2 15.09 46.68 46.68 0 01-12.91 6.66q-3.46 1.13-7 2.19a81 81 0 01-13.94 3c-1.6.2-3.88.87-5.31-.12s-2.09-3.69-1.75-5.46c1.15-6 7.8-8 12.77-9.48a71.13 71.13 0 0021.84-10.5 35.38 35.38 0 009.14-9.44c2.33-3.6 3.9-7.47 3.72-11.88 0-1 0-2.06-.17-3.08a13.93 13.93 0 00-5.06-9.68 13.15 13.15 0 00-9.41-2.93A30.86 30.86 0 001036 311c-1.78.7-5.7 3.9-7.54 3-3.76-1.79-1.07-11.62 1.52-13.53 2-1.46 5.14-2.6 7.44-3.67a37.82 37.82 0 018.91-2.92c6.87-1.28 13.58-1.34 20.11 1.5 4.83 2.09 8.58 5.25 10.73 10.17a34.09 34.09 0 012.28 18.18z"/><path class="cls-27" d="M957.81 282.31a24 24 0 00.37 3.49c.06.35.18.77.53.86a.63.63 0 00.66-.31 1.78 1.78 0 00.23-.74q.93-5.42 1.67-10.88a38.62 38.62 0 00.57-9.53 1.23 1.23 0 00-.18-.59.87.87 0 00-1.18-.06 2.36 2.36 0 00-.68 1.12 35.41 35.41 0 00-1.8 10.15c-.15 2.18-.27 4.33-.19 6.49zm-18.56-25.25a2.47 2.47 0 00-2.15-.22c-.35.12-.66.37-1 .49-3.41 1.18-6.82 2-10.24-.07l-.25-.11a3 3 0 00-4 2.41c-.09.93 0 1.88 0 2.81a17.69 17.69 0 001 7.46 7.09 7.09 0 005 4.87 22.05 22.05 0 004.39.82c4.21.17 8.65-2.54 9.27-6.92.29-2 .66-4.06.81-6.11.27-3.3-.08-3.78-2.83-5.43zm-13.55 4.83c4.41.55 6.29.88 12-.45a12.74 12.74 0 01.11 2.69 49.33 49.33 0 00-5.11.29c-2.43 0-4.87-.05-7.28-.2a5.42 5.42 0 01.24-2.33zm7.69 9.39a6.42 6.42 0 01-2.23 0c-3.41-.52-4.25-1.15-5.06-4.11 1.88.11 3.75.18 5.64.18 1 0 2 0 3-.05.7 0 1.79-.26 2.65-.25-.08.33-.15.65-.23 1-.47 2-1.93 2.87-3.79 3.25zm-61.09-44.95c2.11-3 4.15-9.35.63-12.19a7.78 7.78 0 00-4.59-1.72c-.49 0-1.15.1-1.26.6s.3.81.65 1.08c1.95 1.51 3.41 3.33 3.13 6-.53 5.46-6.24 8.66-8.37 13.38a9.14 9.14 0 00.49 9.13c1.56 2.29 4.77 5.12 7.73 4.94a1.3 1.3 0 001.12-.55 1.1 1.1 0 00-.31-1.24 4.3 4.3 0 00-1.17-.69 7.85 7.85 0 01-4.34-6.39 8.06 8.06 0 011.73-7c1.47-1.82 3.2-3.43 4.56-5.35zm122.82-13.79a7.71 7.71 0 00-2.08-1 2.87 2.87 0 00-1.12-.19 1 1 0 00-.9.61c-.16.49.24 1 .59 1.42a14.05 14.05 0 013.09 6.31c.11.56.19 1.13.26 1.7.51 4.25-1.08 6-4 8.65-4.63 4.13-3.41 9.05-.28 13.77.37.56 1.6 1.46 2.28 1a1 1 0 00.39-1 3.9 3.9 0 00-.44-1.08 10 10 0 01.1-8.88c1.35-2.64 4.16-3.9 5.54-6.54 2.33-4.53.87-11.8-3.43-14.77zm16.27 8.18a5.67 5.67 0 00-3.54-1.24.62.62 0 00-.41.12.57.57 0 00-.11.38 4.78 4.78 0 00.24 1.68q.24.65.54 1.26a16.5 16.5 0 011.44 6.06c.14 3.27-1.18 5.13-2.86 7.71a8.51 8.51 0 00-.52 8.1c.48 1.13 2.68 5.1 4.27 3.9a1.61 1.61 0 00.34-1.85c-.23-.63-.66-1.16-.93-1.77a5.56 5.56 0 01-.38-2.09 10.6 10.6 0 011.49-5.74c1.07-1.62 2.71-2.74 3.53-4.57 1.56-3.44.23-9.38-3.1-11.95zM852.85 222a15.55 15.55 0 00-3.13-.9.86.86 0 00-.82.12.58.58 0 00.05.77 2.06 2.06 0 00.71.49c8.29 4.15.45 13.05-.54 18.72a9.57 9.57 0 003.45 9.32c.7.55 3.19 1.7 4 1.1 1.14-.82-3-4.55-3.48-5.46-2.35-4.28 2-9.75 3.19-13.76a10.37 10.37 0 00-.27-7.34 5.92 5.92 0 00-3.16-3.06zm57.53 114.47c.12.31.33.8.64 1.47l1.09 2.36c.4.9.67 1.51.81 1.85s.31.78.49 1.33a14.72 14.72 0 00.75 1.79 14.13 14.13 0 00.73 1.39 3 3 0 00.61.71 4 4 0 00.74.49 4.14 4.14 0 001 .29 1.2 1.2 0 00.8-.2.8.8 0 00.35-.54 3.65 3.65 0 000-.66 8 8 0 00-.12-1 10.73 10.73 0 00-.89-2.26l-1.64-3.49a9.68 9.68 0 003-1.14c.9 1.95 1.4 3.11 1.52 3.5s.25.77.41 1.16a11.4 11.4 0 00.68 1.41c.31.54.53.83.66.86a1.09 1.09 0 00.68-.23 2.38 2.38 0 00.7-.6c.16-.23.3-.46.44-.71a1.52 1.52 0 00.13-.94 4.61 4.61 0 00-.25-1 15.88 15.88 0 00-.69-1.53 22.33 22.33 0 00-1.46-2.5c-.62-.94-1-1.61-1.27-2s-.49-.89-.8-1.38-.53-.92-.72-1.25a3.92 3.92 0 00-.67-.89 1.53 1.53 0 00-1-.46 1.12 1.12 0 00-.76.12.55.55 0 00-.14.53 6.53 6.53 0 00.56 1.49q.48 1.11 1.26 2.82a8.52 8.52 0 00-3.12.92 32.2 32.2 0 00-2.05-3.56c-.49-.67-.88-1-1.2-1.1a1.44 1.44 0 00-1.17.48 1.2 1.2 0 00-.52 1.29c.2.49.32.88.42 1.18zm16.69 7.74a2.46 2.46 0 001.1.25 20.56 20.56 0 003.13-.27 5.89 5.89 0 003.11-1.82 3.75 3.75 0 00.76-1.13 12.93 12.93 0 00.46-1.23 7.88 7.88 0 00-.3-2.73 8.09 8.09 0 00-1-2.19 6.17 6.17 0 00-1.28-1.46 3.68 3.68 0 00-1.42-.72c-.69 0-1.4 0-2.15-.05a2.77 2.77 0 00-2 .65 4.78 4.78 0 00-1.29 2.07 14.45 14.45 0 00-.54 2.43c-.17 2.47-.08 4.07.3 4.83a2.88 2.88 0 001.12 1.37zm1.19-4.21a2.17 2.17 0 01.49-1.18 1.47 1.47 0 011-.63 2 2 0 011 .06 2.25 2.25 0 01.75.43 1.16 1.16 0 01.23 1.07 3.46 3.46 0 01-1.3 1.86l-.55.3a1.29 1.29 0 01-1.28-.64 2.23 2.23 0 01-.29-1.27zm10.4 6.19c.25 0 .65-.27 1.21-.81a11.18 11.18 0 001.82-2.74c.65-1.28 1.32-2.56 2-3.82l1.52.84a3 3 0 001.23.37 1.35 1.35 0 001-1.15c.17-.66.07-1.13-.29-1.4-.75-.27-1.43-.54-2-.81a7 7 0 001-1.28 8.6 8.6 0 00.35-1 2 2 0 00-.09-1.36 4.64 4.64 0 00-1.62-.55 1 1 0 00-.86.31c-.2.23-.37.45-.53.65l-.77 1.87a2.4 2.4 0 01-.94-.79 2 2 0 00-1.1-.76 1.42 1.42 0 00-1.07 0 1 1 0 00-.49.44l-.33.71a1.33 1.33 0 000 1.07 1.84 1.84 0 001 1l1.46.69-2.24 4.8a4.51 4.51 0 00-.91.94 2.8 2.8 0 00-.13 2.58 1.12 1.12 0 00.78.2zm-40.8 25.19a1.35 1.35 0 00.87-.35 8.54 8.54 0 00.68-.65 2.09 2.09 0 00.49-.72 1.42 1.42 0 000-.79 1.24 1.24 0 00-.33-.59 1.44 1.44 0 00-.55-.28 3.37 3.37 0 00-.71-.09 2.7 2.7 0 01-1-.27 2.49 2.49 0 01-.94-.62 1.83 1.83 0 01-.46-.88 2.24 2.24 0 010-1 1.85 1.85 0 01.4-.85 1.65 1.65 0 01.85-.48 3.61 3.61 0 011.13-.18h1c.28 0 .78 0 1.4.09a15 15 0 011.64.2c.48.08.87.16 1.21.23a3.74 3.74 0 011 .4 3 3 0 01.89.69 1.81 1.81 0 01.37 1.14 1 1 0 01-.39 1 2.12 2.12 0 01-.84.3q-.42.06-1 .09a4.12 4.12 0 00-1.15.23 1 1 0 00-.65.55 3.18 3.18 0 00-.08 1 2.7 2.7 0 00.19 1 1.25 1.25 0 00.39.49 1.93 1.93 0 00.65.3 3.45 3.45 0 00.7.13c.2 0 .75 0 1.64-.12a8.13 8.13 0 002-.4 4.28 4.28 0 001.12-.64 2.36 2.36 0 00.65-.85 7.53 7.53 0 00.38-1.07 6.32 6.32 0 00.22-1.15v-1.55a4.1 4.1 0 00-1-2.81 4 4 0 00-.94-.79 4.15 4.15 0 00-1-.43 8.18 8.18 0 00-1.1-.2c-.37 0-.81-.07-1.33-.09s-1.36 0-2.54 0l-2.5.09a10 10 0 00-1.31.1 5.77 5.77 0 00-1.3.33 3.65 3.65 0 00-1.26.78 8.51 8.51 0 00-.89.91 2.67 2.67 0 00-.48 1 6 6 0 00-.2 1.39v1.66a5.42 5.42 0 00.42 2 3.2 3.2 0 00.49.71 4 4 0 00.76.54 3.27 3.27 0 001.2.43 5.55 5.55 0 001.21.07zm8.65 9.55a4.13 4.13 0 000-2.46 17.35 17.35 0 00-.85-2c.81-.49 1.7-1 2.67-1.55a5 5 0 002.12-2 1.43 1.43 0 00-.31-.91.86.86 0 00-.79-.37 12.7 12.7 0 00-2.62 1L899.9 376c-1.2.49-1.91.81-2.11.92s-.52.26-.94.49a2 2 0 00-.79.64 2.25 2.25 0 00-.08 1.18 2.42 2.42 0 00.57 1.07 2.44 2.44 0 001.58.54 13.65 13.65 0 002.43-1.26 5.12 5.12 0 001.13-.88 6.24 6.24 0 001.71-.25c.27.64.22.58.19.87a2.38 2.38 0 01-.49 1.07 2.27 2.27 0 01-1 .87c-.36.16-1.07.5-2.15 1s-1.57 1-1.51 1.5a5.09 5.09 0 00.31 1.19 1.21 1.21 0 00.58.66c.24.11.92-.11 2-.66a19.85 19.85 0 002.17-1.19l1.46-1.07a5.31 5.31 0 001.55-1.76zm7.85 4.07c-.52-.45-1.05-.92-1.6-1.44a2.8 2.8 0 00-1.92-.79 4.8 4.8 0 00-2.32.73 16.3 16.3 0 00-2 1.5q-2.6 2.64-2.92 3.86a2.9 2.9 0 00-.08 1.75 2.44 2.44 0 00.67.89 19.29 19.29 0 002.56 1.84 5.84 5.84 0 003.55.64 3.65 3.65 0 001.3-.36 9.92 9.92 0 001.15-.64 7.68 7.68 0 001.56-2.26 8 8 0 00.67-2.32 6.37 6.37 0 000-1.95 3.67 3.67 0 00-.62-1.45zm-4.36 5.22a3.53 3.53 0 01-2.2.57l-.61-.13a1.32 1.32 0 01-.56-1.32 2.26 2.26 0 01.61-1.16 2.16 2.16 0 011.12-.58 1.52 1.52 0 011.16.15 2 2 0 01.71.69 2.24 2.24 0 01.29.82 1.26 1.26 0 01-.54 1zm14.66 1.16a3.81 3.81 0 00-.7-1.26 3.77 3.77 0 00-1.26-1 8.49 8.49 0 00-1.62-.59 3.17 3.17 0 00-1.56 0 2.79 2.79 0 00-1.22.71 6.49 6.49 0 00-1.09 1.7 10.79 10.79 0 00-.92 3.09c-.21 1.25-.33 2.18-.38 2.8a4.76 4.76 0 00.06 1.41 2.1 2.1 0 00.42.86 2.33 2.33 0 00.8.63l1.71.64a2.92 2.92 0 001.55.18 4.05 4.05 0 001.39-.49 2.71 2.71 0 00.94-.84 5.19 5.19 0 00.49-1 1.44 1.44 0 000-1.08 1 1 0 00-.75-.66.7.7 0 00-.83.45c-.76.76-1.26 1.13-1.5 1.14a1.93 1.93 0 01-.75-.15c-.27-.1-.49-.49-.66-1.15a5 5 0 01.55-2.92q.81-1.92 1.41-1.89a2.58 2.58 0 011.12.28 3.87 3.87 0 011.19 1.69 1.79 1.79 0 001.61 0 2.22 2.22 0 00.3-1.26 5 5 0 00-.3-1.29zm10.89.71a6.32 6.32 0 00-1.4-1.33 3.72 3.72 0 00-1.46-.59c-.68.06-1.4.12-2.15.15a2.76 2.76 0 00-1.9.82 5 5 0 00-1.1 2.17 15.72 15.72 0 00-.32 2.48c0 2.47.3 4.06.74 4.78a2.94 2.94 0 001.2 1.27 2.45 2.45 0 001.11.14 20.52 20.52 0 003.1-.54 5.87 5.87 0 002.92-2.1 3.75 3.75 0 00.66-1.19 10.79 10.79 0 00.34-1.27 7.89 7.89 0 00-.53-2.68 8.5 8.5 0 00-1.21-2.11zM932.2 399l-.51.35a1.3 1.3 0 01-1.32-.51 2.19 2.19 0 01-.41-1.24 2.35 2.35 0 01.37-1.21 1.52 1.52 0 01.92-.73 1.91 1.91 0 011 0 2.36 2.36 0 01.79.36 1.13 1.13 0 01.32 1 3.51 3.51 0 01-1.16 1.98zm10.07-8.26l-.9-2.44-1.37-3.14a2.51 2.51 0 00-1.89-.65l-1.23.15a1.69 1.69 0 00-.67.3 1.45 1.45 0 00-.49.7 28 28 0 012.15 3 22.14 22.14 0 011.58 3.06c.41 1 .74 1.82 1 2.52s.47 1.37.66 2.07a5.43 5.43 0 001.17 2.26 2.71 2.71 0 001.37.47 7.3 7.3 0 001.09-.62c.37-.25.49-.76.36-1.55zm11.32-3.19a9.73 9.73 0 01-2.63-2.19 4.94 4.94 0 00-2-1.62 5.56 5.56 0 00-1.46-.29 2.81 2.81 0 00-1.5.55 4.75 4.75 0 00-1.16.93c-.21.25-.4.48-.59.75a1.92 1.92 0 00-.35.89 2.13 2.13 0 00.11 1 3 3 0 01.16 1.07 2.29 2.29 0 00.46 1.28 1.41 1.41 0 001.09.76 1.7 1.7 0 00.86-.11 1.1 1.1 0 00.39-.44 4.46 4.46 0 00.28-.63 2.9 2.9 0 00.06-1.1 5.15 5.15 0 010-1.11.86.86 0 01.25-.49 1.52 1.52 0 01.48-.27.73.73 0 01.68.15 2.89 2.89 0 01.56.48 1.18 1.18 0 01.27.49 1.75 1.75 0 010 .72 2 2 0 01-.49.93c-.28.32-.59.64-.92 1a2.57 2.57 0 00-.69 1 1.83 1.83 0 00-.06 1 2.53 2.53 0 00.39.87c.19.28.41.58.66.92a1.86 1.86 0 001.19.68 4.12 4.12 0 001.05.11 6.86 6.86 0 00.91-.28c.29-.24.61-.49 1-.76a4.94 4.94 0 00.88-.89 1.73 1.73 0 00.37-.8c0-.21 0-.77-.13-1.71a1.84 1.84 0 01.84-.07 4.5 4.5 0 001.16 0 1.3 1.3 0 00.85-.28c.11-.13.07-.36-.13-.68a21.38 21.38 0 00-2.84-1.86zm-2.59 5.16a1.55 1.55 0 01-.8 0 1.25 1.25 0 01-.14-.78 1.32 1.32 0 01.35-.67.77.77 0 01.61-.33.71.71 0 01.49.21 1.83 1.83 0 01.26.42 1.22 1.22 0 01.09.46 1.51 1.51 0 01-.86.69zm7.37-13.91c-1.28-.65-2.55-1.32-3.81-2l.86-1.51a3 3 0 00.36-1.23 1.34 1.34 0 00-1.13-1 1.28 1.28 0 00-1.41.3c-.27.75-.54 1.42-.82 2a6.93 6.93 0 00-1.27-1 6.07 6.07 0 00-1-.36 2 2 0 00-1.36.07 4.47 4.47 0 00-.56 1.62 1 1 0 00.3.87l.65.52 1.86.79a2.26 2.26 0 01-.8.93 2.12 2.12 0 00-.76 1.1 1.47 1.47 0 00-.05 1.07 1 1 0 00.44.49l.71.33a1.29 1.29 0 001.07 0 1.84 1.84 0 001-1c.23-.48.48-1 .69-1.46l4.79 2.27a4.77 4.77 0 00.93.92 2.56 2.56 0 001.13.37 2.61 2.61 0 001.46-.23 1.21 1.21 0 00.3-.74c0-.24-.28-.65-.81-1.21a10.8 10.8 0 00-2.77-1.91zm7.23-13.91a3.74 3.74 0 00-.61-1.17 3.69 3.69 0 00-1-.91 2.91 2.91 0 00-1.11-.46 5 5 0 00-1-.07 1.1 1.1 0 00-.64.17.78.78 0 00-.19.59 1.46 1.46 0 00.14.74 2.91 2.91 0 00.57.69 4.58 4.58 0 00.7.55 1.56 1.56 0 01.48.57 1.17 1.17 0 01.06 1 1.84 1.84 0 01-.49.87 2.45 2.45 0 01-2.7.44 2.9 2.9 0 01-.21-1.3 3.91 3.91 0 00.15-.83 5.48 5.48 0 00-.12-1.51 8.62 8.62 0 00-.33-1.4 1.46 1.46 0 00-.68-.75 3.55 3.55 0 00-1.52.12 5.35 5.35 0 00-1.46.81 3.67 3.67 0 00-1.24 1.57 6 6 0 00-.45 2.13 3.39 3.39 0 00.06 1.73 4.5 4.5 0 00.79 1.46 3 3 0 001.37 1 10.3 10.3 0 002.14.44 16.48 16.48 0 003 0 9.55 9.55 0 002.44-.38 2.46 2.46 0 001.25-1.13 7.39 7.39 0 00.74-2.64 7.53 7.53 0 00-.14-2.33zm-8.68 3.31a.77.77 0 01-.56-.4 4.34 4.34 0 01-.21-.88 3.13 3.13 0 01.05-1.22 1.44 1.44 0 01.42-.84 1.25 1.25 0 01.91-.14 23.56 23.56 0 01.33 3.46 1.59 1.59 0 01-.94.02zm-53.43-15.53c3.12 0 3.12-4.85 0-4.85s-3.13 4.85 0 4.85zm52.29-.17c3.12 0 3.13-4.85 0-4.85s-3.12 4.85 0 4.85zm-25.51 30.77a18.77 18.77 0 008.62-2.38 18.53 18.53 0 006.51-6.18 19.51 19.51 0 000-17.49 17.88 17.88 0 00-2.76-3.65l-.33-.28a.69.69 0 00-.49-.42 23.36 23.36 0 00-3-1.88 17 17 0 00-4.13-1.91 18 18 0 00-4.51-.51 17.68 17.68 0 00-4.52.53 25.93 25.93 0 00-7.69 4.68c-1.18 1.18-4.62 3.84-1.75 5.21.66.31 1.31.44 2 .8.39.23.78.44 1.18.64a12.4 12.4 0 00-1.43 2.06c-.51.95-1.42 2.55-1.11 3.68.37 1.32 2.11 1.46 3.24 1.6a14.16 14.16 0 002.76.09 18.87 18.87 0 00-.36 3.82 20.58 20.58 0 00.5 4.32c.39 1.72 1.09 4.93 2.35 6.23a2.73 2.73 0 00.87.59 10.78 10.78 0 004.05.45zm12.44-24.46a14.58 14.58 0 011.29 3.49 14.77 14.77 0 01.68 3.67 21 21 0 01-1.95 7.16 14.84 14.84 0 01-2.37 2.87 14.2 14.2 0 01-3 2.2 14 14 0 01-3.42 1.4l-.92.22c2.83-2.21 4.74-5.57 6.29-8.94a33.7 33.7 0 003.4-12.07zM920.26 356a21.66 21.66 0 016.3-3.84 16.22 16.22 0 017.42 0 11.13 11.13 0 012.67 1.16 22.54 22.54 0 00-9.21 5.59 12.19 12.19 0 01-8.21-1.85l1.07-1.06zm3.34 8.9a11.22 11.22 0 01-3.47-.06 3 3 0 01.12-.32c.17-.36.36-.7.56-1a10.65 10.65 0 011.6-1.95c1.23.36 2.59.66 2.78.34a16.54 16.54 0 00-.86 1.56c-.21.46-.41.93-.59 1.41zm3.66-.78c2.14-4 5.48-6.21 9.37-7.7a30.88 30.88 0 00-9.81 21.95 16.72 16.72 0 01.44-14.26zM928.6 380c-.49-.09.45-6.28.57-6.88a28.91 28.91 0 012.23-6.67c1.87-3.94 5-8.54 8.84-10.73 1.5 1.75.63 5 .17 7a38.67 38.67 0 01-2.64 7.31c-1.95 4.21-4.34 8.51-8.82 10.06z"/><path d="M958.85 244.23a1.22 1.22 0 00-.43.31 3 3 0 00-.54 1.05 45.38 45.38 0 01-3.13 6.88 2.19 2.19 0 00-.34.91c-.07 1.61 2.35 1.19 2.93.29a17.55 17.55 0 002.74-7.92c0-.59 0-1.34-.59-1.55a.79.79 0 00-.64.03zm-38.17 0a1.31 1.31 0 00-.43.31 3.09 3.09 0 00-.54 1.05 45.69 45.69 0 01-3.15 6.9 2 2 0 00-.34.91c-.07 1.61 2.35 1.19 2.92.28a17.37 17.37 0 002.75-7.91c0-.6 0-1.34-.59-1.56a.88.88 0 00-.62.02z" fill="#d6c3b0"/><path class="cls-29" d="M398.39 272.77c-3 8.5-2.53 19.05-2.92 28-.4 9.18-1.37 19.26.33 28.32.52 2.81 4.35 1.8 4.62-.63 1-9.32-.23-19.28-.09-28.68.14-8.76 1.82-18.32.56-27-.2-1.38-2.13-1.07-2.5 0z"/><path class="cls-29" d="M370.31 301.78c9.19.89 18.44.94 27.66 1.17s18.47.63 27.66 0a2.57 2.57 0 000-5.14c-9.18-.9-18.44-.72-27.66-.72s-18.46-.17-27.66.5a2.12 2.12 0 000 4.23zm370.42-12.53c9.29 2.71 20.29 2.3 29.81 1.31 3.26-.34 3.43-5.27 0-5.22-9.65.15-19.71-.72-29.29.11-2.1.18-2.71 3.16-.52 3.8zm.09 25.84c8.4 2.89 17.86 2.75 26.64 1.68 3.27-.4 3.49-5.22 0-5.27-8.84-.1-17.91-.63-26.64.55-1.67.23-1.3 2.59 0 3z"/></g></svg>