<svg xmlns="http://www.w3.org/2000/svg" viewBox="0 0 1200 600"><defs><linearGradient id="linear-gradient" x1="571.83" y1="136.62" x2="660.83" y2="652.81" gradientUnits="userSpaceOnUse"><stop offset="0" stop-color="#fff"/><stop offset=".25" stop-color="#f6fbfd"/><stop offset=".66" stop-color="#dceef6"/><stop offset="1" stop-color="#c2e2ef"/></linearGradient><clipPath id="clip-path"><path fill="none" d="M90.26 261.29H239v148.74H90.26z"/></clipPath><style>.cls-32{fill:none}.cls-3{fill:#524538}.cls-4{fill:#fbe2ed}.cls-6{fill:#f4a2c6}.cls-7{fill:#fff}.cls-12{fill:#faddea}.cls-14{fill:#f8b79d}.cls-17{fill:#40bd0f}.cls-18{fill:#f40010}.cls-27{fill:#712d8d}.cls-28{fill:#ae7ec1}.cls-29{fill:#efe0ef}.cls-30{fill:#9251a8}.cls-31{fill:#a874bb}.cls-32{stroke:#712d8d;stroke-miterlimit:10}.cls-34{fill:#e535ab}.cls-35{font-size:24px;font-family:Mukasi_Mukasi__G}.cls-35,.cls-36{fill:#4d4d4d}</style></defs><path fill="url(#linear-gradient)" d="M0 0h1200v600H0z" id="Layer_2" data-name="Layer 2"/><g id="Layer_1" data-name="Layer 1"><path class="cls-3" d="M688.05 482.81a6.44 6.44 0 01-.71 1.5 3.24 3.24 0 01-.87.86 7.29 7.29 0 01-1.05.6 3.11 3.11 0 01-1.11.3 8.58 8.58 0 00-.87.1 3.77 3.77 0 01-1.06 0 1.75 1.75 0 01-1.07-.43 1.88 1.88 0 01-.44-.64 3.58 3.58 0 01.43-2.34 3.56 3.56 0 01.83-.72 6.34 6.34 0 01.92-.51 5.25 5.25 0 01.79-.27 2.66 2.66 0 00.68-.26 1.61 1.61 0 00.52-.52 2.8 2.8 0 00.33-.93 5.08 5.08 0 00.12-1.1 7.57 7.57 0 00-.06-1 3.38 3.38 0 00-.24-.88 3.52 3.52 0 00-.34-.67 1.85 1.85 0 00-.58-.46 1.69 1.69 0 00-.91-.18l-.94.08a2.07 2.07 0 00-.8.28c-.24.14-.47.28-.68.43a2.82 2.82 0 00-.56.53c-.16.21-.37.48-.61.81a7.35 7.35 0 00-.64 1c-.19.36-.45.8-.78 1.33l-.9 1.42a9.51 9.51 0 01-.89 1.12q-.48.51-.78.78a3.2 3.2 0 01-.61.43l-.65.34a2.37 2.37 0 01-1 .21 5.6 5.6 0 01-1.35-.11c-.48-.09-.93-.2-1.34-.32a8.43 8.43 0 01-1.13-.41 5.55 5.55 0 01-1-.54 5.12 5.12 0 01-.88-.86 5.62 5.62 0 01-.83-1.47 5.41 5.41 0 01-.31-2.36 19.37 19.37 0 01.21-2.14 5.78 5.78 0 01.51-1.5 4.79 4.79 0 011-1.42 5.3 5.3 0 011-.85 3 3 0 01.75-.29 2.54 2.54 0 011 0 2.77 2.77 0 011.08.4 1.67 1.67 0 01.64.94 2.17 2.17 0 01.13 1 1.54 1.54 0 01-.29.67 4.57 4.57 0 01-.71.68 1.44 1.44 0 00-.56.84 4.36 4.36 0 000 1 2 2 0 00.3.94 2.25 2.25 0 00.58.61 2.15 2.15 0 00.83.31 5.32 5.32 0 001.13.06 2.72 2.72 0 001-.21 7.52 7.52 0 00.79-.43 1.77 1.77 0 00.66-.75 14.58 14.58 0 01.82-1.37 11.5 11.5 0 011.45-1.64 5.69 5.69 0 011.39-1.13 4.18 4.18 0 011-.32 11.82 11.82 0 011.57-.1 5.94 5.94 0 012.05.32 6.94 6.94 0 011.67.8 4.42 4.42 0 011.2 1.2 3.33 3.33 0 01.57 1.09c.05.25.11.68.19 1.29a7.24 7.24 0 010 1.74c.04.53-.19 1.57-.59 3.12zm2.78-15.81a3.49 3.49 0 01-1.83.83 3.55 3.55 0 01-1.62-.08 6.6 6.6 0 01-1.55-.88l-7.12-1.26-.39 2.19a2.48 2.48 0 01-.92 1.64 1.81 1.81 0 01-1.41.42l-1-.19a1.37 1.37 0 01-.75-.46 2 2 0 01-.32-1.43 2.75 2.75 0 01.61-1.71 3.35 3.35 0 00.72-1.52l-2.74-.37-1-.46a1.36 1.36 0 01-.72-1 6.5 6.5 0 01.16-2.33 2.68 2.68 0 011.76-.59 8.89 8.89 0 011.46.11 9.64 9.64 0 012 .88q.23-1.31.36-2.94c.23-.56.82-.86 1.74-.88a1.84 1.84 0 011.86.9 4 4 0 01-.05 1.75c-.14.59-.33 1.36-.58 2.29q2.87.69 5.75 1.31a14.67 14.67 0 014.25 1.43c.9.54 1.4 1 1.49 1.31a1.47 1.47 0 01-.16 1.04zm1.61-10.56q-.8.62-5.8-.27-2.48-.69-5.08-1.27a11.54 11.54 0 01-3.52-1.22 2.33 2.33 0 01-1.07-1.51c-.09-.59.44-1.1 1.61-1.55l3.27.44-.78-1.43c-.22-.63-.43-1.29-.61-2a6.74 6.74 0 01-.21-2.19 2.15 2.15 0 011.46-1.53 8 8 0 012.43-.28 10.19 10.19 0 012.21.25 2 2 0 011.09.56 1.13 1.13 0 01.1 1 1.23 1.23 0 01-.51.84 8.24 8.24 0 00-1.52 1.54 5.19 5.19 0 000 3.49l.89.16a11.78 11.78 0 012.3.08c.77.09 1.56.22 2.4.37a2.69 2.69 0 011.59 1.48 6 6 0 01.3 1.68 1.65 1.65 0 01-.55 1.36zm2.98-16.09a10.21 10.21 0 01-.73 1.08 5.05 5.05 0 01-1.23.77 2.46 2.46 0 01-1.84.29l-1.49-.42a3.56 3.56 0 01-1.15-.58 2.46 2.46 0 01-.79-1.14 3.43 3.43 0 01-.15-1.68c.09-.62.14-1.22.17-1.81a2.56 2.56 0 00-.26-1.41 2.36 2.36 0 00-.6-.77 1.6 1.6 0 00-.72-.31 4.19 4.19 0 00-1 0 1 1 0 00-.85.42 2.29 2.29 0 00-.3.72 1.17 1.17 0 00.15.73 6.68 6.68 0 00.94 1.18 3.79 3.79 0 01.87 1.24 8.46 8.46 0 01.23.9 1.5 1.5 0 010 .81 2.41 2.41 0 01-.83.84 1.93 1.93 0 01-1.81.12 3.08 3.08 0 01-1.57-1 4 4 0 00-1.08-1 2.79 2.79 0 01-1-1 2.65 2.65 0 01-.38-1.25v-1.31a6.67 6.67 0 01.45-2 3.7 3.7 0 011.17-1.85 7.14 7.14 0 011.81-1 7 7 0 013.49 0 13.51 13.51 0 004.66.09 30.28 30.28 0 014.55-.4c.49.17.73.38.73.62s-.23.58-.66 1a7.11 7.11 0 01-1.24 1 2.33 2.33 0 00-.84.78q1.33 1.38 1.59 1.71A2.1 2.1 0 01696 437a6.11 6.11 0 01-.18 1.7zm-1.9-3a1.87 1.87 0 00-.52-.35 2.11 2.11 0 00-.64-.22.89.89 0 00-.7.19 1.07 1.07 0 00-.37.86 1.91 1.91 0 00.2 1 1.83 1.83 0 00.81.7 2.19 2.19 0 00.86-.68 2 2 0 00.32-1.47zm4.27-11.64a3.23 3.23 0 01-2 1.07 18.68 18.68 0 01-5 .32q-3.42-.14-6.85-.48c-1.71-.58-2.47-1.39-2.25-2.42s.75-1.53 1.63-1.5a28.41 28.41 0 003.45-.11c1.43-.12 2.84-.29 4.24-.51v-.25a28.9 28.9 0 00-3.61-2 25.74 25.74 0 01-2.75-1.45 2 2 0 01-.93-1.55 24 24 0 013.5-.35q1.75 0 5.76.27c-4.48-1.34-7-2.55-7.64-3.62a2.08 2.08 0 01-.19-1.27 1.57 1.57 0 011.34-1.78 1.55 1.55 0 011.14.28c.69.16 1.38.3 2.08.42q2.35.9 4.61 2a13.34 13.34 0 013.71 2.7c1 1.06 1.39 1.83 1.18 2.31s-1.75 1.28-4.64 2.39q3.3 4.32 3.22 5.53zm3.33-17.58a4.13 4.13 0 01-2.8 1.56 19.14 19.14 0 01-5.55-.5c-2.53-.48-5-.91-7.52-1.27q-2.73-.74-4.2-1c-1-.19-1.35-1-1.12-2.51s.93-1.91 1.7-1.61 2 .72 3.58 1.23a5.13 5.13 0 004.49-.51 7.21 7.21 0 001.09-2.51 4.67 4.67 0 01.76-1.92A5.68 5.68 0 01693 398a3.89 3.89 0 012.65-.3l2.39.42a3 3 0 011.38.67 5.21 5.21 0 011.12 1.51 8.65 8.65 0 01.73 1.78 12.23 12.23 0 01.26 2.54 12.58 12.58 0 01-.41 3.51zm-3.07-5.22a2 2 0 00-1.07-1 3 3 0 00-1.48-.35 1.4 1.4 0 00-.9.29 4.06 4.06 0 00-.7 1.25 3.5 3.5 0 00-.37 1.63c0 .41.19.66.43.73a8.88 8.88 0 001.83.17 2.24 2.24 0 002-.58 3 3 0 00.31-2.19zm6.3-11.83a10.42 10.42 0 01-1.54 3.42 3.33 3.33 0 01-1.91 1.27 12.72 12.72 0 01-3.36 0 21.77 21.77 0 01-4-.65 14.1 14.1 0 01-2.81-1 4 4 0 01-1.66-1.57 6.07 6.07 0 01-.77-2.16 4.72 4.72 0 01.27-2.35 8.07 8.07 0 011-2.77 4.92 4.92 0 012-1.87 7.43 7.43 0 012.18-.8 4.54 4.54 0 012.07.15 1.91 1.91 0 01.77 1.13 11.82 11.82 0 01.17 2 7.51 7.51 0 01-.14 2.06 6.09 6.09 0 01-.37 1.09 4 4 0 000 1.8 3.32 3.32 0 003.73-.06 2.64 2.64 0 00.83-1.07 1.67 1.67 0 00.12-1.31 2 2 0 00-.57-.86 6.84 6.84 0 01-.82-.88 4.34 4.34 0 01-.64-1.05 2 2 0 010-1 1.1 1.1 0 01.37-.75 1.39 1.39 0 01.9-.1 6.85 6.85 0 011.36.29 4 4 0 011.41.84 5.35 5.35 0 011.76 3.13 10.44 10.44 0 01-.35 3.07zm-10.53-5a1.65 1.65 0 00-1.25 0 2 2 0 00-.74 1 4.19 4.19 0 00-.3 1.64 6.42 6.42 0 00.1 1.24 1.05 1.05 0 00.68.64 2.14 2.14 0 001.27.16 31.77 31.77 0 00.24-4.64zm11.85-4.41q-.81.61-5.8-.27-2.48-.69-5.08-1.27a11.35 11.35 0 01-3.53-1.22 2.34 2.34 0 01-1.06-1.51c-.1-.58.44-1.1 1.6-1.55l3.28.44-.78-1.43c-.23-.63-.43-1.29-.62-2a7 7 0 01-.21-2.19 2.18 2.18 0 011.47-1.53 8 8 0 012.43-.28 10.17 10.17 0 012.2.25 2.06 2.06 0 011.1.56 1.17 1.17 0 01.1 1 1.24 1.24 0 01-.52.84 8.32 8.32 0 00-1.51 1.54 5.1 5.1 0 000 3.5l.88.15a12.72 12.72 0 012.31.08c.76.09 1.56.22 2.39.36a2.74 2.74 0 011.6 1.48 6 6 0 01.3 1.68 1.7 1.7 0 01-.55 1.37zm2.44-13.8q-.81.63-5.8-.26-2.47-.69-5.08-1.28a11.35 11.35 0 01-3.53-1.22 2.31 2.31 0 01-1.06-1.51c-.09-.58.44-1.1 1.61-1.55l3.27.44-.78-1.42c-.23-.64-.43-1.3-.62-2a7 7 0 01-.21-2.19 2.22 2.22 0 011.47-1.53 8 8 0 012.43-.28 10.18 10.18 0 012.2.26 2 2 0 011.1.56 1.14 1.14 0 01.1 1 1.24 1.24 0 01-.52.84 8.32 8.32 0 00-1.51 1.54 5.1 5.1 0 000 3.5l.89.15a12.64 12.64 0 012.3.08c.76.1 1.56.22 2.39.36a2.74 2.74 0 011.6 1.48 6 6 0 01.3 1.68 1.66 1.66 0 01-.55 1.35zm3.74-13.24a1.55 1.55 0 01-1.22.22 4.56 4.56 0 01-2.06-1.66 34.81 34.81 0 00-2.43-2.58c-.75-.7-1.44-1.38-2.06-2a42.4 42.4 0 01-3.62 3.49 2.53 2.53 0 01-1.39.1 10 10 0 01-1.91-.59 2.4 2.4 0 01-1.47-1.24 2.45 2.45 0 010-1.73 8.89 8.89 0 011.47-.76 41 41 0 014.58-1.06c-1-.75-1.72-1.38-2.31-1.91s-1-.88-1.57-1.29a1.28 1.28 0 01-.66-1.07 2.4 2.4 0 011-1.39 2.15 2.15 0 011.8-.67 16.86 16.86 0 012.28.65 7.46 7.46 0 012.86 2.06q1.49 1.56 5.07 6a11.54 11.54 0 011.79 3.67 7.88 7.88 0 01-.15 1.76zm3.15-24.25a6.44 6.44 0 01-.71 1.5 3.35 3.35 0 01-.86.86 8.49 8.49 0 01-1.06.6 3.11 3.11 0 01-1.11.3 6.44 6.44 0 00-.87.1 4.19 4.19 0 01-1.06 0 1.81 1.81 0 01-1.07-.43 2 2 0 01-.44-.64 3.51 3.51 0 01.44-2.34 3.23 3.23 0 01.83-.73 6.18 6.18 0 01.91-.5 4.65 4.65 0 01.79-.28 2.64 2.64 0 00.68-.25 1.61 1.61 0 00.53-.57 2.64 2.64 0 00.33-.94 5.06 5.06 0 00.12-1.09c0-.32 0-.64-.07-1a3.94 3.94 0 00-.23-.88 3.44 3.44 0 00-.34-.66 1.55 1.55 0 00-.59-.46 1.67 1.67 0 00-.9-.19c-.33 0-.64.05-.94.09a1.9 1.9 0 00-.8.27c-.24.14-.47.28-.68.43a2.82 2.82 0 00-.56.53c-.16.21-.37.48-.61.81a8.42 8.42 0 00-.64 1c-.19.36-.45.8-.78 1.34s-.63 1-.9 1.41a8 8 0 01-.89 1.12q-.48.51-.78.78a3.14 3.14 0 01-.6.43l-.66.34a2.37 2.37 0 01-1 .21 5.48 5.48 0 01-1.34-.11c-.48-.09-.94-.2-1.35-.32a8.06 8.06 0 01-1.13-.41 5.27 5.27 0 01-.95-.54 5.12 5.12 0 01-.88-.86 5.56 5.56 0 01-.83-1.46 5.44 5.44 0 01-.31-2.36 19.32 19.32 0 01.21-2.15 5.59 5.59 0 01.51-1.49 4.88 4.88 0 011-1.43 5.43 5.43 0 011-.85 2.87 2.87 0 012.81.16 1.6 1.6 0 01.64.93 2.17 2.17 0 01.13 1 1.45 1.45 0 01-.29.67 3.76 3.76 0 01-.7.68 1.35 1.35 0 00-.56.84 4.37 4.37 0 000 1 1.91 1.91 0 00.31.95 2.21 2.21 0 00.58.6 2 2 0 00.83.31 5.26 5.26 0 001.12.06 2.73 2.73 0 001-.21 6.76 6.76 0 00.79-.43 1.85 1.85 0 00.66-.75c.25-.47.52-.93.81-1.37a11 11 0 011.44-1.75 5.51 5.51 0 011.39-1.13 4.24 4.24 0 011-.32 12 12 0 011.58-.1 6.09 6.09 0 012 .32 7 7 0 011.68.8 4.57 4.57 0 011.2 1.2 3.57 3.57 0 01.57 1.1c0 .24.11.67.19 1.28a7.79 7.79 0 010 1.74 31.7 31.7 0 01-.59 3.24zm2.11-12.23a3.16 3.16 0 01-1.06 1.23 2.81 2.81 0 01-1.38.05c-.64-.09-1.11-.16-1.42-.22s-1.34-.28-3.07-.7l-10.27-1.82a17.1 17.1 0 01-3.64-1.08 1.19 1.19 0 01-.58-1.05 2 2 0 01.41-1.25 6.88 6.88 0 014-.52c1.51.19 2.91.35 4.19.47a25.26 25.26 0 01.67-2.86 5.73 5.73 0 012-2.7 7.33 7.33 0 013.04-.7h2.44a26.13 26.13 0 013.34.46c1.67.29 2.59.6 2.77.93a1.62 1.62 0 01.1 1.2 6 6 0 01-.63 1.55c-.31.56-1.26.7-2.87.41s-2.67-.49-3.18-.6a3 3 0 00-1.76.17 3.21 3.21 0 00-1.39.8 4.74 4.74 0 00-.72 1.81 6.64 6.64 0 002.3.42 5.73 5.73 0 012-.06 17.73 17.73 0 013.69.58 3.28 3.28 0 011.28 1.87 3.35 3.35 0 01-.26 1.61zm2.6-15.15a10.77 10.77 0 01-.73 1.08 5.24 5.24 0 01-1.22.77 2.56 2.56 0 01-1.84.29c-.57-.15-1.06-.29-1.49-.42a3.44 3.44 0 01-1.16-.59 2.5 2.5 0 01-.79-1.13 3.46 3.46 0 01-.15-1.69 16.53 16.53 0 00.17-1.8 2.61 2.61 0 00-.25-1.41 2.58 2.58 0 00-.61-.78 1.68 1.68 0 00-.71-.31 4.27 4.27 0 00-1 0 1 1 0 00-.84.43 1.9 1.9 0 00-.3.72 1.14 1.14 0 00.15.72 6.69 6.69 0 00.93 1.19 3.77 3.77 0 01.87 1.23 7.43 7.43 0 01.23.9 1.4 1.4 0 010 .81 2.21 2.21 0 01-.82.84 1.93 1.93 0 01-1.81.13 3.1 3.1 0 01-1.57-1 4.19 4.19 0 00-1.09-1 2.87 2.87 0 01-1-1 2.71 2.71 0 01-.37-1.24v-1.31a6.83 6.83 0 01.46-2 3.74 3.74 0 011.16-1.85 7.46 7.46 0 011.81-.95 7 7 0 013.49 0 13.09 13.09 0 004.67.09 31.38 31.38 0 014.54-.4c.49.18.73.39.73.63s-.22.57-.66 1a6 6 0 01-1.24 1 2.48 2.48 0 00-.83.78c.89.93 1.42 1.5 1.59 1.72a2.28 2.28 0 01.29 1.16 6.14 6.14 0 01-.18 1.71c-.2.68-.32 1.21-.43 1.68zm-1.9-3a1.46 1.46 0 00-.48-.41 2 2 0 00-.64-.23 1 1 0 00-.69.19 1.06 1.06 0 00-.37.86 1.84 1.84 0 00.21 1 1.81 1.81 0 00.8.7 2.19 2.19 0 00.86-.68 2.05 2.05 0 00.31-1.47zm4.26-10.94a2.44 2.44 0 01-1 1.09 2.48 2.48 0 01-1.4 0c-.63-.15-1.25-.27-1.87-.38l-5.32-1.24a33.29 33.29 0 00-4.79.08 12 12 0 01-3.61-.08 3.93 3.93 0 01-3-2.93 3.57 3.57 0 01.06-1.78 2.67 2.67 0 011.25-1.17 5.3 5.3 0 012.92-.14c1.37.2 2.39.35 3.06.47a53.45 53.45 0 015.3 1.65 1.4 1.4 0 00-.35-1 15 15 0 00-2.32-2.13 12.21 12.21 0 01-2.62-2.62 1.83 1.83 0 01-.25-1.92 2.44 2.44 0 011.79-.86 4.86 4.86 0 012.57.62 5.29 5.29 0 012.3 2.43l1.55 2.68 1.8-1.35a5.54 5.54 0 012.26-1.67 3.78 3.78 0 012.66-.35c.49.27.67.79.55 1.56a8 8 0 01-.56 2 4.54 4.54 0 01-1.53 1.36 10.75 10.75 0 01-1.78.77l-2.94.86 4.74.68a1.81 1.81 0 011 1.79 4.43 4.43 0 01-.47 1.58zm3.57-18.39a10.23 10.23 0 01-1.53 3.42 3.33 3.33 0 01-1.91 1.27 13.1 13.1 0 01-3.36 0 22.67 22.67 0 01-4-.66 14.1 14.1 0 01-2.81-1 4 4 0 01-1.66-1.57 6.09 6.09 0 01-.77-2.15 4.69 4.69 0 01.27-2.35 7.66 7.66 0 011-2.78 4.92 4.92 0 012-1.87 7.37 7.37 0 012.17-.8 4.57 4.57 0 012.08.15 2 2 0 01.77 1.13 11.82 11.82 0 01.17 2 8.38 8.38 0 01-.14 2.06 7 7 0 01-.38 1.09 4 4 0 000 1.8 4.38 4.38 0 002.47.48 4.17 4.17 0 001.26-.55 2.54 2.54 0 00.83-1.06 1.67 1.67 0 00.11-1.31 1.9 1.9 0 00-.56-.86 6.84 6.84 0 01-.82-.88 4 4 0 01-.64-1.06 1.86 1.86 0 010-1 1.12 1.12 0 01.37-.75 1.42 1.42 0 01.9-.11 7.86 7.86 0 011.36.3 4 4 0 011.41.84 5.17 5.17 0 011.16 1.43 4.85 4.85 0 01.59 1.7 9.7 9.7 0 01-.34 3.09zm-10.52-5a1.67 1.67 0 00-1.26 0 2 2 0 00-.73 1 4.19 4.19 0 00-.3 1.64 5.77 5.77 0 00.1 1.24 1.05 1.05 0 00.68.64 2.21 2.21 0 001.27.16 31.77 31.77 0 00.24-4.64z" id="e9382c0e-56cc-4fb5-b3c4-79e84ba8d2da"/><g id="e3276678-3888-4392-9b7c-21d2ef123397"><path class="cls-4" d="M694.53 270.59a63.19 63.19 0 01-2.35 14.07 58.67 58.67 0 00-1.74 6.59c-.76 4.71.19 9.57-.49 14.29-.45 3.08-1.58 6-2.21 9.06a69.28 69.28 0 00-1 8.88c-.5 6.65-1.48 13.25-2.45 19.84-.52 3.55-1 7.09-1.78 10.6-2.75 13.23-9.58 24.52-13.93 37.14a54 54 0 00-2.2 7.63 62.67 62.67 0 00-.8 7.86 464.57 464.57 0 01-6.49 50.64q-1.39 7.89-2.94 15.75a20.83 20.83 0 01-1.12 4.13c-1.39 3.18-4.42 5.64-4.89 9.08 0 .2-12.35 3.08-13.57 3.38-10.67 2.53-21.6 3.47-32.51 4-1.76.09-3.53.14-5.29.17s-3.52-.08-5.29-.17c-10.87-.56-21.85-1.5-32.5-4-4.24-1-9-2-12.95-3.76-3.14-1.43-4-4.64-4.81-7.89q-1-4-1.94-8.12c-2.72-11.38-5.45-22.77-7.69-34.27a86.88 86.88 0 01-2-16.51c0-2.89.24-5.78.21-8.67a91.11 91.11 0 00-1-11.29 58.24 58.24 0 00-2.66-12.57c-.94-2.5-2.21-4.86-3.32-7.28a62.13 62.13 0 01-4.18-13.26c-1-4.49-2.5-8.94-3.55-13.45-1.53-6.6-2.72-13.29-3.9-19.95q-2.34-13.12-4.66-26.23l-1.16-6.28c-1.49-8.46-3-16.92-4.21-25.42-.54-3.83-1.27-11.89 3.66-13.56a56.23 56.23 0 0012.05 4.19 38.4 38.4 0 005.44.93c3.09.28 6.2.36 9.3.57 1.35.1 2.71.24 4 .46a75.23 75.23 0 0012.44 1.32c9.23 0 18.46.31 27.7 0 1.55-.05 3.1-.18 4.66-.2 2.37 0 4.74-.07 7.13-.09a17.19 17.19 0 002.27.15c2.32 0 4.63-.05 6.95-.1s4.63.1 7 .1a17.46 17.46 0 002.28-.15l7.13.09c1.55 0 3.1.15 4.66.2 9.23.31 18.46 0 27.69 0a75.35 75.35 0 0012.48-1.37c1.34-.22 2.7-.37 4-.46 3.1-.21 6.21-.29 9.31-.57a38.06 38.06 0 005.44-1.12c2.85-.67 6.29-1.32 8.86-2.79 1.8-1 3.38-2.56 5.45-.28 1.41 1.54 1.57 3.82 1.55 5.91 0 .93-.03 1.85-.08 2.78z"/><path class="cls-4" d="M509.52 254a51 51 0 016.39-8.31 25.67 25.67 0 0111.86-7.09 53 53 0 0115.49-2.24 101.1 101.1 0 0119.1 1.86c2.56.53 5.09 1.23 7.67 1.68 6 1.09 12.05 2.06 18.07 3.12a93.48 93.48 0 0015.9 1.48c4.17 0 9.09.76 13.06-.69a2.87 2.87 0 001.46-1 1.14 1.14 0 00-.22-1.57 1.72 1.72 0 00-1-.13c-4.14.21-8.26-.68-12.35-.52a66.11 66.11 0 01-11.15-.33c-6-.78-11.89-1.86-17.8-2.92-4-.71-8-1.56-12-2.45a102.3 102.3 0 00-15-2 5.09 5.09 0 01-1-.26 10.85 10.85 0 011.14-6.85 10.21 10.21 0 014.35-4.95 31.73 31.73 0 0113.61-3.79c.57 0 1.14-.11 1.72-.15a21.2 21.2 0 012.87-.12c6.47.55 12.28 3.13 18.67 4.18a9.66 9.66 0 003.82.11 2.2 2.2 0 00-.88-2 6.37 6.37 0 00-2.1-1l-3.25-1a105 105 0 00-14.8-3.69c-1.32-.23-2.67-.29-4.08-.43a9.44 9.44 0 011-4.86c2.23-5.81 6.32-10.18 11-14a31.21 31.21 0 0110.35-5.19 17.88 17.88 0 013.73-.66 2.63 2.63 0 012.67 1.18c-.49 1.61-1 3.08-1.41 4.57a9.73 9.73 0 00.48 6.55 11.81 11.81 0 007.25 6.71 33.31 33.31 0 0013.66 2.37 19.81 19.81 0 016.62.86 40.47 40.47 0 0112.67 6.36 14.06 14.06 0 013.91 5 4.11 4.11 0 01-2.73 6 30 30 0 01-3.18.39c-3.26.49-6.57.78-9.77 1.54-7.88 1.86-15.23 2.2-23.25 2.33a1.43 1.43 0 00-1.3.48c-.42.68.44 1.43 1.18 1.72a21.57 21.57 0 006.8 1.24 52.46 52.46 0 0014.8-1.68 68.69 68.69 0 0115.81-2.25c.77 0 1.55-.14 2.33-.16a18.94 18.94 0 012.61 0c2 .16 4.06.44 6.1.56a44.48 44.48 0 0111.89 2.62 43.55 43.55 0 004.18 1.24 38.94 38.94 0 0113.78 6 21.33 21.33 0 017 8.58c1.65 3.64 3 7.76-1.54 9.1-3.71 1.1-7.38 2.39-11.26 2.85a20.85 20.85 0 01-3.76.33 46.52 46.52 0 00-9.28.77c-2.5.31-5 .83-7.47 1.22a17.57 17.57 0 01-2.62.2q-14.56.07-29.15.13c-1.07 0-2.14-.05-3.2-.13a148.24 148.24 0 00-20.1-.08h-.4a140.34 140.34 0 00-20.09.08c-1.07.08-2.14.14-3.21.13q-14.56 0-29.15-.13a18.87 18.87 0 01-2.61-.2c-2.5-.39-5-.91-7.47-1.22a47.28 47.28 0 00-9.28-.77 21.8 21.8 0 01-3.76-.33c-3.88-.46-7.55-1.75-11.26-2.85a7.56 7.56 0 01-3.8-2 10 10 0 011.68-3.54z"/><path d="M657.85 223.25a35.59 35.59 0 00.24-6.36c-.12-2.19-.57-4.37-.86-6.51 1-.76 2-.37 2.93-.37a5.14 5.14 0 011.61 3.6 24 24 0 01-3.7 16.78l-1.61-.56c.54-2.27 1.11-4.41 1.39-6.58z" fill="#997b5b"/></g><g id="ade38a1f-15a2-4158-bda1-4b7ada2e0d4d"><path class="cls-6" d="M687.37 267.68a3.24 3.24 0 01.83 1.77 15.43 15.43 0 01.3 6.89c-1 4.53-2.39 13.57-2.39 13.57s-1.51 8-2.24 12c-.85 4.65-2.12 13.95-2.12 13.95l-4 25.36s-1.91 12.46-3.57 18.56c-2.53 9.24-7.88 17.56-9.73 27-.72 3.65-.9 7.39-1.48 11.08-.51 3.3-1.35 6.55-1.87 9.86s-.69 6.56-.93 9.85a292.91 292.91 0 01-7.4 48.43c-1.9 7.77-11.75 9.37-18.5 10.86-3 .65-6 1.31-9 1.72s-6.15.56-9.24.69c-5.2.22-10.41.37-15.61.22-4.76-.14-9.58-1.18-14.29-1.18a124.1 124.1 0 01-28.3-3.28c-2.72-.62-7.45-.81-9.81-2.38-2.77-1.84-3.25-7.27-3.82-10.24q-2.55-13.43-4.24-27c-1.1-8.89-1.92-17.81-3.13-26.68-1.13-8.23-3-16-4.71-24-1.65-7.63-5.49-14.79-7.72-22a118.29 118.29 0 01-4.64-21.86c-.88-8.39-2.54-16.65-3.77-25-.69-4.67-1.65-9.3-2.5-13.95-.73-4-1.42-8-2.24-12-.92-4.54-1.61-9-2.57-13.57a15.56 15.56 0 01.11-6.89 3.18 3.18 0 012.46-2.18 53.6 53.6 0 0011.49 4 38 38 0 005.19.88c3 .27 5.91.72 8.87.92 1.29.09 2.58 0 3.86.25a71.57 71.57 0 0011.87 1.07c8.79 0 17.6.29 26.4 0 1.49-.05 3-.17 4.45-.2l6.8-.08a17.45 17.45 0 002.17.15c2.21 0 4.42-.05 6.62-.1s4.42.1 6.63.1a17.45 17.45 0 002.17-.15l6.8.08c1.48 0 3 .15 4.44.2 8.8.29 17.61 0 26.41 0a71.68 71.68 0 0011.87-1.26 38.29 38.29 0 013.86-.43c3-.2 5.92-.28 8.87-.55a38 38 0 005.19-.88 54.67 54.67 0 0010.58-3.57 1.29 1.29 0 011.58-.03z"/><path class="cls-7" d="M646.86 478.83a5.14 5.14 0 012.9 1.57c5.58 6.16-10 8.74-13.16 9.49-10.67 2.53-21.6 3.29-32.51 3.85-1.76.09-3.53.14-5.29.16s-3.52-.07-5.29-.16c-10.87-.56-21.85-1.31-32.5-3.85-4.12-1-9.69-2.14-13.34-4.37a4.34 4.34 0 01.06-7.59c2.32-1.29 5.2-.85 7.79-.28 4.64 1 9.11 2.41 13.84 2.91 4.92.53 9.88.65 14.83.77 6.44.15 12.83 1 19.26 1 1.69 0 3.39 0 5.08-.08l3.88-.09A105.15 105.15 0 00628 481c4.07-.72 8.1-1.93 12.26-2 2.03-.08 4.48-.59 6.6-.17z"/><path class="cls-6" d="M513.59 256.25A51.43 51.43 0 01520 248a25.68 25.68 0 0111.86-7.09 53 53 0 0115.49-2.24 101.1 101.1 0 0119.1 1.86c2.56.52 5.09 1.23 7.67 1.69 6 1.09 12 2.06 18.07 3.12a93.58 93.58 0 0015.93 1.49c4.17 0 9.09.76 13.06-.69a2.87 2.87 0 001.46-1 1.13 1.13 0 00-.22-1.57 1.72 1.72 0 00-1-.13c-4.14.21-8.25-.68-12.35-.53a65.07 65.07 0 01-11.15-.32c-6-.78-11.89-1.86-17.81-2.92-4-.71-8-1.56-12-2.45a102.3 102.3 0 00-15-2 5.87 5.87 0 01-1-.26 10.85 10.85 0 011.14-6.85 10.21 10.21 0 014.35-5 31.73 31.73 0 0113.61-3.79c.57 0 1.14-.11 1.72-.15a19.61 19.61 0 012.86-.12c6.48.55 12.29 3.13 18.68 4.18a9.47 9.47 0 003.82.1 2.17 2.17 0 00-.88-2 6.37 6.37 0 00-2.1-1l-3.24-1a104.63 104.63 0 00-14.8-3.69c-1.32-.23-2.67-.29-4.08-.43a9.44 9.44 0 011-4.86c2.24-5.81 6.32-10.18 11-14.06a31.54 31.54 0 0110.36-5.19 14.16 14.16 0 013.71-.65c1.43-.07.79 1 .33 1.94a8.14 8.14 0 00-.66 3.39 9.42 9.42 0 00.87 4.76A28.71 28.71 0 00603 206c1.41 1.62 3.29.89 5.3 1.64 4.41 1.64 8.92.76 13.65.49 2.26-.12 4.45 2.11 6.62 2.73 4.62 1.33 8.8 5.41 12.67 8.24a6.22 6.22 0 011.38 8.56 14.35 14.35 0 01-1.58 1.9l-.63.66c-.56.6-1.17.29-1.91.36-1 .09-2 .27-3.08.41-2 .26-4 .56-5.94 1-7.88 1.86-15.23 2.21-23.26 2.34a1.44 1.44 0 00-1.29.47c-.42.69.44 1.44 1.18 1.73a21.8 21.8 0 006.8 1.24 52.83 52.83 0 0014.8-1.68 68.15 68.15 0 0115.81-2.25c.77 0 1.55-.14 2.32-.17a22.9 22.9 0 012.62 0c2 .16 4.06.45 6.09.56a44.86 44.86 0 0111.9 2.62c1.37.47 2.76-.39 4.17-.07 5 1.15 9.57 4.54 13.79 7.49a20.85 20.85 0 017 8.38c1.64 3.64 2.7 7-1.79 8.3-3.72 1.1-7.14 3.2-11 3.66a20 20 0 01-3.76.32c-7.15-.48-13.53.59-16.21 7.77a85.8 85.8 0 00-3.52 12.06 84.12 84.12 0 00-1.69 12.35 18.69 18.69 0 01-1 6.05 5.65 5.65 0 01-4.49 3.74c-2 .13-3.78-1.19-5-2.75-2.31-3-3.08-6.87-3.26-10.63s.18-7.53-.18-11.28a9.65 9.65 0 00-1.35-4.5 4.13 4.13 0 00-4.05-1.93c-1.55.32-2.6 1.71-3.89 2.62a7 7 0 01-9.84-1.63 6.88 6.88 0 01-1.11-2.41c-.37-1.46-.25-3-.54-4.49-1.1-5.58-11.51-3.11-15.72-2.86h-.4a142 142 0 00-20.1.08c-1.06.09-2.13.14-3.2.14q-14.58-.06-29.15-.14a16.53 16.53 0 01-2.63-.18c-2.49-.38-5-.9-7.47-1.22a48.05 48.05 0 00-9.28-.77 20.83 20.83 0 01-3.76-.32c-3.88-.46-7.55-1.76-11.26-2.86a7.51 7.51 0 01-3.79-2 9.6 9.6 0 011.62-3.52z"/><path d="M631.15 238.41a24.16 24.16 0 0110.23-8.47 11.41 11.41 0 016.55-.9 5 5 0 013.1 1.45c1.73 2 4.17 2.79 6.53 3.65 1.19.42 2.44.69 3.63 1.09a14.3 14.3 0 019.68 9.32c.32.92.62 1.84.85 2.78.48 1.94.46 6.45-1.28 7.95s-5.58-.52-7.49-1.06a162.38 162.38 0 01-18.1-6c-3.29-1.35-6.78-2.92-10.27-2.22a23.24 23.24 0 01-3 .62 2.69 2.69 0 01-2.59-1.21 3.19 3.19 0 01-.08-2.18 14.9 14.9 0 012.24-4.82z" fill="#ef4e45"/></g><g id="aa96860c-e68a-47f0-b3fc-00f0b410fc1a"><path d="M651.35 469.2c.06-2.37-2-3.43-4-4.22l-.52-.2a46.79 46.79 0 00-4.58-1.59c-16-4.42-33.83-2.79-50.2-1.91-8.61.46-17.25.58-25.82 1.54-5.19.58-11.28 1.06-16.13 3.12-2.36 1-3.88 2.86-3.82 4.75a5.48 5.48 0 001.71 2c2.36 1.57 7.09 1.76 9.8 2.38a124.23 124.23 0 0028.3 3.28c4.72 0 9.54 1 14.3 1.18 5.2.15 10.41 0 15.61-.22 3.08-.13 6.17-.28 9.24-.69s6-1.07 9-1.72c5.76-1.27 13.65-2.62 17.11-7.7z" fill="#f182b3"/><path d="M631.38 225.07c-3.78 2.91-9.26 3-13.69 4.18a36.58 36.58 0 01-6.81 1.15c-2.62.21-5.24.67-7.88.91a1.33 1.33 0 00-.87.3.93.93 0 00.26 1.29c1.46 1 5.61.14 7.34 0 2.79-.15 5.56-.42 8.33-.8 4.86-.68 9.6-2.25 14.47-2.81 3.68-.42 8.45-.08 10.29-4.12 1.37-3-.14-5.71-2.52-7.65-1-.66-2-1.29-3-1.87a12.81 12.81 0 00-3.42-1.06 8.71 8.71 0 01-2.5 10.48zm-38.89-7.55a6.39 6.39 0 00-.79-.86c-1.76-1.62-4.76-2-6.87-3.15-5.61-3.09-1.16-12.56 1.89-15.87a33.59 33.59 0 002.3-2.48 1.21 1.21 0 00.34-1 .6.6 0 00-.29-.4 22.7 22.7 0 00-3.84 2.52c-4.7 3.88-8.79 8.25-11 14.06a10.3 10.3 0 00-1 4.36 1.93 1.93 0 001.17.54c.68.07 1.35.15 2 .25l.93.13c1.35.24 2.65.49 3.93.75.56 0 1-.41 1.53-.37a19.73 19.73 0 012.41.91 6.94 6.94 0 011.42.54 4.8 4.8 0 01.52.36c1.64.45 3.29.94 5 1.49l1.73.57v-.11a10.15 10.15 0 00-1.38-2.24zM690.86 253a22.52 22.52 0 00-7-8.91c-4.22-2.94-8.25-6.71-13.22-7.86-1.08-.25-2.14 1.31-3.19 1a3.94 3.94 0 001.24 1.57c2.64 2.3 5 5.24 5.44 8.71.59 4.86-2.75 7.42-7.1 8.42-5.94 1.38-11.56-1.78-17.13-3.68-.47-.16-1-.3-1.42 0-.54.49 0 1.37.48 1.9a27.19 27.19 0 0012.32 7.48c1.2.31 2.43.52 3.65.72l3.66.62a39.24 39.24 0 0015.83-1.05c1.47-.38 3.94-.45 5.24-1 2.44-.99 1.78-4.69 1.2-7.92zm-63.09 11.52a4.58 4.58 0 00-1.16-1 33.85 33.85 0 00-14.26-4.28c-14.27-1.35-28.87.83-43.18 1.14a509 509 0 01-53.83-1.68c-1-.09-3.18 0-3 1.41.12.81 2.84 1.44 3.47 1.63a87.37 87.37 0 009.67 2.62h.79q9.18.57 18.36 1.07c12.51.69 25 1.26 37.55 1.53h1.58a141.61 141.61 0 0118.88 0h.4a154.48 154.48 0 0117.08-.12c2.17-.05 4.52 1.08 6.46.91 2.49-.15 2.31-1.91 1.19-3.23z" fill="#f393bd"/><path d="M664.66 240.58c-1.89-3.39-5-2.91-8.57-3.38a15 15 0 01-5.33-1.74c-.77-.42-1.78-.9-2.44-.32a1.4 1.4 0 00-.07 1.78 4 4 0 001.54 1.16l5.07 2.66a31.06 31.06 0 016.08 3.81 10.49 10.49 0 013.68 6c.55 3.36 2.6 2 2.58-.7a20.23 20.23 0 00-2.48-9.18z" fill="#f3857e"/></g><g id="b6b321c5-fbf0-4de0-91a1-1de6ec164a7c"><path class="cls-12" d="M670.2 283.69c-2.78 7.39-3.13 17.26-4.17 24.72-1.16 8.36-2 16.75-3 25.13-.37 3.18-.7 6.36-1 9.54-.38 3.57-.75 7.14-1.16 11.07a2.75 2.75 0 00.87 2.3 1.68 1.68 0 002.77-.8 11.07 11.07 0 00.06-1.15 511.51 511.51 0 0111-70.48c.42-1.86.29-4.56-1.6-4.76-1.23-.13-2.17 1.05-2.72 2.16-.43.73-.75 1.48-1.05 2.27zm-16.32 114.07c-.61 4.06-1.12 8.14-1.5 12.18q-1.18 12.45-2.33 24.88l-.62 6.66c-.14 1.17.26 1.84 1.12 2a1.87 1.87 0 002.11-1.16 5.42 5.42 0 00.32-1.13c.14-.85.28-1.72.37-2.58.27-2.9.52-5.8.77-8.69 1.18-13.11 4-25.79 3.13-39.05a2.78 2.78 0 00-.4-1.51 1 1 0 00-1.38-.23 1.39 1.39 0 00-.29.75q-.72 3.93-1.3 7.88zM650 452.44a2.1 2.1 0 00-1.79 1.95 1.55 1.55 0 001.49 1.45c.94 0 1.2-.87 1.2-1.89.04-.73-.16-1.51-.9-1.51zM538.08 281c-5.15-.71-12.14-4-17.22-1.64-5.57 2.59-5.34 8.82-3.93 13.86 2 7.11 2.34 14.82 3.61 22.16a297.68 297.68 0 0012 46.83c.46 1.33 1.85 3 2.92 2a2.14 2.14 0 00.46-1.83c-.4-5.29-1.35-10.51-1.7-15.85q-.75-11.28-2.15-22.51c-1.85-14.74-2.86-33.62 15.9-36 4.68-.59 9.42-.35 14.12-.63a6.89 6.89 0 003.45-.84 2.6 2.6 0 001.19-3.07c-.63-1.43-2.57-1.54-4.12-1.46a132.57 132.57 0 01-24.53-1.02zm25.36 185.53c-9.67-3.69-8.49-18.43-10.61-27.06-1.56-6.34-3.12-12.72-3.62-19.23-.26-3.42-.23-6.87-.67-10.29a26.25 26.25 0 00-3.86-10.1c-.35-.6-.82-1.27-1.51-1.28a1.39 1.39 0 00-1.23 1 4.1 4.1 0 00-.06 1.71c2.08 18.92 3.37 38.07 7.9 56.69 1 4 1.92 8.35 5.43 10.67a17.54 17.54 0 0011.88 2.57c1-.14 2.15-.54 2.37-1.52a1.89 1.89 0 00-1.14-2 8.48 8.48 0 00-2.36-.56 12.31 12.31 0 01-2.52-.6z"/><path class="cls-7" d="M521.51 204.12c-1-.48-1.94-.83-2.79-1.29a30.84 30.84 0 00-9.33-3.17 69 69 0 01-9.82-2.62 9.14 9.14 0 00-1.67-.5c-5.8-.86-11.21-3.07-16.76-4.78a5.27 5.27 0 01-3.1-1.68 48.22 48.22 0 012-9.89 9.5 9.5 0 012.15 0c3.93 1.06 7.84 2.18 11.75 3.3 1.5.43 3 .94 4.45 1.37 5.31 1.55 10.63 3 15.92 4.63 4.08 1.24 8.12 2.61 12.16 4a9.25 9.25 0 011.55.9c-2.69 2.99-4.14 6.61-6.51 9.73zm6.09 3.15c-.9-.54-2-.58-2.43-1.85 1.31-2.33 2.64-4.79 4.07-7.19a6.75 6.75 0 011.76-1.89 2 2 0 011.59-.36c2.34.91 4.68 1.88 6.1 4.35-4.09 1.67-7.54 4.34-11.09 6.94zm2.76 2.6a39.46 39.46 0 019.64-6.67 17.54 17.54 0 011.71 5.49c-3.35 1.26-6.9 1.6-9.93 3.8zm2.64 5.41c3.26-1 6.2-2.77 9.58-3 1.5 2.83 8.52 23.17 9.45 27.31-.19.17-.37.44-.61.52a7.37 7.37 0 00-3.81 3 7.51 7.51 0 01-2.09 2.28l-2.91-.61z"/><path class="cls-12" d="M617.4 214.29c-5.7-.46-12.1.43-16.16-3.59-.75-.75-1.39-1.72-2.39-2.06s-2.44.56-2 1.54c4.42 10 15.72 9 24.72 9.06 1.39 0 3.26-.43 3.22-1.82 0-.89-.92-1.49-1.73-1.86a17 17 0 00-5.66-1.27zM570.66 224q-1 0-2 .09c-2.56.22-7 2.32-6.86 5.4.09 1.8 1.95 3.51 3.71 3.11 2.31-.53 1.75-3.64 3.64-4.47a3.42 3.42 0 011.46-.18 44.68 44.68 0 006.84-.37c.82-.11 1.87-.52 1.78-1.35-.06-.6-.73-.92-1.31-1.1a23.36 23.36 0 00-7.26-1.13zM530 247.58a1.43 1.43 0 00-1.11-1.15 2.09 2.09 0 00-1.25.31 44.45 44.45 0 00-5.12 3.6c-1.63 1.12-3.28 2.76-3.56 4.81a2.09 2.09 0 00.51 1.87 2.65 2.65 0 001.15.5 42.42 42.42 0 0011.19 1.54 17.59 17.59 0 003.07-.34 3.31 3.31 0 001.15-.42 1.22 1.22 0 00.59-1c0-.8-1-1.18-1.78-1.32-2-.38-4.26-.5-5.91-1.75-2.06-1.55-.87-2.84.32-4.36a3.11 3.11 0 00.8-1.89 1.58 1.58 0 00-.05-.4zm93.17 23.85a.44.44 0 00-.14-.13.51.51 0 00-.4 0 1.82 1.82 0 00-1 1.56 4 4 0 00.41 1.91 4 4 0 002 2.24 3.32 3.32 0 004-1.84c.39-.79 2.68-3.66-.23-2.57-.64.23-1.17.7-1.82.92a2.57 2.57 0 01-1.71 0l-.93-1.93zm24.61 26.48c-.45-.62-1.2-.82-1.56-1.6a3.79 3.79 0 01-.29-1.91 11 11 0 00.05-2.07c-.05-.34-.27-.75-.61-.69a.76.76 0 00-.41.34 7.73 7.73 0 00-1.06 4.87 20.15 20.15 0 001.26 4.91c.54 1.48 2.12 1.49 2.7 0a5.1 5.1 0 00.06-3.61zM642.43 253a20.2 20.2 0 00-14.24-1.27 3.86 3.86 0 00-2 1 1.34 1.34 0 00-.33.71 1.22 1.22 0 00.9 1.12 3.63 3.63 0 001.54 0c6.49-.72 10.48 1.29 16.39 3.61 1.38.55 2.76 1.09 4.17 1.53a1.67 1.67 0 001.12.07 1.19 1.19 0 00.47-1.57 3.54 3.54 0 00-1.28-1.3 39.43 39.43 0 00-6.74-3.9zm-84.38-8a11.67 11.67 0 00-3.44 0 2.3 2.3 0 00-1.24.52 1 1 0 00-.22 1.23 1.54 1.54 0 001.19.48l3.79.34a9.33 9.33 0 012.1.36 6.27 6.27 0 001.5.44 1.08 1.08 0 001.18-.8c.07-.52-.37-.91-.79-1.18a11.1 11.1 0 00-4.07-1.39zm-12.52 5.42c-2.22-.11-4.11 0-6.11 1.25a1.41 1.41 0 00-.49.48.55.55 0 00.07.64.78.78 0 00.51.14 12.71 12.71 0 015.07.85 3.76 3.76 0 002.84.21c1.53-.7 1.7-2.86 2.91-4a10 10 0 00.75-.71.91.91 0 00.13-1 .81.81 0 00-.87-.32 2.09 2.09 0 00-.85.5 13.77 13.77 0 01-2 1.79 2.75 2.75 0 01-1.48.19z"/></g><path class="cls-12" d="M637.49 352.3a3.36 3.36 0 00-2.3-.95H635a3.32 3.32 0 00-2.29.95 3.57 3.57 0 00-.95 2.29 3.26 3.26 0 00.95 2.29 3.32 3.32 0 002.29.95h.22a3.36 3.36 0 002.3-.95 3.61 3.61 0 00.94-2.29 3.25 3.25 0 00-.97-2.29zm-1.39 3a1.26 1.26 0 010-2.52 1.26 1.26 0 010 2.52zm7.46-8.99c-3.39 0-3.4 5.26 0 5.26s3.44-5.26 0-5.26zm.79 2.55a.83.83 0 010-1.65.83.83 0 010 1.65zM639 338.58c-2.87 0-2.88 4.45 0 4.45s2.9-4.45 0-4.45zm8-3.22a1.83 1.83 0 000 3.65 1.83 1.83 0 000-3.65zm8-5.77a2.42 2.42 0 00-3.43 0 2.53 2.53 0 00-.72 1.72v.22a2.51 2.51 0 00.72 1.72 2.42 2.42 0 003.43 0 2.5 2.5 0 00.71-1.72v-.22a2.52 2.52 0 00-.71-1.72zm-.81 1.94a.67.67 0 010-1.34.67.67 0 010 1.34zm-8.92-11.65a3.94 3.94 0 00-3.51-2.36l-1 .13a3.87 3.87 0 00-1.69 1 4 4 0 00-1.13 2.72v.23a2.93 2.93 0 00.34 1.48 3.49 3.49 0 002 2 2.92 2.92 0 001.48.33l1-.14a3.84 3.84 0 001.7-1 4 4 0 001.13-2.72v-.23a3 3 0 00-.32-1.44zm-1.49.53a.74.74 0 01-.1.26.92.92 0 01-.22.26.89.89 0 01-.43.31.9.9 0 01-1-.14.74.74 0 01-.23-.64.87.87 0 01.3-.93 1 1 0 01.59-.2h.15a.8.8 0 01.87.37.84.84 0 010 .71z" id="f07f3520-50d0-49f3-a703-ca8b7fae84f2"/><g id="e4383c5a-f212-4a40-b8e4-458ae125581c"><path d="M570.45 329.22a12.6 12.6 0 01-5.08-.07c.35-1.23.57-2.37 1-3.44 2.42-6.07 6.23-10.92 12.24-13.83 2-1 3.29-.12 5.25.47a7.12 7.12 0 002.48.14 2.88 2.88 0 001.33-.3 1 1 0 00.48-1.16 1.31 1.31 0 00-.75-.61 28.12 28.12 0 01-4.1-1.76c-.75-.49-1.17-1.26-1.95-1.74a3.28 3.28 0 01-1.45-4.52 8.6 8.6 0 011.77-2.62 13.17 13.17 0 015.61-3.54c2.85-.89 5.8-1.47 8.62-2.17a1.62 1.62 0 01-.1 2.55 2.22 2.22 0 01-1.37.37c-.46 0-1 0-1.23.39s.31.93.79 1.12c4.34 1.76 11.44 1.11 14.3-3a2.07 2.07 0 00.45-1.09.83.83 0 00-.66-.85c-.44 0-.77.37-1.07.7a2.12 2.12 0 01-1.9.75c-2.26-.48-.62-3.73.48-4.48.64-.43 1.32-.82 2-1.25a28.91 28.91 0 005.52-4.72c1-1.12 2.19-1 2.73.38a10.18 10.18 0 01.79 3.36 22.93 22.93 0 01-1 7.64c-.76 2.44-2.58 4.68-3.93 6.85a1 1 0 00-.19.45c0 .38.46.64.84.57a2.16 2.16 0 001-.62c1.43-1.26 4.33-3.32 6.28-3.5 1.67-.15 3.16 3.13 3.51 4.58.75 3.13.31 4.52-2.41 6.09a10.26 10.26 0 01-3.5 1.35 43.79 43.79 0 01-8.77.63 2.93 2.93 0 00-1 .07 1 1 0 00-.69.64c-.13.57.42 1.05.93 1.33 3.55 2 7.62 1.38 11.4.53a3.33 3.33 0 012.22.2 13 13 0 016.61 6.28 20.19 20.19 0 012.28 6 28.7 28.7 0 01.27 4.05 1.19 1.19 0 01-1.07 1.2c-3 .43-6 .36-8.7-1.39a23.61 23.61 0 01-6.39-5.89 9 9 0 00-1.55-1.71 1.66 1.66 0 00-2.52.46 9.17 9.17 0 00-1.28 4.13c-.09.87-.05 1.75-.12 2.62a13.14 13.14 0 01-.29 1.61 18.51 18.51 0 01-9.4-1.71 10.57 10.57 0 01-5.27-8.57 3.62 3.62 0 01.35-1.66 15.3 15.3 0 01.87-1.5 1.34 1.34 0 00-.26-1.61 1.56 1.56 0 00-1.87-.27 8.16 8.16 0 00-1.06 1c-1.32 1.28-2.63 2.58-4 3.85a22.86 22.86 0 01-9.83 5.45c-2.51.7-5.09 1.28-7.64 1.77z" fill="#a7d388"/><path class="cls-14" d="M625.65 339.84c-3.53-.06-7.06-.39-10.58-.43q-7-.09-13.91.27h-4.26c-4.64-.24-9.27-.32-13.92-.27-3.21 0-6.43.31-9.65.41.17-1.23.34-2.45.54-3.67 0-.18 0-.38.08-.57.59-3.49.58-3.54 3.93-4.41a25.94 25.94 0 0011.77-6.06 1.72 1.72 0 01.53-.25c.76.14.59.87.79 1.34 1.28 3 3 5.69 5.91 7.36a13 13 0 003.43 1.53 48.44 48.44 0 007.17 1.15c3.09.21 4.68-1.41 4.8-4.49 0-.73.09-1.46.16-2.62 3.91 3.49 7.44 6.89 12.72 7.28a18.8 18.8 0 01.48 2.95c0 .17.01.32.01.48z"/><path d="M595.58 443.72c0-.21.07-.41.11-.62a7 7 0 002.86 1.58 6.85 6.85 0 002.34.25c-.66.64-1.31 1.29-2 1.92a16.11 16.11 0 01-2.08 1.59 7.22 7.22 0 01-1.22.49 9 9 0 01-.01-5.21z" fill="#fffbde"/><path d="M603.93 472.13a22.45 22.45 0 00-13.4.42 5.31 5.31 0 01-1.44.56 6.13 6.13 0 01-2.18-.92c-1.13-.53-2.26-1-3.42-1.45a36.34 36.34 0 00-6.36-1.75 32.74 32.74 0 017.26-14.38c2.08-2.35 4.41-4.43 6.43-6.82.25-.29.48-.59.72-.89a10.47 10.47 0 00.5 3.1c.66 2.21 2.28 3 4.52 2.44a10.41 10.41 0 004.45-2.67c1.4-1.32 2.77-2.68 4.14-4 .13 1.12.29 2.24.51 3.37.55 2.8 1.55 5.54 1.72 8.42.31 5.02-1.53 9.92-3.45 14.57z" fill="#d5b2d4"/><path class="cls-14" d="M622.5 367.22c-2.55 6.81-5.25 13.57-7.75 20.4a80.75 80.75 0 00-4.22 17.81c-.83 6.62-.35 13.18.28 19.76.09 1 .14 1.94.23 2.9a9.28 9.28 0 01-1 5.08 14.3 14.3 0 01-3.49 5c-.84.68-1.83 1.12-2.71 1.72-1.16.78-2.2 1.59-3.71 1.43-4.12-.42-3.45-5.14-3.26-8 .22-3.22-1.26-6.54-3.2-9.11a29.12 29.12 0 01-2.69-5.35c-1.66-3.5-3.35-7-5.15-10.44s-3.76-6.57-5.53-9.91c-3.51-6.62-6.6-13.42-7.89-20.88a41.5 41.5 0 01-.77-7.36c4.93 1.54 9.69 3.19 14.62 3.4 1.18 1.49 2.18 2.93 3.34 4.21 2.59 2.84 6 3.52 9.6 3.12 4.58-.52 7.81-3.18 9.89-7.26a10 10 0 00.85-6.25 15.35 15.35 0 00-3.09-7.15c-4.16-5.26-10.61-5.13-15.17-2.23a42.66 42.66 0 00-4.57 3.95 33.17 33.17 0 01-15.42-3.85v-1.5c.31-4.27.64-8.54 1.11-12.79q.79 0 1.59-.06a.44.44 0 010 .1c.72 2.26.7 4.78 1.81 6.91a5.17 5.17 0 001.89 2.27c2 1.07 4.38.91 6.59.95s4.38.37 6.36-.64c2.91-1.5 3.3-6.36 4.85-8.86a1.43 1.43 0 00.21-.67h5.75a1.44 1.44 0 00.22.67c1.55 2.5 1.94 7.37 4.85 8.86 2 1 4.22.68 6.36.64s4.57.12 6.58-.95a5.26 5.26 0 001.9-2.27c1.1-2.13 1.09-4.65 1.8-6.91a.44.44 0 010-.1c.7 0 1.4 0 2.09.1a88 88 0 01-.34 11.7 47.63 47.63 0 01-2.81 11.56z"/></g><g id="fa83633f-4edd-4710-81cc-884274017fa3"><path class="cls-17" d="M559.25 382.2c-2.1 1.44-4.62 1.22-6.89.29a15.29 15.29 0 01-3.5-2 14.08 14.08 0 00-10.25-3.28 9.26 9.26 0 01-1.34-.16 10.87 10.87 0 01.92-1.63c4-4.78 9.1-6.67 15.28-5.43.37.08.77.13 1.14.24 1 .3 2 .65 3 .94.63.18 2.91.29 3.28.79 1.31 1.75-3.61 1-4.24.86a16.42 16.42 0 00-7.11-.28c-.38.07-.87.32-.75.69s.35.32.59.37a35.33 35.33 0 005.49.91 8.68 8.68 0 015 1.61 3.8 3.8 0 011.28 1.71 3.85 3.85 0 01-1.9 4.37zM597 282.61a2.06 2.06 0 012 1 7.18 7.18 0 011.12 2.6c.24 2.49.27 5 .35 7.49 0 .12-.22.25-.41.46a47.63 47.63 0 00-1.93-5.62 43.43 43.43 0 00-3.18-4.86c.3-.91 1.11-1.03 2.05-1.07z"/><path class="cls-17" d="M571.67 330a12.64 12.64 0 01-5.09-.07 35.21 35.21 0 011-3.44c2.41-6.07 6.22-10.92 12.24-13.83 2-1 3.29-.12 5.25.47a7 7 0 002.47.14 2.85 2.85 0 001.33-.3 1 1 0 00.48-1.16 1.35 1.35 0 00-.75-.61 28.59 28.59 0 01-4.1-1.76c-.74-.49-1.16-1.25-2-1.74a3.3 3.3 0 01-1.45-4.52 8.78 8.78 0 011.77-2.62 13.4 13.4 0 015.62-3.54c2.85-.89 5.8-1.47 8.62-2.16a1.61 1.61 0 01-.1 2.54 2.16 2.16 0 01-1.37.37c-.46 0-1 0-1.23.39s.31.94.79 1.12c4.34 1.77 11.44 1.11 14.3-3a2.07 2.07 0 00.45-1.08.84.84 0 00-.66-.86c-.44 0-.77.38-1.07.7a2.12 2.12 0 01-1.9.76c-2.26-.47-.63-3.73.48-4.47.64-.44 1.3-.82 2-1.26a28.91 28.91 0 005.52-4.72c1-1.12 2.19-1 2.73.38a10.3 10.3 0 01.79 3.37 23 23 0 01-1 7.64c-.76 2.44-2.58 4.68-3.93 6.85a.9.9 0 00-.18.44c0 .39.45.65.83.58a2.16 2.16 0 001-.62c1.43-1.26 4.33-3.33 6.28-3.5 1.67-.15 3.16 3.12 3.51 4.58.75 3.13.32 4.52-2.41 6.09a10.47 10.47 0 01-3.5 1.35 45.32 45.32 0 01-8.77.63 3.22 3.22 0 00-1 .06 1 1 0 00-.69.65c-.13.56.42 1.05.93 1.33 3.56 2 7.62 1.38 11.4.53a3.33 3.33 0 012.22.19 13 13 0 016.61 6.28 20.23 20.23 0 012.27 6 28.8 28.8 0 01.27 4 1.19 1.19 0 01-1.07 1.21c-3 .42-6 .35-8.7-1.4a23.49 23.49 0 01-6.39-5.9 8.93 8.93 0 00-1.55-1.7 1.65 1.65 0 00-2.51.46 9 9 0 00-1.29 4.13c-.09.87 0 1.75-.11 2.62-.07.54-.17 1.08-.29 1.61a18.53 18.53 0 01-9.41-1.71 10.61 10.61 0 01-5.27-8.57 3.76 3.76 0 01.35-1.66c.21-.52.61-1 .88-1.5a1.36 1.36 0 00-.27-1.61 1.56 1.56 0 00-1.87-.27 8.16 8.16 0 00-1.06 1c-1.32 1.28-2.63 2.58-4 3.85a23 23 0 01-9.84 5.45c-2.44.81-4.99 1.35-7.56 1.81z"/><path class="cls-18" d="M625.8 341.05c-3.53-.07-7.06-.39-10.58-.44q-7-.08-13.91.27l-1.43.05c-.94 0-1.89 0-2.83-.05q-7-.35-13.91-.27c-3.22 0-6.44.32-9.66.41.17-1.22.34-2.44.54-3.66 0-.19.05-.39.08-.58.59-3.48.58-3.53 3.93-4.4a25.91 25.91 0 0011.77-6.07 2 2 0 01.53-.25c.76.14.59.88.79 1.35 1.28 3 3 5.68 5.91 7.35a13 13 0 003.43 1.53 46.14 46.14 0 007.17 1.15c3.09.22 4.11-1.4 4.24-4.49 0-.73.09-1.83.15-3 3.92 3.49 8.38 7.82 13.66 8.22a10.87 10.87 0 01.11 2.38c0 .18.01.34.01.5z"/><path d="M596 443.79c0-.2.08-.41.11-.61a7.19 7.19 0 002.86 1.58 6.84 6.84 0 002.34.24c-.65.65-1.31 1.29-2 1.93a16 16 0 01-2.08 1.58 7.3 7.3 0 01-1.21.5 8.93 8.93 0 01-.02-5.22z" fill="#fcca3b"/><path d="M604.91 472.36a22.37 22.37 0 00-13.4.42 5.31 5.31 0 01-1.44.56 5.65 5.65 0 01-2.18-.54c-1.12-.54-2.26-1-3.42-1.46a38 38 0 00-6.36-2.13 32.7 32.7 0 017.27-14.38c2.07-2.34 4.4-4.43 6.42-6.82.25-.29.48-.59.72-.88a10.53 10.53 0 00.5 3.1c.66 2.2 2.28 3 4.52 2.43A10.38 10.38 0 00602 450c1.4-1.33 2.77-2.69 4.14-4 .12 1.12.29 2.24.5 3.36.55 2.81 1.56 5.55 1.72 8.42.3 5.02-1.53 9.93-3.45 14.58z" fill="#8971b2"/><path class="cls-18" d="M623.78 368.42c-2.55 6.81-5.25 13.57-7.74 20.41a80.82 80.82 0 00-4.23 17.8c-.83 6.62-.35 13.19.28 19.77.09 1 .14 1.93.24 2.9a9.42 9.42 0 01-1 5.08 14.26 14.26 0 01-3.49 4.95c-.83.68-1.83 1.13-2.71 1.73-1.16.78-2.2 1.58-3.71 1.43-4.12-.43-3.45-5.14-3.26-8a15.44 15.44 0 00-2.82-9.67 32.35 32.35 0 01-2.89-5.54c-1.66-3.51-2.78-6.26-4.58-9.69s-3.76-6.57-5.53-9.92c-3.51-6.62-7.35-13.41-8.64-20.87-.44-2.51-2.36-9.27 1.94-9.64 1.66-.14 3.23.71 4.87 1 1 .18 2.11.13 3.14.35 3.09.67 5.13 3.52 7.75 5.29a11.23 11.23 0 0010 1.36 9.6 9.6 0 006.2-7.78 10.79 10.79 0 00-3-8.19c-3.11-3.42-7.67-4.43-11.62-1.91a42.66 42.66 0 00-4.57 3.95 33.19 33.19 0 01-15.41-3.82v-1.5c.2-2.75.6-5.56.58-8.32 0-2.43.78-4.68 1-7.11 1.06-.38 2.24-.07 3.37-.14s2.52-.63 3.8-.57 2.44.65 3.72.7 2.87-.22 4.25-.3c3.22-.2 6.45-.35 9.67-.44q9.68-.3 19.36 0a13.15 13.15 0 015.58 1c4.49 2.27 2.77 10.13 2.31 14.15a47.8 47.8 0 01-2.86 11.54z"/><path d="M594 360.64a5.51 5.51 0 013.75-1 7.59 7.59 0 017.17 4.22 19.9 19.9 0 011 2.1c2.76 6.4-3.74 12.59-9.42 11.43-3.73-.77-6.53-3.3-7-7.08a9.4 9.4 0 014.5-9.67z" fill="#58595b"/><path class="cls-17" d="M661.65 366.39a16.4 16.4 0 00-6.76 6.24c-.37.56-.74 1.14-1.12 1.71a8.51 8.51 0 01-6.53 3.9c-1.8.17-6 1.31-6.85-.88s2.2-4.45 3.77-5.52a25.67 25.67 0 016.9-3.65.68.68 0 00.26-.12c.17-.17 0-.5-.17-.61a1.18 1.18 0 00-.72 0c-3.41.65-5.4 2.22-8.2 4.24-.73.52-6.05 3.8-6.58 2.22-.23-.67 1.65-1.17 2-1.38a15.26 15.26 0 004.48-3.79 15.75 15.75 0 015.18-4.17 14.77 14.77 0 0110.7-1.47 9.11 9.11 0 014.56 2.63 5.45 5.45 0 01-.92.65z"/></g><g id="aeb198d7-5430-4546-b5ea-1acd9bc93cc7"><path class="cls-7" d="M626.21 351.15c-1.16 2.74-4 4.34-6.69 5.51-3.88 1.71-7.45 1.54-10.42-1.7-2.82-3.08-5.41-6.09-9.94-6.08-4.21 0-7.28 3.2-9.91 6.08-3 3.24-6.54 3.41-10.42 1.7-2.65-1.17-5.53-2.77-6.68-5.51a10 10 0 011.16-9.08c1.79-2.58 4.87-3.14 7.72-3.7a62.38 62.38 0 019.92-1.12q2.56-.09 5.13 0c7.13.26 14.14-.29 21.24 1.11 2.86.56 5.93 1.12 7.71 3.7a10.06 10.06 0 011.18 9.09z"/><path d="M565.26 358.69c-.17-.4-.43-.71-.41-1a21.63 21.63 0 01.46-2.43c.79 2.34.79 2.34-.05 3.43zm4.63 6.2a4.48 4.48 0 01-2.93-2l1.28-2.29 2.25 1.17c-.2 1.05-.39 2.03-.6 3.12zm3.85-1.68l3 1c-.27 1.4-.48 2.42-.72 3.63l-2.43-.73c-.59-1.36-.23-2.5.15-3.9zm5.84 4c.19-.45.47-1.24.81-2a.61.61 0 01.5-.11c.16 0 .41.21.4.32a17.48 17.48 0 01-.11 2.29c-.16 1.24-.46 1.6-1 1.38-.69-.31-.52-.93-.6-1.88zm5.62-1.54c.58 0 .85.19.8.66-.15 1.23-.35 2.45-.56 4-.48-.4-.89-.56-.94-.81a5.83 5.83 0 01.7-3.85zm11.65.06a2 2 0 011.1-.26 3.94 3.94 0 013.16 1.8 2.64 2.64 0 01.17 3c-.63 1-1.44 1.83-2.64 1.69a3.36 3.36 0 01-3.13-2.37 3.55 3.55 0 011.34-3.86z" fill="#808184"/></g><g id="b38e8271-a646-4212-b793-8014dbf2c145"><path class="cls-14" d="M616.55 371.74a5.69 5.69 0 00-1.52 1.74 53.2 53.2 0 00-5.17 11.27c-1.29 3.87-2.63 8.48-1.76 12.57.07.35.26.78.62.78s.49-.3.62-.56a18.32 18.32 0 001.29-4.43 109.47 109.47 0 013.43-12 39.4 39.4 0 013.93-8.61c.21-.33.41-.81.11-1.06a.66.66 0 00-.51-.11 2.15 2.15 0 00-1.04.41zm-9.01 28.46a1.57 1.57 0 00-1.68 1.28 1.53 1.53 0 001.23 1.7 1.68 1.68 0 001.72-1.6 1.5 1.5 0 00-1.27-1.38z"/><path d="M626.21 351.24c-1.16 2.74-4 4.34-6.69 5.51-3.88 1.71-7.45 1.54-10.42-1.7-2.82-3.08-5.41-6.09-9.94-6.09-4.21 0-7.28 3.21-9.91 6.09-3 3.24-6.54 3.41-10.42 1.7-2.65-1.17-5.53-2.77-6.68-5.51a10 10 0 011-9.08c1.79-2.58 5.06-3.33 7.91-3.89a62.38 62.38 0 019.92-1.12c1.71-.06 3.42.13 5.13.19 7.13.26 14.14-.47 21.24.93 2.86.56 6.12 1.31 7.9 3.89a10 10 0 01.96 9.08z" fill="#a5def8"/></g><path d="M589.28 347.87a4.4 4.4 0 00-1.09 1.74 6.93 6.93 0 01-2.13 2.86c-.71.55-1.93.75-2.26 1.69a.63.63 0 00.29.82.92.92 0 00.68-.09 12.46 12.46 0 004.26-2.57 4.93 4.93 0 001.46-3.74 1 1 0 00-.3-.71.69.69 0 00-.91 0zm33.49-.81v.33c-.12 2.05-2 5.68-4 6.5a4.15 4.15 0 00-1.14.55.78.78 0 00-.12 1.12c4.19-.64 7.44-4.49 6.38-8.82a.73.73 0 00-.27-.49.58.58 0 00-.75.28 1.38 1.38 0 00-.1.53z" fill="#e4edef" id="bf9aa1dc-5c41-46d7-b8b1-116cbb45ce0a"/><g id="adfc8b61-fb79-4a18-812a-ca4ebee4be6e"><path class="cls-3" d="M598.57 375.56a6.87 6.87 0 006.73-6.56c0-2.06-1.07-3.63-2.36-5.12-1.45-1.69-3.5-1.59-5.35-1.73-2.9-.22-5.61 3.07-5.66 6.53a6.62 6.62 0 006.64 6.88zm-1.72-9.83a2 2 0 011.1-.26 3.91 3.91 0 013.16 1.8 2.64 2.64 0 01.17 3c-.63 1-1.44 1.83-2.64 1.69a3.38 3.38 0 01-3.13-2.37 3.55 3.55 0 011.34-3.86z"/><path class="cls-3" d="M668 365.94c-2.57-3-5.5-5.47-9.49-6.39a18.47 18.47 0 00-12.44 1.67 19 19 0 00-6.6 5.17 10.65 10.65 0 01-7.69 4.19 18.76 18.76 0 01-6.17-.68c1-3.72 2.12-7.32 2.9-11a38.32 38.32 0 00.76-6.48 10.25 10.25 0 00.81-3.07 13.53 13.53 0 00-.92-6.68c0-1.09-.08-2.17-.19-3.25 0-.46.13-2.63-.17-2.92.66-.17 1.31-.33 1.94-.52a4.31 4.31 0 003.2-3.75 6.78 6.78 0 00.17-1.73c-.66-7.3-3.07-13.63-9.75-17.58-.11-.07-.13-.28-.2-.44.56-.69 1.16-1.33 1.64-2.05a5.94 5.94 0 001-2.08 11.46 11.46 0 00-5.65-11.84c-.56-.31-1.16-.56-1.67-.8.25-1.73.49-3.26.68-4.8a13.34 13.34 0 00-.9-6.87 5.39 5.39 0 00-8.83-2.16 18.36 18.36 0 00-1.59 1.7 10.77 10.77 0 01-5 3.44c-.14-.8-.22-1.46-.37-2.11a9.77 9.77 0 00-1.61-3.4c-2.75-3.79-8-2.9-10.34.07a2.62 2.62 0 00-.31 3.24c.63 1 1.34 1.9 2 2.84a5.7 5.7 0 011.54 2.71 3.88 3.88 0 01-.85.42c-2 .51-3.94 1-5.92 1.49a18.56 18.56 0 00-9.43 5.49c-2.77 2.95-3.18 6.22-1.37 9.88a2.63 2.63 0 01.09.72c-.33.21-.7.48-1.11.69-5.5 2.81-9.31 7.27-12 12.68a34.61 34.61 0 00-2.35 6.56c-.75 2.74.47 4.33 3.29 4.5 1.45.09 2.91 0 4.37.06.46 0 .91.09 1.43.14-.27 1.72-.53 3.42-.79 5.12-.18 1.12-.25 2.35-.39 3.55a12 12 0 00-1.55 7.21c-2.95.65-4.35 1.51-5.5 3.57-1.82 3.26-2.15 6.66-.31 10a29.37 29.37 0 003 3.93 13.16 13.16 0 001.43 1.33 6.41 6.41 0 01-1.46.63 16.22 16.22 0 01-7.18-.74 26.1 26.1 0 00-5.32-1.45c-9.22-1-17.32 3.33-20.87 13.54a3.18 3.18 0 00-.16.86 1.55 1.55 0 001.76 1.79 8.93 8.93 0 002.45-.81 9.32 9.32 0 019.65 1c.8.54 1.59 1.12 2.38 1.68a13.64 13.64 0 007.33 2.54c2.94.16 5.55-.55 7.55-3a18.3 18.3 0 003.31-5.44c.42-1.19.81-2.39 1.21-3.59.15-.46.26-.94 1-.82.07.74.1 1.53.23 2.29a58.86 58.86 0 001.47 7.41 86.35 86.35 0 008.81 19.61c.52.82 1 1.66 1.45 2.52 2.91 5.71 5.82 11.42 8.66 17.16.55 1.11 1.22 2.18 1.68 3.32.85 2 2.44 4.51 2.69 6.69.19 1.71-.42 3.84-.63 5.55 0 .13 0 .27-.07.4a49 49 0 01-5.38 7.35c-2.22 2.48-4.72 4.69-6.8 7.3a36.56 36.56 0 00-7.35 16.5c-.15.87.23 2.09 1.27 2.25a38.24 38.24 0 017.69 1.89c2.16.79 4.79 2.9 7.16 2.66a17.34 17.34 0 003.15-1 19 19 0 013.95-.75 19.88 19.88 0 018.05 1.13 1.87 1.87 0 002.24-1.28c2.2-5.28 4.42-10.79 4.33-16.61a37.57 37.57 0 00-1.47-8.27 37.49 37.49 0 01-1-7.76 29.69 29.69 0 004.22-6.72 18.28 18.28 0 001.69-10.54 75.93 75.93 0 01-.52-18 78.56 78.56 0 014-17.84c1.58-4.49 3.28-8.93 5-13.38.26-.7.64-1.34 1-2.17l2.15 1.8a25.5 25.5 0 0010.17 5.48 35.39 35.39 0 009.23 1 13.27 13.27 0 0012.05-6.86 18.87 18.87 0 012-2.83 9.27 9.27 0 015.42-3.18c.56-.1 1.17 0 1.75-.13 1.73-.21 2.39-1.69 1.27-2.95zm-102.78-7.25c-.17-.4-.43-.71-.41-1a21.63 21.63 0 01.46-2.43c.79 2.35.79 2.35 0 3.44zm-6 23.51c-2.1 1.44-4.62 1.22-6.89.29a15.29 15.29 0 01-3.5-2 14.08 14.08 0 00-10.25-3.28 9.26 9.26 0 01-1.34-.16 10.87 10.87 0 01.92-1.63c4-4.78 9.1-6.67 15.28-5.43.37.08.77.13 1.14.24 1 .3 2 .65 3 .94.63.18 2.91.29 3.28.79 1.31 1.75-3.61 1-4.24.86a16.42 16.42 0 00-7.11-.28c-.38.07-.87.32-.75.69s.35.32.59.37a35.33 35.33 0 005.49.91 8.68 8.68 0 015 1.61 3.8 3.8 0 011.28 1.71 3.85 3.85 0 01-1.83 4.4zm52.67-48.45a6.79 6.79 0 00.36-2c0-.73.09-1.45.16-2.62 3.91 3.5 7.44 6.89 12.72 7.29.1.57.23 1.11.33 1.64-3.8-2.9-8.58-4-13.57-4.31zm-38.61 8.32c1.78-2.59 4.86-3.15 7.72-3.71a63.44 63.44 0 019.91-1.12c1.72-.06 3.43-.05 5.14 0 7.13.26 14.14-.28 21.23 1.11 2.87.56 5.94 1.12 7.72 3.71a10 10 0 011.17 9.07c-1.16 2.74-4 4.35-6.69 5.51-3.88 1.71-7.45 1.54-10.41-1.7-2.83-3.08-5.41-6.09-9.94-6.08-4.22 0-7.29 3.2-9.92 6.09-3 3.23-6.54 3.4-10.41 1.69-2.66-1.16-5.53-2.77-6.69-5.51a10 10 0 011.2-9.06zm.31-4.31c.08-.54.16-1.08.25-1.62 0-.18 0-.38.08-.58.59-3.48.58-3.53 3.93-4.4a25.94 25.94 0 0011.77-6.06 1.72 1.72 0 01.53-.25c.76.14.59.87.79 1.34 1.28 3 3 5.69 5.91 7.36l.46.26h-2.67c-1.81-.07-3.61-.08-5.42 0-5.23.19-11.34 1.18-15.63 4zM597 282.61a2.06 2.06 0 012 1 7.18 7.18 0 011.12 2.6c.24 2.49.27 5 .35 7.49 0 .12-.22.25-.41.46a47.63 47.63 0 00-1.93-5.62 43.43 43.43 0 00-3.18-4.86c.3-.91 1.11-1.03 2.05-1.07zm-26.5 46.61a12.6 12.6 0 01-5.08-.07c.35-1.23.57-2.37 1-3.44 2.42-6.07 6.23-10.92 12.24-13.83 2-1 3.29-.12 5.25.47a7.12 7.12 0 002.48.14 2.88 2.88 0 001.33-.3 1 1 0 00.48-1.16 1.31 1.31 0 00-.75-.61 28.12 28.12 0 01-4.1-1.76c-.75-.49-1.17-1.26-1.95-1.74a3.28 3.28 0 01-1.45-4.52 8.6 8.6 0 011.77-2.62 13.17 13.17 0 015.61-3.54c2.85-.89 5.8-1.47 8.62-2.17a1.62 1.62 0 01-.1 2.55 2.22 2.22 0 01-1.37.37c-.46 0-1 0-1.23.39s.31.93.79 1.12c4.34 1.76 11.44 1.11 14.3-3a2.07 2.07 0 00.45-1.09.83.83 0 00-.66-.85c-.44 0-.77.37-1.07.7a2.12 2.12 0 01-1.9.75c-2.26-.48-.62-3.73.48-4.48.64-.43 1.32-.82 2-1.25a28.91 28.91 0 005.52-4.72c1-1.12 2.19-1 2.73.38a10.18 10.18 0 01.79 3.36 22.93 22.93 0 01-1 7.64c-.76 2.44-2.58 4.68-3.93 6.85a1 1 0 00-.19.45c0 .38.46.64.84.57a2.16 2.16 0 001-.62c1.43-1.26 4.33-3.32 6.28-3.5 1.67-.15 3.16 3.13 3.51 4.58.75 3.13.31 4.52-2.41 6.09a10.26 10.26 0 01-3.5 1.35 43.79 43.79 0 01-8.77.63 2.93 2.93 0 00-1 .07 1 1 0 00-.69.64c-.13.57.42 1.05.93 1.33 3.55 2 7.62 1.38 11.4.53a3.33 3.33 0 012.22.2 13 13 0 016.61 6.28 20.19 20.19 0 012.28 6 28.7 28.7 0 01.27 4.05 1.19 1.19 0 01-1.07 1.2c-3 .43-6 .36-8.7-1.39a23.61 23.61 0 01-6.39-5.89 9 9 0 00-1.55-1.71 1.66 1.66 0 00-2.52.46 9.17 9.17 0 00-1.28 4.13c-.09.87-.05 1.75-.12 2.62a14.68 14.68 0 01-.29 1.61 18.51 18.51 0 01-9.4-1.71 10.57 10.57 0 01-5.27-8.57 3.62 3.62 0 01.35-1.66 15.3 15.3 0 01.87-1.5 1.34 1.34 0 00-.26-1.61 1.56 1.56 0 00-1.87-.27 8.16 8.16 0 00-1.06 1c-1.32 1.28-2.63 2.58-4 3.85a22.86 22.86 0 01-9.83 5.45c-2.51.72-5.07 1.3-7.64 1.79zm-.56 35.67a4.46 4.46 0 01-2.92-2l1.27-2.3 2.26 1.18-.61 3.15zM604 472.13a22.48 22.48 0 00-13.41.42 5.31 5.31 0 01-1.44.56 6.13 6.13 0 01-2.18-.92c-1.12-.53-2.26-1-3.42-1.45a36.34 36.34 0 00-6.36-1.75 32.65 32.65 0 017.27-14.38c2.07-2.35 4.4-4.43 6.42-6.82.25-.29.48-.59.72-.89a10.47 10.47 0 00.5 3.1c.66 2.21 2.28 3 4.52 2.44a10.41 10.41 0 004.45-2.67c1.41-1.32 2.78-2.68 4.15-4 .12 1.12.29 2.24.5 3.37.55 2.8 1.56 5.54 1.72 8.42.3 5.06-1.54 10-3.46 14.61zm-8.36-28.41l.12-.62a7.07 7.07 0 005.19 1.83c-.65.64-1.31 1.29-2 1.92a16.11 16.11 0 01-2.08 1.59 7.22 7.22 0 01-1.22.49 8.9 8.9 0 010-5.21zm26.92-76.5c-2.55 6.81-5.25 13.57-7.74 20.4a80.77 80.77 0 00-4.23 17.81c-.82 6.62-.35 13.18.28 19.76.09 1 .14 1.94.24 2.9a9.29 9.29 0 01-1 5.08 14.3 14.3 0 01-3.49 5c-.83.68-1.83 1.12-2.71 1.72-1.16.78-2.2 1.59-3.71 1.43-4.12-.42-3.45-5.14-3.26-8 .22-3.22-1.26-6.54-3.2-9.11a29.12 29.12 0 01-2.69-5.35c-1.66-3.5-3.34-7-5.15-10.44s-3.76-6.57-5.53-9.91c-3.51-6.62-6.6-13.42-7.89-20.88a41.5 41.5 0 01-.77-7.36c4.93 1.54 9.69 3.19 14.62 3.4 1.18 1.49 2.18 2.93 3.35 4.21 2.58 2.84 6 3.52 9.59 3.12 4.58-.52 7.81-3.18 9.89-7.26a10 10 0 00.85-6.25 15.25 15.25 0 00-3.09-7.15c-4.16-5.26-10.6-5.13-15.17-2.23a42.66 42.66 0 00-4.57 3.95 33.17 33.17 0 01-15.42-3.85v-1.97a19.4 19.4 0 008.82 4.58 11 11 0 008.21-.93c2-1.19 3.18-3.27 4.72-4.91 2.23-2.36 6.3-3.37 9.24-1.74s4 5 6.81 6.65a11 11 0 008.22.93 20.25 20.25 0 007.36-3.35 49.84 49.84 0 01-2.64 9.75zm-48.77-4l3 1c-.27 1.4-.48 2.42-.72 3.63l-2.43-.73c-.64-1.37-.28-2.51.1-3.91zm5.84 4c.19-.45.47-1.24.81-2a.61.61 0 01.5-.11c.16 0 .41.21.4.32a17.48 17.48 0 01-.11 2.29c-.16 1.24-.46 1.6-1 1.38-.74-.32-.57-.94-.65-1.89zm5.61-1.54c.58 0 .86.19.8.66-.15 1.23-.34 2.45-.56 4-.47-.4-.88-.56-.93-.81a5.83 5.83 0 01.7-3.85zm8.8-5a5.47 5.47 0 013.74-1 7.58 7.58 0 017.17 4.22 18.13 18.13 0 011 2.1c2.76 6.4-3.75 12.59-9.43 11.42-3.73-.77-6.52-3.29-7-7.08a9.42 9.42 0 014.51-9.66zm67.66 5.75a16.4 16.4 0 00-6.76 6.24c-.37.56-.74 1.14-1.12 1.71a8.51 8.51 0 01-6.53 3.9c-1.8.17-6 1.31-6.85-.88s2.2-4.45 3.77-5.52a25.67 25.67 0 016.9-3.65.68.68 0 00.26-.12c.17-.17 0-.5-.17-.61a1.18 1.18 0 00-.72 0c-3.41.65-5.4 2.22-8.2 4.24-.73.52-6.05 3.8-6.58 2.22-.23-.67 1.65-1.17 2-1.38a15.26 15.26 0 004.48-3.79 15.75 15.75 0 015.18-4.17 14.77 14.77 0 0110.7-1.47 9.11 9.11 0 014.56 2.63 5.45 5.45 0 01-.97.61z"/><path class="cls-3" d="M587.93 458.05l-.11.23a25.26 25.26 0 00-1.76 8c0 .49 0 1.09.4 1.31a.87.87 0 001-.26 2.55 2.55 0 00.44-1c1-3.22 1.84-6.63 3-9.75a3.31 3.31 0 00.37-2.09c-1.38.35-2.77 2.33-3.34 3.56zm10.21-2.78a.65.65 0 00-.79.21 1.82 1.82 0 00-.33.83 24 24 0 00-.45 3.49 54.33 54.33 0 01-.61 6.82 2.48 2.48 0 00-.07 1.05c.3 1.35 1.53.38 1.78-.41a30.58 30.58 0 001-9.41 4.72 4.72 0 00-.53-2.58z"/></g><g id="eaa5add2-0971-43fb-8e39-9ea693959e8e"><path class="cls-3" d="M695.79 262.65a8.32 8.32 0 00-1.64-3.38 4.21 4.21 0 01-1-1.72c0-.18-.07-.35-.11-.53a12 12 0 00-.75-4.89c-1.71-4.26-3.7-8.37-7.49-11.26a64.31 64.31 0 00-5.67-4.06 31.1 31.1 0 00-7.71-3.36q-4.68-1.32-9.35-2.66c.16-.35.33-.7.5-1.06 2.18-4.54 3.5-9.27 3-14.36a30.93 30.93 0 00-1-5.13 4.6 4.6 0 00-2.56-3.37 9.71 9.71 0 00-7.39.23c-1.24.54-1.59 1.44-1.31 2.89.22 1.14.56 2.27.76 3.41a32.2 32.2 0 01-.14 12.45 8.09 8.09 0 01-.69 1.53 12.71 12.71 0 00-8.25-1.95 9.21 9.21 0 00-1.88-7.25 22 22 0 00-5.8-5.61 44.85 44.85 0 00-11.8-5.57c-3.65-1.13-7.48-1.31-11.22-1.95s-7.19-.16-10.68-2.12a7.29 7.29 0 01-3.53-8.43c.33-1.22.83-2.38 1.2-3.59a4.19 4.19 0 00-1.73-5.1 7.17 7.17 0 00-5.84-1.08 33.28 33.28 0 00-17.41 8.79c-4.07 3.9-8.61 9.73-10 15.34-.37 1.49-.55 3-.83 4.61-2.16.35-4.2.3-6.33 1s-4 1.75-5.9 2.58a13.89 13.89 0 00-3.89 2.54 128.7 128.7 0 01-4.3-13.2 54.93 54.93 0 00-1.89-5.5 13 13 0 00-7.06-7.37 133.87 133.87 0 00-19.1-7c-5.86-1.73-11.73-3.42-17.59-5.14-1.58-.46-3.14-1-4.72-1.46a683.29 683.29 0 00-11.77-3.27 11.83 11.83 0 00-2.6-.27 3.48 3.48 0 00-3.58 2.43 10 10 0 00-.62 1.94c-.54 2.86-1.14 5.72-1.53 8.61-.38 2.64.15 3.43 2.58 4.55 1.15.52 2.34.93 3.53 1.34 2.11.73 4.24 1.41 6.35 2.12a56.83 56.83 0 007.58 2c1.81.35 3.56 1 5.33 1.44 3.28.84 6.56 1.72 9.87 2.48a26.75 26.75 0 015.8 1.88c3 1.45 5.88 3 8.86 4.4a8 8 0 014 4.4c.89 2.15 1.87 4.28 2.59 6.49 1.35 4 2.54 8.14 3.84 12.39-.75.2-1.35.39-2 .53-.35.08-.69.17-1 .27a.93.93 0 010 .13q-2.73.57-5.41 1.38a29.5 29.5 0 00-13.87 8.84 62.32 62.32 0 00-4 5 22.48 22.48 0 00-4.18 8.57 4.21 4.21 0 01-1 1.72 8.32 8.32 0 00-1.64 3.38c-1.24 4.58-.06 9.77.37 14.45a533 533 0 009.1 57.68c1.81 8.83 3.16 18.06 5.49 26.7s6.58 16.65 8.73 25.37a162.73 162.73 0 013.17 16.5c1.09 7.88 1.59 15.81 2.49 23.69 1 8.52 2.6 16.94 4.17 25.36q1.81 9.68 3.62 19.34a83.67 83.67 0 002.06 9.13c.65 2.17 1.15 5.09 2.8 6.78s4.76 2.18 6.9 2.78c4.94 1.41 9.93 2.69 15 3.68a175.79 175.79 0 0018.44 2.55 211.24 211.24 0 0029.34 0 176.15 176.15 0 0018.44-2.55c5-1 10-2.27 15-3.68a37.4 37.4 0 005.41-2c5-2.26 5.42-11.79 6.33-16.68q1.82-9.66 3.61-19.34c1.6-8.52 2.75-17.11 4.07-25.68 1.23-7.93 1.72-15.88 2.79-23.83a150.37 150.37 0 013-16c2.29-9.24 7.43-17.49 10-26.68 8.08-28.92 8.37-59.21 14.12-88.57a19.77 19.77 0 00-.48-9.02zm-37.7-45.76c-.12-2.19-.57-4.37-.86-6.51 1-.76 2-.37 2.93-.37a5.14 5.14 0 011.61 3.6 24 24 0 01-3.7 16.78l-1.61-.56c.5-2.29 1.11-4.42 1.39-6.59a35.48 35.48 0 00.24-6.35zM647.93 229a5 5 0 013.1 1.45c1.73 2 4.17 2.79 6.54 3.65 1.18.43 2.43.69 3.62 1.09a14.34 14.34 0 019.69 9.32c.31.92.61 1.84.84 2.79a9.43 9.43 0 01-1 7.06 54.67 54.67 0 01-21.24-6.29c-3-1.64-5.87-3.45-9.38-3.84-2.26-.25-7.91 1.11-9.46-1-1-1.42-.06-3.49.79-4.71 2.57-3.75 5.71-6.89 10-8.63a11.41 11.41 0 016.5-.89zm-126.42-24.88c-1-.48-1.94-.83-2.79-1.29a30.84 30.84 0 00-9.33-3.17 69 69 0 01-9.82-2.62 9.14 9.14 0 00-1.67-.5c-5.8-.86-11.21-3.07-16.76-4.78a5.27 5.27 0 01-3.1-1.68 48.22 48.22 0 012-9.89 9.5 9.5 0 012.15 0c3.93 1.06 7.84 2.18 11.75 3.3 1.5.43 3 .94 4.45 1.37 5.31 1.55 10.63 3 15.92 4.63 4.08 1.24 8.12 2.61 12.16 4a9.25 9.25 0 011.55.9c-2.69 2.99-4.14 6.61-6.51 9.73zm6.09 3.15c-.9-.54-2-.58-2.43-1.85 1.31-2.33 2.64-4.79 4.07-7.19a6.75 6.75 0 011.76-1.89 2 2 0 011.59-.36c2.34.91 4.68 1.88 6.1 4.35-4.09 1.71-7.54 4.34-11.09 6.94zm2.76 2.6a39.46 39.46 0 019.64-6.67 17.54 17.54 0 011.71 5.49c-3.35 1.26-6.9 1.6-9.93 3.8l-1.44-2.62zm2.67 5.41c3.26-1 6.2-2.77 9.58-3 1.5 2.83 8.52 23.17 9.45 27.31-.19.17-.37.44-.61.52a7.37 7.37 0 00-3.81 3 7.51 7.51 0 01-2.09 2.28l-2.91-.61-9.64-29.5zM509.52 254a51 51 0 016.39-8.31 25.67 25.67 0 0111.86-7.09 59.38 59.38 0 018.23-1.76h.32l2.9 8.94c-.83.4-1.52.71-2.2 1.06a6 6 0 00-2.77 2.92c-.35.78-1.23 3.28 0 3.77a1 1 0 00.38 0 .47.47 0 00.23 0 .67.67 0 00.27-.37 7.14 7.14 0 012.08-2.37 2.87 2.87 0 01.5-.36 6 6 0 01.7-.28c.58-.21 1.09-.53 1.68-.71 1.49-.44 2.86-1.19 4.5-.58 1.82.67 3.18 0 4.25-1.58.61-.87 1.34-1.66 2-2.51a4.16 4.16 0 013.53-1.67c3.12 0 6.48.29 9.26 1.86a2.38 2.38 0 001 .4.74.74 0 00.8-.61.92.92 0 00-.14-.48 4.83 4.83 0 00-1-1.39 12.44 12.44 0 00-4.18-2.13c-1.37-.46-2.79-.78-4.12-1.14a26.59 26.59 0 01-1-2.56c2.44.28 4.88.65 7.29 1.15s5.09 1.23 7.67 1.68c6 1.09 12.05 2.06 18.07 3.12a93.58 93.58 0 0015.98 1.52c4.17 0 9.09.76 13.06-.69a2.83 2.83 0 001.46-1 1.13 1.13 0 00-.22-1.57 1.7 1.7 0 00-1-.13c-4.15.21-8.26-.68-12.35-.52a66.22 66.22 0 01-11.16-.33c-6-.78-11.88-1.86-17.8-2.92-4-.71-8-1.56-12-2.45a86.54 86.54 0 00-9.99-1.54c-.43-1.71-1-3.38-1.53-5.05-.23-.65-2-4.56-1.74-4.91a9.26 9.26 0 012.9-2.53 31.77 31.77 0 0113.61-3.79l1.72-.15a21.27 21.27 0 012.87-.12c6.47.55 12.28 3.13 18.67 4.18a9.66 9.66 0 003.82.11 2.18 2.18 0 00-.88-2 6.32 6.32 0 00-2.09-1l-3.25-1a105 105 0 00-14.8-3.69c-1.32-.23-2.67-.29-4.08-.43a9.44 9.44 0 011-4.86c2.23-5.81 6.32-10.18 11-14a31.21 31.21 0 0110.35-5.19 17.88 17.88 0 013.73-.66 2.63 2.63 0 012.67 1.18c-.49 1.61-1 3.08-1.41 4.57a9.73 9.73 0 00.48 6.55 11.81 11.81 0 007.25 6.71c3.18 1.18 6.16 1.1 9.48 1.64 3.61.59 7.26.56 10.8 1.59a40.26 40.26 0 0112.67 6.36 14.09 14.09 0 013.92 5 4.05 4.05 0 01-.56 4.68 21.2 21.2 0 00-3.13 1.46c-.73.09-1.48.11-2.22.22-3.26.49-6.57.79-9.77 1.54-7.88 1.86-15.23 2.2-23.25 2.33a1.45 1.45 0 00-1.3.48c-.42.68.44 1.43 1.18 1.72a21.81 21.81 0 006.8 1.25 52.84 52.84 0 0014.8-1.69c2.81-.66 5.6-1.25 8.43-1.66-.54.55-1.06 1.12-1.57 1.71a19.7 19.7 0 00-3.61 6.2c-.83 2.4-1 4.85-3 6.7-1.13 1.07-2.62 1.7-3.81 2.71-.56.47-1 1.35-.53 1.86 1.51 1.5 7.53-1.25 9.18-1.65.52-.12 1-.25 1.56-.35 3.64-.75 7.47-1.48 11.14-.5 2.51.67 4.85 2.43 7.16 3.61a58.52 58.52 0 0013.94 5 62.25 62.25 0 007.32 1.15c2.22.21 4.43.87 6.65.84a3.37 3.37 0 001.85-.42 1.43 1.43 0 00.66-1.63 2.14 2.14 0 00-1.2-1c-2-.93-3.3-1.43-2.62-3.71a10.08 10.08 0 000-6c-.14-.47-.25-.94-.37-1.41a19 19 0 00-4.37-8.28 37.94 37.94 0 019.88 4.89 21.33 21.33 0 017 8.58c1.64 3.64 2.95 7.76-1.54 9.09a67.34 67.34 0 01-11.26 2.86c-2.48.29-4.92.19-7.4.39-1.89.15-3.76.47-5.64.71-1.46.18-2.8.59-4.23.83a8.62 8.62 0 00-3.25 1 1 1 0 00-.46.49.82.82 0 00.56.93 2.51 2.51 0 001.19 0c.93-.11 2.08 0 2.51.81.61 1.21-1.07 3.73-1.52 4.86a38.5 38.5 0 00-1.8 5.8c-.88 4.08-1.58 8.2-2.35 12.3-.58 3.05-1.06 6.13-1.76 9.15a16.11 16.11 0 01-1.64 4 5.7 5.7 0 01-1.83 1.79 1.7 1.7 0 01-2.27-.62c-.2-.33-.33-.7-.5-1.05a23.15 23.15 0 01-2-10.79c.09-3 .27-6 .33-9a34.41 34.41 0 00-.14-4.65 7.14 7.14 0 00-4.11-5.65 4.53 4.53 0 00-5.38.69c-.87.78-1.67 1.64-2.51 2.44a7.76 7.76 0 01-4.14 2 3.63 3.63 0 01-3.43-1.07 7.08 7.08 0 01-2-3.81c-.31-1.54-1.52-5 .21-6.2.12-.08.24-.15.35-.24a1 1 0 00.27-1 2.08 2.08 0 00-1.52-1.44 9 9 0 00-2.2-.2c-3-.1-5.84-.37-8.81-.37q-5 0-10 .3h-.4a140.48 140.48 0 00-20.1.07c-1.06.09-2.13.14-3.2.14q-14.58 0-29.16-.14a17.63 17.63 0 01-2.61-.19c-2.49-.39-5-.91-7.47-1.23a47.88 47.88 0 00-9.27-.76 21.8 21.8 0 01-3.76-.33c-3.88-.46-7.55-1.76-11.26-2.86a7.54 7.54 0 01-3.8-2 9.45 9.45 0 011.42-3.56zm183.34 16.5c-.37 5.67-2 11.69-2.71 16.84-1.13 8.66-2.27 17.31-3.54 25.95-2.52 17.18-5.55 34.33-10.16 51.1-2.38 8.62-7.2 15.63-9.18 24.42a238.18 238.18 0 00-4.43 31.09c-1 10.58-2.73 20.95-4.68 31.39-1.38 7.39-1.19 19.26-8.21 23.83a24.66 24.66 0 01-7.76 3c-2.28.55-13.12.78-12.57 4.51.36 2.47 6.92 1.54 8.48 1.44 1-.07 3.33-.64 4.22 0 2.06 1.47-3.38 2.67-4.26 2.79l-5.51.77a1.66 1.66 0 00-1 .38c-.25.26-.26.78.07.92a.81.81 0 00.38 0l2.11-.1a1.59 1.59 0 01.78.1c1.51.77-4.59 2.06-5 2.15-2.83.53-5.69.93-8.56 1.26-5.72.65-11.47.95-17.21 1.23-1.76.09-3.53.15-5.29.17s-3.52-.08-5.29-.17a205.66 205.66 0 01-25.85-2.65c-5.07-.91-16.08-1.9-16.68-8.71a1.58 1.58 0 011.2-1.5 4.58 4.58 0 012.05 0l8.14 1.42a4.05 4.05 0 002.13 0 1.45 1.45 0 001-1.65c-.21-.69-1-.95-1.66-1.14-4-1.1-8-2.18-11.9-3.39-3.32-1-6.14-2.06-7.77-5.44a18.92 18.92 0 01-1.23-3.82c-1.26-5.12-2.57-10.26-3.54-15.44-2-10.69-4.08-21.41-4.73-32.3-.3-5-1.4-9.94-2-14.92a153.38 153.38 0 00-2.35-15.25c-2-8.71-5.92-16.41-8.67-24.83-5.93-18.06-7.73-38.21-11.19-56.88-1.43-7.72-2.86-15.44-3.9-23.23-.85-6.39-2.86-14.29-1.34-20.6.22-.92.46-1.9 1.6-2.28a56.21 56.21 0 0012.05 4.18 39.91 39.91 0 005.44.94c3.09.27 6.2.36 9.3.57a39.52 39.52 0 014 .46 75.23 75.23 0 0012.44 1.32c9.23 0 18.46.3 27.7 0 1.55-.05 3.1-.19 4.66-.21 2.37 0 4.74-.07 7.13-.09a19.09 19.09 0 002.27.16c2.32 0 4.63-.06 6.95-.1s4.63.1 7 .1a19.41 19.41 0 002.28-.16l7.13.09h.71c.46 2.12 1 4.28 1.4 6.46a10.18 10.18 0 003.23 5.73 7 7 0 006.74 1.76 12.7 12.7 0 006.07-3.27c.56-.55 1.09-1.11 1.66-1.64a1.53 1.53 0 012.31-.07 4.11 4.11 0 011.64 3.55c-.16 6-.66 12.07 0 18a28.06 28.06 0 002.55 7.71c.89 2.08 4.56 3.51 6.78 2.3a9.13 9.13 0 003.59-3.3c2.08-3.36 2.57-7.23 3.15-11.05.68-4.44 1.59-8.84 2.51-13.23a53.53 53.53 0 012.36-8.7c1.71-4.26 5.32-4.64 9.34-5.57l.56-.13a25.29 25.29 0 013.53-.78 38.65 38.65 0 005.44-.93 64.73 64.73 0 007.09-2.09c1.51-.56 4.3-2.75 5.89-1.4 1.78 1.53 1.25 6.78 1.11 8.82z"/><path class="cls-3" d="M583.66 486.25a33.38 33.38 0 01-8-1.58 6.25 6.25 0 00-1.93-.46 1.79 1.79 0 00-1.65.92c-2 4.56 15.07 4.82 17 4.56a4.73 4.73 0 002.5-.84 1.63 1.63 0 00.24-2.35c-2.75-.01-5.47-.03-8.16-.25zm22.52-2.83c-4.12-.35-8.29-.28-12.43-.38a.71.71 0 00-.41.08.47.47 0 000 .7 1.36 1.36 0 00.72.3c6.29 1.22 13.27 1.85 19.59.87a10.84 10.84 0 003.6-1c.24-.14.51-.38.4-.64s-.39-.25-.64-.24c-3.55.14-7.28.61-10.83.31zm13.56 2.88c-1.56.06-3.51 1.08-4.85 1-.5 0-5.77.95-3.91 2.34a1.12 1.12 0 00.49.18 18.9 18.9 0 008-.28c1.56-.44 4-1.76 1.47-3.05a2.32 2.32 0 00-1.2-.19z"/></g><path d="M613.72 366.65a1.83 1.83 0 000 3.65 1.83 1.83 0 000-3.65zm1.41-4.14a1.22 1.22 0 000 2.44 1.22 1.22 0 000-2.44zm4.65 1.01c-2.61 0-2.62 4.05 0 4.05s2.61-4.05 0-4.05zm.34 2.47a.68.68 0 01-.67-.67.61.61 0 01.25-.52.73.73 0 01.53-.27.68.68 0 01.67.67.75.75 0 01-.71.79z" fill="#f9c4c4" id="f6047571-374b-497e-bf7d-66b88ab11624"/><g id="layer1"><g id="g4493"><g clip-path="url(#clip-path)" id="g4495"><g id="g4497"><g id="g4503"><path id="path4505" class="cls-27" d="M169.42 322.08l.35.07.45-.1 1.93 1.59-.36-1.89 15.24-3-13.1-1a9.2 9.2 0 00.07-2.14h.09l-.12-.21a5.93 5.93 0 00-.59-1.94 4.58 4.58 0 00-2.61-2.28l-.24-.07h-.32c-2.62 0-3.91 2.45-4 4.71-.25 5.46 2.86 6.2 3.22 6.27"/></g><g id="g4507"><path id="path4509" class="cls-27" d="M220.55 360.32a1.53 1.53 0 01-.62.12c-.22-.18-.94-.89-1.67-3.31a8.07 8.07 0 01-.1-3.2l.17-.16a11.52 11.52 0 01.93 3.25 6.15 6.15 0 001.3 3 1.06 1.06 0 010 .32m-12.79-11.24a4 4 0 011.31-.59c.23-.06.95-.27 1.68-.53a3.77 3.77 0 01-.28.68 3 3 0 01-1.73.94 1.34 1.34 0 01-1-.5m-.33-12.53a3.54 3.54 0 01.69-2.68 3.85 3.85 0 012.51-1 2.53 2.53 0 011.48.55 4.37 4.37 0 00-3.19 1.67 4.77 4.77 0 00-.87 2.29 3 3 0 01-.62-.81m-9-5.31c-1.26-.11-1.84-1.73-2-2.26a4 4 0 013.62-3.88 1.55 1.55 0 011.09.66 3.78 3.78 0 00-2.51 1.82 4.73 4.73 0 00-.21 3.66m-21.25 19.4a49.51 49.51 0 01-14.52 2.28c-7.13 0-13.13-1.76-17.83-5.23l-.1-.06a42 42 0 01-14-17.14c4.9 3.89 13.42 8.22 27 8.22 2.27 0 4.64-.13 7.05-.37a51.2 51.2 0 0012.73-2.55 38.67 38.67 0 0014.51-8.38v.24a11.08 11.08 0 001.45 5.48 28.09 28.09 0 01-16.29 17.49m27.56 27.66c-6.44 0-11.06.91-13.71 2.71l-.1.06-.08.08c-.59.51-3.23 3.45-3.45 14.93A15.87 15.87 0 01185 393c0-.4-1.27-11.48 2.63-21.93.27-.46 1.74-2.78 3.91-2.78a4.45 4.45 0 012.21.67 82.65 82.65 0 0012.66 9.35h-1.66m4.37 24.77l-.32.07-.28.17a9.41 9.41 0 01-2.78.87c-1.07-7.7-5.36-14.34-7.64-17.41a27.61 27.61 0 018.18-.91c1.73 0 3.09.08 3.51.11a4.73 4.73 0 012.7 2.23l2.8 10.66c.08.88.12 1.69.14 2.38a38.78 38.78 0 01-6.31 1.83m-14.63-3.93c.24-2.17.65-5.44 1.13-8.09a34.7 34.7 0 015.38 11.39c-2-1.11-4.53-2.45-6.48-3.29m-9-36a5.31 5.31 0 013.86-2.17 6.48 6.48 0 01.86 3.17 9.33 9.33 0 00-4.91 2.74 5 5 0 01.19-3.74m-40.76 32.53l-.23.11a67.09 67.09 0 00-1.07-12.66l-.08-.39-.23-.33c-.55-.75-1-1.35-11.16-2.48-1.75-.2-3.5-.37-5-.52a53.29 53.29 0 006.93-8.08l.05-.07c2.35-3.86 4.3-4.16 4.84-4.16h.15l.11.06h.36a4.21 4.21 0 014.39 4.13v.23l.07.23c1.41 5.12 1 19.76.87 23.9m-7.71 2.2l-5.23 2.19c1-3 2.65-6.85 4.89-9.35a36.85 36.85 0 01.34 7.16m-20.2-1.29v-.1c0-.06.8-5.72 4.8-9.35 3.41.15 8.22.48 11.53.95-1.9 2.27-4.33 6.3-6.31 13.25a89.5 89.5 0 01-10-2.83 3.17 3.17 0 010-1.92m22.27-11.37h.33l.09.31a2.73 2.73 0 00-.26-.24zm7.09-19.45a9.16 9.16 0 00-5-2.84 5.24 5.24 0 012.14-2.75 4.26 4.26 0 012.25 1.4 5.28 5.28 0 01.61 4.15M123 358.23a2 2 0 01-.44.37 3.76 3.76 0 01-1.32.24 4.44 4.44 0 01-3.62-2.23v-.38a2.07 2.07 0 011.58-1.12 20.1 20.1 0 003.18 2.47 2.2 2.2 0 01.62.65m-12.44 10.15a2.12 2.12 0 01-1.28.64 1.08 1.08 0 01-.48-.11 3.44 3.44 0 01.24-.42 17.09 17.09 0 002.48-6.47v.43c.06.23.57 2.46-1 5.93m-5.89-1.54c.37-.33.83-.74 1.32-1.23-.2.37-.42.76-.68 1.18a4.6 4.6 0 01-.64 0m24.7-44.79c.37.41 9.39 10.27 30.22 10.27 1.2 0 2.43 0 3.65-.1.76 0 18.32-1 28.75-11.63l.43.12c-3.14 4.3-12.56 13.69-35 13.69-.95 0-1.94 0-2.9-.05-.19 0-19.3-1.06-25.68-12.93zm8.47-28.2a28.19 28.19 0 0117.61-11.62l.48.74c.11.17 2.75 4.12 7 4.12a9 9 0 006.37-3.1l.31-.32.14-.42a9 9 0 00.35-1.94c5.61.76 20.51 4 26.13 18l.07.15c0 .09 4.4 8.81 2.27 21.54-.32.08-.67.18-1 .31v-.71l.06-.12.2-.35v-.41c0-.1 0-.59.07-1.38l.24-.54h-.22c.11-3.72.12-11.92-1.8-17.43a3.65 3.65 0 00-3.71-2.77 8.74 8.74 0 00-3.85 1.11c-.19.09-19.23 9.36-37.11 9.36-7.44 0-13.63-1.61-18.43-4.77a35.74 35.74 0 014.83-9.39m25.41-26.45a4 4 0 011.73-.52 1.34 1.34 0 011.17.63 4 4 0 01-.75 3 2.9 2.9 0 01-2 .82 2.64 2.64 0 01-1-.69 2.58 2.58 0 01.88-3.21m-22.49 43.85h-.12a4 4 0 00-2.4 2 6.93 6.93 0 00-.35 4.95.83.83 0 00-.07.13 2.2 2.2 0 00.11 2.2l.45.75.86.13c.06 0 .37.05.8.05h.08l1.54 2.28-1 .68a28.28 28.28 0 01-7-4.33 21 21 0 010-11.14 37.78 37.78 0 007.14 2.27h-.06m46.85-7.24c.75 3.27 2 9.55 1.59 13.55-1.53 1.66-9.22 9-27.41 10.52-1.86-1.89-7.13-7-10.67-8.36a2.27 2.27 0 00-1-.22c-.95 0-2.74.42-7.51 3.62l-.22-2.12a3.73 3.73 0 002.15-3 14.22 14.22 0 00.2-2h.29l-.29-.56a5.25 5.25 0 00-1-3.12 3.33 3.33 0 00-.66-.59 56.21 56.21 0 009.36.76c10.94 0 22.75-2.83 35.15-8.43m4.61-1.4a35.09 35.09 0 011 5.9c-.32-2.26-.72-4.39-1-5.9M149.72 324a26.75 26.75 0 015.07 3.65 52.93 52.93 0 01-9-1.46 20.11 20.11 0 014-2.19m47.21-2.75h.18l-.27.11.09-.15m-79.63 30a7 7 0 00-.69.23c.11-.21.2-.41.29-.61a5 5 0 01.4.38m-3.61 6.94a4.41 4.41 0 00-1.9-.72 21.52 21.52 0 001.69-1.56 7.45 7.45 0 00.24 2.26m108.12-7.67a8 8 0 01-2-2.32 7.79 7.79 0 01-1.28-4.12 8.42 8.42 0 012.13 2.89l.05.08a7.44 7.44 0 011.11 3.5m-6.85-2.8a14.56 14.56 0 001.12 2.35 6 6 0 00-1.45.95c-.11-.19-.23-.38-.33-.59a5.39 5.39 0 00.66-2.71m-.79-2.6l.15-.12c0 .17 0 .34.06.51a3.72 3.72 0 00-.21-.39m11.32 5.25a11.43 11.43 0 00-1.52-5c-.36-.75-1.76-3.47-3.9-4.63l-.68-.87-.39-.49-1-1.21-.34-.55h-.1l-1.06-1.36-.15-.25a3.62 3.62 0 00-.27-.39 6 6 0 00-1-4.22 5.79 5.79 0 00-4.21-2.14l-1.41-.58a4 4 0 00-.88-.36l-3.3-1.36a6.44 6.44 0 00-3.3-5c2.4-13.63-2-23.12-2.52-24.15-3.26-8-9.76-14.1-18.79-17.57a43.43 43.43 0 00-12.78-2.87h-.75l-.35-.21v-3.26a5.81 5.81 0 001.14-.95 7.69 7.69 0 001.68-6.12v-.26l-.09-.25a5.07 5.07 0 00-4.7-3.14 7.62 7.62 0 00-3.59 1l-.11.06-.1.07a6.28 6.28 0 00-1.94 8.21l.07.14.11.12a6.46 6.46 0 001 1l-.15.5-.43 1.29a4.18 4.18 0 00-.31 1.53 4.7 4.7 0 00-1.19.94h-.4a32.28 32.28 0 00-23.19 13.7 37.6 37.6 0 00-5.7 11.75l-.3 1.19 1 .73c.33.25.68.49 1 .72a21.16 21.16 0 00-1.48 10 12 12 0 00-3.11 2.06l-.28.25-.68 1.48-.29 4a37 37 0 002.61 8.55c-1.17 1.59-.94 3.94-.69 5.19l-1.29 1.11h-.17l-1.53 1.29a7.55 7.55 0 00-1.37.2h-.06c-1.19.3-3.33 1.7-3.81 5l-.46.19a5.54 5.54 0 00-.74.34h-1.92l-.52.2-.54.08a11.11 11.11 0 00-2.94 1.65l-.36.34-.7.56a17.52 17.52 0 00-4.65 8.42l-.21 1.16-.24.6v.13a10.43 10.43 0 01-3.13 2.47l-.23.13-.18.18a4.75 4.75 0 00-1.6 3.34 2.52 2.52 0 00.63 1.55 3.78 3.78 0 00.85 2.62 3.9 3.9 0 003.12 1.27 4.93 4.93 0 00.55 0 2.67 2.67 0 00.91 1.12 5 5 0 003.08 1.09 5.85 5.85 0 004.24-2.11l.14-.16.09-.2a13.47 13.47 0 001.5-8.35 9.5 9.5 0 001.19-1.14 7.42 7.42 0 007.8 1.14l.15-.09a4.16 4.16 0 002.31-3.47 4.88 4.88 0 00-2.26-3.79c-1-.65-1.61-1.13-2-1.46l.5-.65.5-.5v-.17l.71-.93h.38c2.21 0 4.65-1.39 4.89-5.31l.74-.93.56-.37.44-.85a5.32 5.32 0 001 .1 7.74 7.74 0 002.16-.34 46.27 46.27 0 006.41 6.15l-.67 1.57-.4.89c-.44 1-.73 1.7-.92 2.25v.1a7.38 7.38 0 00-.27 1h-.09l-.71 1.77a6.85 6.85 0 00-2.38 1.72c-2.59 2.87-2.19 7.18-2.17 7.37v.29a17.53 17.53 0 00-2.3 3 50 50 0 01-9.46 10.09l-.48.38-.14.1a1.44 1.44 0 00-.34.28l-1 1.25-.14 1a8.49 8.49 0 00-.13 2c-4.81 4.37-5.87 10.82-6 11.54-.87 4.63 1.74 5.81 2.41 6a85.87 85.87 0 0011.18 3.16l.86.08 12.28-4.44.7.1.49.13 1 .1 1.59-.76 4.64-2.21.05-1.1c0-.77.77-18.39-.8-25.45l.31-.45c.16-.23 3.57-5.32 1.46-10.16l.93-3.56-.06-.08.74-2.35a38.18 38.18 0 0011.72 1.72 52.11 52.11 0 0015.78-2.49h.08l.9-.38c.07.21.13.39.18.52l.05.31c.09.57.63 2.64.86 3.5l.26 1a14.22 14.22 0 00.86 3.32l.1.29c-1.45 4.42 1.41 8.24 1.87 8.81a56.34 56.34 0 00-2.26 22c.07.9.6 2.2 3.58 5.4 1.54 1.65 3 3.06 3.1 3.12l.15.14.65.61 1.11.16 1.26-.18a5.67 5.67 0 001.46-.32 103.3 103.3 0 019.68 5.09l1.25.74.79-.11 1-.09a16 16 0 004.81-1.37c2.72-.59 7.15-1.73 8.45-3.11l.51-.53v-.73c0-1.38-.1-10.76-3.68-16.19v-3.3l-.49-1.55-1-2c-1.28-1.19-3.44-2.83-3.53-2.9l-.13-.1-.14-.07a72.33 72.33 0 01-12.64-8.8c.13-.72.74-4.88-1.47-7.7a5.91 5.91 0 00-2.2-1.73l-.07-.17.32.07-2-3.55c-.32-.55-1.06-2.25-1.45-3.19l-.05-.26a15.82 15.82 0 00-1.41-3.65 31.66 31.66 0 007.76-12.51 5.15 5.15 0 001.71.28 7.14 7.14 0 002.75-.61 8.26 8.26 0 001 .82 4.67 4.67 0 001.22 1.65l.24.21v.45l.09.24a5.84 5.84 0 005.23 3.79h.36l.73 1.9.23-.33.22.64c-.08.14-.15.26-.21.38l-.34.18a14.52 14.52 0 01-2 .71c-2.17.64-3.48 1.7-3.89 3.15a3.74 3.74 0 00.83 3.39v.05a5.07 5.07 0 003.71 1.71 5.39 5.39 0 002.63-.73 12.77 12.77 0 003 3.51 12.61 12.61 0 00.31 2v.08c1.49 4.95 3.59 6 5.09 6h.37a4.83 4.83 0 002.32-.68 3.43 3.43 0 001.59.39 3.67 3.67 0 00.69-.07 4.19 4.19 0 003-1.91 4.07 4.07 0 00.58-2l.09-.13c1.39-1.81.55-4.06-1-5.38a22.8 22.8 0 01-1.75-1.87"/></g><g id="g4511"><path id="path4513" class="cls-28" d="M163.2 273.06s5.27.3 4.72-6.14c0 0-1.35-3.49-5.7-1.16 0 0-3.31 2.39-1.41 5.83a4.4 4.4 0 002.39 1.47"/></g><g id="g4515"><path id="path4517" class="cls-29" d="M162.3 273.53a4.37 4.37 0 002.7-.25 5.36 5.36 0 010 1.8 2.61 2.61 0 01-3-.29 8.21 8.21 0 00.33-1.26"/></g><g id="g4519"><path id="path4521" class="cls-29" d="M161.81 275.42s2 1 3.28.15v2.21s-2.92 1.25-3.73-.78a6.81 6.81 0 01.45-1.58"/></g><g id="g4523"><path id="path4525" class="cls-29" d="M161.35 277.7a3.53 3.53 0 003.74.46v1.5s-1.32 2.66-4.06-.7z"/></g><g id="g4527"><path id="path4529" class="cls-29" d="M160.62 278.56s-.89 2.57 2.91 2.69c0 0 2.32.21 2.24-2.69l1.43.85a8.68 8.68 0 010 3s-4.12 4.54-9.07-.29c0 0 .88-2.95 2.49-3.55"/></g><g id="g4531"><path id="path4533" class="cls-28" d="M168 279.18s22.46.81 29.94 19.32c0 0 5 9.81 2.21 24 0 0-4.62-.16-6.25 5.15 0 0 0 3.44 1.63 5.07a29.72 29.72 0 01-17.66 19.62s-20.11 7.12-34.09-3.19c0 0-14.06-9-17-25.59 0 0 9.12 15.86 37.94 12.92 0 0 22.32-.86 31.27-17 0 0 .8-11.89-1.65-18.76 0 0-.37-2.82-5-.49 0 0-38.14 18.76-58.5 3.68 0 0 5.32-21.58 27.31-24l-.7 2s4.5 6.86 10.53.73a5.69 5.69 0 000-3.44"/></g><g id="g4535"><path id="path4537" class="cls-7" d="M132.66 306.35s19.87 12.14 56.17-5c0 0 2.94 11 2.08 16.93 0 0-7.52 10.05-29.88 11.65 0 0-6.91-7.24-10.71-8.59 0 0-1-1-9.44 5.16 0 0-5.77-2.33-8.83-5.46 0 0-2.64-7.79.61-14.66"/></g><g id="g4539"><path id="path4541" class="cls-27" d="M139.47 319.54s2.94.43 3.19-1.9c0 0 1-5.16-1.6-4.67 0 0-2.82.74-1.1 5.89 0 0-.86.06-.49.68"/></g><g id="g4543"><path id="path4545" class="cls-7" d="M140.2 318.31s-.43-3.74 1.9-4c0 0-1.22-2.39-2.33.86a5.14 5.14 0 00.43 3.13"/></g><g id="g4547"><path id="path4549" class="cls-27" d="M173.31 319.57l-3.55.7s-1.9-.36-1.72-4.38c0 0 .12-3 2.21-2.95 0 0 3.22.95 1.38 6.5z"/></g><g id="g4551"><path id="path4553" class="cls-7" d="M169.39 319s-.83-4.17 1.84-4.69c0 0-1.56-2.76-2.67.83 0 0-.5 2.77.83 3.86"/></g><g id="g4555"><path id="path4557" class="cls-28" d="M141.8 326.65s5.25 2.68 18 3c0 0-6.82-6.74-10-7.68 0 0-2.33.32-8 4.72"/></g><g id="g4559"><path id="path4561" class="cls-30" d="M130.7 317.68a12.62 12.62 0 00.9 3.06h-.9s9.61 10.79 32.42 9.57c0 0 18.47-.86 28.37-12 0 0 .85.67 3.88 1 0 0-8 18-41 16.84 0 0-21.1-1-27.64-14.71l.66-1.83s2.29-2 3.31-1.89"/></g><g id="g4563"><path id="path4565" class="cls-30" d="M189.93 300.77s2.76 12.39 1.9 17.23l3.8 1s-.12-15.69-2.57-18.88a10.36 10.36 0 00-3.13.67"/></g><g id="g4567"><path id="path4569" class="cls-28" d="M201 332.47s-3.43-5.51 2.64-5c0 0-.28-4.05-3.61-4.17 0 0-5.41.55-5.41 5.94 0 0 1.23 5.77 6.38 3.25"/></g><g id="g4571"><path id="path4573" class="cls-29" d="M201.4 331.55a3.46 3.46 0 012.21-2.94s-1.23-1.35-2.89.22a2.36 2.36 0 00.68 2.72"/></g><g id="g4575"><path id="path4577" class="cls-29" d="M203.61 333.79s-.53-2.6 3.25-4.29l-2.09-.86s-3.28.83-2.85 3.65a7.45 7.45 0 001.69 1.5"/></g><g id="g4579"><path id="path4581" class="cls-29" d="M204.74 335.42a7.14 7.14 0 014.08-5.09 2.48 2.48 0 00-2-.31 4.18 4.18 0 00-2.87 4.14 2.7 2.7 0 00.83 1.26"/></g><g id="g4583"><path id="path4585" class="cls-28" d="M210 339.56s-1.56-5.4 4.36-4.14a3.69 3.69 0 00-3.68-4.39s-5.7-.12-5.09 6c0 0 1.26 3.25 4.41 2.52"/></g><g id="g4587"><path id="path4589" class="cls-29" d="M210.72 339.53s1.72-2.43 4.2-2.64a2.56 2.56 0 00-3.65-.73s-1.47 1-.55 3.37"/></g><g id="g4591"><path id="path4593" class="cls-29" d="M211.82 341.24a5 5 0 014.66-2.27l-1.22-1.56a4.29 4.29 0 00-4.27 2.48 12.74 12.74 0 00.83 1.35"/></g><g id="g4595"><path id="path4597" class="cls-29" d="M212.47 343.24s3.15-2.37 5.42-2l-1.16-1.92s-3.53-.35-4.72 2.57z"/></g><g id="g4599"><path id="path4601" class="cls-28" d="M222.8 352.59s2.39-1.23-.37-6.44c0 0-2.57-5.52-5.33-3.8 0 0-1.23 2.57 1.22 6.74 0 0 2.15 3.8 4.48 3.5"/></g><g id="g4603"><path id="path4605" class="cls-28" d="M212 345.17s.55-2 4.47-3.15c0 0-1.65 4.07 3 9.46a4 4 0 00-3.74 1.12v2.17a10.18 10.18 0 01-3.44-4.57 3.5 3.5 0 00-.3-5"/></g><g id="g4607"><path id="path4609" class="cls-29" d="M220 352l1.67 1-.83.54z"/></g><g id="g4611"><path id="path4613" class="cls-29" d="M211 345.88s2.94.21 1 3.84c0 0-2.91 3.44-5.64.58 0 0-2.05-2.29 2.2-3.56a15.67 15.67 0 002.42-.86"/></g><g id="g4615"><path id="path4617" class="cls-29" d="M216.48 353.12a2.46 2.46 0 012.8-1.15s1.15.78 1.8 4.83a4.66 4.66 0 001.19 2.41 2.23 2.23 0 01-2.29 3.07s-1.92.57-3.5-4.67a9.67 9.67 0 010-4.49"/></g><g id="g4619"><path id="path4621" class="cls-29" d="M222.8 361.42a4 4 0 00-.9-3.85 5.71 5.71 0 01-.9-3.57s.78-1.52 1.59-.33a13.85 13.85 0 003.81 5.33 2.28 2.28 0 01-2 3 1.7 1.7 0 01-1.59-.53"/></g><g id="g4623"><path id="path4625" class="cls-29" d="M222.68 353l1-.27s-.1.47 2.47 3c0 0 1.84 1.52.78 2.91 0 0-1.51-1.56-2-2a9.9 9.9 0 01-1.78-3.14z"/></g><g id="g4627"><path id="path4629" class="cls-28" d="M129 333.54a70.62 70.62 0 005.11 7.72s-2.2.82-3.35 0c0 0 2.17-3.35-2-3.35 0 0-.82-3 .24-4.37"/></g><g id="g4631"><path id="path4633" class="cls-29" d="M128.09 339.25a3.48 3.48 0 012.21 1.75s.92-1.82 0-2.43c0 0-1-.73-2.21.71"/></g><g id="g4635"><path id="path4637" class="cls-29" d="M126.53 340.35a3.56 3.56 0 012.64 2.27l1-1.32s-.34-1.28-2.52-1.9z"/></g><g id="g4639"><path id="path4641" class="cls-29" d="M125.21 341.3s2.67 1.11 2.88 2.92l.86-1.08s0-2.2-3-2.48z"/></g><g id="g4643"><path id="path4645" class="cls-28" d="M120.43 345.5s1.75-2.6 3.8.16c0 0 1.26.95-.49 3.25 0 0 3.58 1 3.83-3.53 0 0 .06-4.41-4.69-3.34 0 0-2 .52-2.45 3.46"/></g><g id="g4647"><path id="path4649" class="cls-29" d="M121.29 345.63a4.6 4.6 0 012.11 2.69 2 2 0 00.16-2.69s-.8-1.26-2.27 0"/></g><g id="g4651"><path id="path4653" class="cls-29" d="M119.57 346.88a3.89 3.89 0 012.45 3.68l1.2-1.57a3.6 3.6 0 00-2.48-3z"/></g><g id="g4655"><path id="path4657" class="cls-29" d="M117.24 348.11a7.32 7.32 0 013.62 3.77l.76-.77s.19-3.37-2.79-3.95a6.45 6.45 0 00-1.59.95"/></g><g id="g4659"><path id="path4661" class="cls-28" d="M107.48 357.78s7.48-4.25 7.93-10.06c0 0-5.7 1.27-7.93 10.06"/></g><g id="g4663"><path id="path4665" class="cls-29" d="M115.78 357.16v-1.39s1.35-3.18 4.41-2.37c0 0 .17.62 3.23 2.66 0 0 3.23 2.17 0 4.17 0 0-4.37 2.17-7.64-3.07"/></g><g id="g4667"><path id="path4669" class="cls-29" d="M109.57 360.11s3.31-1.31 3.8 1.8c0 0 .94 3-1.27 7.52 0 0-2.21 2.7-4.82.69 0 0-1.07-.61.2-2.61 0 0 2.94-4.66 2.09-7.4"/></g><g id="g4671"><path id="path4673" class="cls-29" d="M108 359.45l1.1.7s.86 3-2.61 8.26c0 0-4.38 1.43-3.8-2.29 0 0 4.25-3.27 5.31-6.67"/></g><g id="g4675"><path id="path4677" class="cls-29" d="M102.29 365.54s4.58-3.3 5.19-6.54a10.51 10.51 0 01-4.46 4.05s-1.75 1.72-.73 2.49"/></g><g id="g4679"><path id="path4681" class="cls-28" d="M109.17 359.62s3.45-1.35 4.4 1.22c0 0 1.88-1.3 2.21-2.49 0 0-2.29-5.56 4.21-5.6 0 0 .37-2.62-4-4.66 0 0-.9 5.93-8.5 10.14z"/></g><g id="g4683"><path id="path4685" class="cls-29" d="M142.68 349.4a49.47 49.47 0 006.95 3.88l-.49 1.15a9.07 9.07 0 00-7.53-2.52z"/></g><g id="g4687"><path id="path4689" class="cls-29" d="M140.22 355.61s2.66-2.41 8.06 1.6l.73-2.32a8.28 8.28 0 00-7.68-2.39 15.67 15.67 0 00-1.11 3.11"/></g><g id="g4691"><path id="path4693" class="cls-29" d="M147.62 360.15s-2-3.19-8.13-2.94l.24-.62.49-.16.94-1s4.38-.74 7.08 2.35z"/></g><g id="g4695"><path id="path4697" class="cls-28" d="M142.27 358.06a7.65 7.65 0 00-3.64 6.5 5 5 0 00-3.72 1.23s-.86-8.46 7.36-7.73"/></g><g id="g4699"><path id="path4701" class="cls-28" d="M139 364.56s5.84-.28 7.36 5.44c0 0 3.55-5.19.73-9.4a6.13 6.13 0 00-4.05-2.37 7.11 7.11 0 00-4 6.33"/></g><g id="g4703"><path id="path4705" class="cls-28" d="M122.48 380.85s18.34 1.54 19.13 2.64a65.07 65.07 0 01.92 15.27l4-1.9s.84-19.26-.9-25.57a6.12 6.12 0 00-6.13-5.94s-3.4-1.17-7.14 5a51.33 51.33 0 01-9.87 10.54"/></g><g id="g4707"><path id="path4709" class="cls-30" d="M121.75 381.41s-.92.61-.74 3.18c0 0 12.51.43 17.11 2.21 0 0 1.84 1.41 1.35 12l2.45.37s.92-10.86-1.16-15.52c0 0-13.43-2.08-19-2.2"/></g><g id="g4711"><path id="path4713" class="cls-31" d="M137.69 387.41s1.59 3.19 1.1 11.72l-9.79 4.11s2.58-12 8.71-15.83"/></g><g id="g4715"><path id="path4717" class="cls-29" d="M137 387.05s-5.27 2.69-8.76 16.19c0 0-.13.85-12.08-3 0 0-1.84-.43-1.17-4 0 0 .92-6.88 6-11 0 0 12.71.49 16 1.78"/></g><g id="g4719"><path id="path4721" class="cls-29" d="M180.9 351.93a33.81 33.81 0 006.29-4.41 15.77 15.77 0 011.52 3.68s-4.42-.66-7.32 2.53a6.66 6.66 0 01-.49-1.8"/></g><g id="g4723"><path id="path4725" class="cls-29" d="M181.47 354.26a7.48 7.48 0 017.4-2.45s1.06 2.53 1.55 3.39c0 0-4.9-1-8.13 2.37 0 0-.74-2.78-.82-3.31"/></g><g id="g4727"><path id="path4729" class="cls-29" d="M182.62 358a7.82 7.82 0 018.17-2 27.23 27.23 0 011.23 2.49s-6.05-1.31-8.67 3.27c0 0-1-2.74-.73-3.72"/></g><g id="g4731"><path id="path4733" class="cls-28" d="M191 359.13a10.05 10.05 0 011.39 6.7 5 5 0 013.27 1.27s1.43-7.65-4.66-8"/></g><g id="g4735"><path id="path4737" class="cls-28" d="M190.18 359.13s2.21 1.75 1.84 6.7c0 0-4.34-.37-7 4.5 0 0-3.31-3.93-1.19-8.1a7.15 7.15 0 016.3-3.1"/></g><g id="g4739"><path id="path4741" class="cls-28" d="M189.28 400.62s-6-5.64-6.11-7.36c0 0-1.45-11.73 2.78-22.93 0 0 3.25-6.26 8.89-2.82a77.73 77.73 0 0014.43 10.3s2.16 1.63 3.39 2.78c0 0-15-1.8-20.6 2 0 0-3.27 2.86-2.78 18.07"/></g><g id="g4743"><path id="path4745" class="cls-30" d="M189.93 400.9s-1.22-18.21 4.48-19a51 51 0 0115.27-1.11s3.74.13 3.92 2v2.45s-.73-2.8-9.61-1.9c0 0-9.11-.12-10 3.64a109.34 109.34 0 00-1.92 13.61 5.32 5.32 0 01-2.17.28"/></g><g id="g4747"><path id="path4749" class="cls-31" d="M194.71 386.92s7.92 8.65 8.65 19c0 0-7.59-4.47-10.85-5.58 0 0 1-10.05 2.2-13.43"/></g><g id="g4751"><path id="path4753" class="cls-29" d="M204.1 406.3s3.74-.37 5.39-1.41c0 0 6.63-1.41 7.79-2.64 0 0 .06-16.55-7.24-18.09 0 0-11.46-.85-14.77 2 0 0 8.15 9.32 8.83 20.11"/></g><g id="g4755"><path id="path4757" class="cls-29" d="M131.26 335.71c17.36 10.65 52.28 6.69 62.6-8 .1 2.57.73 4.1 1.63 5.07a12.44 12.44 0 01-.43 1.49c-5.13 13.06-40.08 20.8-58.21 8.93a28.64 28.64 0 01-5.59-7.47"/></g><g id="g4759"><path id="path4761" class="cls-32" d="M130.71 335.42c18 10.94 53.48 6.84 63.55-8"/></g><g id="g4763"><path id="path4765" class="cls-32" d="M195.71 332.68a14.62 14.62 0 01-.43 1.49c-5.13 13.06-40 21.2-59.11 8.7"/></g><g id="g4767"><path id="path4769" d="M149 349.47a31.81 31.81 0 0010.94 1V340a64.59 64.59 0 01-10.94-.51z" fill="#5f247b"/></g><g id="g4771"><path id="path4773" class="cls-7" d="M151.08 346a.21.21 0 00-.16-.07.17.17 0 00-.15.05.26.26 0 00-.07.16.24.24 0 00.07.16.18.18 0 00.15.07.17.17 0 00.16-.06.2.2 0 00.06-.15.23.23 0 00-.06-.16m2.83-2.39h-.33v2a2.2 2.2 0 000 .42l-.11-.2-1.42-2.29h-.43v2.85h.38v-2.05a3.79 3.79 0 000-.4.66.66 0 00.09.19l1.45 2.33h.41zm2.14 2.63l-1.16-.05v-1h1v-.3h-1v-.95l1.1.05v-.31l-1.43-.06v2.85l1.49.06zm2.21-2.45l-1.95-.08v.3h.81v2.55h.33v-2.54h.81z"/></g></g></g></g></g><path class="cls-34" transform="rotate(-60 1008.48 321.48)" d="M952.36 318.57h112.28v5.82H952.36z"/><path class="cls-34" d="M976.75 360.87h112.28v5.82H976.75z"/><path class="cls-34" transform="rotate(-60 1008.494 377.838)" d="M1005.6 345.41h5.82v64.85h-5.82z"/><path class="cls-34" transform="rotate(-60 1057.284 293.33)" d="M1054.39 260.9h5.82v64.85h-5.82z"/><path class="cls-34" transform="rotate(-30 1008.55 293.3)" d="M976.1 290.39h64.85v5.82H976.1z"/><path class="cls-34" transform="rotate(-30 1057.36 321.479)" d="M1054.43 265.34h5.82v112.28h-5.82z"/><path class="cls-34" d="M981.2 303.14h5.82v64.85h-5.82zm97.6 0h5.82v64.85h-5.82z"/><path class="cls-34" transform="rotate(-30 1057.326 377.81)" d="M1029.1 375.26h56.4v5.08h-56.4z"/><path class="cls-34" d="M1092.33 369.88a12.24 12.24 0 11-4.49-16.72 12.25 12.25 0 014.49 16.72m-97.66-56.4a12.24 12.24 0 11-4.49-16.72 12.26 12.26 0 014.49 16.72m-21.18 56.4a12.24 12.24 0 1116.72 4.49 12.26 12.26 0 01-16.72-4.49m97.67-56.4a12.24 12.24 0 1116.72 4.48 12.26 12.26 0 01-16.72-4.48m-38.25 90.72a12.24 12.24 0 1112.24-12.2 12.22 12.22 0 01-12.24 12.23m0-112.84a12.24 12.24 0 1112.24-12.23 12.22 12.22 0 01-12.24 12.23"/><text class="cls-35" transform="translate(453.79 123.76)">Client Processes Query</text><text class="cls-35" transform="translate(327.75 272.24)">Query</text><text class="cls-35" transform="translate(295.79 433.07)">Update Data</text><text class="cls-35" transform="translate(792.51 272.07)">Request</text><text class="cls-35" transform="translate(784.79 431.07)">Response</text><path class="cls-36" d="M275.25 316.91c12.24 2.26 25.51 1.32 37.93 1.6q19.77.45 39.55.78 19.27.34 38.56.64l19.78.28c6.43.09 13.08.7 19.46-.19 2.46-.35 2.41-4.52 0-4.92-6-1-12.36-.58-18.48-.65l-19.77-.22q-19.77-.21-39.55-.34-19.29-.13-38.56-.21c-12.74 0-26.32-1.34-38.92.65a1.35 1.35 0 000 2.58z"/><path class="cls-36" d="M416.44 297.41c.92 6.35 8.58 9.89 13.82 12.08 6.83 2.85 15.13 4.89 19.6 11.28l1.9-4.68q-8.28 3.23-16.61 6.35c-5.1 1.93-10.82 3.36-15.52 6.14-3 1.75-.85 5.67 2.2 5.21 5.39-.82 10.82-3.48 15.93-5.4s10.48-4.05 15.69-6.16c1.71-.69 3.23-2.83 1.9-4.67-4.28-5.93-10.44-8.86-17.11-11.41a107.25 107.25 0 01-10.66-4.35c-3.27-1.68-5.75-4.26-8.83-6.16-1.29-.8-2.5.51-2.31 1.77zM466 367.74c-6.86-2.15-15.09-1.62-22.24-2.08-7.92-.52-15.85-1-23.78-1.46q-24.27-1.44-48.56-2.78c-15.67-.86-31.34-1.79-47-2.45-14.63-.61-29.93-.87-44.18 3-3.74 1-2.15 6.53 1.59 5.76 29.92-6.13 61.33-2.16 91.59-.73q23.29 1.1 46.58 2.29l23.78 1.22c7.16.35 15.18 1.77 22.24.44 1.72-.32 1.47-2.77 0-3.23z"/><path class="cls-36" d="M299.85 343c-16.59 5.13-32.27 14.14-48.15 21.09-2.52 1.1-1.3 4.42.68 5.21 10.8 4.3 22.22 9.12 33.48 12 3 .76 5.18-3.76 2.18-5.18-10.74-5.09-22.82-8.74-34.15-12.32l.68 5.2c15.2-8 31.84-14.26 46.34-23.5 1.27-.81.49-3-1.06-2.51zm452.24-23.55c6.24 1 12.76.54 19 .41q10.36-.21 20.72-.35 20.22-.31 40.46-.12t40.45.86c13.7.45 27.72 2.17 41.4 1.59 2.33-.1 3.14-3.91.58-4.31-13.07-2-26.8-1.69-40-2.1q-20.72-.66-41.44-.8-20.22-.13-40.46.22-10.35.18-20.71.57c-6.62.25-13.59.19-20 1.76-1.07.26-1.17 2.08 0 2.27z"/><path class="cls-36" d="M909.36 307c2.52 3.11 7.16 4.32 10.65 6.15a102.68 102.68 0 0111.73 7.09c3.24 2.31.2 2.08-2.32 2.8s-4.94 1.36-7.44 1.94c-4.93 1.16-10.27 1.47-15 3.1a2.76 2.76 0 00.73 5.4c7.31.34 15.45-2.37 22.41-4.42 3.89-1.15 11.11-2.69 9.62-8.44-1.2-4.63-8.68-7.82-12.33-9.88-4.78-2.69-11.69-7.19-17.35-6.23-1.22.2-1.28 1.72-.66 2.49zm34.99 60.39c-30.65-1.9-61.42-2.34-92.12-3.09l-45.56-1.11-22.78-.56c-7.38-.18-15.25-1.18-22.54-.09-2.74.41-2.62 4.9 0 5.42 7.24 1.42 15.17.73 22.54.88l21.79.43 46.55.94c30.69.61 61.43 1.55 92.12 1 2.47 0 2.44-3.68 0-3.83z"/><path class="cls-36" d="M777.26 349.88c-14.51 1.34-29 6.1-42.53 11.21a3 3 0 00-.71 5.45 126.3 126.3 0 0023.82 12c8 3 17.22 6.41 25.86 6.17a2.67 2.67 0 00.71-5.21c-7.81-2.84-16.21-3.91-24.07-6.77A135.31 135.31 0 01737 361.39l-.71 5.45c13.54-5.59 27.5-9.17 41.39-13.63 1.72-.56 1.55-3.52-.45-3.33z"/></g></svg>