<svg id="b2f47331-66dc-42dc-90bb-8a49522c51fc" data-name="Layer 1" xmlns="http://www.w3.org/2000/svg" viewBox="0 0 1200 600"><defs><style>.ea0fc645-8da7-4a9a-869c-323b50e7ee5e{fill:#524538}.a15239f3-886a-4f38-8d6d-715bbcb261c1{fill:#fbe2ed}.a417f3e6-acee-4e8c-999b-b5ad4943ed21{fill:#f4a2c6}.a96c8ae4-cb85-4124-b79a-2c7fe4976cf0{fill:#fff}.bce0f12d-09cb-4298-a72d-ba86c7fa4b34{fill:#faddea}.bd900d08-3f46-42fa-8cc6-d2e09968a464{fill:#f8b79d}.fa5ef339-7460-4dcd-a430-db461bb1c8a8{fill:#40bd0f}.ae2d88f5-e589-4715-8de7-fd0d3c81ba30{fill:#f40010}</style></defs><path class="ea0fc645-8da7-4a9a-869c-323b50e7ee5e" d="M747.83 545.39a11.59 11.59 0 01-1.2 2.53 5.59 5.59 0 01-1.46 1.45 12.59 12.59 0 01-1.78 1 5.37 5.37 0 01-1.87.5 11.37 11.37 0 00-1.46.17 6.83 6.83 0 01-1.79-.07 3 3 0 01-1.81-.72 3.54 3.54 0 01-.73-1.08 4.35 4.35 0 010-1.9 4.2 4.2 0 01.74-2.06 5.74 5.74 0 011.39-1.22 11.82 11.82 0 011.54-.85 9.28 9.28 0 011.34-.46 4.51 4.51 0 001.14-.43 2.53 2.53 0 00.87-.88 4.6 4.6 0 00.57-1.58 8.78 8.78 0 00.19-1.84 11.54 11.54 0 00-.1-1.6 6.07 6.07 0 00-.39-1.49 5.68 5.68 0 00-.58-1.12 2.66 2.66 0 00-1-.78 2.86 2.86 0 00-1.53-.33c-.55 0-1.07.09-1.57.15a3.53 3.53 0 00-1.36.46c-.4.24-.78.48-1.14.73a4.43 4.43 0 00-1 .89c-.28.35-.62.81-1 1.37a13.2 13.2 0 00-1.08 1.74c-.32.6-.75 1.35-1.31 2.24s-1.07 1.69-1.52 2.38a14.37 14.37 0 01-1.5 1.91c-.54.57-1 1-1.32 1.31a5.46 5.46 0 01-1 .73l-1.11.58a4.15 4.15 0 01-1.65.34 9.62 9.62 0 01-2.27-.19c-.81-.15-1.56-.33-2.26-.53a13.66 13.66 0 01-1.91-.69 8.12 8.12 0 01-1.6-.92 8.64 8.64 0 01-1.49-1.44 10.27 10.27 0 01-1.4-2.47 9.18 9.18 0 01-.51-4 33.36 33.36 0 01.35-3.61 10.11 10.11 0 01.85-2.54 8.47 8.47 0 011.74-2.4 9.18 9.18 0 011.76-1.43 4.71 4.71 0 011.27-.49 4.63 4.63 0 011.67.06 4.8 4.8 0 011.82.69 2.8 2.8 0 011.07 1.56 3.63 3.63 0 01.22 1.71 2.45 2.45 0 01-.49 1.13 6.84 6.84 0 01-1.18 1.14 2.34 2.34 0 00-1 1.42 6.75 6.75 0 00-.07 1.71 3.13 3.13 0 00.51 1.6 3.55 3.55 0 001 1 3.4 3.4 0 001.39.52 8.79 8.79 0 001.88.1 4.5 4.5 0 001.65-.35 12 12 0 001.33-.73 3.15 3.15 0 001.11-1.27 25.19 25.19 0 011.38-2.31 19 19 0 012.42-3 9.12 9.12 0 012.34-1.89 7.1 7.1 0 011.74-.54 20.88 20.88 0 012.66-.17 9.94 9.94 0 013.45.54 12.32 12.32 0 012.82 1.34 7.65 7.65 0 012 2 5.88 5.88 0 011 1.85c.09.41.19 1.13.32 2.16a12.56 12.56 0 010 2.93 46 46 0 01-1.09 5.44zm4.69-26.71a6 6 0 01-3.1 1.4 6 6 0 01-2.72-.13 11.07 11.07 0 01-2.62-1.49l-12-2.12c-.22 1.22-.43 2.46-.65 3.69a4.19 4.19 0 01-1.56 2.77 3.06 3.06 0 01-2.36.7l-1.79-.32a2.25 2.25 0 01-1.25-.78 3.36 3.36 0 01-.54-2.4 4.74 4.74 0 011-2.89 5.57 5.57 0 001.21-2.55l-4.61-.62c-.56-.23-1.14-.49-1.76-.78a2.27 2.27 0 01-1.2-1.74 10.52 10.52 0 01.27-3.92 4.57 4.57 0 013-1 16.83 16.83 0 012.46.18 16.14 16.14 0 013.43 1.5c.26-1.48.46-3.13.61-5 .4-1 1.38-1.46 2.93-1.49a3.08 3.08 0 013.13 1.52 6.65 6.65 0 01-.07 2.94c-.24 1-.57 2.3-1 3.87q4.83 1.17 9.69 2.2a24.37 24.37 0 017.16 2.41c1.53.91 2.37 1.65 2.53 2.21a2.58 2.58 0 01-.19 1.84zm2.71-17.74q-1.35 1-9.79-.46-4.16-1.16-8.55-2.15a19 19 0 01-5.94-2.05 3.89 3.89 0 01-1.8-2.55c-.16-1 .74-1.85 2.71-2.61l5.52.74-1.32-2.4c-.38-1.07-.72-2.18-1-3.33a11.39 11.39 0 01-.35-3.68 3.64 3.64 0 012.47-2.58 13 13 0 014.1-.48 17.29 17.29 0 013.72.43 3.35 3.35 0 011.84.94 1.93 1.93 0 01.17 1.68 2 2 0 01-.87 1.41 15.06 15.06 0 00-2.55 2.61 8.56 8.56 0 00.05 5.88l1.5.27a21 21 0 013.88.12c1.29.17 2.63.37 4 .62a4.47 4.47 0 012.69 2.49 9.85 9.85 0 01.51 2.83 2.85 2.85 0 01-.99 2.27zm5.03-27.12a17.81 17.81 0 01-1.23 1.81 8.64 8.64 0 01-2.07 1.3 4.27 4.27 0 01-3.11.5l-2.5-.72a5.87 5.87 0 01-2-1 4.21 4.21 0 01-1.33-1.92 5.72 5.72 0 01-.25-2.83c.14-1 .24-2.06.29-3a4.54 4.54 0 00-.43-2.38 4.29 4.29 0 00-1-1.3 2.6 2.6 0 00-1.2-.52 7 7 0 00-1.7-.05 1.69 1.69 0 00-1.42.71 3.28 3.28 0 00-.5 1.21 1.88 1.88 0 00.24 1.22 11.79 11.79 0 001.58 2 6.54 6.54 0 011.47 2.08 12.53 12.53 0 01.39 1.52 2.55 2.55 0 01-.06 1.36 3.83 3.83 0 01-1.4 1.42 3.25 3.25 0 01-3 .21 5.23 5.23 0 01-2.65-1.64 6.72 6.72 0 00-1.83-1.7 5 5 0 01-1.65-1.71 4.56 4.56 0 01-.63-2.1v-2.19a11.57 11.57 0 01.76-3.33 6.34 6.34 0 012-3.11A12.22 12.22 0 01740 458c1.23-.47 3.19-.44 5.88.07a22.45 22.45 0 007.87.16 51.91 51.91 0 017.66-.68c.82.3 1.23.65 1.22 1.05s-.37 1-1.11 1.72a11.2 11.2 0 01-2.08 1.7 3.94 3.94 0 00-1.41 1.32c1.5 1.55 2.39 2.51 2.68 2.89a3.63 3.63 0 01.48 2 10.57 10.57 0 01-.29 2.87c-.26.96-.47 1.9-.64 2.72zm-3.21-5.05a2.74 2.74 0 00-.81-.69 3.5 3.5 0 00-1.07-.38 1.51 1.51 0 00-1.17.3 1.79 1.79 0 00-.65 1.45 3.24 3.24 0 00.36 1.73 3 3 0 001.35 1.19 3.68 3.68 0 001.45-1.16 3.39 3.39 0 00.54-2.44zm7.19-19.66c-.41.73-1.54 1.33-3.38 1.82a31.55 31.55 0 01-8.52.52q-5.77-.19-11.54-.8c-2.9-1-4.17-2.33-3.81-4.08s1.28-2.58 2.75-2.51a48.41 48.41 0 005.81-.19q3.62-.28 7.16-.86l.07-.41a48.87 48.87 0 00-6.09-3.4 40.48 40.48 0 01-4.63-2.45 3.29 3.29 0 01-1.59-2.6 39.47 39.47 0 015.9-.6c2-.05 5.21.11 9.71.46q-11.31-3.39-12.88-6.11a3.54 3.54 0 01-.3-2.14 2.66 2.66 0 014.18-2.53q1.74.4 3.51.72a83.25 83.25 0 017.75 3.4 22.55 22.55 0 016.26 4.55q2.52 2.67 2 3.9t-7.84 4q5.61 7.28 5.48 9.31zm5.62-29.6a7 7 0 01-4.72 2.62c-1.95.27-5.07 0-9.34-.84s-8.51-1.53-12.68-2.14q-4.62-1.25-7.09-1.72t-1.88-4.24q.93-3.46 2.88-2.7t6 2.07a8.68 8.68 0 007.56-.86 12.14 12.14 0 001.83-4.23 8.12 8.12 0 011.28-3.23 9.31 9.31 0 012.47-1.9 6.41 6.41 0 014.46-.51l4 .71a4.81 4.81 0 012.32 1.13 8.69 8.69 0 011.91 2.54 14.65 14.65 0 011.23 3 21 21 0 01.44 4.28 21.25 21.25 0 01-.67 6.02zm-5.17-8.81a3.38 3.38 0 00-1.81-1.59 4.91 4.91 0 00-2.5-.6 2.5 2.5 0 00-1.52.48 7.46 7.46 0 00-1.17 2.12 6.33 6.33 0 00-.64 2.75c.06.69.3 1.1.73 1.23a17.14 17.14 0 003.08.29c1.63.07 2.73-.26 3.29-1s.75-1.94.54-3.68zm10.61-19.94a17.47 17.47 0 01-2.59 5.77 5.58 5.58 0 01-3.22 2.14 21.88 21.88 0 01-5.66.06 37.55 37.55 0 01-6.77-1.1 24.05 24.05 0 01-4.72-1.72 6.76 6.76 0 01-2.8-2.65 10.08 10.08 0 01-1.3-3.63 8.06 8.06 0 01.45-4 13.42 13.42 0 011.74-4.68 8.37 8.37 0 013.33-3.17 12.6 12.6 0 013.66-1.34 7.84 7.84 0 013.49.25 3.3 3.3 0 011.31 1.91 21.63 21.63 0 01.28 3.32 13.68 13.68 0 01-.24 3.46 10.46 10.46 0 01-.62 1.84 6.76 6.76 0 00.05 3c1.92.78 3.31 1 4.16.81a6.94 6.94 0 002.12-.92 4.18 4.18 0 001.4-1.8 2.78 2.78 0 00.2-2.21 3.37 3.37 0 00-.94-1.44 10 10 0 01-1.39-1.49 6.53 6.53 0 01-1.07-1.77 3.25 3.25 0 01-.08-1.74 1.82 1.82 0 01.63-1.26 2.48 2.48 0 011.52-.18 11.76 11.76 0 012.29.51 6.73 6.73 0 012.38 1.4 9 9 0 012 2.42 8.43 8.43 0 011 2.86 17.85 17.85 0 01-.61 5.35zm-17.75-8.36a2.77 2.77 0 00-2.11 0 3.39 3.39 0 00-1.24 1.76 7.28 7.28 0 00-.51 2.77 10.57 10.57 0 00.17 2.08 1.8 1.8 0 001.15 1.09 3.57 3.57 0 002.13.26 51.9 51.9 0 00.41-7.96zm19.97-7.49q-1.35 1-9.78-.46-4.17-1.15-8.56-2.15a19 19 0 01-5.94-2.05 3.84 3.84 0 01-1.79-2.55c-.17-1 .74-1.85 2.7-2.61l5.52.74-1.32-2.4c-.38-1.07-.72-2.18-1-3.33a11.39 11.39 0 01-.36-3.68 3.64 3.64 0 012.47-2.58 13.11 13.11 0 014.11-.48 17.11 17.11 0 013.71.43 3.43 3.43 0 011.85.94 1.93 1.93 0 01.16 1.68 2.06 2.06 0 01-.86 1.41 14.32 14.32 0 00-2.55 2.61 8.56 8.56 0 000 5.88l1.5.27a20.93 20.93 0 013.88.12c1.29.17 2.63.37 4 .62a4.53 4.53 0 012.7 2.49 10.17 10.17 0 01.5 2.83 2.84 2.84 0 01-.94 2.27zm4.11-23.26q-1.33 1-9.78-.45c-2.78-.78-5.63-1.49-8.56-2.15a19.13 19.13 0 01-5.94-2.06 3.86 3.86 0 01-1.79-2.54c-.16-1 .74-1.86 2.7-2.62l5.52.75-1.32-2.4c-.37-1.08-.72-2.19-1-3.34a11.67 11.67 0 01-.36-3.68 3.69 3.69 0 012.47-2.58 13.43 13.43 0 014.11-.47 17.38 17.38 0 013.72.42 3.39 3.39 0 011.84 1 1.94 1.94 0 01.17 1.67 2.08 2.08 0 01-.87 1.42 14.48 14.48 0 00-2.55 2.6 8.65 8.65 0 000 5.89l1.5.26a21 21 0 013.89.13c1.28.16 2.63.37 4 .62a4.52 4.52 0 012.69 2.48 10.24 10.24 0 01.5 2.84 2.8 2.8 0 01-.94 2.21zm6.31-22.32a2.59 2.59 0 01-2.06.37q-1.25-.22-3.47-2.8a54.54 54.54 0 00-4.1-4.35 70.427 70.427 0 01-3.46-3.43 75.81 75.81 0 01-6.1 5.88 4.33 4.33 0 01-2.34.17 16.6 16.6 0 01-3.22-1 4 4 0 01-2.47-2.1 4.12 4.12 0 010-2.9 13.31 13.31 0 012.49-1.28 64.54 64.54 0 017.72-1.79 82.892 82.892 0 01-3.9-3.22 31.79 31.79 0 00-2.65-2.17 2.15 2.15 0 01-1.11-1.81 4 4 0 011.61-2.34 3.63 3.63 0 013-1.13 26.51 26.51 0 013.84 1.09 12.73 12.73 0 014.83 3.48q2.49 2.67 8.55 10.2 2.91 4.73 3 6.2a12.58 12.58 0 01-.16 2.93zm5.34-40.88a11.66 11.66 0 01-1.21 2.54 5.67 5.67 0 01-1.45 1.44 12.69 12.69 0 01-1.79 1 5.16 5.16 0 01-1.87.5 13.85 13.85 0 00-1.46.17 6 6 0 01-1.78-.07 3 3 0 01-1.81-.72 3.37 3.37 0 01-.74-1.08 4.56 4.56 0 010-1.9 4.12 4.12 0 01.73-2.05 6.05 6.05 0 011.4-1.23 11.64 11.64 0 011.54-.84 7.1 7.1 0 011.34-.46 4.51 4.51 0 001.14-.44 2.58 2.58 0 00.87-.87 4.68 4.68 0 00.57-1.58 9.6 9.6 0 00.19-1.85 13.47 13.47 0 00-.1-1.6 6 6 0 00-.4-1.48 6.49 6.49 0 00-.57-1.13 2.9 2.9 0 00-1-.77 2.86 2.86 0 00-1.53-.33c-.54 0-1.07.08-1.57.15a3.47 3.47 0 00-1.36.45c-.4.24-.78.48-1.13.73a4.75 4.75 0 00-.95.9c-.28.35-.63.8-1 1.36a13.2 13.2 0 00-1.08 1.74c-.31.61-.75 1.35-1.3 2.25s-1.07 1.68-1.53 2.38a14.88 14.88 0 01-1.49 1.9c-.54.57-1 1-1.32 1.31a5 5 0 01-1 .73c-.34.19-.71.38-1.11.58a4 4 0 01-1.64.35 9.58 9.58 0 01-2.27-.19c-.81-.16-1.57-.34-2.27-.54a15.68 15.68 0 01-1.91-.68 9.56 9.56 0 01-1.59-.92 8.36 8.36 0 01-1.49-1.45 9.47 9.47 0 01-1.4-2.47 9 9 0 01-.51-4 33.92 33.92 0 01.34-3.61 10.16 10.16 0 01.86-2.54 8.47 8.47 0 011.74-2.4 9.59 9.59 0 011.76-1.43 4.93 4.93 0 011.27-.49 4.67 4.67 0 011.67.07 4.59 4.59 0 011.81.68 2.82 2.82 0 011.08 1.57 3.87 3.87 0 01.22 1.7 2.62 2.62 0 01-.49 1.13 7.36 7.36 0 01-1.19 1.15 2.37 2.37 0 00-1 1.41 7.3 7.3 0 00-.07 1.71 3.33 3.33 0 00.51 1.6 4 4 0 001 1 3.66 3.66 0 001.4.51 7.64 7.64 0 001.88.1 4.57 4.57 0 001.65-.34 11.27 11.27 0 001.32-.74 3 3 0 001.12-1.27c.28-.55.74-1.32 1.37-2.31a19 19 0 012.42-3 9.3 9.3 0 012.35-1.89 6.69 6.69 0 011.74-.54 19.15 19.15 0 012.66-.17 10.11 10.11 0 013.44.53 11.56 11.56 0 012.82 1.35 7.47 7.47 0 012 2 5.75 5.75 0 011 1.85c.08.42.19 1.14.31 2.17a12.57 12.57 0 010 2.93 48.83 48.83 0 01-1.14 5.44zm3.52-20.61a5 5 0 01-1.77 2.07 4.7 4.7 0 01-2.34.09c-1.07-.15-1.87-.28-2.39-.37s-2.25-.49-5.17-1.18l-17.33-3.07a30.39 30.39 0 01-6.14-1.82 2 2 0 01-1-1.77 3.29 3.29 0 01.68-2.11 11.65 11.65 0 016.7-.88q3.81.49 7 .8a44.56 44.56 0 011.14-4.83 9.66 9.66 0 013.38-4.55 12.29 12.29 0 015.2-1.2h4.13a44.62 44.62 0 015.62.76q4.23.75 4.68 1.57a2.71 2.71 0 01.16 2 10.45 10.45 0 01-1.06 2.61c-.51 1-2.13 1.18-4.84.7s-4.5-.83-5.37-1a5.17 5.17 0 00-3 .29 5.57 5.57 0 00-2.33 1.34 8 8 0 00-1.21 3.06c2.34.62 3.63.85 3.87.7a10.84 10.84 0 013.29-.09 29.74 29.74 0 016.21 1 5.5 5.5 0 012.17 3.15 5.67 5.67 0 01-.28 2.73zm4.4-25.49a18.36 18.36 0 01-1.23 1.82 8.5 8.5 0 01-2.07 1.29 4.2 4.2 0 01-3.1.5c-.94-.26-1.77-.49-2.51-.71a6 6 0 01-1.95-1 4.16 4.16 0 01-1.33-1.92 5.72 5.72 0 01-.25-2.83c.15-1 .24-2 .29-3a4.56 4.56 0 00-.43-2.38 4.29 4.29 0 00-1-1.3 2.7 2.7 0 00-1.2-.52 7 7 0 00-1.7-.05 1.72 1.72 0 00-1.42.71 3.35 3.35 0 00-.5 1.21 1.91 1.91 0 00.24 1.23 12.2 12.2 0 001.58 2 6.42 6.42 0 011.47 2.07 13 13 0 01.39 1.52 2.59 2.59 0 01-.06 1.37 3.93 3.93 0 01-1.39 1.41 3.3 3.3 0 01-3.06.22 5.35 5.35 0 01-2.65-1.65 6.72 6.72 0 00-1.83-1.7 5 5 0 01-1.65-1.7 4.64 4.64 0 01-.63-2.11v-2.19a11.64 11.64 0 01.76-3.33 6.38 6.38 0 012-3.11 12.22 12.22 0 013-1.61c1.23-.46 3.19-.44 5.88.08a22.69 22.69 0 007.87.15 53.43 53.43 0 017.66-.68q1.23.45 1.23 1c0 .4-.38 1-1.12 1.72a10.81 10.81 0 01-2.08 1.7 3.94 3.94 0 00-1.41 1.34c1.5 1.55 2.39 2.52 2.68 2.89a3.66 3.66 0 01.48 2 10.53 10.53 0 01-.29 2.87c-.29.94-.5 1.85-.67 2.69zm-3.21-5a2.74 2.74 0 00-.81-.69 3.4 3.4 0 00-1.07-.38 1.51 1.51 0 00-1.18.33 1.79 1.79 0 00-.64 1.46 3.11 3.11 0 00.35 1.72 3 3 0 001.35 1.19 3.68 3.68 0 001.45-1.16 3.34 3.34 0 00.56-2.52zm7.18-18.55a2.95 2.95 0 01-4 1.78c-1-.25-2.1-.47-3.15-.65l-9-2.09a55.84 55.84 0 00-8.09.14 20.52 20.52 0 01-6.07-.13 6.44 6.44 0 01-3.4-1.92 6.51 6.51 0 01-1.65-3 5.93 5.93 0 01.11-3 4.56 4.56 0 012.11-2q1.46-.72 4.91-.23c2.3.33 4 .59 5.16.79a93.44 93.44 0 018.93 2.78 2.29 2.29 0 00-.58-1.65 26.2 26.2 0 00-3.94-3.56 20.57 20.57 0 01-4.4-4.41 3.12 3.12 0 01-.41-3.25 4.11 4.11 0 013-1.44 8.28 8.28 0 014.34 1 9 9 0 013.88 4.09l2.61 4.52 3-2.28a9.38 9.38 0 013.81-2.81 6.42 6.42 0 014.49-.6q1.23.69.93 2.64a13.24 13.24 0 01-.94 3.35 8 8 0 01-2.57 2.3 17.77 17.77 0 01-3 1.28l-5 1.48 8 1.14c1.34.89 1.92 1.89 1.75 3a7.34 7.34 0 01-.83 2.73zm6.02-31a17.29 17.29 0 01-2.58 5.77 5.66 5.66 0 01-3.22 2.14 21.88 21.88 0 01-5.66.06 37.55 37.55 0 01-6.77-1.1 23.81 23.81 0 01-4.72-1.72 6.84 6.84 0 01-2.81-2.65 10.25 10.25 0 01-1.29-3.63 7.82 7.82 0 01.45-4 13.42 13.42 0 011.74-4.68 8.41 8.41 0 013.32-3.17 12.75 12.75 0 013.67-1.34 7.84 7.84 0 013.49.25 3.27 3.27 0 011.31 1.91 21.63 21.63 0 01.28 3.32 13.68 13.68 0 01-.24 3.46 11.37 11.37 0 01-.62 1.84 6.86 6.86 0 000 3q2.89 1.17 4.17.81a6.94 6.94 0 002.12-.92 4.26 4.26 0 001.4-1.8 2.78 2.78 0 00.2-2.21 3.37 3.37 0 00-.94-1.44 10 10 0 01-1.39-1.49 6.53 6.53 0 01-1.07-1.77 3.15 3.15 0 01-.08-1.74 1.86 1.86 0 01.62-1.26 2.51 2.51 0 011.52-.18 11.69 11.69 0 012.3.51 6.81 6.81 0 012.38 1.4 9 9 0 012 2.42 8.43 8.43 0 011 2.86 17.62 17.62 0 01-.58 5.35zm-17.74-8.36a2.77 2.77 0 00-2.11 0 3.35 3.35 0 00-1.24 1.76 7.28 7.28 0 00-.51 2.77 10.57 10.57 0 00.17 2.08 1.83 1.83 0 001.14 1.09 3.6 3.6 0 002.14.26 52 52 0 00.41-7.96z"/><path class="a15239f3-886a-4f38-8d6d-715bbcb261c1" d="M758.75 187.67a106.48 106.48 0 01-4 23.71 98.17 98.17 0 00-2.92 11.11c-1.28 7.94.33 16.12-.83 24.08-.76 5.19-2.67 10.14-3.73 15.27a118.94 118.94 0 00-1.62 15c-.84 11.2-2.48 22.33-4.12 33.45-.88 6-1.76 11.95-3 17.85-4.65 22.31-16.15 41.34-23.5 62.62a92.88 92.88 0 00-3.71 12.85 108.55 108.55 0 00-1.32 13.21c-1.85 28.64-6 57.09-10.94 85.35q-2.34 13.31-5 26.55a33.91 33.91 0 01-1.91 7c-2.27 5.28-7.38 9.48-8.15 15.28-.05.35-20.8 5.21-22.88 5.7-18 4.28-36.41 5.86-54.79 6.8-3 .16-5.94.25-8.92.29s-5.94-.13-8.91-.29c-18.33-.93-36.84-2.53-54.79-6.8-7.15-1.7-15.13-3.29-21.83-6.34-5.28-2.39-6.8-7.82-8.1-13.29l-3.27-13.68c-4.59-19.19-9.18-38.39-13-57.76-1.8-9.19-3.42-18.48-3.44-27.84 0-4.88.4-9.74.36-14.62a152 152 0 00-1.77-19c-1-7.17-1.94-14.41-4.47-21.19-1.57-4.21-3.72-8.18-5.61-12.27a105.25 105.25 0 01-7-22.34c-1.61-7.56-4.22-15.08-6-22.68C457 314.52 455 303.26 453 292q-3.93-22.09-7.85-44.19l-1.89-10.66c-2.53-14.26-5.06-28.53-7.09-42.86-.92-6.46-2.14-20 6.17-22.85a93.53 93.53 0 0020.3 7 66.31 66.31 0 009.17 1.57c5.21.47 10.45.61 15.68 1 2.28.16 4.57.4 6.82.78a127.44 127.44 0 0021 2.22c15.56.05 31.12.52 46.67 0 2.62-.08 5.24-.31 7.86-.35q6-.09 12-.14a32.85 32.85 0 003.83.26c3.91 0 7.81-.09 11.71-.17 3.91.08 7.81.16 11.72.17a32.85 32.85 0 003.83-.26q6 0 12 .14c2.62 0 5.24.27 7.86.35 15.55.52 31.11.05 46.67 0a127.44 127.44 0 0021-2.22c2.25-.38 4.54-.62 6.82-.78 5.23-.35 10.47-.49 15.68-1a67.18 67.18 0 009.17-1.88c4.82-1.13 10.62-2.23 15-4.7 3-1.73 5.7-4.31 9.19-.48 2.37 2.6 2.64 6.45 2.61 10-.06 1.6-.1 3.16-.18 4.72z"/><path class="a15239f3-886a-4f38-8d6d-715bbcb261c1" d="M446.9 159.69a85.6 85.6 0 0110.77-14 43.24 43.24 0 0120-11.94 88.6 88.6 0 0126.09-3.75 171.34 171.34 0 0132.24 3.1c4.32.89 8.58 2.07 12.92 2.86 10.13 1.83 20.3 3.46 30.45 5.25a158 158 0 0026.85 2.53c7 0 15.33 1.28 22-1.16a4.75 4.75 0 002.46-1.62 1.91 1.91 0 00-.37-2.65 2.83 2.83 0 00-1.61-.22c-7 .35-13.92-1.15-20.81-.89a108.63 108.63 0 01-18.8-.55c-10-1.31-20-3.12-30-4.91-6.75-1.2-13.47-2.63-20.16-4.14a173.44 173.44 0 00-25.25-3.38 9.19 9.19 0 01-1.72-.44c-.64-4.28-.07-7.16 1.92-11.55a17.09 17.09 0 017.33-8.33 53.39 53.39 0 0122.93-6.4c1-.06 1.94-.19 2.91-.25a35.55 35.55 0 014.83-.2c10.91.92 20.7 5.27 31.47 7a16.09 16.09 0 006.44.18 3.65 3.65 0 00-1.48-3.41 10.94 10.94 0 00-3.53-1.63l-5.47-1.75a178.77 178.77 0 00-24.95-6.22c-2.22-.38-4.5-.48-6.86-.71-.43-3.08.64-5.64 1.62-8.2 3.77-9.79 10.66-17.16 18.58-23.69 5.15-4.23 11.22-6.69 17.45-8.75a31.3 31.3 0 016.27-1.1 4.46 4.46 0 014.52 2c-.84 2.72-1.66 5.2-2.38 7.71a16.33 16.33 0 00.81 11c2.34 5.68 6.57 9.21 12.22 11.31 7.44 2.77 15.05 4.44 23 4a33.39 33.39 0 0111.14 1.45A68.1 68.1 0 01662.09 97c3 2.17 4.92 5.28 6.6 8.45a6.92 6.92 0 01-4.6 10.05 52.47 52.47 0 01-5.35.67c-5.5.81-11.07 1.31-16.47 2.58-13.29 3.14-25.67 3.72-39.2 3.94-.81 0-1.77.1-2.19.8-.7 1.15.74 2.42 2 2.91a36.23 36.23 0 0011.46 2.09c8.46.42 16.73-.89 24.95-2.83 8.78-2.08 17.58-3.79 26.64-3.78 1.31 0 2.61-.24 3.92-.28a38.16 38.16 0 014.41 0c3.43.27 6.84.76 10.27.95a75.28 75.28 0 0120.05 4.45 72.78 72.78 0 007 2.09 65.5 65.5 0 0123.23 10.08 35.89 35.89 0 0111.83 14.45c2.78 6.14 5 13.09-2.59 15.34-6.26 1.85-12.44 4-19 4.81a35 35 0 01-6.34.55c-5.29-.36-10.45.64-15.63 1.3-4.22.53-8.39 1.4-12.6 2.06a30.81 30.81 0 01-4.4.33q-24.57.15-49.14.23c-1.8 0-3.6-.09-5.4-.23a250.35 250.35 0 00-33.87-.13h-.68a237.71 237.71 0 00-33.86.13c-1.8.14-3.6.23-5.4.23q-24.57-.09-49.14-.23a30.81 30.81 0 01-4.4-.33c-4.21-.66-8.38-1.53-12.6-2.06-5.18-.66-10.34-1.66-15.63-1.3a35 35 0 01-6.34-.55c-6.54-.77-12.72-3-19-4.81-2.27-.68-4.68-1.37-6.4-3.33a15.92 15.92 0 012.68-5.94z"/><path d="M696.92 107.88a60 60 0 00.4-10.72c-.2-3.7-1-7.37-1.44-11 1.67-1.28 3.31-.63 4.93-.62 2 1.55 2.38 3.84 2.72 6.08 1.52 10.09-.7 19.37-6.24 28.27l-2.7-.94c.83-3.82 1.86-7.41 2.33-11.07z" fill="#997b5b"/><path class="a417f3e6-acee-4e8c-999b-b5ad4943ed21" d="M746.68 182.76a5.51 5.51 0 011.4 3 26.18 26.18 0 01.51 11.61c-1.62 7.63-4 22.86-4 22.86s-2.55 13.49-3.78 20.24c-1.44 7.83-3.58 23.5-3.58 23.5l-6.68 42.76s-3.22 21-6 31.28c-4.26 15.57-13.27 29.59-16.4 45.47-1.21 6.16-1.51 12.47-2.48 18.67-.87 5.58-2.28 11.05-3.15 16.63s-1.17 11.05-1.57 16.6a494.38 494.38 0 01-12.52 81.72c-3.2 13.1-19.8 15.79-31.18 18.3-5 1.1-10.09 2.21-15.2 2.9s-10.38.94-15.58 1.16c-8.77.37-17.54.63-26.31.38-8-.24-16.15-2-24.1-2a210.18 210.18 0 01-47.7-5.53c-4.57-1.05-12.54-1.36-16.52-4-4.68-3.11-5.48-12.26-6.44-17.27q-4.3-22.6-7.14-45.47c-1.86-15-3.25-30-5.29-45-1.9-13.88-5-27-7.93-40.51-2.79-12.86-9.26-24.91-13-37.14a199.33 199.33 0 01-7.81-36.85C462.66 292 459.85 278 457.78 264c-1.15-7.87-2.77-15.67-4.2-23.5-1.24-6.75-2.41-13.52-3.78-20.24-1.56-7.64-2.74-15.23-4.35-22.86a26.14 26.14 0 01.19-11.61 5.37 5.37 0 014.15-3.68 89.56 89.56 0 0019.36 6.73 62 62 0 008.75 1.49c5 .45 10 1.21 15 1.55a64.1 64.1 0 016.51.43 121.92 121.92 0 0020 1.8c14.83 0 29.67.49 44.5 0 2.5-.08 5-.29 7.49-.33q5.73-.09 11.46-.14a30 30 0 003.66.25c3.72 0 7.45-.09 11.17-.16s7.45.15 11.17.16a30 30 0 003.66-.25q5.73 0 11.46.14c2.5 0 5 .25 7.49.33 14.83.49 29.67 0 44.51 0a122.18 122.18 0 0020-2.12c2.15-.36 4.33-.59 6.51-.74 5-.34 10-.47 14.95-.92a62 62 0 008.75-1.49 91.57 91.57 0 0017.84-6 2.18 2.18 0 012.65-.08z"/><path class="a96c8ae4-cb85-4124-b79a-2c7fe4976cf0" d="M678.4 538.68a8.62 8.62 0 014.89 2.64c9.41 10.37-16.91 14.74-22.19 16-18 4.28-36.41 5.55-54.79 6.49q-4.45.23-8.92.28t-8.91-.28c-18.33-.94-36.84-2.22-54.79-6.49-6.94-1.65-16.33-3.6-22.47-7.35-4.68-2.86-5.26-9.81.09-12.8 3.92-2.19 8.76-1.44 13.14-.47 7.82 1.72 15.35 4 23.31 4.91 8.31.89 16.67 1.09 25 1.29 10.84.25 21.61 1.63 32.46 1.64 2.86 0 5.71-.07 8.56-.14l6.54-.16c8.78-.21 17.59-.43 26.24-2 6.87-1.21 13.66-3.25 20.68-3.38 3.46-.04 7.59-.86 11.16-.18z"/><path class="a417f3e6-acee-4e8c-999b-b5ad4943ed21" d="M453.76 163.5a85.6 85.6 0 0110.77-14 43.14 43.14 0 0120-11.94 88.6 88.6 0 0126.11-3.78 171.34 171.34 0 0132.2 3.13c4.31.89 8.58 2.07 12.91 2.86 10.14 1.83 20.31 3.46 30.46 5.25a157.88 157.88 0 0026.79 2.53c7 0 15.34 1.28 22-1.16a4.75 4.75 0 002.46-1.62 1.91 1.91 0 00-.37-2.65 2.84 2.84 0 00-1.61-.22c-7 .35-13.92-1.15-20.81-.89a108.6 108.6 0 01-18.8-.55c-10-1.31-20-3.12-30-4.91-6.75-1.2-13.47-2.63-20.16-4.14a173.4 173.4 0 00-25.22-3.41 9.61 9.61 0 01-1.72-.44c-.63-4.28-.06-7.16 1.93-11.55a17.12 17.12 0 017.32-8.33 53.43 53.43 0 0122.94-6.4c1-.06 1.94-.19 2.91-.25a35.55 35.55 0 014.83-.2c10.91.92 20.7 5.27 31.47 7a16.09 16.09 0 006.44.18 3.67 3.67 0 00-1.48-3.41 10.89 10.89 0 00-3.54-1.63l-5.46-1.75a178.77 178.77 0 00-25-6.22c-2.23-.38-4.5-.48-6.87-.71-.42-3.08.64-5.64 1.63-8.2 3.77-9.79 10.65-17.16 18.58-23.69 5.15-4.23 11.22-6.69 17.45-8.75a24.19 24.19 0 016.26-1.1c2.42-.12 1.33 1.7.56 3.27a13.74 13.74 0 00-1.11 5.72 15.83 15.83 0 001.46 8c1.64 3 3.06 6.47 5.34 9.1s5.54 1.51 8.93 2.77c7.44 2.77 15.05 1.28 23 .83 3.81-.21 7.5 3.56 11.15 4.61 7.79 2.24 14.84 9.12 21.36 13.87 4.63 3.38 5.46 9.62 2.33 14.44a23.88 23.88 0 01-2.67 3.19l-1.06 1.13c-.95 1-2 .48-3.21.59-1.74.15-3.47.46-5.2.69-3.36.45-6.71.94-10 1.71-13.29 3.14-25.68 3.72-39.2 3.94-.82 0-1.77.1-2.19.8-.71 1.15.74 2.42 2 2.91a36.18 36.18 0 0011.46 2.09c8.45.42 16.72-.89 24.94-2.83 8.79-2.08 17.58-3.79 26.65-3.78 1.31 0 2.61-.24 3.92-.28a38.16 38.16 0 014.41 0c3.43.27 6.84.76 10.27.95a75.28 75.28 0 0120.05 4.42c2.31.79 4.66-.67 7-.12 8.37 1.92 16.12 7.65 23.23 12.61a35 35 0 0111.83 14.13c2.77 6.14 4.56 11.74-3 14-6.26 1.86-12 5.4-18.56 6.17a35 35 0 01-6.34.55c-12-.82-22.8 1-27.32 13.1a143.51 143.51 0 00-5.93 20.31 142 142 0 00-2.86 20.83c-.21 3.45-.32 7-1.62 10.19s-4.11 6.06-7.56 6.29-6.37-2-8.42-4.64c-3.88-5-5.19-11.56-5.49-17.9s.29-12.7-.32-19a16.3 16.3 0 00-2.28-7.6c-1.5-2.21-4.2-3.78-6.82-3.24s-4.39 2.87-6.55 4.42a11.9 11.9 0 01-18.36-6.74c-.61-2.46-.42-5.06-.91-7.56-1.85-9.4-19.4-5.24-26.49-4.81h-.68a237.86 237.86 0 00-33.87.13c-1.79.14-3.59.23-5.39.23q-24.58-.09-49.15-.23a30.92 30.92 0 01-4.4-.33c-4.2-.66-8.37-1.53-12.59-2.06-5.19-.66-10.34-1.66-15.63-1.3a34.89 34.89 0 01-6.34-.55c-6.54-.77-12.73-3-19-4.81-2.27-.68-4.67-1.37-6.39-3.33a15.92 15.92 0 012.6-5.93z"/><path d="M651.92 133.41a40.85 40.85 0 0117.24-14.27 19.35 19.35 0 0111-1.52c2 .37 3.9.87 5.24 2.45 2.91 3.44 7 4.69 11 6.14 2 .72 4.08 1.18 6.1 1.84 8 2.62 13.6 7.67 16.33 15.71.53 1.55 1 3.11 1.42 4.7.81 3.26.78 10.87-2.15 13.39s-9.4-.88-12.63-1.78A277 277 0 01675 150c-5.55-2.28-11.43-4.92-17.32-3.76a36.18 36.18 0 01-5 1.05c-1.7.09-3.6-.52-4.37-2a5.42 5.42 0 01-.13-3.69 25 25 0 013.74-8.19z" fill="#ef4e45"/><path d="M686 522.43c.1-4-3.34-5.78-6.72-7.1l-.89-.34a81 81 0 00-7.72-2.69c-26.91-7.45-57-4.69-84.61-3.21-14.51.79-29.07 1-43.52 2.6-8.73 1-19 1.79-27.17 5.26-4 1.69-6.54 4.82-6.44 8a9.15 9.15 0 002.88 3.36c4 2.65 12 3 16.52 4a210.18 210.18 0 0047.7 5.53c8 0 16.07 1.75 24.1 2 8.77.25 17.54 0 26.31-.38 5.2-.22 10.41-.47 15.58-1.16s10.16-1.8 15.2-2.9c9.59-2.12 22.92-4.4 28.78-12.97z" fill="#f182b3"/><path d="M652.31 111c-6.38 4.9-15.62 5-23.08 7a60.26 60.26 0 01-11.48 1.93c-4.41.36-8.83 1.14-13.28 1.55a2.27 2.27 0 00-1.46.5 1.54 1.54 0 00.43 2.17c2.46 1.77 9.47.24 12.38.08q7-.39 14-1.37c8.2-1.14 16.19-3.79 24.39-4.73 6.2-.7 14.25-.14 17.35-6.93 2.32-5.07-.22-9.63-4.23-12.89q-2.52-1.69-5.14-3.16a21.67 21.67 0 00-5.78-1.79 14.72 14.72 0 01-4.1 17.64zm-65.55-12.78a11.38 11.38 0 00-1.33-1.45c-3-2.72-8-3.35-11.58-5.31-9.45-5.2-2-21.16 3.19-26.75 1.29-1.4 2.72-2.67 3.87-4.18a2.06 2.06 0 00.57-1.63 1.05 1.05 0 00-.49-.69 38.85 38.85 0 00-6.47 4.26c-7.93 6.53-14.81 13.9-18.58 23.69-.89 2.32-1.84 4.65-1.7 7.36a3.25 3.25 0 002 .9c1.14.12 2.27.26 3.39.43.53.06 1 .13 1.57.22 2.28.4 4.47.82 6.61 1.28.93-.08 1.71-.69 2.57-.63s3 1.22 4.07 1.54a11.12 11.12 0 012.39.91 9.08 9.08 0 01.88.6c2.76.76 5.54 1.59 8.43 2.52l2.92.94-.07-.18a18 18 0 00-2.24-3.83zM752.57 158c-2.56-5.63-6.72-11.47-11.81-15-7.11-5-13.91-11.31-22.28-13.23-1.82-.42-3.61 2.19-5.38 1.61a6.76 6.76 0 002.09 2.64c4.45 3.88 8.46 8.82 9.17 14.69 1 8.2-4.63 12.5-12 14.21-10 2.32-19.49-3-28.88-6.2-.79-.27-1.77-.51-2.38.06-.91.83-.07 2.32.79 3.19 5.77 5.84 12.84 10.57 20.78 12.63 2 .53 4.08.87 6.14 1.22l6.17 1c8.68 1.47 18.16.41 26.68-1.77 2.49-.64 6.65-.75 8.83-1.66 4.17-1.7 3.06-7.92 2.08-13.39zm-106.35 19.43a7.81 7.81 0 00-2-1.66c-7.24-4.33-15.64-6.42-24-7.22-24.05-2.27-48.67 1.41-72.78 1.93a858.44 858.44 0 01-90.73-2.85c-1.64-.14-5.36.07-5 2.39.2 1.36 4.79 2.42 5.84 2.74 5.4 1.6 10.74 3.44 16.3 4.41l1.33.07q15.48.94 31 1.81c21.08 1.16 42.17 2.12 63.28 2.57h2.68a239.48 239.48 0 0131.81 0h.68a260.26 260.26 0 0128.79-.19c3.66-.1 7.61 1.81 10.89 1.52 4.1-.31 3.8-3.28 1.91-5.52z" fill="#f393bd"/><path d="M708.4 137.1c-3.18-5.73-8.46-4.91-14.44-5.7a25.71 25.71 0 01-9-2.94c-1.3-.71-3-1.51-4.11-.54a2.35 2.35 0 00-.12 3 6.74 6.74 0 002.6 2l8.54 4.48a52.73 52.73 0 0110.25 6.43c3 2.65 5.54 6.15 6.19 10.14.93 5.68 4.39 3.45 4.36-1.17a34.25 34.25 0 00-4.18-15.47z" fill="#f3857e"/><path class="bce0f12d-09cb-4298-a72d-ba86c7fa4b34" d="M717.75 209.75c-4.7 12.45-5.29 29.1-7 41.67-2 14.08-3.41 28.23-5.05 42.36-.62 5.35-1.18 10.72-1.75 16.08-.64 6-1.26 12-1.95 18.65a4.61 4.61 0 001.46 3.87 2.82 2.82 0 004.67-1.34 12.36 12.36 0 00.1-1.93 863.36 863.36 0 0118.44-118.81c.7-3.13.49-7.68-2.7-8-2.07-.21-3.66 1.78-4.58 3.65-.6 1.2-1.14 2.48-1.64 3.8zM690.22 402c-1 6.84-1.88 13.71-2.54 20.52q-2 21-3.94 42-.53 5.61-1 11.22c-.23 2 .44 3.1 1.9 3.37a3.14 3.14 0 003.55-2 8.62 8.62 0 00.54-1.88c.25-1.44.48-2.9.62-4.36.46-4.88.87-9.76 1.31-14.64 2-22.1 6.66-43.48 5.26-65.83a4.61 4.61 0 00-.68-2.54 1.62 1.62 0 00-2.31-.38 2.34 2.34 0 00-.5 1.27c-.82 4.41-1.55 8.84-2.21 13.25zm-6.46 92.2a3.55 3.55 0 00-3 3.27 2.62 2.62 0 002.52 2.45c1.57 0 2-1.46 2-3.18 0-1.23-.34-2.55-1.52-2.54zM495 205.17c-8.68-1.2-20.46-6.75-29-2.76-9.39 4.36-9 14.86-6.63 23.36 3.33 12 3.95 25 6.08 37.35a502.85 502.85 0 0020.27 78.93c.77 2.25 3.11 5 4.92 3.44.84-.71.87-2 .78-3.08-.67-8.92-2.28-17.72-2.87-26.72q-1.24-19-3.63-37.94c-3.12-24.84-4.8-56.66 26.8-60.65 7.88-1 15.87-.58 23.8-1a12 12 0 005.82-1.42c1.7-1.09 2.82-3.34 2-5.19-1.07-2.39-4.33-2.58-7-2.46a223.44 223.44 0 01-41.34-1.86zM537.8 518c-16.31-6.23-14.31-31.08-17.89-45.61-2.63-10.7-5.26-21.45-6.1-32.42-.44-5.78-.39-11.59-1.13-17.33-.8-6.27-3.36-11.68-6.51-17-.59-1-1.38-2.13-2.54-2.15a2.34 2.34 0 00-2.09 1.72 6.81 6.81 0 00-.09 2.88c3.5 31.89 5.69 64.16 13.32 95.55 1.62 6.67 3.24 14.07 9.13 18a29.61 29.61 0 0020 4.33c1.67-.24 3.63-.91 4-2.56A3.21 3.21 0 00546 520a13.37 13.37 0 00-4-.94 21 21 0 01-4.2-1.06z"/><path class="a96c8ae4-cb85-4124-b79a-2c7fe4976cf0" d="M467.12 75.63c-1.75-.8-3.27-1.4-4.7-2.17a51.82 51.82 0 00-15.73-5.34 117.82 117.82 0 01-16.56-4.42 16.79 16.79 0 00-2.81-.85c-9.77-1.45-18.9-5.16-28.26-8.05-1.8-.55-3.83-.93-5.22-2.83a81.87 81.87 0 013.38-16.66 14.84 14.84 0 013.62 0c6.62 1.78 13.21 3.67 19.81 5.56 2.51.72 5 1.58 7.49 2.31 8.95 2.6 17.92 5.1 26.84 7.8 6.88 2.08 13.69 4.39 20.51 6.66a16.38 16.38 0 012.61 1.51c-4.55 5.12-6.99 11.27-10.98 16.48zm10.26 5.3c-1.52-.9-3.31-1-4.12-3.1 2.21-3.93 4.46-8.08 6.87-12.12a11.63 11.63 0 013-3.2 3.33 3.33 0 012.67-.59c4 1.53 7.89 3.16 10.27 7.32-6.9 2.9-12.71 7.32-18.69 11.69zm4.62 4.4a66.09 66.09 0 0116.28-11.24 29.37 29.37 0 012.89 9.24c-5.65 2.13-11.63 2.71-16.74 6.41zm4.54 9.12c5.48-1.69 10.45-4.68 16.14-5.14 2.53 4.78 14.36 39.07 15.93 46.06-.32.28-.63.74-1 .87a12.57 12.57 0 00-6.42 5.07 12.74 12.74 0 01-3.51 3.85l-4.92-1z"/><path class="bce0f12d-09cb-4298-a72d-ba86c7fa4b34" d="M628.75 92.77c-9.61-.77-20.41.73-27.25-6-1.28-1.26-2.33-2.9-4-3.48s-4.09 1-3.36 2.59c7.44 16.79 26.51 15.13 41.67 15.28 2.33 0 5.48-.74 5.42-3.07 0-1.51-1.55-2.51-2.93-3.14a28.5 28.5 0 00-9.55-2.18zM550 109.17c-1.12 0-2.24 0-3.35.15-4.32.38-11.81 3.92-11.57 9.12.15 3 3.3 5.91 6.26 5.23 3.89-.89 2.94-6.13 6.14-7.53a5.8 5.8 0 012.46-.3 76.51 76.51 0 0011.52-.64c1.39-.18 3.17-.88 3-2.28-.12-1-1.23-1.54-2.2-1.86a39.65 39.65 0 00-12.26-1.89zm-68.52 39.73a2.44 2.44 0 00-1.88-2 3.65 3.65 0 00-2.09.53c-3.17 1.6-5.78 4.08-8.65 6.07s-5.53 4.65-6 8.11a3.54 3.54 0 00.86 3.15 4.35 4.35 0 001.95.85c6 1.5 12.65 2.78 18.85 2.59a30.1 30.1 0 005.18-.58 5.25 5.25 0 001.94-.7 2.11 2.11 0 001-1.72c-.06-1.36-1.68-2-3-2.23-3.44-.62-7.17-.84-10-2.94-3.47-2.62-1.46-4.79.55-7.35a5.35 5.35 0 001.34-3.19 2.73 2.73 0 00-.05-.59zm156.99 40.19a.69.69 0 00-.23-.22.81.81 0 00-.68 0 3.07 3.07 0 00-1.77 2.62 6.65 6.65 0 00.7 3.23 6.83 6.83 0 003.28 3.79c2.52 1.07 5.55-.64 6.76-3.1.65-1.33 4.51-6.17-.4-4.34-1.07.4-2 1.19-3 1.56a4.34 4.34 0 01-2.89 0l-1.56-3.25c-.1-.1-.15-.2-.21-.29zM680 233.72c-.76-1-2-1.38-2.64-2.69a6.93 6.93 0 01-.49-3.22 17.09 17.09 0 00.09-3.5c-.09-.57-.45-1.25-1-1.15a1.17 1.17 0 00-.69.57 12.83 12.83 0 00-1.78 8.21 33.65 33.65 0 002.12 8.27c.9 2.49 3.57 2.52 4.54 0 .63-1.66 1-4.44.11-6.08a2.45 2.45 0 00-.26-.41zM670.93 158c-7.42-3.3-15.3-4.59-24-2.13a6.55 6.55 0 00-3.31 1.76 2.06 2.06 0 00-.55 1.18 2 2 0 001.51 1.89 6.32 6.32 0 002.6 0c10.93-1.22 17.66 2.18 27.62 6.09 2.32.92 4.64 1.83 7 2.57a2.78 2.78 0 001.9.13 2 2 0 00.79-2.66 6 6 0 00-2.15-2.18 68.32 68.32 0 00-11.41-6.65zM528.7 144.52a19.46 19.46 0 00-5.79-.06 3.81 3.81 0 00-2.09.87 1.68 1.68 0 00-.37 2.07 2.58 2.58 0 002 .81l6.39.58a15.61 15.61 0 013.54.6 9.59 9.59 0 002.54.74 1.84 1.84 0 002-1.34c.11-.84-.62-1.55-1.34-2a18.74 18.74 0 00-6.88-2.27zm-21.09 9.15c-3.74-.19-6.95-.08-10.3 2.12a2.27 2.27 0 00-.83.8.9.9 0 00.11 1.07 1.26 1.26 0 00.87.24 21.49 21.49 0 018.54 1.44c1.53.59 3.29 1 4.78.35 2.59-1.18 2.87-4.81 4.91-6.79a12.91 12.91 0 001.25-1.2 1.51 1.51 0 00.23-1.63 1.39 1.39 0 00-1.47-.54 3.34 3.34 0 00-1.44.84 22.55 22.55 0 01-3.41 3 4.54 4.54 0 01-2.51.33zM662.6 325.4a5.7 5.7 0 00-3.87-1.6h-.38a5.63 5.63 0 00-3.86 1.6 6.08 6.08 0 00-1.6 3.86 5.55 5.55 0 001.6 3.86 5.68 5.68 0 003.86 1.6h.38a5.64 5.64 0 003.87-1.6 4.08 4.08 0 001.13-1.76 4.21 4.21 0 00.47-2.1 5.55 5.55 0 00-1.6-3.86zm-2.34 5c-2.74 0-2.74-4.26 0-4.26s2.74 4.3 0 4.3zm12.57-15.1c-5.71 0-5.72 8.87 0 8.87s5.72-8.87 0-8.87zm1.34 4.31a1.4 1.4 0 010-2.79 1.4 1.4 0 010 2.79zm-8.96-17.34c-4.83 0-4.84 7.5 0 7.5s4.84-7.5 0-7.5zm13.34-5.42c-4 0-4 6.15 0 6.15s3.96-6.15 0-6.15zm13.56-9.73a4.09 4.09 0 00-5.79 0 4.24 4.24 0 00-1.2 2.9v.38a4.22 4.22 0 001.2 2.89 4.09 4.09 0 005.79 0 4.22 4.22 0 001.2-2.89v-.4a4.24 4.24 0 00-1.2-2.88zm-1.37 3.27a1.13 1.13 0 010-2.26 1.13 1.13 0 010 2.26zm-15.03-19.63a6.67 6.67 0 00-5.93-4l-1.72.23a6.43 6.43 0 00-2.86 1.67 6.72 6.72 0 00-1.9 4.58v.38a6.68 6.68 0 006.48 6.49l1.73-.23a6.53 6.53 0 002.86-1.67 6.77 6.77 0 001.9-4.59v-.38a4.85 4.85 0 00-.56-2.48zm-2.53.89a1.46 1.46 0 01-.16.44 2.16 2.16 0 01-.37.43 1.38 1.38 0 01-.73.52 1.47 1.47 0 01-1.67-.24 1.24 1.24 0 01-.39-1.07 1.46 1.46 0 01.52-1.56 1.63 1.63 0 011-.34h.25a1.36 1.36 0 011.46.63 1.43 1.43 0 01.09 1.19z"/><path d="M549.61 286.5a21.27 21.27 0 01-8.58-.12c.6-2.08 1-4 1.68-5.79 4.08-10.24 10.5-18.42 20.64-23.32 3.44-1.67 5.54-.2 8.85.79a11.9 11.9 0 004.17.23 4.75 4.75 0 002.24-.5 1.66 1.66 0 00.81-2 2.3 2.3 0 00-1.27-1c-2.29-1-4.81-1.58-6.91-3-1.26-.82-2-2.11-3.29-2.93-3-1.83-3.77-4.36-2.45-7.62a14.75 14.75 0 013-4.42 22.41 22.41 0 019.46-6c4.81-1.5 9.78-2.48 14.53-3.65a2.72 2.72 0 01-.16 4.29 3.69 3.69 0 01-2.31.64c-.77 0-1.74-.05-2.07.65s.53 1.56 1.33 1.89c7.31 3 19.28 1.87 24.1-5a3.36 3.36 0 00.75-1.83 1.38 1.38 0 00-1.11-1.44c-.74-.06-1.29.64-1.79 1.18a3.59 3.59 0 01-3.21 1.28c-3.81-.8-1-6.28.8-7.54 1.08-.74 2.23-1.38 3.31-2.12a49 49 0 009.31-7.95c1.68-1.9 3.68-1.64 4.6.64a17.06 17.06 0 011.33 5.68 38.9 38.9 0 01-1.63 12.87c-1.29 4.12-4.35 7.88-6.64 11.55a1.59 1.59 0 00-.3.75c0 .65.76 1.09 1.4 1a3.66 3.66 0 001.64-1c2.41-2.13 7.29-5.61 10.59-5.91 2.8-.25 5.32 5.27 5.91 7.71 1.28 5.28.53 7.63-4.06 10.28a17.58 17.58 0 01-5.9 2.27 75 75 0 01-14.78 1.07 4.79 4.79 0 00-1.65.1 1.65 1.65 0 00-1.16 1.1c-.23.95.7 1.76 1.56 2.23 6 3.32 12.84 2.33 19.21.9a5.58 5.58 0 013.75.33 22 22 0 0111.14 10.59 34 34 0 013.84 10 48.53 48.53 0 01.45 6.82 2 2 0 01-1.81 2c-5.11.72-10.12.6-14.66-2.36A39.44 39.44 0 01623.5 280a15.3 15.3 0 00-2.62-2.88 2.79 2.79 0 00-4.24.78 15.4 15.4 0 00-2.17 7c-.15 1.46-.07 2.95-.19 4.41a24.79 24.79 0 01-.49 2.72c-4.94.53-12.35-.83-15.85-2.88-5.53-3.23-8.23-8.24-8.88-14.46a6.3 6.3 0 01.58-2.79 29.28 29.28 0 011.48-2.53 2.24 2.24 0 00-.45-2.71 2.58 2.58 0 00-3.14-.47 15.34 15.34 0 00-1.77 1.66c-2.23 2.16-4.44 4.35-6.69 6.49a38.63 38.63 0 01-16.57 9.19 171.84 171.84 0 01-12.89 2.97z" fill="#a7d388"/><path class="bd900d08-3f46-42fa-8cc6-d2e09968a464" d="M642.65 304.4c-5.94-.11-11.89-.66-17.83-.73q-11.73-.15-23.45.45c-.81 0-1.61.06-2.41.07-1.58 0-3.19 0-4.78-.07q-11.71-.58-23.45-.45c-5.41.06-10.84.53-16.26.69q.4-3.09.9-6.18c.06-.32.08-.65.13-1 1-5.87 1-5.95 6.63-7.43 7.39-1.92 14.22-4.86 19.84-10.21a3.21 3.21 0 01.89-.43c1.29.24 1 1.48 1.33 2.27 2.16 5.08 5 9.59 10 12.4a22 22 0 005.79 2.58 81 81 0 0012.02 1.97c5.21.35 7.87-2.38 8.08-7.56.06-1.23.15-2.46.27-4.41 6.6 5.89 12.54 11.61 21.44 12.28a33.15 33.15 0 01.81 5c.04.23.04.49.05.76z"/><path d="M592 479.49c.07-.35.13-.69.19-1a11.79 11.79 0 004.82 2.65 11.56 11.56 0 003.94.42c-1.1 1.08-2.2 2.18-3.31 3.25a27.67 27.67 0 01-3.51 2.66 11.89 11.89 0 01-2.05.84c-1.27-3.31-.64-6.13-.08-8.82z" fill="#fffbde"/><path d="M606.05 527.38a37.86 37.86 0 00-22.59.71 9.54 9.54 0 01-2.46.91c-1.12 0-2.7-1.07-3.68-1.55-1.88-.9-3.81-1.72-5.77-2.46a62.22 62.22 0 00-10.71-2.94 55.23 55.23 0 0112.25-24.24c3.49-3.95 7.43-7.47 10.84-11.5.41-.49.8-1 1.2-1.49a18.28 18.28 0 00.85 5.23c1.11 3.71 3.84 5.1 7.62 4.09a17.7 17.7 0 007.51-4.49c2.36-2.24 4.67-4.53 7-6.82q.3 2.85.85 5.67c.92 4.74 2.62 9.35 2.9 14.2.51 8.57-2.58 16.85-5.81 24.68z" fill="#d5b2d4"/><path class="bd900d08-3f46-42fa-8cc6-d2e09968a464" d="M637.34 350.54c-4.31 11.48-8.85 22.88-13.05 34.4a135.82 135.82 0 00-7.13 30c-1.39 11.16-.59 22.22.47 33.32.15 1.62.24 3.26.4 4.89a15.64 15.64 0 01-1.66 8.56c-1.47 3-3.19 6.15-5.88 8.34-1.41 1.15-3.09 1.91-4.57 2.91-1.95 1.32-3.72 2.68-6.25 2.41-6.95-.72-5.82-8.66-5.5-13.41.37-5.44-2.12-11-5.39-15.36-2-2.67-3.1-6-4.54-9-2.8-5.92-5.64-11.82-8.68-17.6s-6.33-11.08-9.32-16.72c-5.91-11.15-11.12-22.61-13.3-35.18a69.83 69.83 0 01-1.3-12.42c8.31 2.6 16.34 5.38 24.65 5.74 2 2.52 3.67 4.94 5.63 7.1 4.36 4.79 10.17 5.93 16.18 5.25 7.72-.86 13.16-5.35 16.67-12.24a16.85 16.85 0 001.42-10.53 25.51 25.51 0 00-5.2-12c-7-8.87-17.87-8.66-25.57-3.76-2.57 1.64-4.68 4-7.7 6.66-8.49-.23-17.51-1.82-26-6.51 0-.9-.05-1.71 0-2.51.52-7.19 1.08-14.38 1.87-21.55.89-.05 1.79-.09 2.69-.1a.76.76 0 000 .16c1.2 3.81 1.18 8 3 11.65a8.73 8.73 0 003.2 3.83c3.4 1.81 7.37 1.54 11.09 1.6s7.39.64 10.73-1.08c4.91-2.52 5.57-10.71 8.18-14.94a2.3 2.3 0 00.36-1.12h9.69a2.41 2.41 0 00.36 1.12c2.61 4.23 3.27 12.42 8.18 14.94 3.34 1.72 7.13 1.14 10.73 1.08s7.7.21 11.09-1.6a8.73 8.73 0 003.2-3.83c1.86-3.6 1.84-7.84 3-11.65a.76.76 0 000-.16c1.18 0 2.36.07 3.53.16a147.81 147.81 0 01-.58 19.73 81 81 0 01-4.7 19.42z"/><path class="fa5ef339-7460-4dcd-a430-db461bb1c8a8" d="M530.73 375.8c-3.54 2.42-7.8 2.06-11.61.48a24.84 24.84 0 01-5.91-3.41c-5.09-4-10.73-6.09-17.26-5.54a12.68 12.68 0 01-2.26-.27 18.25 18.25 0 011.54-2.75c6.79-8.05 15.35-11.23 25.75-9.16.65.13 1.3.22 1.92.41 1.68.49 3.33 1.09 5 1.58 1.07.32 4.9.5 5.53 1.34 2.2 2.95-6.08 1.73-7.15 1.45a27.69 27.69 0 00-12-.47c-.64.11-1.47.54-1.27 1.16.12.4.59.54 1 .63a60.76 60.76 0 009.27 1.53c2.91.18 6 .83 8.36 2.71a6.58 6.58 0 012.16 2.88c.97 2.63-.36 5.57-3.07 7.43zm63.54-167.87a3.46 3.46 0 013.3 1.69 11.72 11.72 0 011.88 4.38c.41 4.19.45 8.41.6 12.62 0 .21-.38.43-.71.78-1.07-3.22-1.81-6.5-3.24-9.45s-3.49-5.39-5.36-8.19c.66-1.55 2.05-1.76 3.53-1.83z"/><path class="fa5ef339-7460-4dcd-a430-db461bb1c8a8" d="M551.66 287.86a21.09 21.09 0 01-8.58-.12c.59-2.07 1-4 1.68-5.79 4.08-10.23 10.5-18.41 20.63-23.32 3.45-1.66 5.55-.19 8.85.8a12 12 0 004.18.23 4.9 4.9 0 002.24-.5 1.67 1.67 0 00.81-2 2.3 2.3 0 00-1.27-1c-2.29-1-4.81-1.59-6.91-3-1.26-.83-2-2.12-3.3-2.93-3-1.84-3.76-4.36-2.44-7.62a14.33 14.33 0 013-4.42 22.35 22.35 0 019.46-6c4.81-1.5 9.78-2.48 14.53-3.65a2.73 2.73 0 01-.16 4.29 3.7 3.7 0 01-2.32.64c-.76 0-1.74-.05-2.06.65s.53 1.56 1.33 1.89c7.31 3 19.28 1.86 24.1-5a3.37 3.37 0 00.75-1.82 1.39 1.39 0 00-1.11-1.45c-.74-.06-1.29.64-1.8 1.19a3.56 3.56 0 01-3.2 1.27c-3.81-.8-1.06-6.28.8-7.54 1.08-.73 2.23-1.38 3.31-2.11a49 49 0 009.31-7.95c1.67-1.9 3.68-1.64 4.6.63a16.8 16.8 0 011.31 5.77 38.31 38.31 0 01-1.63 12.87c-1.28 4.12-4.34 7.88-6.63 11.55a1.69 1.69 0 00-.31.75c0 .66.77 1.09 1.41 1a3.65 3.65 0 001.64-1c2.41-2.12 7.29-5.61 10.59-5.9 2.8-.25 5.32 5.27 5.91 7.71 1.27 5.28.53 7.62-4.06 10.28a17.56 17.56 0 01-5.9 2.26 75 75 0 01-14.78 1.07 4.85 4.85 0 00-1.66.11 1.62 1.62 0 00-1.15 1.09c-.23 1 .7 1.76 1.56 2.24 6 3.32 12.84 2.32 19.21.89a5.7 5.7 0 013.75.33 22.1 22.1 0 0111.14 10.59 33.93 33.93 0 013.84 10.05 48.43 48.43 0 01.45 6.82 2 2 0 01-1.81 2c-5.11.71-10.12.59-14.66-2.36a39.63 39.63 0 01-10.76-9.93 15.61 15.61 0 00-2.62-2.88 2.79 2.79 0 00-4.24.78 15.36 15.36 0 00-2.17 7c-.15 1.47-.07 2.95-.19 4.42a27.41 27.41 0 01-.49 2.72c-4.94.53-12.35-.83-15.86-2.88-5.52-3.24-8.22-8.25-8.87-14.46a6.18 6.18 0 01.58-2.8c.36-.89 1-1.66 1.48-2.53a2.24 2.24 0 00-.45-2.7 2.55 2.55 0 00-3.14-.47 14.48 14.48 0 00-1.77 1.65c-2.23 2.17-4.44 4.35-6.69 6.5a38.67 38.67 0 01-16.57 9.18c-4.25 1.11-8.55 2.05-12.89 2.91z"/><path class="ae2d88f5-e589-4715-8de7-fd0d3c81ba30" d="M642.9 306.43c-5.94-.11-11.89-.66-17.83-.73q-11.73-.15-23.45.45c-.8 0-1.61.06-2.41.08-1.58 0-3.19 0-4.77-.08q-11.73-.58-23.45-.45c-5.42.07-10.85.53-16.27.69.28-2.06.57-4.12.91-6.17 0-.33.07-.65.13-1 1-5.87 1-5.95 6.63-7.42 7.39-1.93 14.22-4.87 19.83-10.22a3.27 3.27 0 01.9-.43c1.28.24 1 1.48 1.33 2.27 2.16 5.08 5 9.59 10 12.4a21.79 21.79 0 005.78 2.58 79.77 79.77 0 0012.08 1.94c5.21.36 6.92-2.37 7.14-7.56.05-1.23.15-3.09.27-5 6.59 5.89 14.12 13.19 23 13.86a20.71 20.71 0 01.18 4c-.01.26 0 .52 0 .79z"/><path d="M592.73 479.61c.06-.34.12-.68.19-1a11.86 11.86 0 008.75 3.07c-1.1 1.09-2.2 2.18-3.31 3.25a27.74 27.74 0 01-3.51 2.67 11.23 11.23 0 01-2.05.83c-1.22-3.34-.6-6.12-.07-8.82z" fill="#fcca3b"/><path d="M607.7 527.77a37.78 37.78 0 00-22.59.7 9.81 9.81 0 01-2.43.95 9.69 9.69 0 01-3.68-.92c-1.88-.91-3.81-1.73-5.77-2.46-3.48-1.32-7.06-2.91-10.71-3.58a55.28 55.28 0 0112.25-24.24c3.5-4 7.43-7.47 10.84-11.5.41-.48.8-1 1.2-1.49a18.28 18.28 0 00.85 5.23c1.11 3.71 3.85 5.1 7.62 4.09a17.7 17.7 0 007.51-4.49c2.36-2.24 4.67-4.53 7-6.82q.3 2.85.85 5.67c.92 4.74 2.62 9.35 2.9 14.2.46 8.54-2.61 16.82-5.84 24.66z" fill="#8971b2"/><path class="ae2d88f5-e589-4715-8de7-fd0d3c81ba30" d="M639.5 352.57c-4.31 11.49-8.85 22.88-13.06 34.4a137 137 0 00-7.13 30c-1.38 11.16-.58 22.22.48 33.32.15 1.63.24 3.26.4 4.89a15.73 15.73 0 01-1.66 8.56c-1.47 3-3.19 6.15-5.88 8.35-1.41 1.15-3.09 1.9-4.57 2.9-2 1.32-3.72 2.68-6.26 2.42-6.94-.72-5.81-8.67-5.49-13.42a26 26 0 00-4.76-16.3c-2-2.67-3.42-6.28-4.86-9.33-2.79-5.91-4.71-10.54-7.71-16.36-3-5.64-6.33-11.08-9.32-16.72-5.91-11.15-12.38-22.61-14.56-35.18-.73-4.23-4-15.63 3.27-16.24 2.8-.24 5.44 1.19 8.21 1.67 1.75.31 3.56.23 5.29.61 5.2 1.12 8.65 5.92 13.06 8.9a18.92 18.92 0 0016.86 2.3 16.19 16.19 0 0010.46-13.11c.5-5-1.67-10.08-5.08-13.82-5.25-5.75-12.92-7.45-19.59-3.21-2.58 1.64-4.69 4-7.7 6.66-8.49-.23-17.51-1.81-26-6.51v-2.5c.34-4.65 1-9.38 1-14 0-4.1 1.32-7.89 1.73-12 1.8-.64 3.78-.12 5.68-.23 2.17-.12 4.25-1.07 6.42-1s4.11 1.1 6.27 1.18c2.33.09 4.82-.36 7.16-.5 5.42-.33 10.86-.58 16.29-.74q16.32-.49 32.63 0c3.22.1 6.54.25 9.41 1.69 7.58 3.83 4.67 17.09 3.9 23.86a81 81 0 01-4.89 19.46z"/><path d="M589.3 339.46a9.24 9.24 0 016.3-1.69c5.65-.15 9.45 2.55 12.1 7.11a31.64 31.64 0 011.62 3.55c4.65 10.78-6.3 21.22-15.88 19.25-6.29-1.28-11-5.55-11.73-11.92-.79-6.9 1.59-12.48 7.59-16.3z" fill="#58595b"/><path class="fa5ef339-7460-4dcd-a430-db461bb1c8a8" d="M703.32 349.16c-4.94 2.27-8.46 6.07-11.38 10.52l-1.88 2.88a14.37 14.37 0 01-11 6.58c-3 .29-10.06 2.2-11.55-1.48-1.54-3.84 3.71-7.52 6.36-9.31 3.62-2.45 7.38-4.91 11.62-6.15a1.19 1.19 0 00.44-.21c.29-.29.08-.84-.29-1a2 2 0 00-1.22 0c-5.74 1.08-9.09 3.74-13.81 7.13-1.23.89-10.19 6.41-11.1 3.75-.38-1.14 2.79-2 3.44-2.33a25.48 25.48 0 007.55-6.38 26.65 26.65 0 018.74-7c5.7-2.86 11.69-4.17 18-2.48A15.26 15.26 0 01705 348a11.73 11.73 0 01-1.68 1.16z"/><path class="a96c8ae4-cb85-4124-b79a-2c7fe4976cf0" d="M643.58 323.46c-2 4.61-6.8 7.32-11.27 9.29-6.53 2.88-12.56 2.6-17.55-2.86-4.76-5.21-9.12-10.28-16.76-10.26-7.1 0-12.28 5.4-16.72 10.26-5 5.46-11 5.74-17.55 2.86-4.47-2-9.32-4.68-11.27-9.29-2-4.77-1-11.06 2-15.3s8.19-5.29 13-6.24a107 107 0 0116.7-1.92c2.89-.1 5.77-.09 8.66 0 12 .43 23.83-.48 35.79 1.87 4.82.95 10 1.88 13 6.24s3.99 10.58 1.97 15.35z"/><path d="M540.86 336.17c-.3-.68-.73-1.2-.7-1.69a40 40 0 01.78-4.12c1.33 3.97 1.33 3.97-.08 5.81zm7.8 10.45c-2.41-.34-3.57-1.79-4.93-3.42l2.14-3.87 3.81 2c-.35 1.79-.68 3.45-1.02 5.29zm6.48-2.83l5.14 1.64c-.47 2.35-.81 4.06-1.21 6.12l-4.07-1.24c-1-2.24-.49-4.16.14-6.52zm9.86 6.74c.3-.76.79-2.09 1.36-3.38.08-.17.59-.25.85-.19s.68.35.68.54a30.84 30.84 0 01-.2 3.85c-.27 2.1-.77 2.7-1.63 2.33-1.21-.51-.92-1.55-1.06-3.15zm9.47-2.59c1-.07 1.44.32 1.34 1.1-.25 2.08-.58 4.14-.95 6.75-.8-.67-1.49-1-1.57-1.37a9.83 9.83 0 011.18-6.48zm19.64.06a3.35 3.35 0 011.85-.43 6.62 6.62 0 015.32 3c1 1.65 1.37 3.3.3 5.06s-2.43 3.09-4.45 2.85a5.68 5.68 0 01-5.28-4c-.67-2.36.31-5.34 2.26-6.48z" fill="#808184"/><path class="bd900d08-3f46-42fa-8cc6-d2e09968a464" d="M627.3 358.17a9.4 9.4 0 00-2.55 2.93 89.52 89.52 0 00-8.72 19c-2.17 6.52-4.44 14.3-3 21.19.12.59.44 1.3 1 1.3s.83-.49 1-.94a31.37 31.37 0 002.18-7.46 180.34 180.34 0 015.91-20.19 65.47 65.47 0 016.61-14.5c.35-.56.68-1.37.18-1.79a1.12 1.12 0 00-.86-.19 3.8 3.8 0 00-1.75.65zm-15.17 47.97a2.66 2.66 0 00-2.84 2.16 2.59 2.59 0 002.09 2.86 2.83 2.83 0 002.88-2.71 2.5 2.5 0 00-2.13-2.31z"/><path d="M643.58 323.62c-2 4.62-6.8 7.32-11.27 9.29-6.53 2.89-12.56 2.6-17.55-2.86-4.76-5.2-9.12-10.28-16.76-10.26-7.1 0-12.28 5.41-16.72 10.26-5 5.46-11 5.75-17.55 2.86-4.47-2-9.32-4.67-11.27-9.29a16.77 16.77 0 011.65-15.29c3-4.36 8.5-5.62 13.32-6.56a104.64 104.64 0 0116.73-1.89c2.89-.1 5.77.22 8.66.33 12 .43 23.83-.79 35.79 1.56 4.82.94 10.32 2.2 13.32 6.56a16.77 16.77 0 011.65 15.29z" fill="#a5def8"/><path d="M581.35 317.92a7.53 7.53 0 00-1.85 2.93 11.76 11.76 0 01-3.58 4.83c-1.19.92-3.25 1.26-3.81 2.83a1.08 1.08 0 00.48 1.39 1.57 1.57 0 001.15-.16 21 21 0 007.18-4.32 8.33 8.33 0 002.47-6.3 1.64 1.64 0 00-.5-1.19 1.16 1.16 0 00-1.54-.01zm56.45-1.35v.56c-.21 3.44-3.32 9.56-6.66 10.95a6.51 6.51 0 00-1.93.93 1.31 1.31 0 00-.21 1.89c7.08-1.09 12.56-7.57 10.77-14.87a1.35 1.35 0 00-.46-.84 1 1 0 00-1.25.48 2.1 2.1 0 00-.26.9z" fill="#e4edef"/><path class="ea0fc645-8da7-4a9a-869c-323b50e7ee5e" d="M597 364.61a11.6 11.6 0 0011.36-11.09c0-3.48-1.81-6.12-4-8.64-2.45-2.82-5.89-2.67-9-2.91-4.9-.37-9.46 5.18-9.54 11A11.14 11.14 0 00597 364.61zM594.11 348a3.35 3.35 0 011.85-.43 6.62 6.62 0 015.32 3c1 1.65 1.37 3.3.3 5.06s-2.43 3.09-4.45 2.85a5.68 5.68 0 01-5.28-4c-.67-2.36.31-5.34 2.26-6.48z"/><path class="ea0fc645-8da7-4a9a-869c-323b50e7ee5e" d="M714.1 348.4c-4.33-5-9.26-9.23-16-10.78-7.36-1.69-14.31-.38-21 2.82a31.92 31.92 0 00-11.1 8.71 18 18 0 01-13 7.07 31.47 31.47 0 01-10.38-1.15c1.67-6.27 3.56-12.33 4.87-18.51a63.7 63.7 0 001.29-10.93 16.93 16.93 0 001.36-5.16 22.85 22.85 0 00-1.55-11.27c0-1.83-.14-3.66-.3-5.48-.06-.78.21-4.43-.3-4.91 1.12-.3 2.2-.56 3.27-.88a7.28 7.28 0 005.41-6.32 12.71 12.71 0 00.28-2.93c-1.11-12.29-5.17-22.95-16.44-29.62-.18-.11-.22-.48-.33-.74a42.1 42.1 0 002.75-3.46 9.67 9.67 0 001.68-3.5 19.28 19.28 0 00-9.53-20c-1-.52-2-.95-2.81-1.37.42-2.9.82-5.49 1.15-8.08a22.45 22.45 0 00-1.53-11.57c-2.65-6.4-9.65-8.12-14.89-3.64a31.47 31.47 0 00-2.67 2.86c-2.34 2.52-4.85 4.77-8.47 5.8-.23-1.34-.36-2.47-.61-3.56a16.13 16.13 0 00-2.72-5.72c-4.62-6.39-13.39-4.9-17.41.11a4.4 4.4 0 00-.52 5.47c1 1.65 2.25 3.2 3.42 4.77 1.05 1.41 2.38 2.65 2.6 4.59a8.05 8.05 0 01-1.44.7c-3.32.86-6.64 1.71-10 2.5a31.35 31.35 0 00-15.88 9.26c-4.68 5-5.35 10.49-2.31 16.66a4.71 4.71 0 01.15 1.21c-.55.35-1.19.81-1.88 1.16-9.27 4.74-15.69 12.26-20.28 21.37a60 60 0 00-4 11.06c-1.28 4.63.79 7.3 5.55 7.58 2.45.15 4.91.05 7.36.1.77 0 1.54.15 2.41.24-.45 2.9-.89 5.77-1.34 8.63-.29 1.9-.4 4-.65 6a20.21 20.21 0 00-2.6 12.16c-5 1.09-7.35 2.54-9.28 6-3.07 5.5-3.63 11.23-.52 16.86a50.38 50.38 0 005 6.64 23.41 23.41 0 002.41 2.24 11.58 11.58 0 01-2.46 1.08 27.05 27.05 0 01-12.1-1.27c-3-.95-5.92-2.12-9-2.44-15.54-1.62-29.2 5.62-35.18 22.83a5.74 5.74 0 00-.28 1.44 2.64 2.64 0 003 3 15.43 15.43 0 004.13-1.37c5.76-2.65 11.14-1.81 16.26 1.63 1.36.91 2.69 1.88 4 2.83a23.09 23.09 0 0012.36 4.27c5 .28 9.35-.92 12.71-5a30.58 30.58 0 005.59-9.17c.71-2 1.37-4 2-6.05.25-.78.44-1.59 1.68-1.39.13 1.27.17 2.58.4 3.86.76 4.18 1.17 8.48 2.47 12.5 3.73 11.54 8.36 22.72 14.86 33 .87 1.39 1.7 2.8 2.44 4.26 4.89 9.62 9.8 19.24 14.59 28.92.93 1.87 2.06 3.67 2.86 5.59 1.42 3.41 4.11 7.62 4.52 11.29.33 2.88-.7 6.47-1.06 9.34 0 .23-.07.45-.11.68a84 84 0 01-9.07 12.39c-3.74 4.18-8 7.9-11.46 12.31a61.65 61.65 0 00-12.36 27.69c-.26 1.47.38 3.52 2.15 3.78a64.26 64.26 0 0113 3.19c3.63 1.33 8.06 4.89 12 4.48 1.83-.19 3.57-1.22 5.33-1.75a31.22 31.22 0 016.65-1.25 33.47 33.47 0 0113.76 2.03c1.71.6 3.18-.69 3.78-2.14 3.71-8.9 7.46-18.19 7.31-28-.08-4.79-1.38-9.32-2.49-13.93a63.79 63.79 0 01-1.69-13.09A49.79 49.79 0 00621 465.6a30.87 30.87 0 002.85-17.6 127.46 127.46 0 01-.88-30.37 132.1 132.1 0 016.8-30.08c2.65-7.56 5.52-15.05 8.33-22.56.44-1.16 1.09-2.25 1.78-3.64 1.42 1.18 2.53 2.1 3.63 3a42.8 42.8 0 0017.13 9.24 59.23 59.23 0 0015.56 1.75c8.88-.1 15.73-3.81 20.31-11.56A32.33 32.33 0 01700 359a15.67 15.67 0 019.14-5.37c1-.17 2-.07 2.93-.22 2.73-.41 3.85-2.9 2.03-5.01zm-173.24-12.23c-.3-.68-.73-1.2-.7-1.69a40 40 0 01.78-4.12c1.33 3.97 1.33 3.97-.08 5.81zm-10.13 39.63c-3.54 2.42-7.8 2.06-11.61.48a24.84 24.84 0 01-5.91-3.41c-5.09-4-10.73-6.09-17.26-5.54a12.68 12.68 0 01-2.26-.27 18.25 18.25 0 011.54-2.75c6.79-8.05 15.35-11.23 25.75-9.16.65.13 1.3.22 1.92.41 1.68.49 3.33 1.09 5 1.58 1.07.32 4.9.5 5.53 1.34 2.2 2.95-6.08 1.73-7.15 1.45a27.69 27.69 0 00-12-.47c-.64.11-1.47.54-1.27 1.16.12.4.59.54 1 .63a60.76 60.76 0 009.27 1.53c2.91.18 6 .83 8.36 2.71a6.58 6.58 0 012.16 2.88c.97 2.63-.36 5.57-3.07 7.43zm88.78-81.66a11.26 11.26 0 00.6-3.37c.06-1.23.15-2.46.27-4.41 6.6 5.89 12.54 11.61 21.44 12.28.17 1 .38 1.88.55 2.76-6.37-4.89-14.46-6.69-22.86-7.26zm-65.09 14c3-4.36 8.19-5.29 13-6.24a107 107 0 0116.74-1.9c2.89-.1 5.77-.09 8.66 0 12 .43 23.83-.48 35.79 1.87 4.82.95 10 1.88 13 6.24s4 10.53 2 15.3c-2 4.61-6.8 7.32-11.27 9.29-6.53 2.88-12.56 2.6-17.55-2.86-4.76-5.21-9.12-10.28-16.76-10.26-7.1 0-12.28 5.4-16.72 10.26-5 5.46-11 5.74-17.55 2.86-4.47-2-9.32-4.68-11.27-9.29-2.05-4.72-.99-11.01 1.93-15.25zm.53-7.24l.42-2.74c.06-.32.08-.65.13-1 1-5.87 1-5.95 6.63-7.43 7.39-1.92 14.22-4.86 19.84-10.21a3.21 3.21 0 01.89-.43c1.29.24 1 1.48 1.33 2.27 2.16 5.08 5 9.59 10 12.4l.77.44c-1.54 0-3 0-4.5-.06-3-.1-6.09-.12-9.13 0-8.85.36-19.14 2.03-26.33 6.78zm39.32-93a3.46 3.46 0 013.3 1.69 11.72 11.72 0 011.88 4.38c.41 4.19.45 8.41.6 12.62 0 .21-.38.43-.71.78-1.07-3.22-1.81-6.5-3.24-9.45s-3.49-5.39-5.36-8.19c.66-1.52 2.05-1.73 3.53-1.8zm-44.66 78.6a21.27 21.27 0 01-8.58-.12c.6-2.08 1-4 1.68-5.79 4.08-10.24 10.5-18.42 20.64-23.32 3.44-1.67 5.54-.2 8.85.79a11.9 11.9 0 004.17.23 4.75 4.75 0 002.24-.5 1.66 1.66 0 00.81-2 2.3 2.3 0 00-1.27-1c-2.29-1-4.81-1.58-6.91-3-1.26-.82-2-2.11-3.29-2.93-3-1.83-3.77-4.36-2.45-7.62a14.75 14.75 0 013-4.42 22.41 22.41 0 019.46-6c4.81-1.5 9.78-2.48 14.53-3.65a2.72 2.72 0 01-.16 4.29 3.69 3.69 0 01-2.31.64c-.77 0-1.74-.05-2.07.65s.53 1.56 1.33 1.89c7.31 3 19.28 1.87 24.1-5a3.36 3.36 0 00.75-1.83 1.38 1.38 0 00-1.11-1.44c-.74-.06-1.29.64-1.79 1.18a3.6 3.6 0 01-3.21 1.28c-3.81-.8-1-6.28.8-7.54 1.08-.74 2.23-1.38 3.31-2.12a49 49 0 009.31-7.95c1.68-1.9 3.68-1.64 4.6.64a17.06 17.06 0 011.33 5.68 38.9 38.9 0 01-1.63 12.87c-1.29 4.12-4.35 7.88-6.64 11.55a1.59 1.59 0 00-.3.75c0 .65.76 1.09 1.4 1a3.66 3.66 0 001.64-1c2.41-2.13 7.29-5.61 10.59-5.91 2.8-.25 5.32 5.27 5.91 7.71 1.28 5.28.53 7.63-4.06 10.28a17.58 17.58 0 01-5.9 2.27 75 75 0 01-14.78 1.07 4.79 4.79 0 00-1.65.1 1.65 1.65 0 00-1.16 1.1c-.23.95.7 1.76 1.56 2.23 6 3.32 12.84 2.33 19.21.9a5.58 5.58 0 013.75.33 22 22 0 0111.14 10.59 34 34 0 013.84 10 48.53 48.53 0 01.45 6.82 2 2 0 01-1.81 2c-5.11.72-10.12.6-14.66-2.36A39.44 39.44 0 01623.5 280a15.3 15.3 0 00-2.62-2.88 2.79 2.79 0 00-4.24.78 15.4 15.4 0 00-2.17 7c-.15 1.46-.07 2.95-.19 4.41a24.79 24.79 0 01-.49 2.72c-4.94.53-12.35-.83-15.85-2.88-5.53-3.23-8.23-8.24-8.88-14.46a6.3 6.3 0 01.58-2.79 29.28 29.28 0 011.48-2.53 2.24 2.24 0 00-.45-2.71 2.58 2.58 0 00-3.14-.47 15.34 15.34 0 00-1.77 1.66c-2.23 2.16-4.44 4.35-6.69 6.49a38.63 38.63 0 01-16.57 9.19 171.84 171.84 0 01-12.89 2.97zm-1 60.12c-2.41-.34-3.57-1.79-4.93-3.42l2.14-3.87 3.81 2c-.3 1.79-.63 3.45-.97 5.29zM606 527.38a37.86 37.86 0 00-22.59.71 9.54 9.54 0 01-2.41.91c-1.12 0-2.7-1.07-3.68-1.55-1.88-.9-3.81-1.72-5.77-2.46a62.22 62.22 0 00-10.71-2.94 55.23 55.23 0 0112.25-24.24c3.49-3.95 7.43-7.47 10.84-11.5.41-.49.8-1 1.2-1.49a18.28 18.28 0 00.85 5.23c1.11 3.71 3.84 5.1 7.62 4.09a17.76 17.76 0 007.51-4.49c2.36-2.24 4.67-4.53 7-6.82q.3 2.85.85 5.67c.92 4.74 2.62 9.35 2.9 14.2.51 8.57-2.58 16.85-5.81 24.68zm-14-47.89c.07-.35.13-.69.19-1a11.79 11.79 0 004.82 2.65 11.56 11.56 0 003.94.42c-1.1 1.08-2.2 2.18-3.31 3.25a27.67 27.67 0 01-3.51 2.66 11.89 11.89 0 01-2.05.84c-1.27-3.31-.64-6.13-.08-8.82zm45.38-128.95c-4.31 11.48-8.85 22.88-13.05 34.4a135.82 135.82 0 00-7.13 30c-1.39 11.16-.59 22.22.47 33.32.15 1.62.24 3.26.4 4.89a15.64 15.64 0 01-1.66 8.56c-1.47 3-3.19 6.15-5.88 8.34-1.41 1.15-3.09 1.91-4.57 2.91-1.95 1.32-3.72 2.68-6.25 2.41-6.95-.72-5.82-8.66-5.5-13.41.37-5.44-2.12-11-5.39-15.36-2-2.67-3.1-6-4.54-9-2.8-5.92-5.64-11.82-8.68-17.6s-6.33-11.08-9.32-16.72c-5.91-11.15-11.12-22.61-13.3-35.18a69.83 69.83 0 01-1.3-12.42c8.31 2.6 16.34 5.38 24.65 5.74 2 2.52 3.67 4.94 5.63 7.1 4.36 4.79 10.17 5.93 16.18 5.25 7.72-.86 13.16-5.35 16.67-12.24a16.85 16.85 0 001.38-10.53 25.51 25.51 0 00-5.2-12c-7-8.87-17.87-8.66-25.57-3.76-2.57 1.64-4.68 4-7.7 6.66-8.49-.23-17.51-1.82-26-6.51 0-.9-.05-1.71 0-2.51l.06-.79a32.61 32.61 0 0014.87 7.73c4.6 1.09 9.7.93 13.84-1.58 3.32-2 5.36-5.5 8-8.27 3.75-4 10.61-5.67 15.57-2.94 4.79 2.64 6.83 8.4 11.49 11.21 4.14 2.51 9.24 2.67 13.84 1.58a34.27 34.27 0 0012.41-5.65 83.11 83.11 0 01-4.46 16.37zm-82.2-6.75l5.14 1.64c-.47 2.35-.81 4.06-1.21 6.12l-4.11-1.24c-1-2.24-.49-4.16.14-6.52zm9.86 6.74c.3-.76.79-2.09 1.36-3.38.08-.17.59-.25.85-.19s.68.35.68.54a30.84 30.84 0 01-.2 3.85c-.27 2.1-.77 2.7-1.63 2.33-1.25-.51-.96-1.55-1.1-3.15zm9.47-2.59c1-.07 1.44.32 1.34 1.1-.25 2.08-.58 4.14-.95 6.75-.8-.67-1.49-1-1.57-1.37a9.83 9.83 0 011.14-6.48zm14.83-8.48a9.24 9.24 0 016.3-1.69c5.65-.15 9.45 2.55 12.1 7.11a31.64 31.64 0 011.62 3.55c4.65 10.78-6.3 21.22-15.88 19.25-6.29-1.28-11-5.55-11.73-11.92-.83-6.9 1.55-12.48 7.55-16.3zm114 9.7c-4.94 2.27-8.46 6.07-11.38 10.52l-1.88 2.88a14.37 14.37 0 01-11 6.58c-3 .29-10.06 2.2-11.55-1.48-1.54-3.84 3.71-7.52 6.36-9.31 3.62-2.45 7.38-4.91 11.62-6.15a1.19 1.19 0 00.44-.21c.29-.29.08-.84-.29-1a2 2 0 00-1.22 0c-5.74 1.08-9.09 3.74-13.81 7.13-1.23.89-10.19 6.41-11.1 3.75-.38-1.14 2.79-2 3.44-2.33a25.48 25.48 0 007.55-6.38 26.65 26.65 0 018.74-7c5.7-2.86 11.69-4.17 18-2.48A15.26 15.26 0 01705 348a11.73 11.73 0 01-1.68 1.16z"/><path class="ea0fc645-8da7-4a9a-869c-323b50e7ee5e" d="M579.07 503.64c-.07.13-.12.27-.18.4-1.87 4.21-2.55 8.86-3 13.45-.08.81 0 1.83.69 2.2a1.42 1.42 0 001.62-.44 4.19 4.19 0 00.75-1.63c1.6-5.43 3.1-11.17 5.13-16.43.44-1.13 1-2.36.61-3.52-2.34.57-4.69 3.9-5.62 5.97zm17.21-4.64a1.1 1.1 0 00-1.34.35 3.11 3.11 0 00-.54 1.4 38.79 38.79 0 00-.77 5.88c-.27 3.81-.26 7.67-1 11.5a4.26 4.26 0 00-.11 1.77c.51 2.27 2.58.65 3-.68 1.64-5.09 1.64-10.54 1.63-15.88a7.92 7.92 0 00-.87-4.34z"/><path class="ea0fc645-8da7-4a9a-869c-323b50e7ee5e" d="M760.86 174.29a14 14 0 00-2.76-5.7 6.89 6.89 0 01-1.7-2.9c-.06-.3-.13-.59-.2-.88a20.09 20.09 0 00-1.26-8.25c-2.87-7.18-6.23-14.12-12.6-19a108 108 0 00-9.56-6.84 53 53 0 00-13-5.68c-5.26-1.46-10.51-3-15.76-4.48.28-.59.56-1.18.85-1.77 3.67-7.66 5.9-15.63 5-24.21a53.09 53.09 0 00-1.63-8.66c-.67-2.36-1.88-4.79-4.32-5.68a16.36 16.36 0 00-12.46.39c-2.09.91-2.68 2.43-2.21 4.87.37 1.93.94 3.82 1.28 5.75a54.07 54.07 0 01-.24 21 14.26 14.26 0 01-1.16 2.58 21.42 21.42 0 00-13.91-3.28c.79-4.36-.38-8.33-3.16-12.22a37.2 37.2 0 00-9.78-9.48 76.33 76.33 0 00-19.87-9.34c-6.14-1.9-12.6-2.19-18.9-3.28-6.45-1.12-12.13-.24-18-3.55a12.3 12.3 0 01-5.94-14.21c.55-2 1.4-4 2-6 1.11-3.66.16-6.32-2.92-8.59s-6.33-2.48-9.83-1.83a56.28 56.28 0 00-29.36 14.81c-6.85 6.57-14.5 16.41-16.93 25.87-.64 2.5-.93 5.09-1.4 7.76-3.65.59-7.08.5-10.68 1.74-3.39 1.17-6.79 2.95-9.93 4.34a24.09 24.09 0 00-6.52 4.23 217.77 217.77 0 01-7.27-22.23 91.5 91.5 0 00-3.18-9.28c-2.15-5.86-6.31-9.8-11.89-12.42a223.92 223.92 0 00-32.2-11.77c-9.87-2.91-19.77-5.76-29.65-8.66-2.66-.78-5.28-1.7-7.95-2.46-6.6-1.88-13.21-3.74-19.83-5.51a20.7 20.7 0 00-4.43-.47c-3-.13-4.94 1.43-6 4.11a17 17 0 00-1 3.27c-.92 4.82-1.92 9.63-2.59 14.49-.62 4.45.25 5.78 4.36 7.67 1.92.88 3.94 1.57 5.95 2.26 3.55 1.23 7.13 2.38 10.7 3.58a96.22 96.22 0 0012.78 3.41c3 .58 6 1.64 9 2.41 5.53 1.43 11.06 2.9 16.63 4.18a45 45 0 019.76 3.19c5 2.44 9.92 5 14.95 7.41a13.42 13.42 0 016.77 7.42c1.51 3.62 3.15 7.21 4.38 10.92 2.26 6.82 4.27 13.73 6.47 20.89-1.25.34-2.28.67-3.33.9-.58.14-1.16.29-1.72.45l.06.23c-3.06.63-6.11 1.4-9.12 2.31a49.75 49.75 0 00-23.42 14.66 105.57 105.57 0 00-6.7 8.47c-3.14 4.41-5.95 9-7.05 14.45a6.89 6.89 0 01-1.7 2.9 14 14 0 00-2.76 5.7c-2.09 7.72-.11 16.46.63 24.35 3.07 32.69 8.74 65.09 15.34 97.23 3.05 14.88 5.32 30.45 9.25 45s11.09 28.09 14.72 42.77a273.49 273.49 0 015.33 27.82c1.85 13.28 2.68 26.64 4.21 39.92 1.65 14.36 4.38 28.56 7 42.75q3 16.31 6.09 32.59a143.87 143.87 0 003.41 15.4c1.11 3.66 2 8.59 4.73 11.43 2.6 2.66 8 3.67 11.62 4.69 8.33 2.37 16.74 4.53 25.23 6.19a294.91 294.91 0 0031.09 4.31 243.28 243.28 0 0024.72.85 243.37 243.37 0 0024.73-.85 294.91 294.91 0 0031.09-4.31c8.49-1.66 16.9-3.82 25.23-6.19a65 65 0 009.11-3.39c8.45-3.84 9.13-19.84 10.67-28.12q3.06-16.29 6.09-32.59c2.69-14.36 4.63-28.85 6.87-43.29 2.06-13.37 2.89-26.78 4.68-40.17a255.56 255.56 0 015-27c3.85-15.57 12.53-29.49 16.85-45 13.63-48.75 14.12-99.81 23.81-149.29a33 33 0 00-.66-15.09zm-63.54-77.13c-.2-3.7-1-7.37-1.44-11 1.67-1.28 3.31-.63 4.93-.62 2 1.55 2.38 3.84 2.72 6.08 1.52 10.09-.7 19.37-6.24 28.27l-2.7-.94c.83-3.85 1.86-7.44 2.33-11.1a60 60 0 00.4-10.69zm-17.12 20.46c2 .37 3.9.87 5.24 2.45 2.91 3.44 7 4.69 11 6.14 2 .72 4.08 1.18 6.1 1.84 8 2.62 13.6 7.67 16.33 15.71.53 1.55 1 3.11 1.42 4.7a15.78 15.78 0 01-1.76 11.9 92.33 92.33 0 01-35.8-10.59c-5.12-2.77-9.88-5.82-15.81-6.47-3.81-.42-13.32 1.87-15.93-1.69-1.75-2.38-.11-5.87 1.32-7.93 4.34-6.29 9.62-11.6 16.84-14.54a19.35 19.35 0 0111.05-1.52zm-213.08-42c-1.75-.8-3.27-1.4-4.7-2.17a51.82 51.82 0 00-15.73-5.34 117.82 117.82 0 01-16.56-4.42 16.79 16.79 0 00-2.81-.85c-9.77-1.45-18.9-5.16-28.26-8.05-1.8-.55-3.83-.93-5.22-2.83a81.87 81.87 0 013.38-16.66 14.84 14.84 0 013.62 0c6.62 1.78 13.21 3.67 19.81 5.56 2.51.72 5 1.58 7.49 2.31 8.95 2.6 17.92 5.1 26.84 7.8 6.88 2.08 13.69 4.39 20.51 6.66a16.38 16.38 0 012.61 1.51c-4.55 5.13-6.99 11.28-10.98 16.49zm10.26 5.3c-1.52-.9-3.31-1-4.12-3.1 2.21-3.93 4.46-8.08 6.87-12.12a11.63 11.63 0 013-3.2 3.33 3.33 0 012.67-.59c4 1.53 7.89 3.16 10.27 7.32-6.9 2.91-12.71 7.33-18.69 11.7zm4.65 4.4a66.09 66.09 0 0116.28-11.24 29.37 29.37 0 012.89 9.24c-5.65 2.13-11.63 2.71-16.74 6.41zm4.51 9.12c5.48-1.69 10.45-4.68 16.14-5.14 2.53 4.78 14.36 39.07 15.93 46.06-.32.28-.63.74-1 .87a12.57 12.57 0 00-6.42 5.07 12.74 12.74 0 01-3.51 3.85l-4.92-1zm-39.64 65.25a85.6 85.6 0 0110.77-14 43.24 43.24 0 0120-11.94 97.78 97.78 0 0113.88-3l.54.07c1.61 5 3.22 9.91 4.89 15.06-1.41.68-2.57 1.21-3.71 1.79a10 10 0 00-4.66 4.93c-.6 1.3-2.08 5.52 0 6.34a1.53 1.53 0 00.64.08.83.83 0 00.38-.07 1.19 1.19 0 00.46-.65 11.75 11.75 0 013.51-4 5.08 5.08 0 01.85-.61 7.28 7.28 0 011.17-.46c1-.37 1.84-.9 2.85-1.2 2.49-.75 4.81-2 7.57-1 3.07 1.14 5.37-.06 7.17-2.65 1-1.48 2.26-2.81 3.35-4.24a7 7 0 016-2.82c5.26 0 10.92.5 15.61 3.14a4 4 0 001.74.67 1.25 1.25 0 001.35-1 1.67 1.67 0 00-.25-.81 8.18 8.18 0 00-1.63-2.35c-1.73-1.61-4.84-2.85-7.05-3.59s-4.71-1.32-6.95-1.93a43.17 43.17 0 01-1.7-4.31c4.12.47 8.22 1.1 12.31 1.94 4.32.89 8.58 2.07 12.92 2.86 10.13 1.83 20.3 3.46 30.45 5.25a158 158 0 0026.85 2.53c7 0 15.33 1.28 22-1.16a4.75 4.75 0 002.46-1.62 1.91 1.91 0 00-.37-2.65 2.83 2.83 0 00-1.61-.22c-7 .35-13.92-1.15-20.81-.89a108.63 108.63 0 01-18.8-.55c-10-1.31-20-3.12-30-4.91-6.75-1.2-13.47-2.63-20.16-4.14a145.68 145.68 0 00-17.1-2.65c-.73-2.88-1.63-5.7-2.59-8.52-.37-1.09-3.39-7.68-2.93-8.28a15.74 15.74 0 014.9-4.25 53.39 53.39 0 0122.93-6.4c1-.06 1.94-.19 2.91-.25a35.55 35.55 0 014.83-.2c10.91.92 20.7 5.27 31.47 7a16.09 16.09 0 006.44.18 3.65 3.65 0 00-1.48-3.41 10.94 10.94 0 00-3.53-1.63l-5.47-1.75a178.77 178.77 0 00-24.95-6.22c-2.22-.38-4.5-.48-6.86-.71-.43-3.08.64-5.64 1.62-8.2 3.77-9.79 10.66-17.16 18.58-23.69 5.15-4.23 11.22-6.69 17.45-8.75a31.3 31.3 0 016.27-1.1 4.46 4.46 0 014.52 2c-.84 2.72-1.66 5.2-2.38 7.71a16.33 16.33 0 00.81 11c2.34 5.68 6.57 9.21 12.22 11.31 5.35 2 10.37 1.85 16 2.76 6.08 1 12.22 1 18.2 2.68A68.1 68.1 0 01662.09 97c3 2.17 4.92 5.28 6.6 8.45a6.82 6.82 0 01-1 7.89 34.6 34.6 0 00-5.26 2.45c-1.24.15-2.5.19-3.74.38-5.5.81-11.07 1.31-16.47 2.58-13.29 3.14-25.67 3.72-39.2 3.94-.81 0-1.77.1-2.19.8-.7 1.15.74 2.42 2 2.91a36.23 36.23 0 0011.46 2.09c8.46.42 16.73-.89 24.95-2.83 4.71-1.11 9.44-2.1 14.2-2.79-.9.92-1.79 1.88-2.64 2.88a33.18 33.18 0 00-6.09 10.45c-1.4 4-1.73 8.17-5 11.29-1.92 1.81-4.43 2.86-6.44 4.57-.93.79-1.75 2.27-.88 3.13 2.54 2.51 12.69-2.11 15.47-2.78.87-.21 1.75-.42 2.62-.6 6.14-1.25 12.59-2.48 18.78-.83 4.23 1.13 8.18 4.11 12.07 6.08a98.42 98.42 0 0023.5 8.37 102.34 102.34 0 0012.33 1.94c3.75.37 7.48 1.48 11.22 1.42a5.82 5.82 0 003.11-.7 2.41 2.41 0 001.12-2.76 3.63 3.63 0 00-2-1.67c-3.32-1.57-5.56-2.42-4.4-6.26a17 17 0 000-10.17c-.24-.78-.42-1.58-.63-2.38a31.89 31.89 0 00-7.35-13.94 63.16 63.16 0 0116.64 8.24 35.89 35.89 0 0111.83 14.45c2.78 6.14 5 13.09-2.59 15.34-6.26 1.85-12.44 4-19 4.81-4.17.49-8.29.31-12.46.65-3.19.26-6.34.8-9.51 1.2-2.46.31-4.73 1-7.14 1.41a14.31 14.31 0 00-5.47 1.68 1.68 1.68 0 00-.78.82 1.36 1.36 0 00.93 1.57 4.54 4.54 0 002 .06c1.57-.19 3.51-.05 4.23 1.36 1 2-1.8 6.29-2.55 8.19a63.36 63.36 0 00-3 9.76c-1.48 6.88-2.66 13.82-4 20.73-1 5.15-1.78 10.33-3 15.42a26.81 26.81 0 01-2.77 6.78 9.88 9.88 0 01-3.08 3 2.83 2.83 0 01-3.83-1 17 17 0 01-.83-1.78 38.78 38.78 0 01-3.39-18.17c.14-5.08.44-10.15.55-15.22a55.43 55.43 0 00-.24-7.84c-.53-4.39-3-7.51-6.93-9.52a7.61 7.61 0 00-9.07 1.16c-1.45 1.32-2.8 2.75-4.22 4.11a13.15 13.15 0 01-7 3.34 6.14 6.14 0 01-5.82-1.79 12.07 12.07 0 01-3.39-6.41c-.52-2.6-2.56-8.39.36-10.46.19-.14.41-.24.59-.4a1.72 1.72 0 00.45-1.63 3.51 3.51 0 00-2.58-2.44 14.66 14.66 0 00-3.69-.33c-5-.16-9.85-.61-14.86-.62q-8.48 0-16.94.51h-.68a237.71 237.71 0 00-33.86.13c-1.8.14-3.6.23-5.4.23q-24.57-.09-49.14-.23a30.81 30.81 0 01-4.4-.33c-4.21-.66-8.38-1.53-12.6-2.06-5.18-.66-10.34-1.66-15.63-1.3a35 35 0 01-6.34-.55c-6.54-.77-12.72-3-19-4.81-2.27-.68-4.68-1.37-6.4-3.33a15.92 15.92 0 012.68-5.95zm309 27.82c-.63 9.54-3.43 19.71-4.57 28.38-1.92 14.59-3.83 29.18-6 43.73-4.25 29-9.35 57.88-17.13 86.13-4 14.55-12.13 26.36-15.47 41.18-3.9 17.23-5.89 34.85-7.47 52.39-1.6 17.83-4.6 35.33-7.88 52.92-2.33 12.45-2 32.45-13.84 40.16-3.93 2.56-8.52 3.89-13.08 5-3.84.92-22.12 1.32-21.2 7.6.61 4.16 11.68 2.6 14.3 2.43 1.66-.11 5.62-1.08 7.12 0 3.47 2.48-5.69 4.49-7.18 4.7l-9.29 1.31a2.84 2.84 0 00-1.68.63c-.43.43-.44 1.31.12 1.54a1.34 1.34 0 00.63.07l3.56-.17a2.67 2.67 0 011.32.16c2.55 1.3-7.74 3.49-8.47 3.62-4.78.91-9.6 1.59-14.43 2.14-9.64 1.08-19.34 1.6-29 2.06-3 .16-5.94.25-8.92.29s-5.94-.13-8.91-.29A346 346 0 01544.9 559c-8.55-1.54-27.1-3.2-28.11-14.68a2.62 2.62 0 012-2.51 7.64 7.64 0 013.46.07l13.71 2.4a7.16 7.16 0 003.59 0 2.44 2.44 0 001.72-2.79c-.35-1.13-1.65-1.6-2.79-1.91-6.71-1.86-13.44-3.68-20.06-5.72-5.59-1.73-10.35-3.47-13.11-9.18a32.57 32.57 0 01-2.06-6.43c-2.13-8.62-4.33-17.29-6-26-3.36-18-6.87-36.12-8-54.46-.51-8.41-2.36-16.75-3.4-25.15-1.08-8.6-2.05-17.24-4-25.7-3.32-14.68-10-27.67-14.63-41.85-10-30.45-13-64.41-18.85-95.89-2.41-13-4.82-26-6.57-39.15-1.44-10.78-4.83-24.09-2.27-34.73.38-1.55.79-3.2 2.71-3.85a93.53 93.53 0 0020.3 7 66.31 66.31 0 009.17 1.57c5.21.47 10.45.61 15.68 1 2.28.16 4.57.4 6.82.78a127.44 127.44 0 0021 2.22c15.56.05 31.12.52 46.67 0 2.62-.08 5.24-.31 7.86-.35q6-.09 12-.14a32.85 32.85 0 003.83.26c3.91 0 7.81-.09 11.71-.17 3.91.08 7.81.16 11.72.17a32.85 32.85 0 003.83-.26q6 0 12 .14l1.2.05c.78 3.58 1.65 7.22 2.37 10.88a17.14 17.14 0 005.44 9.67 11.82 11.82 0 0011.34 3 21.19 21.19 0 0010.23-5.52c.94-.91 1.84-1.87 2.8-2.75 1.39-1.28 2.44-1.27 3.9-.13a7 7 0 012.76 6c-.26 10.12-1.11 20.34 0 30.42.53 4.61 2.51 8.78 4.31 13 1.49 3.51 7.68 5.91 11.43 3.88a15.52 15.52 0 006.05-5.57c3.49-5.66 4.32-12.19 5.31-18.63 1.14-7.48 2.66-14.9 4.23-22.3a88.48 88.48 0 014-14.66c2.87-7.19 9-7.83 15.73-9.4l.94-.22a43.74 43.74 0 015.94-1.3 66.31 66.31 0 009.17-1.57 103.67 103.67 0 0012-3.51c2.55-.93 7.24-4.64 9.93-2.35 3.16 2.54 2.25 11.38 2.03 14.83z"/><path class="ea0fc645-8da7-4a9a-869c-323b50e7ee5e" d="M571.87 551.18a56.52 56.52 0 01-13.58-2.66 10.22 10.22 0 00-3.25-.77 3 3 0 00-2.77 1.55c-3.37 7.68 25.41 8.11 28.63 7.68a7.92 7.92 0 004.22-1.42c1.14-1 1.54-3 .4-4-4.52.02-9.12 0-13.65-.38zm37.96-4.77c-6.93-.59-14-.48-21-.63a1.09 1.09 0 00-.69.13.8.8 0 000 1.17 2.26 2.26 0 001.23.51c10.59 2.06 22.36 3.12 33 1.47a18.35 18.35 0 006.07-1.69c.41-.23.85-.65.68-1.08s-.67-.42-1.08-.4c-5.94.23-12.22 1.02-18.21.52zm22.85 4.84c-2.62.11-5.91 1.84-8.17 1.73-.84 0-9.72 1.61-6.58 3.95a1.8 1.8 0 00.82.29 31.73 31.73 0 0013.47-.46c2.62-.75 6.71-3 2.47-5.13a3.92 3.92 0 00-2.01-.38z"/><path d="M622.54 349.59c-3.95 0-4 6.15 0 6.15s3.96-6.15 0-6.15zm2.39-6.97c-2.64 0-2.64 4.09 0 4.09s2.64-4.09 0-4.09zm7.82 1.69c-4.39 0-4.4 6.82 0 6.82s4.4-6.82 0-6.82zm.57 4.16a1.15 1.15 0 01-1.13-1.13 1.06 1.06 0 01.44-.88 1.18 1.18 0 01.88-.44 1.14 1.14 0 011.13 1.13 1.26 1.26 0 01-1.32 1.32z" fill="#f9c4c4"/></svg>