<svg id="f57b4d91-0dd0-43af-8512-453edae574b3" data-name="Layer 1" xmlns="http://www.w3.org/2000/svg" viewBox="0 0 400 400"><defs><style>.ab5e776c-5042-4281-bc57-df177e2cd5c6{fill:#83807a;}.ae02debb-e753-4467-88aa-50ec2fc54273{fill:#ffd598;}.f1198570-3cc6-48a6-9bb3-68969cc84734{fill:#ffdda8;}.ed4e33c7-4397-4595-a56c-afbd61b22f73{fill:#cba680;}.a43bfa08-95bc-44c4-85c0-b7fddd531d57{fill:#f8b79d;}.e5448c5e-c122-441f-ae27-e162f03e14ac{fill:#a7d388;}.b72119df-5c9a-4019-b3bd-0547a0610eb1{fill:#f7941d;}.febfc78c-da2e-499a-9164-45c82f2937a9{fill:#faab18;}.addd3e4e-a169-469e-85aa-c0ae4a6e46aa{fill:#6d4139;}.b18d2df8-2f9d-47b7-b466-58b97a77155a{fill:#f40010;}.a5d14911-15c1-4dfc-802a-c480c5f6165a{fill:#40bd0f;}.fb24a8a5-c288-451e-a120-2d730abaf997{fill:#b17549;}.b8ab5d95-9818-4c21-a788-09924d6af049{fill:#00b063;}.a7a5dfa1-cb6f-4b61-9c7f-22d56baf6da0{fill:#fff;}.fb844737-c45a-4258-9479-0a06654d2001{fill:#ee646b;}.b0ef48e7-3229-486a-b777-a15b1ecd1e1b{fill:#524538;}.e0cd873f-af87-495e-8fdd-4acebbfbca10{fill:#d6c3b0;}</style></defs><title>hot_chocolate_signet</title><path class="ab5e776c-5042-4281-bc57-df177e2cd5c6" d="M271.18,323.58c-3.56-2.86-9.37-4.8-13.46-6-15.7-4.46-32.08-3.65-48.31-4.17-21.36-.69-42-.35-63.14,3.69-5.79,1.11-11.67,2.72-16.37,6.34a13,13,0,0,0-4.93,6.71c-3.46,13.19,28.49,16.53,36.48,17.55,15.67,2,31.52,1.59,47.27,1.12A210.26,210.26,0,0,0,251,343.79c6.5-1.52,14.37-3.38,19.56-8.11C276.14,330.54,274.87,326.56,271.18,323.58Z"/><path class="ae02debb-e753-4467-88aa-50ec2fc54273" d="M246.87,160.36c.56-2.54.32-5.24,1.51-7.72a54.32,54.32,0,0,1,12.36,1.52,3.24,3.24,0,0,1,1.64,1.12,24,24,0,0,1,1.86,2.88c.81,1.39,1.49,2.85,2.37,4.19,3.65,5.55,8.54,9.23,15.34,9.85a43.61,43.61,0,0,0,5.83.1c3.28-.13,6.15.59,8.21,3.36a5.73,5.73,0,0,0,.66.8,2.42,2.42,0,0,0,2.53.58,3.29,3.29,0,0,0,2.6-3.21,12.22,12.22,0,0,1,.12-1.72c.1-.62-.24-1.39.53-1.81.23.06.5,0,.65.16a53.06,53.06,0,0,1,7.63,7.43c2.7,3.17,1.76,7.18-.47,9.75-1,1.11-3.75,4.29-5.28,4.3-1.38,0-4.33-2.73-5.42-3.56a44.86,44.86,0,0,0-5.94-3.78c-4.33-2.33-8.74-4.56-13.24-6.55-8.82-3.9-17.88-7.11-27.52-8.36-1.82-.23-3.65-.39-5.46-.66a9,9,0,0,1-1.8-.66C246,165.56,246.31,162.93,246.87,160.36Z"/><path class="ae02debb-e753-4467-88aa-50ec2fc54273" d="M89.6,177.89a52.48,52.48,0,0,1,7.62-7.43c.16-.12.42-.1.65-.16.78.42.44,1.19.54,1.81a16.19,16.19,0,0,1,.12,1.72,3.27,3.27,0,0,0,2.6,3.21,2.4,2.4,0,0,0,2.52-.58,4.61,4.61,0,0,0,.66-.8c2.07-2.77,4.93-3.49,8.21-3.36a43.61,43.61,0,0,0,5.83-.1c6.8-.62,11.7-4.3,15.34-9.85.88-1.34,1.57-2.8,2.38-4.19a24,24,0,0,1,1.86-2.88,3.26,3.26,0,0,1,1.63-1.12,54.39,54.39,0,0,1,12.36-1.52c1.19,2.48,1,5.18,1.51,7.72s.86,5.2,1.3,8a9.28,9.28,0,0,1-1.8.66c-1.82.27-3.65.43-5.47.66-9.64,1.25-18.69,4.46-27.52,8.36-4.5,2-8.9,4.22-13.24,6.55a43.18,43.18,0,0,0-7.19,4.78c-1.86,1.55-3.7,2.51-6.1,1.27a12.94,12.94,0,0,1-3.34-3C87.83,185.07,86.89,181.06,89.6,177.89Z"/><path class="f1198570-3cc6-48a6-9bb3-68969cc84734" d="M289.58,282.3c-6.18,9.14-12,18.41-19.33,26.73A79.41,79.41,0,0,1,254,322.74a53.8,53.8,0,0,1-14.28,6.53c-4.81,1.44-9.26,3.9-14.16,5.06-5.83,1.38-11.84,1.54-17.83,1.82a162.46,162.46,0,0,1-29.41-1.3c-5.84-.79-10.73-3.12-16.19-5.07s-10.9-3.86-15.76-7A79.41,79.41,0,0,1,130.06,309c-6.71-7.6-12.43-15.91-18.17-24.23A117.34,117.34,0,0,1,96.73,254,170.07,170.07,0,0,1,90,227.39c-1.27-8.29-2-16.64-2.49-25-.18-3-.28-6-.38-8.95,0-.54-.17-1.17.68-1.61.69.63,1.44,1.3,2.16,2a84.76,84.76,0,0,0,26.86,17.08,152.5,152.5,0,0,0,25.59,7.93c7.28,1.55,14.63,2.82,22,4,4.29.71,8.65,1.08,13,1.52s8.91.83,13.37,1.19a117.83,117.83,0,0,0,18.88,0c4.46-.36,8.92-.74,13.37-1.19s8.69-.81,13-1.52c7.35-1.2,14.7-2.47,22-4a152.78,152.78,0,0,0,25.59-7.93,84.6,84.6,0,0,0,26.85-17.08c.73-.69,1.48-1.36,2.17-2,.85.44.7,1.07.68,1.61-.11,3-.21,6-.39,8.95-.52,8.62-1.33,16.86-2.66,25.36a172.3,172.3,0,0,1-6.6,26.29A113.17,113.17,0,0,1,289.58,282.3Z"/><path class="f1198570-3cc6-48a6-9bb3-68969cc84734" d="M381.42,225.35a35.26,35.26,0,0,1-2.5,9.62,68,68,0,0,1-9.46,15.95,99.81,99.81,0,0,1-19.85,18.49,57.23,57.23,0,0,1-15.84,8.16q-4.25,1.37-8.52,2.68a98.67,98.67,0,0,1-17.09,3.65c-2,.24-4.75,1.06-6.5-.15s-2.56-4.53-2.15-6.69c1.41-7.31,9.59-9.82,15.65-11.61A87,87,0,0,0,342,252.53,43.38,43.38,0,0,0,353.18,241c2.86-4.41,4.78-9.15,4.57-14.55-.07-1.26-.07-2.53-.21-3.78a17.22,17.22,0,0,0-6.2-11.86,16.05,16.05,0,0,0-11.53-3.6,37.71,37.71,0,0,0-11.63,2.56c-2.18.85-7,4.77-9.24,3.7-4.6-2.19-1.32-14.24,1.86-16.58,2.48-1.82,6.3-3.19,9.13-4.49a46.61,46.61,0,0,1,10.92-3.59c8.41-1.55,16.62-1.64,24.64,1.85,5.91,2.56,10.5,6.44,13.13,12.46C381.75,210.24,382.37,217.69,381.42,225.35Z"/><path class="ed4e33c7-4397-4595-a56c-afbd61b22f73" d="M250.52,174.29c14.34,2.23,27.61,7.5,40.22,14.51,2.3,1.27,5.31,2.4,6.58,4.89,1.64,3.23-1,4.81-3.47,6.33a95.93,95.93,0,0,1-20.34,9.18,185.13,185.13,0,0,1-28.67,7c-5.67.89-11.32,1.87-17,2.55s-11.65,1.09-17.49,1.55a130.81,130.81,0,0,1-20.38,0c-5.83-.46-11.68-.86-17.49-1.55s-11.34-1.66-17-2.55a184.85,184.85,0,0,1-28.67-7,101.36,101.36,0,0,1-14-5.69c-2.28-1.14-4.52-2.38-6.69-3.72-1.81-1.11-3.85-2.14-3.27-4.67.72-3.14,4.17-4.89,6.74-6.32,12.62-7,25.89-12.28,40.23-14.51,1.87-.29,3.77-.94,5.88-.44.5,2.4,1.08,4.74,1.44,7.1.39,2.56,1.46,4.54,3.88,5.67.93.44,1.77,1.09,2.73,1.44,3.11,1.14,6.22,2.36,9.41,3.23A94,94,0,0,0,191.49,194a128.49,128.49,0,0,0,17.33,0,93.81,93.81,0,0,0,18.35-2.67c3.2-.87,6.3-2.09,9.42-3.23,1-.35,1.8-1,2.73-1.44,2.41-1.13,3.48-3.11,3.88-5.67.36-2.36.94-4.7,1.43-7.1C246.75,173.35,248.65,174,250.52,174.29Z"/><path class="a43bfa08-95bc-44c4-85c0-b7fddd531d57" d="M160,131.46c1,2.56,2,5.14,3.09,7.66a8.73,8.73,0,0,0,7.53,5.27,50.25,50.25,0,0,0,15.08-.78,5.13,5.13,0,0,0,3.21-1.87,38,38,0,0,0,2.72-4,33.89,33.89,0,0,0,1.88-4.05,6.2,6.2,0,0,1,4.21-3.75c.82-.23,1.66-.43,2.48-.65.83.22,1.66.42,2.49.65a6.22,6.22,0,0,1,4.21,3.75,33.89,33.89,0,0,0,1.88,4.05,38,38,0,0,0,2.71,4,5.16,5.16,0,0,0,3.21,1.87,50.27,50.27,0,0,0,15.08.78,8.71,8.71,0,0,0,7.53-5.27c1.1-2.52,2.07-5.1,3.09-7.66.51-1.27,1-2.57,1.53-3.83a7.39,7.39,0,0,1,1.06-1.27,18.46,18.46,0,0,1,.9,5,87.62,87.62,0,0,1-1,21.27c-1.31,7.46-2.44,14.94-3.71,22.41-.4,2.37-1,4.71-1.42,6.88a10,10,0,0,1-4.38,2.37A88.06,88.06,0,0,1,217,188a127.61,127.61,0,0,1-33.59,0A88.35,88.35,0,0,1,167,184.27a10,10,0,0,1-4.38-2.37c-.45-2.17-1-4.51-1.42-6.88-1.26-7.47-2.39-15-3.71-22.41a88.12,88.12,0,0,1-1-21.27,18.5,18.5,0,0,1,.91-5,7.39,7.39,0,0,1,1.06,1.27C159,128.89,159.44,130.19,160,131.46Z"/><path class="a43bfa08-95bc-44c4-85c0-b7fddd531d57" d="M213.49,106.36a6.25,6.25,0,0,1,2.52-4.72,14.76,14.76,0,0,1,1.45,1.09c4.5,4.39,10,6.24,16.16,6.7,1.92.15,3.85.27,5.76.5a6.38,6.38,0,0,0,.1,1,35.54,35.54,0,0,0,1.65,6.23c-4,0-7.81-.19-11.58-.42-2.63-.16-5.27-.28-7.9-.42s-5.27-.37-7.9-.45c-9.11-.28-18.08-.28-27.19,0-2.64.08-5.27.3-7.9.45s-5.27.26-7.91.42c-3.76.23-7.52.46-11.57.42.3-.84.51-1.45.73-2.07,2.21-.43,4.35-.79,6.46-1.28,6.65-1.57,12.26-5,17.3-9.54.73-.66,1.27-1.63,2.54-1.81,3.62,4.94,8.75,7.6,14.46,9.3a17.62,17.62,0,0,0,8.15.83c3.63-.65,4.57-1.77,4.67-5.52C213.49,106.82,213.48,106.59,213.49,106.36Z"/><path class="e5448c5e-c122-441f-ae27-e162f03e14ac" d="M153.67,109.6A7.69,7.69,0,0,1,154,108a42.17,42.17,0,0,1,8.53-12,25.29,25.29,0,0,1,4.16-4c2.07-1.35,3.87-.92,6.16-.5a8.16,8.16,0,0,0,1.71.13c.55,0,2.43-.31,1.89-1.28a2,2,0,0,0-1.15-.71,9.3,9.3,0,0,1-5.84-6.27,9.08,9.08,0,0,1,2.23-8.93,18.92,18.92,0,0,1,9.41-5.44c3.73-1,7.54-1.82,11.51-2.76l1,2.3c-.58.36-1.13.69-1.67,1a2.12,2.12,0,0,0-1,2.36,2,2,0,0,0,2,1.63,17.75,17.75,0,0,0,11.58-3.64c1.11-.85,1.34-2.62.28-3.3-2-1.28-2.09-3.13-2.2-5.08,0-.45,0-.91,0-1.55,2.68-2.63,6.4-4.22,8.58-7.54,2.66,1.26,3.52,3.46,3.83,5.94a18.2,18.2,0,0,1-5.24,14.9,1.63,1.63,0,0,0-.61,1.15,1.2,1.2,0,0,0,1.18,1,3.53,3.53,0,0,0,1.64-.44c1.55-.71,3.19-1.5,4.09-2.94a9.18,9.18,0,0,1,3.92-3.39c3.13-1.49,6.62.7,8.39,3.32,1.54,2.28.5,5.3-1.31,7.13a21.31,21.31,0,0,1-4.25,3.57,19.16,19.16,0,0,0-1.92,1.11,2,2,0,0,0-.73.87,1,1,0,0,0,.17,1.07,1.49,1.49,0,0,0,1.37.18c3.47-.72,7.19-3,10.6-.9A16.69,16.69,0,0,1,236,88.15a44.43,44.43,0,0,1,8.75,13.9,13.84,13.84,0,0,1,.94,3.63,6.22,6.22,0,0,1-1.18.09c-2.83-.39-5.66-.81-8.5-1.19-2.16-.29-4.36-.35-6.47-.83a18,18,0,0,1-7.73-3.61c-1.41-1.18-2.8-2.37-4.25-3.5-1.84-1.44-2.77-1.37-4.47.32a15,15,0,0,0-4.72,8.6c-.07.45-.18.89-.29,1.34a2,2,0,0,1-.26.38,8.28,8.28,0,0,1-4.65-.11,25,25,0,0,1-9.63-4.41A25.36,25.36,0,0,1,190,99.09,5.2,5.2,0,0,1,188.59,95a2.29,2.29,0,0,0-2.11-2.62,2.76,2.76,0,0,0-2.62,1.84,4,4,0,0,0-.26,1.67,2.26,2.26,0,0,1-.7,1.85c-5.44,6.09-12,10.24-20.15,11.67A24.42,24.42,0,0,1,153.67,109.6Z"/><path class="b72119df-5c9a-4019-b3bd-0547a0610eb1" d="M244.72,163.23c.55-2.53.32-5.24,1.51-7.72,11.31,0,22.24,4.79,32.66,8.7,5.51,2.07,11,4.13,16.4,6.5a34.56,34.56,0,0,1,13.26,10.06c2.71,3.16,1.77,7.17-.47,9.74-1,1.11-3.74,4.3-5.27,4.3s-4.34-2.73-5.42-3.56a44.86,44.86,0,0,0-5.94-3.78c-4.33-2.33-8.74-4.56-13.24-6.55-8.82-3.9-17.88-7.11-27.52-8.36-1.82-.23-3.65-.39-5.46-.66a9.13,9.13,0,0,1-1.81-.66C243.87,168.43,244.16,165.8,244.72,163.23Z"/><path class="b72119df-5c9a-4019-b3bd-0547a0610eb1" d="M87.45,180.77a62.25,62.25,0,0,1,11.58-10,41.62,41.62,0,0,1,8.49-4.32c13.43-5.62,27.47-11.06,42.25-11,1.19,2.48,1,5.19,1.51,7.72s.85,5.2,1.29,8a8.82,8.82,0,0,1-1.8.66c-1.81.27-3.64.43-5.46.66-9.64,1.25-18.7,4.46-27.52,8.36-4.5,2-8.91,4.22-13.24,6.55a43.18,43.18,0,0,0-7.19,4.78c-1.86,1.55-3.7,2.51-6.1,1.27a12.78,12.78,0,0,1-3.34-3C85.68,187.94,84.74,183.93,87.45,180.77Z"/><path class="febfc78c-da2e-499a-9164-45c82f2937a9" d="M287.43,285.17c-6.18,9.14-12,18.41-19.34,26.73a78.26,78.26,0,0,1-16.28,13.71,53.28,53.28,0,0,1-14.27,6.53c-4.81,1.44-9.26,3.9-14.16,5.06-5.83,1.38-11.84,1.54-17.83,1.82a162.57,162.57,0,0,1-29.42-1.3c-5.83-.79-10.72-3.12-16.18-5.07s-10.9-3.86-15.76-7A78.89,78.89,0,0,1,127.9,311.9c-6.7-7.59-12.42-15.91-18.17-24.23a117.47,117.47,0,0,1-15.15-30.76,170.07,170.07,0,0,1-6.77-26.65c-1.27-8.29-2-16.64-2.49-25-.18-3-.28-6-.39-8.95,0-.53-.16-1.17.68-1.61.69.63,1.44,1.3,2.17,2a84.71,84.71,0,0,0,26.85,17.08,153.07,153.07,0,0,0,25.59,7.93c7.29,1.55,14.63,2.82,22,4,4.3.7,8.65,1.07,13,1.51s8.91.83,13.37,1.19a117.83,117.83,0,0,0,18.88,0c4.46-.36,8.92-.74,13.37-1.19s8.69-.81,13-1.51c7.35-1.21,14.7-2.48,22-4a152.5,152.5,0,0,0,25.59-7.93,84.65,84.65,0,0,0,26.86-17.08c.72-.69,1.47-1.36,2.17-2,.84.44.69,1.08.68,1.61-.11,3-.21,6-.39,8.95-.52,8.62-1.33,16.86-2.66,25.36a172.3,172.3,0,0,1-6.6,26.29A113.17,113.17,0,0,1,287.43,285.17Z"/><path class="addd3e4e-a169-469e-85aa-c0ae4a6e46aa" d="M297.32,195.84c-1.27-2.48-4.28-3.61-6.58-4.89A138.05,138.05,0,0,0,269,181.1a110.1,110.1,0,0,0-11.67-3.34c-1.63-.38-4.47-1.32-6.85-1.3a4.34,4.34,0,0,0-3.16,1.07c-1.21,1.24-1,3.22-1.4,4.91a8.81,8.81,0,0,1-3.23,4.81c-4.07,3.24-10.6,4.85-15.56,6.19a93.81,93.81,0,0,1-18.35,2.67,128.49,128.49,0,0,1-17.33,0,94,94,0,0,1-18.36-2.67c-3.19-.86-6.3-2.09-9.41-3.22-3.42-1.25-7-3.36-8.19-7-1-3.19-1.76-6.79-5.79-6.77-4.34,0-9.23,1.76-13.36,3A133.15,133.15,0,0,0,109.56,191c-2.57,1.43-6,3.18-6.74,6.32-.58,2.53,1.46,3.56,3.27,4.67,2.17,1.34,4.41,2.58,6.69,3.72a100.14,100.14,0,0,0,14,5.69,186,186,0,0,0,28.67,7.05c5.66.88,11.32,1.87,17,2.54S184.13,222,190,222.49a128.4,128.4,0,0,0,20.38,0c5.84-.46,11.68-.86,17.49-1.55s11.34-1.66,17-2.54a186.31,186.31,0,0,0,28.67-7.05,95.93,95.93,0,0,0,20.34-9.18C296.35,200.65,299,199.07,297.32,195.84ZM114.16,197a2.25,2.25,0,0,1-2.06.16c.71-3.66,3.93-6.11,7.05-7.74a36.19,36.19,0,0,1,5.19-2.16,28.94,28.94,0,0,1,6.26-1.83c.46.65-.39,1.42-1.63,2.15-1.82,1.08-4.48,2-5,2.34a36.26,36.26,0,0,0-8.13,5.72A7.92,7.92,0,0,1,114.16,197Zm18.54-3.7a1,1,0,0,1-.33.55,10.65,10.65,0,0,1-.91.87c-2.35,2.07-5.27,3.29-7.53,5.44a3.05,3.05,0,0,1-.76.59.78.78,0,0,1-.89-.15c-1-1.19,1.89-3.41,2.49-4.14a12.36,12.36,0,0,1,1.38-1.51,12,12,0,0,1,4.9-2.27,2.06,2.06,0,0,1,1-.11A.74.74,0,0,1,132.7,193.34Zm32,5.36a20.51,20.51,0,0,1-7.54-2.41,21.67,21.67,0,0,1-9-9.9c-.93-2.18.16-2.52,1.66-1.54s2.54,2.62,3.81,3.75a32.05,32.05,0,0,0,9.56,5.91c1.38.54,2.85.84,4.26,1.31,2.13.69,2.24,1.42,1.5,2A7.18,7.18,0,0,1,164.65,198.7Zm29.92,11.46c-4.33.7-8.9,1.47-13.36,1a28.91,28.91,0,0,1-15.45-6.39c-.32-.27-.65-.76-.34-1a.64.64,0,0,1,.35-.14,6.75,6.75,0,0,1,3,.39c7.32,2.11,14.37,4.25,22,4.45l1.65,0a7,7,0,0,1,2.73.34.87.87,0,0,1,.49.41C195.87,209.69,195.14,210.07,194.57,210.16Zm-9-8.55c-.59-.18-1.3-.64-1.07-1.21.15-.37.62-.46,1-.49,5-.44,9.82.15,14.79,0,2.69,0,5.39-.06,8.08-.31s5.18-.87,7.78-1.23l2.8-.4a1.41,1.41,0,0,1,1.21.22c.46.48,0,1.31-.65,1.57l-1,.43a56.72,56.72,0,0,1-5.81,2.11C204.1,204.8,194.14,204.25,185.6,201.61Zm55,2.36a60.47,60.47,0,0,1-13,6.07,56.9,56.9,0,0,1-7,1.84c-2.11.4-4.32.24-6.48.55a4.57,4.57,0,0,1-3.29-.36.71.71,0,0,1-.36-.69c.14-.54,1.64-.84,2.13-1,.78-.3,1.58-.54,2.38-.76l.86-.25c2.51-.71,5-1.51,7.45-2.33,2.21-.74,4.43-1,6.62-1.87,4.67-1.75,9-4.34,13.62-6.16.47-.18,1-.34,1.42,0C246.54,200.38,241.38,203.46,240.55,204Zm12.31-18.29a7.46,7.46,0,0,1-2.18,3.79,18.41,18.41,0,0,1-8.05,4.62,20.15,20.15,0,0,1-3.71.65,2.21,2.21,0,0,1-.89-.06.78.78,0,0,1-.56-.64c0-.51.53-.82,1-1a22.83,22.83,0,0,0,9.15-6.13,6.17,6.17,0,0,0,1.63-3.94c0-1.47-.8-3.08,1.47-2.14S253.27,183.46,252.86,185.68Zm31.58,13.1c-.77.19-1.37-.61-1.8-1.27a17.86,17.86,0,0,0-6.69-5.67,52.27,52.27,0,0,0-10.47-4c-1.17-.33-2.35-.65-3.53-1a1.83,1.83,0,0,1-.87-.4.67.67,0,0,1-.12-.87.93.93,0,0,1,.75-.23c1.6,0,3.33-.25,4.91-.1a30.06,30.06,0,0,1,3.53.66,46.13,46.13,0,0,1,5.66,1.59,13.22,13.22,0,0,1,8.37,7.78C284.66,196.43,285.05,197.75,284.44,198.78Z"/><path class="febfc78c-da2e-499a-9164-45c82f2937a9" d="M379.27,228.22a35.42,35.42,0,0,1-2.5,9.63,68.11,68.11,0,0,1-9.46,15.94,100.36,100.36,0,0,1-19.85,18.49,57.23,57.23,0,0,1-15.84,8.16c-2.83.91-5.68,1.8-8.52,2.68A98.9,98.9,0,0,1,306,286.78c-2,.23-4.75,1.05-6.5-.15s-2.56-4.53-2.15-6.69c1.41-7.32,9.59-9.82,15.65-11.62a87.14,87.14,0,0,0,26.83-12.92A43.64,43.64,0,0,0,351,243.84c2.85-4.42,4.78-9.16,4.56-14.56-.06-1.26-.06-2.53-.21-3.78a17.2,17.2,0,0,0-6.2-11.86,16.05,16.05,0,0,0-11.53-3.6A37.84,37.84,0,0,0,326,212.6c-2.18.85-7,4.77-9.23,3.7-4.6-2.19-1.32-14.24,1.86-16.58,2.47-1.82,6.3-3.19,9.12-4.49a46.73,46.73,0,0,1,10.92-3.58c8.41-1.56,16.63-1.64,24.64,1.84,5.91,2.56,10.51,6.44,13.14,12.46C379.6,213.11,380.22,220.56,379.27,228.22Z"/><path class="b18d2df8-2f9d-47b7-b466-58b97a77155a" d="M159.34,133.38c.17-2.46.42-6,2.52-7.65a7,7,0,0,1,3.19-1.11,107.6,107.6,0,0,1,16.07-2c3.3-.09,6.6.13,9.9.35l33.14,2.18c4.59.31,9.23.61,13.77-.17,2-.35,4.07-.9,6-.29a4,4,0,0,1,2.71,3.24c.09.75-.39,1.35-.41,2.08,0,1.11.41,2.36.48,3.49a88.09,88.09,0,0,1-1,21.27c-1.32,7.46-2.45,15-3.72,22.41-.4,2.37-1,4.71-1.42,6.88a10,10,0,0,1-4.38,2.38,88.87,88.87,0,0,1-16.38,3.77,128.48,128.48,0,0,1-33.59,0,89.16,89.16,0,0,1-16.39-3.77,10.14,10.14,0,0,1-4.38-2.38c-.45-2.17-1-4.51-1.42-6.88-1.26-7.46-2.39-14.95-3.71-22.41a88.61,88.61,0,0,1-1-21.27Z"/><path class="b18d2df8-2f9d-47b7-b466-58b97a77155a" d="M216.36,108.52a6.27,6.27,0,0,1,2.52-4.73,14.75,14.75,0,0,1,1.45,1.1c4.5,4.38,10,6.23,16.16,6.69,1.92.15,3.85.27,5.76.51a6.38,6.38,0,0,0,.1,1,35.08,35.08,0,0,0,1.65,6.23c-4.05,0-7.81-.19-11.57-.42-2.64-.16-5.28-.27-7.91-.42s-5.27-.36-7.9-.45c-9.11-.27-18.08-.27-27.19,0-2.63.09-5.27.31-7.9.45s-5.27.26-7.91.42c-3.76.23-7.52.46-11.57.42l.73-2.06c2.21-.44,4.35-.79,6.46-1.29,6.65-1.57,12.26-5,17.3-9.53.74-.66,1.27-1.64,2.54-1.82,3.62,4.94,8.75,7.61,14.46,9.3a17.62,17.62,0,0,0,8.15.83c3.63-.65,4.57-1.77,4.67-5.51C216.37,109,216.35,108.75,216.36,108.52Z"/><path class="a5d14911-15c1-4dfc-802a-c480c5f6165a" d="M194.35,52c2.47,2.72,4.11,8.22,4.32,14.5,0,.46-.33.93-.68,1.85-1.35-3-2.15-5.39-3.46-7.46a48.09,48.09,0,0,0-4.66-5.47A8,8,0,0,1,194.35,52Z"/><path class="a5d14911-15c1-4dfc-802a-c480c5f6165a" d="M155.82,109.6a7.69,7.69,0,0,1,.29-1.61,42.37,42.37,0,0,1,8.53-12,25.29,25.29,0,0,1,4.16-4c2.07-1.35,3.87-.92,6.16-.5a8.16,8.16,0,0,0,1.71.13c.55,0,2.44-.31,1.9-1.28a2,2,0,0,0-1.16-.71,9.3,9.3,0,0,1-5.84-6.27,9.1,9.1,0,0,1,2.23-8.93,18.92,18.92,0,0,1,9.41-5.44c3.74-1,7.54-1.82,11.52-2.76l1,2.3c-.58.36-1.13.69-1.67,1a2.13,2.13,0,0,0-1,2.36,2,2,0,0,0,2,1.63,17.73,17.73,0,0,0,11.58-3.64c1.11-.85,1.35-2.62.28-3.3-2-1.28-2.08-3.13-2.2-5.08,0-.45,0-.91,0-1.55,2.68-2.63,6.41-4.22,8.59-7.54,2.66,1.26,3.51,3.46,3.82,5.94a18.2,18.2,0,0,1-5.24,14.9,1.67,1.67,0,0,0-.61,1.15,1.21,1.21,0,0,0,1.19,1A3.56,3.56,0,0,0,214,75,8.93,8.93,0,0,0,218.12,72,9.1,9.1,0,0,1,222,68.63c3.13-1.49,6.62.7,8.39,3.32,1.55,2.28.51,5.3-1.31,7.13a21.31,21.31,0,0,1-4.25,3.57,19.16,19.16,0,0,0-1.92,1.11,2.12,2.12,0,0,0-.73.87,1,1,0,0,0,.18,1.07,1.49,1.49,0,0,0,1.37.18c3.46-.72,7.19-3,10.6-.9a16.42,16.42,0,0,1,3.78,3.17,44.43,44.43,0,0,1,8.75,13.9,13.85,13.85,0,0,1,1,3.63,6.28,6.28,0,0,1-1.18.09c-2.84-.39-5.67-.81-8.5-1.19-2.16-.29-4.37-.35-6.48-.83a18,18,0,0,1-7.73-3.61c-1.4-1.18-2.8-2.37-4.25-3.5-1.84-1.44-2.77-1.37-4.47.32a15,15,0,0,0-4.72,8.6,12.83,12.83,0,0,1-.29,1.34c0,.1-.12.18-.26.38a8.28,8.28,0,0,1-4.65-.11,25,25,0,0,1-9.62-4.41,25.43,25.43,0,0,1-3.59-3.67A5.27,5.27,0,0,1,190.74,95a2.28,2.28,0,0,0-2.1-2.62A2.77,2.77,0,0,0,186,94.2a4.2,4.2,0,0,0-.26,1.67,2.26,2.26,0,0,1-.69,1.85c-5.45,6.09-12,10.24-20.15,11.67A24.47,24.47,0,0,1,155.82,109.6Z"/><path class="f1198570-3cc6-48a6-9bb3-68969cc84734" d="M270.31,290.84c2.23-1.52,3.62-3.92,5.2-6.14a58.77,58.77,0,0,0,5.6-9.11c4.08-8.72,8.24-17.41,12.11-26.21a79,79,0,0,0,5.12-16.13c.19-1,.29-2.17-.52-2.72a1.73,1.73,0,0,0-2,.29,5,5,0,0,0-1.13,1.89c-1.41,3.38-3.08,6.76-4.24,10.24-2.8,6.41-5.7,12.77-8.53,19.16a180.62,180.62,0,0,1-15.1,27.32,2.78,2.78,0,0,0-.7,2.24,3.4,3.4,0,0,0,2.89-.08A8,8,0,0,0,270.31,290.84Z"/><path class="f1198570-3cc6-48a6-9bb3-68969cc84734" d="M262.28,298.78a2.11,2.11,0,0,0,2.2-2.07,2.45,2.45,0,0,0-2.26-2.47,2.28,2.28,0,0,0-2,1.94A2.38,2.38,0,0,0,262.28,298.78Z"/><path class="fb24a8a5-c288-451e-a120-2d730abaf997" d="M213.88,268.27a17.8,17.8,0,0,1,1.53,4.27,12.69,12.69,0,0,1,0,9,17.65,17.65,0,0,1-1.6,4.27,17.89,17.89,0,0,1-2.9,3.53,17.59,17.59,0,0,1-3.64,2.69,17,17,0,0,1-4.18,1.71c-.37.1-.75.2-1.13.28,3.47-2.71,5.81-6.83,7.7-11C211.93,278.14,213.58,273.37,213.88,268.27Z"/><path class="b8ab5d95-9818-4c21-a788-09924d6af049" d="M186.36,264.78a26,26,0,0,1,7.72-4.7,17.45,17.45,0,0,1,4.55-.53,17.86,17.86,0,0,1,4.54.52,14.93,14.93,0,0,1,3.28,1.42,27.88,27.88,0,0,0-11.3,6.85h-.05a14.77,14.77,0,0,1-10-2.26C185.48,265.64,185.93,265.21,186.36,264.78Z"/><path class="b8ab5d95-9818-4c21-a788-09924d6af049" d="M190.46,275.69a13.81,13.81,0,0,1-4.26-.09c.05-.12.09-.26.15-.38a12,12,0,0,1,2.64-3.65c1.51.43,3.17.79,3.4.41-.36.61-.72,1.24-1,1.91s-.5,1.14-.72,1.72Z"/><path class="fb24a8a5-c288-451e-a120-2d730abaf997" d="M194.94,274.73c2.62-4.94,6.72-7.62,11.49-9.43a37.76,37.76,0,0,0-12,26.86A20.43,20.43,0,0,1,194.94,274.73Z"/><path class="fb24a8a5-c288-451e-a120-2d730abaf997" d="M196.58,294.23c-.61-.1.55-7.69.7-8.43a35.21,35.21,0,0,1,2.73-8.17c2.28-4.82,6.11-10.46,10.84-13.17,1.84,2.14.77,6.1.2,8.53a47,47,0,0,1-3.24,9c-2.36,5.16-5.32,10.42-10.8,12.32Z"/><path class="a5d14911-15c1-4dfc-802a-c480c5f6165a" d="M270.57,155a8.91,8.91,0,0,1,1.36.28,30.88,30.88,0,0,1,11.85,6.24,5,5,0,0,0,2.33,1.4c.4-.75-.13-1.65-.69-2.29a31.34,31.34,0,0,0-5.56-5.11c-1.85-1.31-4.11-2-5.89-3.26-1.12-.83-1.39-2.36.1-2.86s3.86.6,5.24,1.06c8.37,2.84,14.05,8.41,16.82,16.84a7.39,7.39,0,0,1,0,2,16.78,16.78,0,0,0-9.58-2c-.92.06-1.84,0-2.75,0a14.21,14.21,0,0,1-9.42-3.61,18.75,18.75,0,0,1-3.73-4.45C269.38,157.17,268.11,154.8,270.57,155Z"/><path class="a7a5dfa1-cb6f-4b61-9c7f-22d56baf6da0" d="M193,149.52c5.41.67,7.71,1.07,14.76-.55a15.36,15.36,0,0,1,.13,3.29c-2-.18-4.44.33-6.25.35-3,0-6-.06-8.93-.24A6.65,6.65,0,0,1,193,149.52Z"/><path class="fb844737-c45a-4258-9479-0a06654d2001" d="M202.45,161a8.07,8.07,0,0,1-2.73,0c-4.2-.64-5.21-1.42-6.21-5,2.3.12,4.61.21,6.91.21,1.24,0,2.47,0,3.7-.06.87,0,2.2-.32,3.25-.3-.09.39-.18.79-.28,1.18C206.51,159.43,204.69,160.55,202.45,161Z"/><path class="a5d14911-15c1-4dfc-802a-c480c5f6165a" d="M104.18,167.3c2.77-8.43,8.45-14,16.82-16.84,1.13-.38,4-1.48,5.12-.61,1.55,1.26-1.11,1.63-2,2.06a31,31,0,0,0-3.3,1.81,59,59,0,0,0-5.87,4.31,14,14,0,0,0-3,3.33c-.32.49-.49,1.32,0,1.52a1.09,1.09,0,0,0,.92-.28A78.81,78.81,0,0,1,127,154.74a4.65,4.65,0,0,1,2.66-.55c4.46.86-2.31,8.32-3.71,9.51a14.23,14.23,0,0,1-9.42,3.61c-.92,0-1.84,0-2.75,0a16.82,16.82,0,0,0-9.59,2A7.33,7.33,0,0,1,104.18,167.3Z"/><path class="b0ef48e7-3229-486a-b777-a15b1ecd1e1b" d="M384.47,204.07a27.89,27.89,0,0,0-10-14.1,38.84,38.84,0,0,0-20.8-7.38c-6.8-.52-13.49.84-20,2.77-5.62,1.67-10.5,4.79-15.35,7.95a59.72,59.72,0,0,0-.42-7.31c-.16-1.36-.21-2.75-.3-4.12a12,12,0,0,0-2.37-6.36,41.7,41.7,0,0,0-9.4-9c-.47-.34-.93-.69-1.42-1-3-1.78-5.71-3.81-7-7.26a29.83,29.83,0,0,0-20.35-13.46c-2.89-.49-5.95-.1-8.93,0-1.71,0-3.43.38-5.14.42a21.76,21.76,0,0,1-11.18-2.95,4.53,4.53,0,0,1-2.64-4.4c0-3.77-.41-7.55-.67-11.56.79-.14,1.54-.26,2.28-.41a2.21,2.21,0,0,0,2.09-2.31c.26-3-.89-4.67-3.93-5.48-.76-.21-1.55-.31-2.27-.45-1.25-.24-1.45-4.64-1.5-6.42.41.14.81.28,1.21.44a2.77,2.77,0,0,0,3.38-.84,4.48,4.48,0,0,0,1.32-4.69c-.35-1.21-.61-2.45-.94-3.67-1.44-5.3-4.36-9.82-7.55-14.2a25.34,25.34,0,0,0-7.83-7.14c-.67-.39-1.31-.84-2.1-1.35l.71-1.65a9,9,0,0,0-1.65-9.93,13.86,13.86,0,0,0-4.62-3.53l-6.84-3.3c-.19-1.6-.31-3.2-.58-4.77a11.74,11.74,0,0,0-5.2-8.18c-2.92-1.93-5.72-1.46-7.86,1.27-.28.36-.51.76-.8,1.12a14.53,14.53,0,0,1-5,3.73,23.38,23.38,0,0,0-1.24-2.74,15.47,15.47,0,0,0-2.22-3,4,4,0,0,0-5.34-.65,33.08,33.08,0,0,0-5,3.65c-2.17,2-2,4.13-.57,6.52a9.87,9.87,0,0,0,1.37,1.53c.45.49.91,1,1.54,1.62a26.39,26.39,0,0,1-6.4,1.82A32.09,32.09,0,0,0,172.75,67a19.28,19.28,0,0,0-6.1,5.48c-2.65,3.81-3.52,7.91-2,12.4.22.63.38,1.27.58,1.93-.46.39-.79.7-1.15,1A53.45,53.45,0,0,0,152,100.9a34.94,34.94,0,0,0-4.19,8.65c-1,2.91.43,5,3.5,5.29.8.08,1.61,0,2.41.11.19,0,.36.22.62.39a10,10,0,0,1-.24,1.29,5.56,5.56,0,0,1-.56,1c-.72.14-1.51.24-2.27.45-3,.81-4.2,2.44-3.93,5.48a2.21,2.21,0,0,0,2.08,2.31c.74.15,1.49.27,2.29.41-.26,4-.68,7.79-.67,11.56a4.54,4.54,0,0,1-2.65,4.4,21.72,21.72,0,0,1-11.17,2.95c-1.72,0-3.43-.37-5.15-.42-3-.08-6-.47-8.92,0a29.83,29.83,0,0,0-20.35,13.46c-1.25,3.45-4,5.48-7,7.26-.49.3-1,.65-1.41,1a41.28,41.28,0,0,0-9.4,9,12,12,0,0,0-2.38,6.36c-.09,1.37-.13,2.76-.3,4.12a73.56,73.56,0,0,0-.2,13.76c.36,5.38.71,10.77,1.24,16.14.44,4.57,1,9.13,1.74,13.66a173.82,173.82,0,0,0,7.37,27.91,113.07,113.07,0,0,0,14,28.31c2.53,3.68,4.27,7.76,7,11.27,5.19,6.6,10.75,12.54,16.2,18.76,4.69,5.37,10.5,9.1,16.58,12.83a47,47,0,0,0,7.67,3.85c4.39,1.69,8.76,3.41,13.22,4.89a87.54,87.54,0,0,0,8.65,2.18c10.21,2.29,20.74,2.78,31.17,2.69,9.09-.08,17.47-2,26.13-4.87,4.45-1.48,8.83-3.2,13.21-4.89a47.12,47.12,0,0,0,7.68-3.85,109.24,109.24,0,0,0,10.13-6.94c1.67-1.3,3.29-2.66,4.83-4.1,6.93-6.44,13.84-13.53,18.27-21.92.52-1,2.13-5.35,3.53-5.4l2.73-.1c4.38-.34,8.63-.54,12.84-1a130,130,0,0,0,12.89-2.08c4.25-.93,8.42-2.22,12.58-3.51A70,70,0,0,0,347.28,277a102.15,102.15,0,0,0,18.18-14.14,76.47,76.47,0,0,0,17.1-23.54A47.1,47.1,0,0,0,384.47,204.07Zm-68.4,19.19,2.2-1.83a41.28,41.28,0,0,1,16.07-8.3c3.07-.8,6.18-1.47,9.48-.56a10.84,10.84,0,0,1,8,7.72,20,20,0,0,1-1.46,15.36,37.52,37.52,0,0,1-11.08,12.54,79.35,79.35,0,0,1-24.23,12c-3,1-6.12,1.84-9.23,2.57.67-1.75,1.33-3.51,1.93-5.3a173.82,173.82,0,0,0,7.37-27.91C315.5,227.46,315.79,225.36,316.07,223.26ZM270.57,155a8.91,8.91,0,0,1,1.36.28,30.88,30.88,0,0,1,11.85,6.24,5,5,0,0,0,2.33,1.4c.4-.75-.13-1.65-.69-2.29a31.34,31.34,0,0,0-5.56-5.11c-1.85-1.31-4.11-2-5.89-3.26-1.12-.83-1.39-2.36.1-2.86s3.86.6,5.24,1.06c8.37,2.84,14.05,8.41,16.82,16.84a7.39,7.39,0,0,1,0,2,16.78,16.78,0,0,0-9.58-2c-.92.06-1.84,0-2.75,0a14.21,14.21,0,0,1-9.42-3.61,18.52,18.52,0,0,1-3.73-4.45C269.38,157.17,268.11,154.8,270.57,155Zm-23.7,5.36c.56-2.54.32-5.24,1.51-7.72a54.32,54.32,0,0,1,12.36,1.52,3.24,3.24,0,0,1,1.64,1.12,24,24,0,0,1,1.86,2.88c.81,1.39,1.49,2.85,2.37,4.19,3.65,5.55,8.54,9.23,15.34,9.85a43.61,43.61,0,0,0,5.83.1c3.28-.13,6.15.59,8.21,3.36a5.73,5.73,0,0,0,.66.8,2.42,2.42,0,0,0,2.53.58,3.29,3.29,0,0,0,2.6-3.21,12.22,12.22,0,0,1,.12-1.72c.1-.62-.24-1.39.53-1.81.23.06.5,0,.65.16a53.06,53.06,0,0,1,7.63,7.43c2.7,3.17,1.76,7.18-.47,9.75-1,1.11-3.75,4.29-5.28,4.3-1.38,0-4.33-2.73-5.42-3.56a44.86,44.86,0,0,0-5.94-3.78c-4.33-2.33-8.74-4.56-13.24-6.55-8.82-3.9-17.88-7.11-27.52-8.36-1.82-.23-3.65-.39-5.46-.66a9,9,0,0,1-1.8-.66C246,165.56,246.31,162.93,246.87,160.36Zm3.65,13.93c14.34,2.23,27.61,7.5,40.22,14.51,2.3,1.27,5.31,2.4,6.58,4.89,1.64,3.23-1,4.81-3.47,6.33a95.93,95.93,0,0,1-20.34,9.18,185.13,185.13,0,0,1-28.67,7c-5.67.89-11.32,1.87-17,2.55s-11.65,1.09-17.49,1.55a130.81,130.81,0,0,1-20.38,0c-5.83-.46-11.68-.86-17.49-1.55s-11.34-1.66-17-2.55a184.85,184.85,0,0,1-28.67-7,101.36,101.36,0,0,1-14-5.69c-2.28-1.14-4.52-2.38-6.69-3.72-1.81-1.11-3.85-2.14-3.27-4.67.72-3.14,4.17-4.89,6.74-6.32,12.62-7,25.89-12.28,40.23-14.51,1.87-.29,3.77-.94,5.88-.44.5,2.4,1.08,4.74,1.44,7.1.39,2.56,1.46,4.54,3.88,5.67.93.44,1.77,1.09,2.73,1.44,3.11,1.14,6.22,2.36,9.41,3.23A94,94,0,0,0,191.49,194a128.49,128.49,0,0,0,17.33,0,93.81,93.81,0,0,0,18.35-2.67c3.2-.87,6.3-2.09,9.42-3.23,1-.35,1.8-1,2.73-1.44,2.41-1.13,3.48-3.11,3.88-5.67.36-2.36.94-4.7,1.43-7.1C246.75,173.35,248.65,174,250.52,174.29Zm-37-67.93a6.25,6.25,0,0,1,2.52-4.72,14.76,14.76,0,0,1,1.45,1.09c4.5,4.39,10,6.24,16.16,6.7,1.92.15,3.85.27,5.76.5a6.38,6.38,0,0,0,.1,1,35.54,35.54,0,0,0,1.65,6.23c-4,0-7.81-.19-11.58-.42-2.63-.16-5.27-.28-7.9-.42s-5.27-.37-7.9-.45c-9.11-.28-18.08-.28-27.19,0-2.64.08-5.27.3-7.9.45s-5.27.26-7.91.42c-3.76.23-7.52.46-11.57.42.3-.84.51-1.45.73-2.07,2.21-.43,4.35-.79,6.46-1.28,6.65-1.57,12.26-5,17.3-9.54.73-.66,1.27-1.63,2.54-1.81,3.62,4.94,8.75,7.6,14.46,9.3a17.62,17.62,0,0,0,8.15.83c3.63-.65,4.57-1.77,4.67-5.52C213.49,106.82,213.48,106.59,213.49,106.36ZM160,131.46c1,2.56,2,5.14,3.09,7.66a8.73,8.73,0,0,0,7.53,5.27,50.25,50.25,0,0,0,15.08-.78,5.13,5.13,0,0,0,3.21-1.87,38,38,0,0,0,2.72-4,33.89,33.89,0,0,0,1.88-4.05,6.2,6.2,0,0,1,4.21-3.75,8.34,8.34,0,0,1,5,0,6.22,6.22,0,0,1,4.21,3.75,33.89,33.89,0,0,0,1.88,4.05,38,38,0,0,0,2.71,4,5.16,5.16,0,0,0,3.21,1.87,50.27,50.27,0,0,0,15.08.78,8.71,8.71,0,0,0,7.53-5.27c1.1-2.52,2.07-5.1,3.09-7.66.51-1.27,1-2.57,1.53-3.83a7.39,7.39,0,0,1,1.06-1.27,18.46,18.46,0,0,1,.9,5,87.62,87.62,0,0,1-1,21.27c-1.31,7.46-2.44,14.94-3.71,22.41-.4,2.37-1,4.71-1.42,6.88a10,10,0,0,1-4.38,2.37A88.06,88.06,0,0,1,217,188a127.61,127.61,0,0,1-33.59,0A88.35,88.35,0,0,1,167,184.27a10,10,0,0,1-4.38-2.37c-.45-2.17-1-4.51-1.42-6.88-1.26-7.47-2.39-15-3.71-22.41a88.12,88.12,0,0,1-1-21.27,18.5,18.5,0,0,1,.91-5,7.39,7.39,0,0,1,1.06,1.27C159,128.89,159.44,130.19,160,131.46ZM194.35,52c2.47,2.72,4.11,8.22,4.32,14.5,0,.46-.33.93-.68,1.85-1.35-3-2.15-5.39-3.46-7.46a48.09,48.09,0,0,0-4.66-5.47A8,8,0,0,1,194.35,52Zm-40.68,57.6A7.69,7.69,0,0,1,154,108a42.17,42.17,0,0,1,8.53-12,25.29,25.29,0,0,1,4.16-4c2.07-1.35,3.87-.92,6.16-.5a8.16,8.16,0,0,0,1.71.13c.55,0,2.43-.31,1.89-1.28a2,2,0,0,0-1.15-.71,9.3,9.3,0,0,1-5.84-6.27,9.08,9.08,0,0,1,2.23-8.93,18.92,18.92,0,0,1,9.41-5.44c3.73-1,7.54-1.82,11.51-2.76l1,2.3c-.58.36-1.13.69-1.67,1a2.12,2.12,0,0,0-1,2.36,2,2,0,0,0,2,1.63,17.75,17.75,0,0,0,11.58-3.64c1.11-.85,1.34-2.62.28-3.3-2-1.28-2.09-3.13-2.2-5.08,0-.45,0-.91,0-1.55,2.68-2.63,6.4-4.22,8.58-7.54,2.66,1.26,3.52,3.46,3.83,5.94a18.2,18.2,0,0,1-5.24,14.9,1.63,1.63,0,0,0-.61,1.15,1.2,1.2,0,0,0,1.18,1,3.53,3.53,0,0,0,1.64-.44c1.55-.71,3.19-1.5,4.09-2.94a9.18,9.18,0,0,1,3.92-3.39c3.13-1.49,6.62.7,8.39,3.32,1.54,2.28.5,5.3-1.31,7.13a21.31,21.31,0,0,1-4.25,3.57,19.16,19.16,0,0,0-1.92,1.11,2,2,0,0,0-.73.87,1,1,0,0,0,.17,1.07,1.49,1.49,0,0,0,1.37.18c3.47-.72,7.19-3,10.6-.9A16.69,16.69,0,0,1,236,88.15a44.43,44.43,0,0,1,8.75,13.9,13.84,13.84,0,0,1,.94,3.63,6.22,6.22,0,0,1-1.18.09c-2.83-.39-5.66-.81-8.5-1.19-2.16-.29-4.36-.35-6.47-.83a18,18,0,0,1-7.73-3.61c-1.41-1.18-2.8-2.37-4.25-3.5-1.84-1.44-2.77-1.37-4.47.32a15,15,0,0,0-4.72,8.6c-.07.45-.18.89-.29,1.34a2,2,0,0,1-.26.38,8.28,8.28,0,0,1-4.65-.11,25,25,0,0,1-9.63-4.41A25.36,25.36,0,0,1,190,99.09,5.2,5.2,0,0,1,188.59,95a2.29,2.29,0,0,0-2.11-2.62,2.76,2.76,0,0,0-2.62,1.84,4,4,0,0,0-.26,1.67,2.26,2.26,0,0,1-.7,1.85c-5.44,6.09-12,10.24-20.15,11.67A24.42,24.42,0,0,1,153.67,109.6Zm-49.49,57.7c2.77-8.43,8.45-14,16.82-16.84,1.13-.38,4-1.48,5.12-.61,1.55,1.26-1.11,1.63-2,2.06a31,31,0,0,0-3.3,1.81,59,59,0,0,0-5.87,4.31,14,14,0,0,0-3,3.33c-.32.49-.49,1.32,0,1.52a1.09,1.09,0,0,0,.92-.28A78.81,78.81,0,0,1,127,154.74a4.65,4.65,0,0,1,2.66-.55c4.46.86-2.31,8.32-3.71,9.51a14.23,14.23,0,0,1-9.42,3.61c-.92,0-1.84,0-2.75,0a16.82,16.82,0,0,0-9.59,2A7.33,7.33,0,0,1,104.18,167.3ZM89.6,177.89a52.48,52.48,0,0,1,7.62-7.43c.16-.12.42-.1.65-.16.78.42.44,1.19.54,1.81a16.19,16.19,0,0,1,.12,1.72,3.27,3.27,0,0,0,2.6,3.21,2.4,2.4,0,0,0,2.52-.58,4.61,4.61,0,0,0,.66-.8c2.07-2.77,4.93-3.49,8.21-3.36a43.61,43.61,0,0,0,5.83-.1c6.8-.62,11.7-4.3,15.34-9.85.88-1.34,1.57-2.8,2.38-4.19a24,24,0,0,1,1.86-2.88,3.26,3.26,0,0,1,1.63-1.12,54.39,54.39,0,0,1,12.36-1.52c1.19,2.48,1,5.18,1.51,7.72s.86,5.2,1.3,8a9.28,9.28,0,0,1-1.8.66c-1.82.27-3.65.43-5.47.66-9.64,1.25-18.69,4.46-27.52,8.36-4.5,2-8.9,4.22-13.24,6.55a42.57,42.57,0,0,0-7.19,4.78c-1.86,1.55-3.7,2.51-6.1,1.27a12.94,12.94,0,0,1-3.34-3C87.83,185.07,86.89,181.06,89.6,177.89Zm200,104.41c-6.18,9.14-12,18.41-19.33,26.73A79.41,79.41,0,0,1,254,322.74a53.8,53.8,0,0,1-14.28,6.53c-4.81,1.44-9.26,3.9-14.16,5.06-5.83,1.38-11.84,1.54-17.83,1.82a162.46,162.46,0,0,1-29.41-1.3c-5.84-.79-10.73-3.12-16.19-5.07s-10.9-3.86-15.76-7A79.41,79.41,0,0,1,130.06,309c-6.71-7.6-12.43-15.91-18.17-24.23A117.34,117.34,0,0,1,96.73,254,170.07,170.07,0,0,1,90,227.39c-1.27-8.29-2-16.64-2.49-25-.18-3-.28-6-.38-8.95,0-.54-.17-1.17.68-1.61.69.63,1.44,1.3,2.16,2a84.76,84.76,0,0,0,26.86,17.08,152.5,152.5,0,0,0,25.59,7.93c7.28,1.55,14.63,2.82,22,4,4.29.71,8.65,1.08,13,1.52s8.91.83,13.37,1.19a117.83,117.83,0,0,0,18.88,0c4.46-.36,8.92-.74,13.37-1.19s8.69-.81,13-1.52c7.35-1.2,14.7-2.47,22-4a152.78,152.78,0,0,0,25.59-7.93,84.6,84.6,0,0,0,26.85-17.08c.73-.69,1.48-1.36,2.17-2,.85.44.7,1.07.68,1.61-.11,3-.21,6-.39,8.95-.52,8.62-1.33,16.86-2.66,25.36a172.3,172.3,0,0,1-6.6,26.29A113.17,113.17,0,0,1,289.58,282.3Zm91.85-57a35.64,35.64,0,0,1-2.51,9.62,68,68,0,0,1-9.46,15.95,99.81,99.81,0,0,1-19.85,18.49,57.23,57.23,0,0,1-15.84,8.16q-4.25,1.37-8.52,2.68a98.67,98.67,0,0,1-17.09,3.65c-2,.24-4.75,1.06-6.5-.15s-2.56-4.53-2.15-6.69c1.41-7.31,9.59-9.82,15.65-11.61A87,87,0,0,0,342,252.53,43.38,43.38,0,0,0,353.18,241c2.86-4.41,4.78-9.15,4.57-14.55-.07-1.26-.07-2.53-.21-3.78a17.22,17.22,0,0,0-6.2-11.86,16.05,16.05,0,0,0-11.53-3.6,37.71,37.71,0,0,0-11.63,2.56c-2.18.85-7,4.77-9.24,3.7-4.6-2.19-1.32-14.24,1.86-16.58,2.48-1.82,6.3-3.19,9.13-4.49a46.61,46.61,0,0,1,10.92-3.59c8.41-1.55,16.62-1.64,24.64,1.85,5.91,2.56,10.5,6.44,13.13,12.46C381.75,210.24,382.37,217.69,381.43,225.35Z"/><path class="b0ef48e7-3229-486a-b777-a15b1ecd1e1b" d="M232.37,174.53a30.59,30.59,0,0,0,.45,4.28c.08.43.23.94.65,1.06a.8.8,0,0,0,.81-.38,2.21,2.21,0,0,0,.29-.91c.76-4.43,1.43-8.87,2-13.33.52-3.76,1.15-7.89.7-11.68a1.48,1.48,0,0,0-.22-.72,1.06,1.06,0,0,0-1.45-.07,2.89,2.89,0,0,0-.83,1.36,43.53,43.53,0,0,0-2.23,12.45C232.43,169.23,232.27,171.89,232.37,174.53Z"/><path class="b0ef48e7-3229-486a-b777-a15b1ecd1e1b" d="M209.63,143.59a3,3,0,0,0-2.63-.26c-.43.14-.81.45-1.24.6-4.19,1.45-8.37,2.42-12.54-.09a1.53,1.53,0,0,0-.32-.13,3.71,3.71,0,0,0-4.84,3,32.86,32.86,0,0,0,0,3.44,21.47,21.47,0,0,0,1.21,9.13,8.67,8.67,0,0,0,6.14,6,26.37,26.37,0,0,0,5.39,1c5.16.21,10.59-3.11,11.36-8.48.36-2.49.81-5,1-7.48C213.43,146.21,213,145.61,209.63,143.59ZM193,149.52c5.41.67,7.71,1.07,14.76-.55a15.36,15.36,0,0,1,.13,3.29c-2-.18-4.44.33-6.25.35-3,0-6-.06-8.93-.24A6.65,6.65,0,0,1,193,149.52Zm9.43,11.5a8.07,8.07,0,0,1-2.73,0c-4.2-.64-5.21-1.42-6.21-5,2.3.12,4.61.21,6.91.21,1.24,0,2.47,0,3.7-.06.87,0,2.2-.32,3.25-.3-.09.39-.18.79-.28,1.18C206.51,159.43,204.69,160.55,202.45,161Z"/><path class="b0ef48e7-3229-486a-b777-a15b1ecd1e1b" d="M127.58,105.94c2.6-3.69,5.1-11.46.79-14.93a9.74,9.74,0,0,0-5.64-2.11c-.62,0-1.4.14-1.54.74s.37,1,.8,1.33c2.42,1.85,4.16,4.07,3.84,7.37-.65,6.67-7.65,10.6-10.26,16.39-1.67,3.7-1.72,7.76.61,11.18,1.9,2.81,5.84,6.28,9.47,6.07a1.63,1.63,0,0,0,1.37-.69,1.33,1.33,0,0,0-.37-1.51,5.21,5.21,0,0,0-1.44-.85c-3.26-1.6-4.82-4.38-5.33-7.84s-.07-5.85,2.13-8.58C123.81,110.27,125.93,108.3,127.58,105.94Z"/><path class="b0ef48e7-3229-486a-b777-a15b1ecd1e1b" d="M278.09,89a9.06,9.06,0,0,0-2.56-1.24,3.57,3.57,0,0,0-1.37-.24,1.25,1.25,0,0,0-1.09.76c-.21.62.29,1.24.72,1.74a17,17,0,0,1,3.78,7.72c.14.69.24,1.39.32,2.09.64,5.2-1.31,7.4-4.9,10.59-5.69,5.07-4.18,11.1-.36,16.88.46.69,2,1.76,2.8,1.25a1.26,1.26,0,0,0,.48-1.27,4.77,4.77,0,0,0-.54-1.33,12.22,12.22,0,0,1,.12-10.87c1.66-3.24,5.1-4.8,6.79-8C285.15,101.6,283.36,92.68,278.09,89Z"/><path class="b0ef48e7-3229-486a-b777-a15b1ecd1e1b" d="M298,99.07a6.94,6.94,0,0,0-4.34-1.52.66.66,0,0,0-.5.14.72.72,0,0,0-.15.47,5.76,5.76,0,0,0,.31,2.06,15,15,0,0,0,.66,1.55,20.26,20.26,0,0,1,1.76,7.42c.17,4-1.44,6.29-3.5,9.45a10.39,10.39,0,0,0-.64,9.91c.61,1.39,3.28,6.26,5.24,4.8a2,2,0,0,0,.41-2.25c-.28-.77-.82-1.43-1.14-2.18a6.56,6.56,0,0,1-.46-2.56,12.93,12.93,0,0,1,1.82-7c1.31-2,3.31-3.36,4.32-5.6C303.73,109.49,302.09,102.22,298,99.07Z"/><path class="b0ef48e7-3229-486a-b777-a15b1ecd1e1b" d="M103.75,100.66a18.92,18.92,0,0,0-3.83-1.1c-.35-.07-.77-.12-1,.14a.74.74,0,0,0,.06,1,2.65,2.65,0,0,0,.87.56c10.14,5.1.55,16-.66,23a11.66,11.66,0,0,0,4.23,11.41c.86.68,3.91,2.09,5,1.35,1.39-1-3.65-5.57-4.26-6.68-2.89-5.25,2.4-12,3.9-16.86a12.74,12.74,0,0,0-.32-9A7.37,7.37,0,0,0,103.75,100.66Z"/><path class="b0ef48e7-3229-486a-b777-a15b1ecd1e1b" d="M174.28,240.91c.14.37.4,1,.78,1.81s.83,1.81,1.33,2.9.83,1.85,1,2.27.37,1,.6,1.63a20.23,20.23,0,0,0,.91,2.19c.39.79.69,1.36.91,1.71a3.93,3.93,0,0,0,.74.86,4,4,0,0,0,.91.58,5.27,5.27,0,0,0,1.24.36,1.48,1.48,0,0,0,1-.25,1,1,0,0,0,.43-.67,4.25,4.25,0,0,0,0-.8,9.83,9.83,0,0,0-.15-1.2,12.44,12.44,0,0,0-1.09-2.77l-2.07-4.28a12.59,12.59,0,0,0,3.7-1.4q1.65,3.6,1.86,4.3c.14.46.31.93.5,1.41a12.61,12.61,0,0,0,.84,1.73c.38.66.64,1,.81,1.06a1.31,1.31,0,0,0,.83-.29,2.76,2.76,0,0,0,.85-.73,8.27,8.27,0,0,0,.54-.87,1.75,1.75,0,0,0,.16-1.15,6.15,6.15,0,0,0-.3-1.18c-.13-.35-.41-1-.85-1.87A27.29,27.29,0,0,0,188,243.2c-.75-1.15-1.27-2-1.56-2.5s-.61-1.08-1-1.69-.66-1.12-.89-1.52a4.93,4.93,0,0,0-.82-1.1,1.79,1.79,0,0,0-1.19-.55,1.46,1.46,0,0,0-.94.13.68.68,0,0,0-.17.66,9,9,0,0,0,.68,1.82l1.56,3.46a10.29,10.29,0,0,0-3.83,1.13,39.18,39.18,0,0,0-2.51-4.37q-.9-1.23-1.47-1.35a1.84,1.84,0,0,0-1.44.58,1.46,1.46,0,0,0-.63,1.58A14.42,14.42,0,0,0,174.28,240.91Z"/><path class="b0ef48e7-3229-486a-b777-a15b1ecd1e1b" d="M194.7,250.39a3.09,3.09,0,0,0,1.34.3,24.7,24.7,0,0,0,3.85-.33,7.22,7.22,0,0,0,3.81-2.23,4.66,4.66,0,0,0,.93-1.38,13.4,13.4,0,0,0,.55-1.52,9.31,9.31,0,0,0-.35-3.33,9.81,9.81,0,0,0-1.23-2.69,7.42,7.42,0,0,0-1.56-1.79,4.48,4.48,0,0,0-1.74-.88q-1.26,0-2.64-.06a3.42,3.42,0,0,0-2.41.8,5.89,5.89,0,0,0-1.58,2.52,18.5,18.5,0,0,0-.66,3q-.31,4.53.37,5.92A3.61,3.61,0,0,0,194.7,250.39Zm1.46-5.16a2.81,2.81,0,0,1,.58-1.45,1.87,1.87,0,0,1,1.2-.77,2.52,2.52,0,0,1,1.21.07,2.85,2.85,0,0,1,.93.53,1.42,1.42,0,0,1,.28,1.31,4.28,4.28,0,0,1-1.6,2.28l-.67.37a1.58,1.58,0,0,1-1.57-.78A2.83,2.83,0,0,1,196.16,245.23Z"/><path class="b0ef48e7-3229-486a-b777-a15b1ecd1e1b" d="M208.89,252.82c.31,0,.8-.34,1.49-1a13.13,13.13,0,0,0,2.22-3.35q1.2-2.37,2.46-4.69l1.86,1a3.57,3.57,0,0,0,1.51.45,1.65,1.65,0,0,0,1.21-1.41,1.54,1.54,0,0,0-.36-1.71c-.93-.33-1.75-.66-2.47-1a4.92,4.92,0,0,0,1.67-2.8,2.44,2.44,0,0,0-.11-1.66,5.61,5.61,0,0,0-2-.68,1.22,1.22,0,0,0-1.06.38c-.23.28-.45.55-.64.8l-.95,2.29a2.84,2.84,0,0,1-1.15-1,2.58,2.58,0,0,0-1.35-.93,1.81,1.81,0,0,0-1.31-.05,1.16,1.16,0,0,0-.57.54c-.1.21-.24.5-.41.88a1.62,1.62,0,0,0,0,1.31,2.22,2.22,0,0,0,1.21,1.18l1.82.85-2.75,5.88a5.55,5.55,0,0,0-1.12,1.15,3.19,3.19,0,0,0-.45,1.38,3.24,3.24,0,0,0,.3,1.79A1.39,1.39,0,0,0,208.89,252.82Z"/><path class="b0ef48e7-3229-486a-b777-a15b1ecd1e1b" d="M158.91,283.68a1.65,1.65,0,0,0,1.07-.43c.3-.27.57-.53.83-.79a2.35,2.35,0,0,0,.56-.89,1.61,1.61,0,0,0,.06-1,1.4,1.4,0,0,0-.41-.72,1.64,1.64,0,0,0-.67-.34,3.83,3.83,0,0,0-.87-.11,3.64,3.64,0,0,1-1.2-.33,3.2,3.2,0,0,1-1.15-.76,2.35,2.35,0,0,1-.57-1.08,3,3,0,0,1,0-1.26,2.33,2.33,0,0,1,.48-1,2.15,2.15,0,0,1,1.05-.62,4.48,4.48,0,0,1,1.39-.22c.46,0,.88,0,1.26,0s.95,0,1.71.11a16.58,16.58,0,0,1,2,.24c.57.1,1.07.2,1.48.29a4.57,4.57,0,0,1,1.26.48,3.6,3.6,0,0,1,1.08.86,2.14,2.14,0,0,1,.46,1.4,1.22,1.22,0,0,1-.48,1.19,2.85,2.85,0,0,1-1,.37c-.34,0-.76.08-1.25.11a4.59,4.59,0,0,0-1.4.28,1.2,1.2,0,0,0-.8.68,3.59,3.59,0,0,0-.1,1.24,3.36,3.36,0,0,0,.23,1.2,1.6,1.6,0,0,0,.48.6,2.13,2.13,0,0,0,.8.37,5,5,0,0,0,.86.16q.36,0,2-.15a9.67,9.67,0,0,0,2.47-.5,4.83,4.83,0,0,0,1.37-.78,2.83,2.83,0,0,0,.8-1,10.86,10.86,0,0,0,.46-1.3,7.38,7.38,0,0,0,.27-1.42,15.17,15.17,0,0,0,0-1.89,5.2,5.2,0,0,0-.38-2,5,5,0,0,0-.89-1.43,5.2,5.2,0,0,0-1.16-1,4.81,4.81,0,0,0-1.29-.53,10.47,10.47,0,0,0-1.34-.24c-.45-.05-1-.09-1.63-.11s-1.67,0-3.11.05l-3.07.11c-.59,0-1.13.06-1.61.12a6.9,6.9,0,0,0-1.58.4,4.84,4.84,0,0,0-1.56,1,11.88,11.88,0,0,0-1.08,1.11,3.21,3.21,0,0,0-.59,1.2,7,7,0,0,0-.24,1.7c0,.65,0,1.33,0,2a6.74,6.74,0,0,0,.51,2.5,4.86,4.86,0,0,0,.62.87,5,5,0,0,0,.94.66,4,4,0,0,0,1.47.52A6.38,6.38,0,0,0,158.91,283.68Z"/><path class="b0ef48e7-3229-486a-b777-a15b1ecd1e1b" d="M169.51,295.38a5.11,5.11,0,0,0,0-3,20.18,20.18,0,0,0-1-2.43c1-.6,2.08-1.23,3.28-1.89a6.26,6.26,0,0,0,2.59-2.5,1.69,1.69,0,0,0-.38-1.12,1,1,0,0,0-1-.46,16.45,16.45,0,0,0-3.21,1.17l-8.39,4.17c-1.48.63-2.34,1-2.59,1.13l-1.14.6a2.66,2.66,0,0,0-1,.78,2.7,2.7,0,0,0-.1,1.45,2.84,2.84,0,0,0,.71,1.31,2.93,2.93,0,0,0,1.92.67,16.52,16.52,0,0,0,3-1.55,5.73,5.73,0,0,0,1.38-1.08,7.12,7.12,0,0,0,2.1-.3c.32.78.26.71.23,1.06a2.76,2.76,0,0,1-.57,1.32,2.72,2.72,0,0,1-1.18,1.06c-.43.19-1.31.61-2.62,1.26s-1.94,1.27-1.86,1.83a5.86,5.86,0,0,0,.37,1.46,1.51,1.51,0,0,0,.71.82c.31.13,1.14-.14,2.5-.82a22.78,22.78,0,0,0,2.66-1.45l1.76-1.31A6.47,6.47,0,0,0,169.51,295.38Z"/><path class="b0ef48e7-3229-486a-b777-a15b1ecd1e1b" d="M179.13,300.36c-.64-.54-1.29-1.12-2-1.76a3.37,3.37,0,0,0-2.34-1,6,6,0,0,0-2.85.89,18.57,18.57,0,0,0-2.44,1.84q-3.19,3.22-3.57,4.73a3.63,3.63,0,0,0-.1,2.14,3.08,3.08,0,0,0,.83,1.1,24.26,24.26,0,0,0,3.13,2.25,7.26,7.26,0,0,0,4.35.79,4.51,4.51,0,0,0,1.6-.45,15.39,15.39,0,0,0,1.41-.78,9.39,9.39,0,0,0,1.9-2.77,9.92,9.92,0,0,0,.82-2.84,7.44,7.44,0,0,0,0-2.37A4.63,4.63,0,0,0,179.13,300.36Zm-5.41,6.41a4.26,4.26,0,0,1-2.7.69l-.74-.15a1.61,1.61,0,0,1-.69-1.62,2.63,2.63,0,0,1,2.12-2.14,1.87,1.87,0,0,1,1.42.19,2.51,2.51,0,0,1,.87.84,2.73,2.73,0,0,1,.36,1C174.41,306,174.2,306.34,173.72,306.77Z"/><path class="b0ef48e7-3229-486a-b777-a15b1ecd1e1b" d="M191.76,308.18a5.2,5.2,0,0,0-.86-1.54,4.59,4.59,0,0,0-1.56-1.18,9.14,9.14,0,0,0-2-.73,3.59,3.59,0,0,0-1.9,0,3.46,3.46,0,0,0-1.51.86,8.37,8.37,0,0,0-1.34,2.08,13.14,13.14,0,0,0-1.13,3.78c-.25,1.53-.4,2.67-.46,3.43a5.35,5.35,0,0,0,.07,1.73,2.7,2.7,0,0,0,.52,1.06,3,3,0,0,0,1,.77l2.1.78a3.59,3.59,0,0,0,1.89.21,4.93,4.93,0,0,0,1.71-.61,3.5,3.5,0,0,0,1.16-1,7.56,7.56,0,0,0,.62-1.2,1.77,1.77,0,0,0,0-1.32,1.26,1.26,0,0,0-.93-.82.88.88,0,0,0-1,.56c-.93.93-1.54,1.39-1.83,1.39a2.28,2.28,0,0,1-.92-.18c-.32-.12-.59-.59-.8-1.41a6.05,6.05,0,0,1,.66-3.57c.66-1.57,1.24-2.34,1.74-2.32a3.26,3.26,0,0,1,1.36.35,4.57,4.57,0,0,1,1.46,2.07,2.15,2.15,0,0,0,2-.05,2.68,2.68,0,0,0,.38-1.55A6.81,6.81,0,0,0,191.76,308.18Z"/><path class="b0ef48e7-3229-486a-b777-a15b1ecd1e1b" d="M205.1,309.06a7.89,7.89,0,0,0-1.72-1.64,4.53,4.53,0,0,0-1.81-.72q-1.26.12-2.64.18a3.46,3.46,0,0,0-2.33,1,6,6,0,0,0-1.34,2.66,19,19,0,0,0-.39,3c.06,3,.36,5,.9,5.85a3.67,3.67,0,0,0,1.47,1.57,3,3,0,0,0,1.36.17,24.17,24.17,0,0,0,3.8-.67,7.16,7.16,0,0,0,3.59-2.57,4.38,4.38,0,0,0,.8-1.45,13,13,0,0,0,.42-1.56,9.5,9.5,0,0,0-.65-3.3A10.22,10.22,0,0,0,205.1,309.06Zm-4.11,8.4-.63.43a1.62,1.62,0,0,1-1.64-.64,2.71,2.71,0,0,1-.49-1.52,2.66,2.66,0,0,1,.44-1.49,1.85,1.85,0,0,1,1.13-.88,2.51,2.51,0,0,1,1.21,0,2.78,2.78,0,0,1,1,.45c.3.21.43.63.4,1.28A4.34,4.34,0,0,1,201,317.46Z"/><path class="b0ef48e7-3229-486a-b777-a15b1ecd1e1b" d="M213.33,307.4l-1.1-3-1.72-3.86a3.1,3.1,0,0,0-2.32-.79l-1.52.19a2,2,0,0,0-.81.36,1.66,1.66,0,0,0-.63.86,34.89,34.89,0,0,1,2.63,3.74,26.94,26.94,0,0,1,1.94,3.75c.49,1.19.9,2.22,1.22,3.08s.59,1.71.81,2.53a6.6,6.6,0,0,0,1.44,2.79,3.37,3.37,0,0,0,1.67.56,9,9,0,0,0,1.34-.75c.45-.31.59-.94.43-1.91Z"/><path class="b0ef48e7-3229-486a-b777-a15b1ecd1e1b" d="M227.2,303.49a12.12,12.12,0,0,1-3.22-2.68,6.31,6.31,0,0,0-2.43-2,6.49,6.49,0,0,0-1.8-.34,3.37,3.37,0,0,0-1.85.64,6.37,6.37,0,0,0-1.43,1.13c-.25.31-.49.62-.71.93a2.47,2.47,0,0,0-.44,1.08,2.72,2.72,0,0,0,.12,1.26,3.48,3.48,0,0,1,.2,1.32,2.8,2.8,0,0,0,.56,1.56,1.72,1.72,0,0,0,1.34.93,1.93,1.93,0,0,0,1.05-.13,1.28,1.28,0,0,0,.48-.54,5.7,5.7,0,0,0,.34-.76,3.46,3.46,0,0,0,.08-1.36,6.27,6.27,0,0,1,0-1.35,1,1,0,0,1,.3-.6,2.06,2.06,0,0,1,.61-.33.91.91,0,0,1,.83.17,3.6,3.6,0,0,1,.69.59,1.52,1.52,0,0,1,.33.61,2.2,2.2,0,0,1,0,.89,2.42,2.42,0,0,1-.62,1.13,13.74,13.74,0,0,1-1.13,1.17,3,3,0,0,0-.83,1.27,2.21,2.21,0,0,0-.09,1.23,3,3,0,0,0,.49,1.06c.23.34.5.72.8,1.13a2.26,2.26,0,0,0,1.46.83,5,5,0,0,0,1.29.15,8.94,8.94,0,0,0,1.12-.35l1.16-.93a5.34,5.34,0,0,0,1.08-1.1,2,2,0,0,0,.45-1c0-.24,0-.94-.15-2.09a2.09,2.09,0,0,1,1-.08,5.77,5.77,0,0,0,1.43,0,1.68,1.68,0,0,0,1-.34c.14-.16.08-.45-.16-.85A28.09,28.09,0,0,0,227.2,303.49ZM224,309.82a2.06,2.06,0,0,1-1,0,1.48,1.48,0,0,1,.26-1.78.91.91,0,0,1,.75-.39.76.76,0,0,1,.6.25,1.66,1.66,0,0,1,.32.52,1.35,1.35,0,0,1,.11.55A1.83,1.83,0,0,1,224,309.82Z"/><path class="b0ef48e7-3229-486a-b777-a15b1ecd1e1b" d="M233.06,292.78q-2.35-1.23-4.67-2.5c.43-.75.78-1.37,1-1.85a3.59,3.59,0,0,0,.46-1.5,1.67,1.67,0,0,0-1.4-1.23,1.55,1.55,0,0,0-1.72.36,24.91,24.91,0,0,1-1,2.46,4.92,4.92,0,0,0-2.79-1.69,2.44,2.44,0,0,0-1.66.1,5.57,5.57,0,0,0-.69,2A1.21,1.21,0,0,0,221,290c.28.23.54.45.8.64l2.28,1a2.9,2.9,0,0,1-1,1.14,2.54,2.54,0,0,0-.94,1.35,1.74,1.74,0,0,0-.06,1.3,1.23,1.23,0,0,0,.54.58l.87.42a1.66,1.66,0,0,0,1.31,0,2.25,2.25,0,0,0,1.19-1.2c.29-.61.57-1.21.86-1.81l5.87,2.78a5.64,5.64,0,0,0,1.13,1.13,3.38,3.38,0,0,0,1.38.46,3.22,3.22,0,0,0,1.79-.29,1.4,1.4,0,0,0,.36-.9c0-.31-.34-.81-1-1.49A13,13,0,0,0,233.06,292.78Z"/><path class="b0ef48e7-3229-486a-b777-a15b1ecd1e1b" d="M241.92,275.73a4.72,4.72,0,0,0-.75-1.44,4.81,4.81,0,0,0-1.22-1.12,3.68,3.68,0,0,0-1.36-.55,5.5,5.5,0,0,0-1.25-.09,1.29,1.29,0,0,0-.79.21,1,1,0,0,0-.23.71,1.73,1.73,0,0,0,.17.91,3.55,3.55,0,0,0,.71.86,6.51,6.51,0,0,0,.84.67,1.68,1.68,0,0,1,.61.69,1.47,1.47,0,0,1,.07,1.18,2.23,2.23,0,0,1-.6,1.06,3.79,3.79,0,0,1-1,.65,4,4,0,0,1-2.26-.11,3.46,3.46,0,0,1-.26-1.59,6.45,6.45,0,0,0,.18-1,6.85,6.85,0,0,0-.14-1.84,11.43,11.43,0,0,0-.41-1.73,1.76,1.76,0,0,0-.83-.91,4.25,4.25,0,0,0-1.87.14,6.77,6.77,0,0,0-1.82,1,4.52,4.52,0,0,0-1.51,1.93,7.19,7.19,0,0,0-.55,2.6,4.12,4.12,0,0,0,.07,2.13,5.36,5.36,0,0,0,1,1.81,3.66,3.66,0,0,0,1.68,1.18,13,13,0,0,0,2.63.54,20.61,20.61,0,0,0,3.65.06,11.47,11.47,0,0,0,3-.48,2.91,2.91,0,0,0,1.53-1.37,9.32,9.32,0,0,0,.92-3.25A9.57,9.57,0,0,0,241.92,275.73Zm-10.64,4.06a1,1,0,0,1-.69-.49,6.28,6.28,0,0,1-.25-1.08,3.84,3.84,0,0,1,.06-1.51,1.81,1.81,0,0,1,.51-1,1.47,1.47,0,0,1,1.11-.17,27.41,27.41,0,0,1,.41,4.24A2.05,2.05,0,0,1,231.28,279.79Z"/><path class="b0ef48e7-3229-486a-b777-a15b1ecd1e1b" d="M165.81,260.75c3.82,0,3.82-5.93,0-5.93S162,260.75,165.81,260.75Z"/><path class="b0ef48e7-3229-486a-b777-a15b1ecd1e1b" d="M229.89,260.54c3.82,0,3.83-5.93,0-5.93S226.06,260.54,229.89,260.54Z"/><path class="b0ef48e7-3229-486a-b777-a15b1ecd1e1b" d="M198.63,298.25a23,23,0,0,0,10.55-2.91,22.63,22.63,0,0,0,8-7.58,31.07,31.07,0,0,0,3-10.7,22,22,0,0,0-6.3-15.2c-.12-.13-.26-.23-.39-.35a.83.83,0,0,0-.59-.51,28.75,28.75,0,0,0-3.61-2.31,21,21,0,0,0-5.06-2.33,18.26,18.26,0,0,0-16.06,2.47,20.74,20.74,0,0,0-4.44,3.26c-1.45,1.45-5.67,4.71-2.15,6.39.81.38,1.61.54,2.37,1q.71.42,1.44.78a14.8,14.8,0,0,0-1.75,2.53c-.63,1.16-1.74,3.13-1.36,4.5.45,1.63,2.59,1.78,4,2a17.42,17.42,0,0,0,3.38.1,23.74,23.74,0,0,0-.44,4.69,25.68,25.68,0,0,0,.61,5.24c.48,2.11,1.34,6.05,2.88,7.63a3.31,3.31,0,0,0,1.07.72A12.72,12.72,0,0,0,198.63,298.25Zm15.25-30a17.8,17.8,0,0,1,1.53,4.27,12.69,12.69,0,0,1,0,9,17.65,17.65,0,0,1-1.6,4.27,17.89,17.89,0,0,1-2.9,3.53,17.59,17.59,0,0,1-3.64,2.69,17,17,0,0,1-4.18,1.71c-.37.1-.75.2-1.13.28,3.47-2.71,5.81-6.83,7.7-11C211.93,278.14,213.58,273.37,213.88,268.27Zm-27.52-3.49a26,26,0,0,1,7.72-4.7,17.45,17.45,0,0,1,4.55-.53,17.86,17.86,0,0,1,4.54.52,14.93,14.93,0,0,1,3.28,1.42,27.88,27.88,0,0,0-11.3,6.85h-.05a14.77,14.77,0,0,1-10-2.26C185.48,265.64,185.93,265.21,186.36,264.78Zm4.1,10.91a13.81,13.81,0,0,1-4.26-.09c.05-.12.09-.26.15-.38a12,12,0,0,1,2.64-3.65c1.51.43,3.17.79,3.4.41-.36.61-.72,1.24-1,1.91s-.5,1.14-.72,1.72Zm4.48-1c2.62-4.94,6.72-7.62,11.49-9.43a37.76,37.76,0,0,0-12,26.86A20.43,20.43,0,0,1,194.94,274.73Zm1.64,19.5c-.61-.1.55-7.69.7-8.43a35.21,35.21,0,0,1,2.73-8.17c2.28-4.82,6.11-10.46,10.84-13.17,1.84,2.14.77,6.1.2,8.53a47,47,0,0,1-3.24,9c-2.36,5.16-5.32,10.42-10.8,12.32Z"/><path class="e0cd873f-af87-495e-8fdd-4acebbfbca10" d="M233.64,127.86a1.4,1.4,0,0,0-.52.38,3.59,3.59,0,0,0-.66,1.29,56.49,56.49,0,0,1-3.87,8.45,2.69,2.69,0,0,0-.42,1.11c-.08,2,2.88,1.45,3.61.35a21.27,21.27,0,0,0,3.36-9.7c.05-.73,0-1.64-.72-1.91A1.05,1.05,0,0,0,233.64,127.86Z"/><path class="e0cd873f-af87-495e-8fdd-4acebbfbca10" d="M186.87,127.86a1.4,1.4,0,0,0-.52.38,3.59,3.59,0,0,0-.66,1.29,56.49,56.49,0,0,1-3.87,8.45,2.54,2.54,0,0,0-.41,1.11c-.09,2,2.87,1.45,3.6.35a21.27,21.27,0,0,0,3.36-9.7c0-.73,0-1.64-.72-1.91A1.05,1.05,0,0,0,186.87,127.86Z"/></svg>