<svg id="Light" xmlns="http://www.w3.org/2000/svg" width="1200" height="600" viewBox="0 0 1200 600">
  <metadata><?xpacket begin="﻿" id="W5M0MpCehiHzreSzNTczkc9d"?>
<x:xmpmeta xmlns:x="adobe:ns:meta/" x:xmptk="Adobe XMP Core 5.6-c142 79.160924, 2017/07/13-01:06:39        ">
   <rdf:RDF xmlns:rdf="http://www.w3.org/1999/02/22-rdf-syntax-ns#">
      <rdf:Description rdf:about=""/>
   </rdf:RDF>
</x:xmpmeta>
                                                                                                    
                                                                                                    
                                                                                                    
                                                                                                    
                                                                                                    
                                                                                                    
                                                                                                    
                                                                                                    
                                                                                                    
                                                                                                    
                                                                                                    
                                                                                                    
                                                                                                    
                                                                                                    
                                                                                                    
                                                                                                    
                                                                                                    
                                                                                                    
                                                                                                    
                                                                                                    
                           
<?xpacket end="w"?></metadata>
<defs>
    <style>
      .cls-1 {
        fill: #fff;
      }

      .cls-2 {
        fill: #9a0d0d;
        fill-rule: evenodd;
      }
    </style>
  </defs>
  <rect id="Background" class="cls-1" width="1200" height="600"/>
  <path id="Thor" class="cls-2" d="M601.155,268.953h10.689a10.38,10.38,0,0,1,4.135.725,7.08,7.08,0,0,1,2.686,1.961,8.759,8.759,0,0,1,1.558,2.873,17.913,17.913,0,0,1,.752,3.465l0.537,4.726h5.693l-0.537-19.228H564.739L564.2,282.7H569.9l0.59-4.726a19.178,19.178,0,0,1,.725-3.465,8.128,8.128,0,0,1,1.558-2.873,7.354,7.354,0,0,1,2.686-1.961,10.02,10.02,0,0,1,4.055-.725h10.527v61.069a8.9,8.9,0,0,1-.725,3.895,5.215,5.215,0,0,1-1.96,2.229,7.611,7.611,0,0,1-2.874.993,23.765,23.765,0,0,1-3.464.242h-2.525V342H612.7v-4.619h-2.524a21.781,21.781,0,0,1-3.491-.269,6.91,6.91,0,0,1-2.874-1.1,5.774,5.774,0,0,1-1.934-2.39,9.91,9.91,0,0,1-.725-4.136V268.953Zm59.512,68.428a23.735,23.735,0,0,1-3.464-.242,7.593,7.593,0,0,1-2.874-.993,5.209,5.209,0,0,1-1.96-2.229,8.884,8.884,0,0,1-.725-3.895v-23.2a30.966,30.966,0,0,1,.8-7.331,16.548,16.548,0,0,1,2.444-5.64,11.1,11.1,0,0,1,4.136-3.6,13.019,13.019,0,0,1,5.935-1.263,14.269,14.269,0,0,1,5.64.994,8.912,8.912,0,0,1,3.732,2.927,12.674,12.674,0,0,1,2.068,4.727,28.553,28.553,0,0,1,.645,6.391V342H696.17v-4.619h-0.322a19.841,19.841,0,0,1-3.384-.269,6.2,6.2,0,0,1-2.686-1.1,5.485,5.485,0,0,1-1.772-2.39,11,11,0,0,1-.645-4.136v-26a32.434,32.434,0,0,0-1.289-9.721,16.975,16.975,0,0,0-3.759-6.687,15.1,15.1,0,0,0-6.1-3.868,25.191,25.191,0,0,0-8.3-1.262q-11.226,0-16.167,9.99h-0.537q0.106-1.557.215-3.169,0.106-1.4.161-3.034t0.054-3.142v-24.17H631.4v4.619h0.859a23.617,23.617,0,0,1,3.464.242,7.085,7.085,0,0,1,2.874,1.047,5.588,5.588,0,0,1,1.96,2.283,8.879,8.879,0,0,1,.725,3.894v58.974a9.894,9.894,0,0,1-.725,4.136,5.772,5.772,0,0,1-1.933,2.39,6.894,6.894,0,0,1-2.847,1.1,21.664,21.664,0,0,1-3.518.269H631.4V342h29.594v-4.619h-0.322Zm94.236-38.43a25.615,25.615,0,0,0-5.049-9.507,20.357,20.357,0,0,0-8.03-5.64,29.1,29.1,0,0,0-10.688-1.853q-12.784,0-19.309,7.52T705.3,312.4a46.846,46.846,0,0,0,1.745,13.509A25.853,25.853,0,0,0,712.1,335.5a20.47,20.47,0,0,0,8.03,5.693,28.723,28.723,0,0,0,10.688,1.88q12.677,0,19.256-7.573t6.579-23.1A46.319,46.319,0,0,0,754.9,298.951Zm-38.162,2.712a23.623,23.623,0,0,1,2.578-7.707,11.884,11.884,0,0,1,4.619-4.646,14.372,14.372,0,0,1,6.983-1.558,14.53,14.53,0,0,1,7.009,1.558,11.829,11.829,0,0,1,4.646,4.646,23.6,23.6,0,0,1,2.578,7.707,63.194,63.194,0,0,1,.806,10.742,66.339,66.339,0,0,1-.779,10.8,23.857,23.857,0,0,1-2.551,7.815,12.19,12.19,0,0,1-4.619,4.754,13.993,13.993,0,0,1-6.983,1.611,14.139,14.139,0,0,1-7.009-1.611,12.3,12.3,0,0,1-4.673-4.754,23.839,23.839,0,0,1-2.605-7.815,64.168,64.168,0,0,1-.8-10.8A63.2,63.2,0,0,1,716.741,301.663Zm81.372,35.718h-3.061a23.759,23.759,0,0,1-3.465-.242,7.594,7.594,0,0,1-2.873-.993,5.217,5.217,0,0,1-1.961-2.229,8.9,8.9,0,0,1-.725-3.895V312.728q0-2.1.215-4.673a47.435,47.435,0,0,1,.725-5.183,39.682,39.682,0,0,1,1.343-5.076,20.2,20.2,0,0,1,2.041-4.378,10.863,10.863,0,0,1,2.82-3.061,6.112,6.112,0,0,1,3.652-1.155q3.223,0,4.512,2.014t1.289,6.58a17.092,17.092,0,0,0,4.727-.564,8.538,8.538,0,0,0,3.169-1.611,6.179,6.179,0,0,0,1.8-2.5,8.67,8.67,0,0,0,.564-3.169,6.842,6.842,0,0,0-2.927-5.908q-2.929-2.1-8.943-2.095a16.9,16.9,0,0,0-6.07.94,11.588,11.588,0,0,0-4.055,2.578,15.324,15.324,0,0,0-2.766,3.814q-1.128,2.175-2.2,4.646h-0.537l-2.1-10.9H766.37v4.62h0.322a21.435,21.435,0,0,1,3.465.268,7.4,7.4,0,0,1,2.873,1.074,5.6,5.6,0,0,1,1.961,2.283,8.9,8.9,0,0,1,.725,3.894v34.321a9.91,9.91,0,0,1-.725,4.136,5.774,5.774,0,0,1-1.934,2.39,6.894,6.894,0,0,1-2.847,1.1,21.655,21.655,0,0,1-3.518.269H766.37V342h31.743v-4.619Z"/>
  <path id="Signet" class="cls-2" d="M513.469,244.847a6.9,6.9,0,0,0-4.82-2.119,7.152,7.152,0,0,0-1.7.283l-56.143,13.84,24.244-65.388a5.74,5.74,0,0,0,.708-2.542,6.172,6.172,0,0,0-6.379-5.931h-46.5a6.3,6.3,0,0,0-6.238,4.519l-28.5,116.512a5.53,5.53,0,0,0,1.843,5.508,7.632,7.632,0,0,0,6.1,1.412l57.56-14.264L425.712,410.788a5.922,5.922,0,0,0,4.253,6.921,11.183,11.183,0,0,0,1.985.282,6.75,6.75,0,0,0,5.954-3.531l76.557-163.4A5.586,5.586,0,0,0,513.469,244.847Z"/>
</svg>
